<?xml version="1.0" encoding="UTF-8" standalone="no"?>
<!-- Created with Inkscape (http://www.inkscape.org/) -->

<svg
   width="210mm"
   height="297mm"
   viewBox="0 0 210 297"
   version="1.1"
   id="svg5"
   xml:space="preserve"
   inkscape:version="1.2.2 (b0a8486541, 2022-12-01)"
   sodipodi:docname="axe.svg"
   xmlns:inkscape="http://www.inkscape.org/namespaces/inkscape"
   xmlns:sodipodi="http://sodipodi.sourceforge.net/DTD/sodipodi-0.dtd"
   xmlns="http://www.w3.org/2000/svg"
   xmlns:svg="http://www.w3.org/2000/svg"><sodipodi:namedview
     id="namedview7"
     pagecolor="#ffffff"
     bordercolor="#000000"
     borderopacity="0.25"
     inkscape:showpageshadow="2"
     inkscape:pageopacity="0.0"
     inkscape:pagecheckerboard="0"
     inkscape:deskcolor="#d1d1d1"
     inkscape:document-units="mm"
     showgrid="false"
     inkscape:zoom="0.37324569"
     inkscape:cx="-269.25964"
     inkscape:cy="304.08924"
     inkscape:window-width="1534"
     inkscape:window-height="831"
     inkscape:window-x="0"
     inkscape:window-y="0"
     inkscape:window-maximized="1"
     inkscape:current-layer="layer1" /><defs
     id="defs2" /><g
     inkscape:label="Layer 1"
     inkscape:groupmode="layer"
     id="layer1"><path
       style="fill:#000000;stroke-width:0.211243"
       d="m 20.693938,207.39233 c -2.896967,-2.77865 -3.246207,-3.18652 -3.063034,-3.57724 0.176819,-0.37717 8.371433,-8.95022 19.233287,-20.12149 1.638007,-1.68467 4.20601,-4.34025 5.70667,-5.90128 1.50066,-1.56104 4.534609,-4.69719 6.742106,-6.96923 2.207497,-2.27203 5.388703,-5.55769 7.069347,-7.30145 1.680645,-1.74376 4.298093,-4.45378 5.816551,-6.02226 2.593959,-2.67942 11.999869,-12.42427 18.146779,-18.8007 3.582539,-3.7163 12.049673,-12.4736 18.283374,-18.90993 1.689822,-1.74473 4.267562,-4.40641 5.728322,-5.91482 4.1032,-4.23704 32.08586,-33.226021 35.19671,-36.462461 1.52164,-1.583071 2.82945,-3.07625 2.90623,-3.318181 0.19549,-0.615919 -0.1967,-1.207191 -1.82522,-2.751747 l -1.4139,-1.341011 -1.64913,-0.182307 c -2.4349,-0.269173 -3.2166,-0.42055 -3.35866,-0.650402 -0.14064,-0.227568 -3.18186,-11.722986 -3.37795,-12.768197 -0.14715,-0.784414 0.31574,-1.353467 1.10096,-1.353467 0.83658,0 12.6741,3.216369 12.98621,3.52848 0.0933,0.09333 0.40295,1.041363 0.68807,2.10675 0.28512,1.065395 0.5985,2.064659 0.6964,2.220595 0.27719,0.44146 2.66332,2.6233 3.13839,2.869702 0.30735,0.159401 0.60718,0.144247 1.08007,-0.05461 0.62249,-0.26174 0.67234,-0.373788 1.01638,-2.284563 0.19899,-1.105123 0.6371,-2.591467 0.97359,-3.302979 0.74168,-1.568276 2.40205,-3.374085 3.87005,-4.209061 1.40423,-0.798697 7.28666,-4.20669 14.0757,-8.15477 8.70057,-5.059702 8.9198,-5.182951 9.21942,-5.182951 0.63881,0 0.47606,0.376726 -2.78339,6.442933 -0.37456,0.6971 -1.46583,2.740888 -2.42506,4.541739 -0.95921,1.800851 -2.40805,4.510059 -3.21962,6.020451 -0.81159,1.510392 -2.15341,4.014419 -2.98185,5.564515 -1.55891,2.916888 -2.46745,4.032639 -4.14681,5.092541 -1.10001,0.694266 -2.96013,1.369274 -4.70589,1.707693 -1.42964,0.277149 -1.98583,0.856389 -1.65581,1.724435 0.28205,0.741843 2.86184,3.248257 4.33662,4.213277 2.12451,1.390177 3.51221,1.525218 4.77283,0.464478 0.7559,-0.636039 1.26589,-2.196043 1.26589,-3.872224 0,-0.653811 0.11882,-1.344077 0.26405,-1.533921 0.14523,-0.189843 1.11959,-0.583352 2.16525,-0.874465 4.69221,-1.306304 9.32688,-3.156967 15.15123,-6.049991 2.84964,-1.415454 3.15776,-1.523342 3.67601,-1.287207 l 0.56567,0.257732 -0.1313,3.422635 c -0.3686,9.608611 -2.27741,17.922303 -5.63594,24.547008 -3.58133,7.064201 -8.40035,11.970181 -15.42124,15.699521 -5.84516,3.10481 -13.23638,5.11435 -22.60309,6.14536 -6.71447,0.73908 -6.26669,0.72319 -6.75037,0.23951 -0.23756,-0.23755 -0.43191,-0.61565 -0.43191,-0.84023 0,-0.22457 0.72216,-1.48411 1.60481,-2.79898 4.02038,-5.98909 7.07565,-12.267022 8.42646,-17.314541 0.2808,-1.049283 0.62184,-2.04188 0.75785,-2.20576 0.1579,-0.190259 0.66659,-0.297963 1.40731,-0.297963 2.41832,0 3.78125,-1.542576 3.60219,-4.076966 -0.0533,-0.753835 -0.29534,-1.731142 -0.57033,-2.302558 -0.56632,-1.176764 -2.83117,-3.715513 -3.56284,-3.993684 -0.70158,-0.266746 -1.55262,0.28443 -3.18322,2.061608 -0.70858,0.772254 -2.64553,2.79538 -4.30435,4.495823 -1.65882,1.700452 -4.34688,4.470562 -5.97345,6.155804 -1.62658,1.685242 -5.48065,5.674304 -8.56459,8.864587 -3.08394,3.19028 -8.35693,8.65229 -11.71775,12.13782 -3.36081,3.48552 -8.96377,9.28416 -12.45102,12.88587 -3.48725,3.6017 -7.292463,7.54324 -8.456029,8.75896 -1.163567,1.21572 -2.448284,2.54978 -2.854928,2.96457 -2.896477,2.95453 -9.208806,9.48433 -31.142253,32.21516 -8.146822,8.443 -10.563178,10.94099 -14.508172,14.99831 -3.332648,3.42754 -10.618571,10.97466 -18.965735,19.64567 -2.125053,2.20749 -4.02178,4.03897 -4.214949,4.06995 -0.21049,0.0338 -1.661356,-1.20031 -3.620996,-3.07992 z m 5.29536,0.64711 c 1.402338,-1.46163 7.206537,-7.47667 25.530843,-26.45828 5.794743,-6.0026 9.443936,-9.77612 14.909972,-15.41791 1.746284,-1.80244 7.112953,-7.36473 11.925929,-12.36064 4.812978,-4.99592 11.700509,-12.12539 15.305624,-15.84328 3.605115,-3.71789 7.791434,-8.04311 9.302944,-9.61159 1.5115,-1.56848 4.17678,-4.32522 5.92285,-6.12607 1.74606,-1.80085 5.73908,-5.93593 8.87336,-9.18906 4.72291,-4.902 10.29394,-10.67774 12.24324,-12.69315 0.23457,-0.24253 1.66383,-1.715955 3.17611,-3.274275 1.51229,-1.558321 4.26468,-4.401796 6.11643,-6.318838 10.6437,-11.018987 10.48908,-10.891354 12.03586,-9.935388 1.05866,0.65429 2.69782,2.563451 3.41339,3.975648 0.80515,1.588995 0.9687,4.171824 0.33693,5.320724 -0.7221,1.313123 -1.75546,1.961896 -3.34599,2.100706 -1.60162,0.139768 -1.5248,0.05357 -2.17981,2.446318 -1.39156,5.083479 -4.87315,12.100995 -8.92927,17.997905 -0.57536,0.83648 -0.98442,1.62073 -0.909,1.74276 0.1882,0.30452 2.00228,0.27458 5.43443,-0.0897 11.18096,-1.18665 19.8006,-3.80137 26.13433,-7.92774 9.41474,-6.1336 14.65726,-15.070687 17.01426,-29.004718 0.63142,-3.732783 1.11119,-9.4885 0.97624,-11.711728 -0.0299,-0.491999 -0.67066,-0.267561 -4.30776,1.508763 -5.24588,2.562031 -8.79783,3.943369 -14.82583,5.765665 l -1.26746,0.383161 -0.12848,1.72711 c -0.17316,2.327787 -0.791,3.585909 -2.08958,4.255065 -1.95259,1.006161 -4.37309,0.07513 -7.4061,-2.848681 -2.13121,-2.054495 -2.50691,-2.784066 -2.0262,-3.934571 0.16814,-0.402418 0.39438,-0.786481 0.50276,-0.853467 0.10839,-0.06699 1.04735,-0.307361 2.08658,-0.534178 3.57485,-0.780222 5.55362,-2.140196 7.06596,-4.85631 0.81219,-1.458632 2.50327,-4.613396 5.22579,-9.74885 0.64674,-1.219934 2.44207,-4.589212 3.98962,-7.487298 1.54754,-2.898078 2.81373,-5.289769 2.81373,-5.314871 0,-0.04719 -2.2073,1.224165 -11.40716,6.570381 -2.9627,1.721682 -6.64987,3.851921 -8.19372,4.733867 -3.39721,1.940722 -4.59762,2.820808 -5.35979,3.929597 -0.77811,1.131989 -1.54738,3.251881 -1.86217,5.131622 -0.28723,1.715238 -0.69782,2.277823 -1.81546,2.487492 -0.91479,0.171616 -1.40515,-0.115872 -3.19828,-1.875046 l -1.5231,-1.494265 -0.44502,-1.953505 c -0.24477,-1.074425 -0.55997,-2.048898 -0.70046,-2.165496 -0.14049,-0.116591 -2.10662,-0.704638 -4.36919,-1.306768 -2.26257,-0.602131 -5.03771,-1.342999 -6.167,-1.646368 -1.36031,-0.365428 -2.12409,-0.480733 -2.26318,-0.341644 -0.18101,0.181014 1.43649,6.922189 2.84729,11.866459 0.35247,1.235311 0.11108,1.127558 3.47595,1.551509 l 1.79557,0.226236 1.61613,1.59828 c 2.77362,2.742988 2.78109,2.721152 -2.95189,8.621012 -6.50299,6.692273 -8.47465,8.731718 -17.25679,17.850095 -4.97955,5.17019 -10.25483,10.63612 -11.72284,12.14651 -1.46801,1.5104 -5.51209,5.69302 -8.98684,9.29473 -10.165847,10.53728 -17.714108,18.3487 -21.125635,21.86215 -1.749452,1.80172 -5.880428,6.08012 -9.179948,9.50754 -3.299521,3.42744 -8.717386,9.03596 -12.039701,12.46339 -3.322315,3.42742 -7.128822,7.37025 -8.458905,8.76183 -2.22652,2.32946 -7.578165,7.84794 -9.610845,9.91046 -1.113073,1.12941 -16.896003,17.50487 -19.625344,20.36213 l -2.102337,2.20087 2.869939,2.83041 c 1.578467,1.55673 2.959568,2.83041 3.069114,2.83041 0.109545,0 0.906005,-0.73672 1.76991,-1.63714 z m -4.061986,-1.88793 c -1.145566,-1.12549 -2.082847,-2.13397 -2.082847,-2.24105 0,-0.10709 1.21201,-1.44081 2.693357,-2.96384 4.81445,-4.94989 8.2263,-8.46841 9.059548,-9.3428 1.562646,-1.6398 13.049884,-13.52776 15.808505,-16.35997 2.616848,-2.68666 7.682005,-7.93463 20.494682,-21.23438 3.019763,-3.13456 6.877868,-7.1251 8.573568,-8.86786 1.6957,-1.74276 4.505489,-4.64208 6.243975,-6.44293 1.738486,-1.80085 6.009571,-6.22113 9.491297,-9.82283 3.481726,-3.60171 15.543613,-16.10206 26.804193,-27.77855 11.26057,-11.676507 21.09523,-21.871655 21.85478,-22.655901 0.75955,-0.784238 1.5279,-1.42589 1.70745,-1.42589 0.46966,0 4.28325,3.890715 4.19417,4.278994 -0.0679,0.295911 -4.11303,4.583719 -11.80663,12.51488 -1.69056,1.742759 -4.3051,4.450043 -5.81009,6.016179 -1.50499,1.566138 -4.21271,4.370398 -6.01717,6.231688 -1.80446,1.86129 -4.55966,4.715 -6.12266,6.34158 -1.56301,1.62658 -4.22173,4.37845 -5.90827,6.11528 -1.68654,1.73682 -3.49421,3.5985 -4.01704,4.13706 -3.56937,3.6768 -7.455018,7.69803 -17.955891,18.58243 -16.802803,17.41651 -17.28131,17.91208 -20.702951,21.44125 -1.689666,1.74275 -5.776883,5.97291 -9.082708,9.40034 -3.305825,3.42743 -7.489983,7.75264 -9.298126,9.61159 -1.80814,1.85894 -8.309606,8.58442 -14.447696,14.9455 -6.138093,6.36107 -11.257015,11.56559 -11.375384,11.56559 -0.118368,0 -1.152496,-0.92086 -2.298062,-2.04636 z m 8.690583,-5.31875 c 14.45012,-15.01157 17.157566,-17.82058 20.080672,-20.83401 5.13755,-5.29628 15.81651,-16.34123 21.959506,-22.71209 16.241152,-16.84361 23.798726,-24.66995 24.383241,-25.25037 0.748999,-0.74376 4.086586,-4.19166 11.954436,-12.34955 3.08147,-3.19506 8.30937,-8.61281 11.61754,-12.03944 3.30819,-3.42663 7.29917,-7.56172 8.86884,-9.189096 1.56968,-1.627382 5.47754,-5.668068 8.68414,-8.979319 3.2066,-3.311243 6.32557,-6.541384 6.93105,-7.178077 l 1.10087,-1.157642 -1.75775,-1.632149 c -0.96676,-0.897691 -1.81346,-1.636292 -1.88155,-1.641346 -0.0681,-0.0048 -2.39705,2.344946 -5.17547,5.222225 -2.77842,2.87728 -12.98441,13.452667 -22.67999,23.500864 -15.81969,16.39505 -22.722858,23.53937 -32.859212,34.00711 -1.743843,1.80085 -5.829459,6.03101 -9.079148,9.40035 -3.249692,3.36934 -7.287088,7.55196 -8.971989,9.29472 -1.684903,1.74277 -4.3489,4.4995 -5.919996,6.12607 -11.400062,11.80264 -15.541088,16.07499 -18.579145,19.16831 -1.910199,1.94495 -3.532912,3.63307 -3.606026,3.75137 -0.07312,0.1183 -1.453474,1.56889 -3.067464,3.22353 -1.61399,1.65463 -4.171538,4.29173 -5.68344,5.86022 -1.511902,1.56849 -3.559875,3.69078 -4.551052,4.71621 l -1.80214,1.86443 1.795572,1.67316 c 0.987564,0.92024 1.843101,1.66308 1.901193,1.65075 0.05809,-0.0123 2.909883,-2.93564 6.337312,-6.49623 z M 141.80707,113.24013 c -0.0731,-0.19052 0.56173,-1.41156 1.56505,-3.01022 3.10303,-4.94424 5.24431,-9.38572 6.79623,-14.096843 0.42101,-1.278026 0.83173,-2.429895 0.91274,-2.559715 0.081,-0.129821 0.58119,-0.28495 1.11153,-0.344726 1.34885,-0.152032 2.80948,-1.116796 3.5816,-2.365672 0.58994,-0.95421 0.63931,-1.183678 0.63931,-2.971259 0,-1.836995 -0.043,-2.022032 -0.83266,-3.577686 -1.00358,-1.977193 -3.08599,-4.148861 -4.49395,-4.686569 -0.89825,-0.343041 -0.96889,-0.339544 -2.03096,0.100655 -0.60519,0.250841 -1.19534,0.456071 -1.31146,0.456071 -0.11612,0 -1.15722,-0.949667 -2.31356,-2.110359 l -2.10244,-2.110359 0.39884,-0.675193 c 0.98326,-1.664515 0.35301,-3.197494 -2.27485,-5.533146 l -1.44145,-1.281171 -2.24072,-0.323768 c -2.20707,-0.318905 -2.24334,-0.333284 -2.41522,-0.957499 -0.62584,-2.272769 -2.49524,-9.619868 -2.49524,-9.80675 0,-0.322131 0.98185,-0.27778 2.21806,0.100176 0.58092,0.177612 2.67169,0.754577 4.64615,1.282137 1.97445,0.527559 3.70265,1.052748 3.84042,1.167087 0.13777,0.114347 0.41268,0.986018 0.61089,1.93705 l 0.3604,1.729162 1.86815,1.839086 c 2.19626,2.162087 2.96332,2.498837 4.4495,1.953417 0.50201,-0.184239 1.08403,-0.38859 1.29338,-0.454107 0.27618,-0.08644 0.91388,0.39568 2.32368,1.756755 1.06868,1.031743 2.02301,2.001769 2.12075,2.155621 0.10864,0.171017 0.003,0.685507 -0.27146,1.323845 -0.71303,1.657474 -0.39967,2.380466 2.09905,4.843032 3.14767,3.102109 5.74044,4.241915 7.967,3.502364 1.97834,-0.657092 3.11708,-2.389648 3.37734,-5.138496 0.0904,-0.954601 0.21774,-1.342033 0.46413,-1.411926 4.80954,-1.364316 10.35625,-3.491042 14.43305,-5.533928 1.4819,-0.742578 2.90032,-1.350145 3.15206,-1.350145 0.45295,0 0.45622,0.02794 0.31532,2.69336 -0.25603,4.843303 -1.36601,11.267098 -2.69196,15.579225 -4.27759,13.911269 -13.3338,22.124724 -28.54136,25.885364 -3.91186,0.96736 -7.27573,1.55267 -11.49922,2.00088 -3.59878,0.38191 -3.43925,0.38216 -3.58812,-0.006 z m 4.1499,-0.74759 c 3.45104,-0.365 8.32497,-1.21012 10.87906,-1.88636 10.87363,-2.87905 17.74922,-7.30815 22.95941,-14.789983 4.24344,-6.093576 6.93501,-15.182803 7.68141,-25.939491 l 0.15089,-2.174567 -0.71442,0.418211 c -2.56911,1.503941 -11.1976,4.985722 -14.99961,6.052666 l -1.39932,0.392694 -0.12822,1.373059 c -0.43724,4.682338 -4.2637,6.702597 -8.63809,4.560669 -2.00752,-0.982992 -5.53736,-4.343767 -6.18152,-5.885449 -0.39973,-0.956684 -0.39544,-1.360021 0.0277,-2.606397 l 0.34258,-1.009044 -1.84203,-1.717969 -1.84203,-1.71796 -0.6658,0.343137 c -0.84393,0.434945 -2.58459,0.419352 -3.41197,-0.03058 -0.75866,-0.41255 -3.75022,-3.252776 -4.05638,-3.851186 -0.11888,-0.232367 -0.38223,-1.112516 -0.58521,-1.955884 -0.20299,-0.843367 -0.43296,-1.572883 -0.51105,-1.621154 -0.13722,-0.08481 -9.21353,-2.654646 -9.37583,-2.654646 -0.0442,0 0.41599,1.877426 1.02246,4.172064 0.60648,2.29463 1.16038,4.425899 1.23089,4.73615 0.14355,0.631567 0.36263,0.70304 2.84093,0.926888 l 1.55049,0.14004 1.88304,1.719046 c 1.03568,0.945475 2.03646,2.042359 2.22398,2.43752 0.42551,0.896685 0.46268,2.477456 0.08,3.401366 l -0.29084,0.702122 1.88501,1.742304 c 1.63643,1.512548 1.94048,1.712611 2.30566,1.517171 0.81637,-0.43691 1.90217,-0.562746 2.8332,-0.328351 1.111,0.279704 3.32347,2.24497 4.37932,3.89002 1.4722,2.293712 1.97258,5.350568 1.23176,7.524767 -0.58847,1.727062 -2.44752,3.197997 -4.37586,3.4623 l -0.90526,0.12408 -0.6987,2.248466 c -1.25669,4.044121 -3.32435,8.494161 -6.09955,13.127521 -0.86987,1.4523 -1.77353,2.85055 -2.00814,3.10723 l -0.42655,0.46667 0.71526,-0.0913 c 0.3934,-0.0502 1.71339,-0.19686 2.93333,-0.32588 z m 9.38125,-44.377236 c -1.53486,-1.514328 -2.40887,-2.535651 -2.40654,-2.812138 0.008,-0.918473 0.63948,-3.374284 1.16233,-4.518529 0.94158,-2.060643 1.29354,-2.339221 7.38937,-5.848627 1.97514,-1.137091 4.58928,-2.654853 5.80921,-3.372799 8.09594,-4.764581 8.44975,-4.942338 8.44975,-4.245309 0,0.164463 -0.65256,1.519063 -1.45014,3.010229 -0.79758,1.491167 -2.17595,4.065812 -3.06304,5.721434 -0.88709,1.655621 -2.33532,4.364821 -3.21831,6.02045 -2.479,4.648246 -2.77729,5.130872 -3.66913,5.936595 -1.34679,1.216748 -2.91611,1.853752 -5.78203,2.347021 -0.80638,0.138786 -0.82581,0.125285 -3.22147,-2.238327 z m 5.61802,0.963759 c 2.07463,-0.671959 3.32054,-1.684883 4.39895,-3.576336 0.76001,-1.333019 2.03495,-3.707522 7.48594,-13.942087 0.92819,-1.742767 1.79433,-3.30365 1.92474,-3.468632 0.13041,-0.16499 -0.14313,-0.05716 -0.60786,0.239521 -0.46473,0.296733 -3.26899,1.939748 -6.23169,3.651162 -2.96269,1.711413 -6.38484,3.704567 -7.60478,4.429236 -1.21992,0.724677 -2.50998,1.467949 -2.86678,1.651725 -1.71269,0.882162 -3.04923,2.971699 -3.58018,5.59725 l -0.35376,1.749322 2.29133,2.204738 c 2.59057,2.492657 2.25947,2.398422 5.14409,1.464101 z"
       id="path400" /></g></svg>
