<?xml version="1.0" encoding="UTF-8" standalone="no"?>
<!-- Created with Inkscape (http://www.inkscape.org/) -->

<svg
   version="1.1"
   id="svg557"
   width="272"
   height="311"
   viewBox="0 0 272 311"
   xmlns="http://www.w3.org/2000/svg"
   xmlns:svg="http://www.w3.org/2000/svg">
  <defs
     id="defs561" />
  <g
     id="g563">
    <path
       style="fill:#000000;stroke-width:0;stroke-dasharray:none"
       d="m 50.158425,124.36477 c -4.80018,-1.5338 -8.31389,-5.52585 -9.01664,-10.24411 -0.3608,-2.42238 -0.21382,-3.03734 0.81985,-3.43035 1.13303,-0.43077 23.17231,-0.42168 23.97873,0.01 0.92099,0.4929 1.04343,1.12339 0.6693,3.44651 -0.81393,5.05403 -4.01664,8.63892 -9.1297,10.21911 -2.6707,0.82539 -4.73605,0.82509 -7.32154,-0.001 z m 7.44071,-3.27274 c 1.84703,-0.77174 3.04014,-1.7342 4.26624,-3.44152 1.32205,-1.84092 1.87613,-3.5513 1.27428,-3.93356 -0.23211,-0.14742 -4.52798,-0.27039 -9.54638,-0.27326 l -9.12436,-0.005 v 0.86633 c 0,2.64363 3.77162,6.42916 7.3336,7.36063 1.38785,0.36293 4.22809,0.082 5.79662,-0.5734 z M 14.555462,109.00161 c -1.744679,-0.70594 -2.539238,-4.82472 -1.361483,-7.05756 0.820377,-1.5553 2.689193,-2.861895 4.400732,-3.076805 2.334675,-0.29314 3.59484,-1.85498 5.444125,-6.74738 2.284633,-6.04415 2.388571,-6.72669 2.675054,-17.56653 0.281852,-10.66463 0.630361,-13.4706 2.139437,-17.225427 2.301707,-5.727018 6.506428,-10.656829 11.745368,-13.770815 1.08399,-0.644316 3.35234,-1.668373 5.04077,-2.27568 l 3.06988,-1.104196 0.17055,-4.045265 c 0.19026,-4.512707 0.59779,-5.669178 2.46781,-7.002978 1.54001,-1.098416 5.53229,-1.150729 6.95156,-0.09109 2.08759,1.55861 2.33469,2.234461 2.51904,6.889853 l 0.17055,4.306754 1.87604,0.568699 c 8.89133,2.695304 15.88097,9.572277 18.70221,18.400755 1.09086,3.41362 1.42254,6.89869 1.42261,14.9477 8e-5,9.72526 0.85017,14.259 3.83384,20.44671 1.44309,2.99278 2.55185,4.17291 3.92052,4.17291 1.25662,0 3.03083,0.95587 4.15886,2.240625 1.84247,2.09845 1.74131,6.10617 -0.19252,7.62732 -0.87729,0.69008 -1.15251,0.6948 -39.64439,0.68031 -21.793396,-0.008 -39.089094,-0.14737 -39.510563,-0.31791 z m 77.482273,-3.70443 c 0.24036,-0.75731 -0.22737,-2.12515 -0.92454,-2.70374 -0.27404,-0.22744 -1.20637,-0.54581 -2.07185,-0.7075 -0.86548,-0.16169 -1.95173,-0.54174 -2.4139,-0.84456 -2.64332,-1.731975 -5.49402,-8.057945 -7.0319,-15.604445 -0.54611,-2.67981 -0.67577,-4.68189 -0.67577,-10.43448 0,-11.14966 -0.68793,-14.87923 -3.68257,-19.964733 -1.41099,-2.396146 -4.38496,-5.739728 -6.55036,-7.364459 -1.90133,-1.426596 -5.44144,-3.126789 -8.01579,-3.849704 -4.02943,-1.131523 -3.92262,-0.958683 -3.92262,-6.347681 0,-4.394601 -0.0317,-4.599141 -0.83725,-5.404696 -1.17318,-1.173187 -3.00402,-1.144198 -4.12496,0.06531 -0.79874,0.861855 -0.83669,1.104096 -0.84168,5.372287 -0.003,2.458354 -0.12889,4.664579 -0.28004,4.902722 -0.15115,0.238144 -1.33838,0.735929 -2.63828,1.106191 -8.09349,2.305329 -13.642952,6.980862 -16.898835,14.237612 -1.730011,3.855868 -2.071468,6.243278 -2.028054,14.179848 0.04118,7.52918 -0.296303,11.32393 -1.399846,15.74001 -1.399955,5.60223 -2.924139,9.19251 -4.975477,11.71995 -1.24223,1.530548 -2.371451,2.175398 -4.673392,2.668818 -1.54152,0.33042 -2.788762,1.97733 -2.407414,3.17885 0.218739,0.68919 0.348167,0.69153 38.205898,0.69153 36.79149,0 37.99277,-0.0201 38.18863,-0.63714 z"
       id="path567" />
  </g>
</svg>
