<?xml version="1.0" encoding="UTF-8" standalone="no"?>
<!-- Created with Inkscape (http://www.inkscape.org/) -->

<svg
   width="210mm"
   height="297mm"
   viewBox="0 0 210 297"
   version="1.1"
   id="svg5"
   xml:space="preserve"
   xmlns="http://www.w3.org/2000/svg"
   xmlns:svg="http://www.w3.org/2000/svg"><defs
     id="defs2" /><g
     id="layer1"><path
       style="fill:#000000;stroke-width:0.264583"
       d="m 540.54742,195.3463 c 0,-0.13693 -0.11906,-0.24896 -0.26458,-0.24896 -0.14552,0 -0.26459,0.18562 -0.26459,0.41249 0,0.22687 0.11907,0.3389 0.26459,0.24896 0.14552,-0.0899 0.26458,-0.27555 0.26458,-0.41249 z"
       id="path8938" /><path
       style="fill:none;stroke:#241f1c;stroke-width:1.065;stroke-dasharray:none"
       d="m 540.44771,199.16337 c -0.8664,-0.38328 -1.67076,-1.58016 -1.67076,-2.48606 0,-0.99731 1.32781,-3.01512 2.26512,-3.44218 1.30919,-0.59651 2.54015,-0.36471 3.71601,0.69978 0.96515,0.87373 1.07505,1.09355 0.9851,1.97043 -0.0557,0.54284 -0.34795,1.40509 -0.64946,1.91612 -0.49849,0.84488 -0.67175,0.97642 -1.19396,0.90654 -0.0929,-0.0124 -0.2417,0.0921 -0.33073,0.23218 -0.2981,0.46919 -2.23503,0.59528 -3.12132,0.20319 z"
       id="path8936" /><path
       style="fill:none;stroke:#241f1c;stroke-width:1.065;stroke-dasharray:none"
       d="m 559.27348,203.76809 c -0.4208,-0.46498 -0.44453,-0.65777 -0.1733,-1.40785 0.17285,-0.478 0.31427,-1.11247 0.31427,-1.40994 0,-0.29746 0.23812,-0.84357 0.52916,-1.21357 0.29105,-0.37 0.52917,-0.79004 0.52917,-0.93341 0,-0.39938 0.69932,-0.58189 2.22959,-0.58189 1.6105,0 2.04457,0.34579 2.54074,2.02397 0.57993,1.96153 -0.18293,2.92922 -2.91825,3.7018 -1.70506,0.48159 -2.49544,0.4352 -3.05138,-0.17911 z"
       id="path8934" /><path
       style="fill:#000000;stroke-width:0.264583"
       d="m 544.07943,231.99823 c -0.13215,-0.34439 -0.62159,-0.56309 -0.62159,-0.27774 0,0.39309 0.35769,0.92136 0.54533,0.80539 0.12392,-0.0766 0.15824,-0.31402 0.0763,-0.52765 z"
       id="path8926" /><path
       style="fill:#000000;stroke-width:0.264583"
       d="m 544.89415,233.08394 c -0.28019,-0.20488 -0.56046,-0.32148 -0.62283,-0.25912 -0.0624,0.0624 0.11585,0.28103 0.39604,0.48591 0.28019,0.20488 0.56046,0.32148 0.62283,0.25911 0.0624,-0.0624 -0.11585,-0.28102 -0.39604,-0.4859 z"
       id="path8924" /><path
       style="fill:none;stroke:#241f1c;stroke-width:0.765;stroke-dasharray:none"
       d="m 543.08109,234.12706 c -0.90578,-0.499 -1.76953,-1.63873 -1.97777,-2.60971 -0.48001,-2.23823 -0.55001,-2.0072 1.09489,-3.61342 1.95523,-1.90924 3.03965,-2.29106 4.70293,-1.65584 0.65539,0.25029 1.5683,0.80695 2.02867,1.237 0.78965,0.73764 0.82785,0.86019 0.67451,2.16387 -0.33068,2.81162 -1.92136,4.58759 -4.34563,4.85183 -0.93231,0.10162 -1.48777,0.006 -2.1776,-0.37373 z"
       id="path8922" /><path
       style="fill:#000000;stroke-width:0.264583"
       d="m 554.76607,243.1085 c -0.8556,-0.79335 -0.93308,-1.4396 -0.19573,-1.63242 0.29104,-0.0761 0.52916,-0.23241 0.52916,-0.34733 0,-0.11493 0.20836,-0.16523 0.46303,-0.11177 0.25466,0.0534 0.9988,0.15227 1.65364,0.21959 0.65484,0.0673 1.4707,0.20811 1.81302,0.31286 0.34232,0.10475 0.6995,0.0772 0.79375,-0.0613 0.49525,-0.7275 1.44063,-1.10408 2.12168,-0.84515 0.38253,0.14544 0.72362,0.25137 0.75797,0.2354 0.77034,-0.35811 2.4307,-0.80192 3.0001,-0.80192 0.81844,0 2.13817,-1.20358 2.63504,-2.40313 0.15672,-0.37834 0.68972,-0.88091 1.18446,-1.11684 0.49474,-0.23592 1.35133,-1.02195 1.90353,-1.74671 0.99913,-1.3114 1.46562,-1.55014 2.16428,-1.10767 0.62101,0.3933 0.10995,1.52272 -1.05114,2.32294 -1.49385,1.02956 -3.41644,2.75668 -3.41644,3.06907 0,0.14256 -0.44649,0.71945 -0.99219,1.28199 -0.82733,0.85286 -1.16882,1.02284 -2.05525,1.02303 -0.70967,1.6e-4 -1.40095,0.22985 -2.07953,0.69095 -0.83789,0.56936 -1.12415,0.64165 -1.62938,0.41145 -0.48287,-0.22001 -0.85181,-0.16384 -1.73881,0.26471 -0.81086,0.39177 -1.4271,0.50349 -2.20235,0.3993 -0.71806,-0.0965 -1.24744,-0.0182 -1.59004,0.2352 -0.73599,0.54438 -1.24389,0.47262 -2.0688,-0.29229 z"
       id="path8920" /><path
       style="fill:#000000;stroke-width:0.264583"
       d="m 398.64954,280.9175 c -0.0932,-0.0932 -0.007,-0.48013 0.19195,-0.8599 0.19876,-0.37976 0.57415,-1.20373 0.83421,-1.83103 0.47794,-1.15286 1.26805,-1.85929 1.55686,-1.39199 0.084,0.13586 0.0297,0.323 -0.12055,0.41588 -0.15027,0.0929 -0.19977,0.2877 -0.10999,0.43296 0.0898,0.14526 -0.0969,0.33215 -0.41492,0.4153 -0.43609,0.11404 -0.49139,0.20619 -0.22506,0.37502 0.2857,0.1811 0.28699,0.2246 0.007,0.22787 -0.19049,0.002 -0.27276,0.12312 -0.18282,0.26864 0.0899,0.14552 0.0628,0.26458 -0.0604,0.26458 -0.12315,0 -0.24255,0.24764 -0.26535,0.55031 -0.0676,0.89757 -0.77959,1.56348 -1.21071,1.13236 z"
       id="path8908" /><path
       style="fill:#000000;stroke-width:0.264583"
       d="m 477.2592,267.78303 c -0.7638,-1.59922 -0.50423,-2.55925 -0.45869,-4.36578 l -0.85242,-0.29716 c -0.78537,-0.27378 -0.91914,-0.23248 -1.7007,0.52504 -0.79874,0.77417 -1.0122,0.8353 -3.65519,1.04685 -1.54379,0.12356 -2.93617,0.30455 -3.09416,0.40219 -0.15799,0.0976 -0.89517,0.3379 -1.63817,0.5339 -1.01249,0.26709 -1.44151,0.28117 -1.71258,0.0562 -0.40017,-0.33211 -7.51229,-0.62043 -8.22955,-0.33362 -0.23863,0.0954 -1.01766,0.21662 -1.73118,0.26933 -0.71352,0.0527 -1.42194,0.22047 -1.57427,0.3728 -0.34796,0.34796 -2.40601,0.36243 -3.01899,0.0212 -0.25269,-0.14066 -1.27802,-0.57152 -2.27852,-0.95746 -1.40477,-0.54191 -2.0846,-0.66534 -2.98484,-0.54194 -0.88277,0.12099 -1.40366,0.0323 -2.14575,-0.36546 -0.53899,-0.28888 -1.29626,-0.52524 -1.68282,-0.52524 -0.53385,0 -0.74381,-0.16323 -0.87323,-0.67889 -0.25845,-1.02972 -1.39396,-1.42558 -6.37324,-2.22184 -1.47599,-0.23604 -8.45643,0.019 -10.18249,0.37205 -0.3638,0.0744 -1.19724,0.2442 -1.85208,0.37731 -1.16018,0.23583 -5.02472,2.0084 -5.29432,2.42837 -0.0742,0.11562 -0.47017,0.29435 -0.87989,0.39719 -0.80606,0.2023 -2.55704,1.84019 -2.55704,2.39189 0,0.18648 0.12162,0.65895 0.27027,1.04993 0.35566,0.93546 -0.0348,1.39634 -1.36297,1.60872 -0.56318,0.0901 -1.02397,0.28032 -1.02397,0.42281 0,0.1425 -0.20473,0.18052 -0.45495,0.0845 -0.25023,-0.096 -0.37096,-0.0906 -0.26829,0.0121 0.10266,0.10267 -0.40698,0.47078 -1.13255,0.81802 -0.72556,0.34724 -1.31921,0.74579 -1.31921,0.88565 0,0.13987 -0.20836,0.25809 -0.46302,0.26271 -0.56592,0.0103 -1.67335,0.78534 -1.12213,0.78534 0.51978,0 -0.007,0.45474 -0.66381,0.57326 -0.29104,0.0525 -0.52916,0.27241 -0.52916,0.4887 0,0.21629 -0.16562,0.39325 -0.36804,0.39325 -0.20242,0 -0.50008,0.2331 -0.66146,0.51799 -0.444,0.78383 -0.87304,1.19545 -1.05567,1.01281 -0.0901,-0.0901 -0.16379,0.0219 -0.16379,0.24888 0,0.45931 -0.69843,0.824 -1.10126,0.57504 -0.29498,-0.18232 5.62149,-6.19119 6.09597,-6.19119 0.16957,0 0.7775,-0.3105 1.35096,-0.69 0.57347,-0.3795 1.43388,-0.88551 1.91204,-1.12448 0.73925,-0.36944 0.895,-0.61646 1.04055,-1.65035 0.21245,-1.50905 0.62423,-2.19028 1.53077,-2.53247 0.38671,-0.14596 1.59096,-0.78877 2.6761,-1.42846 2.86178,-1.68702 3.09634,-1.76372 10.13167,-3.31305 2.48991,-0.54834 8.28962,-0.11295 11.06364,0.83055 1.23,0.41835 2.49755,0.64785 3.57819,0.64785 1.71648,0 1.8415,0.0918 1.69583,1.24533 -0.0706,0.55874 1.48184,1.13568 3.07334,1.1422 1.02539,0.004 2.06117,0.22574 3.12199,0.66776 2.25701,0.94045 3.41981,1.04019 5.29167,0.45392 1.33146,-0.41701 2.29161,-0.48645 5.95312,-0.43051 2.4011,0.0367 4.75298,0.14646 5.22642,0.24395 0.53993,0.11118 1.36087,0.0137 2.20241,-0.26157 0.73789,-0.24135 2.13647,-0.50066 3.10796,-0.57625 2.60274,-0.20249 2.85235,-0.28668 3.82774,-1.29101 l 0.89152,-0.91797 0.947,0.48281 c 0.91805,0.46805 0.95979,0.46788 1.36522,-0.006 0.23002,-0.26864 0.66889,-0.48844 0.97528,-0.48844 0.60209,0 1.93113,-0.83658 2.71224,-1.70724 0.39224,-0.43721 0.76779,-0.53167 1.94667,-0.48963 1.24096,0.0443 1.4806,-0.0241 1.59309,-0.45426 0.13074,-0.49992 1.03626,-0.97401 1.31946,-0.69081 0.16399,0.16399 1.96679,-0.53638 2.18613,-0.8493 0.24702,-0.35239 2.05068,-1.10043 2.65336,-1.10043 0.31886,0 0.87,-0.22832 1.22476,-0.50737 0.45155,-0.35519 1.05927,-0.50577 2.02611,-0.50203 1.05164,0.004 1.82288,-0.21386 3.23317,-0.91359 1.01865,-0.50542 2.14974,-1.00746 2.51354,-1.11564 0.36381,-0.10819 1.01865,-0.40841 1.45521,-0.66716 0.43656,-0.25876 1.20373,-0.55735 1.7048,-0.66355 1.02615,-0.21749 1.45162,-0.55933 1.71019,-1.37402 0.0976,-0.30761 0.47524,-0.75437 0.83912,-0.9928 0.36388,-0.23842 0.84552,-0.81919 1.07033,-1.29061 0.2248,-0.47141 0.84517,-1.14713 1.3786,-1.50159 0.53343,-0.35447 1.44613,-1.0208 2.02821,-1.48073 0.58209,-0.45994 1.47505,-0.91837 1.98438,-1.01875 1.62643,-0.32053 1.7475,-0.39488 2.32964,-1.43065 0.56727,-1.00932 2.34645,-2.41651 3.05532,-2.41651 0.20307,0 0.89662,-0.29477 1.54121,-0.65504 1.56117,-0.87255 4.97903,-2.27281 4.98413,-2.04193 0.002,0.10088 0.1126,0.0119 0.24527,-0.19781 0.18078,-0.28572 0.79291,-0.37488 2.44326,-0.35586 1.21112,0.014 2.26161,-0.0647 2.33441,-0.17479 0.0728,-0.1101 0.96582,-0.47514 1.98446,-0.81121 1.44368,-0.47629 2.12474,-0.88908 3.08855,-1.87195 0.68005,-0.69351 1.54325,-1.46195 1.91823,-1.70764 0.73902,-0.48423 0.89315,-0.91502 0.32736,-0.91502 -0.49942,0 -1.0477,-1.24463 -0.62414,-1.41682 0.23396,-0.0951 0.22907,-0.13438 -0.0187,-0.14979 -0.22544,-0.014 -0.28034,-0.24173 -0.16708,-0.69301 0.10631,-0.42356 0.0252,-0.83941 -0.21932,-1.12448 -0.21341,-0.24879 -0.46191,-0.66072 -0.55222,-0.91538 -0.0903,-0.25466 -0.33851,-0.46302 -0.55156,-0.46302 -0.21304,0 -0.47095,-0.26789 -0.57313,-0.59531 -0.10218,-0.32742 -0.29639,-0.66656 -0.43157,-0.75364 -0.13518,-0.0871 -0.36632,-0.98005 -0.51364,-1.98438 -0.14732,-1.00432 -0.39694,-2.24276 -0.55472,-2.75209 -0.15777,-0.50932 -0.31701,-1.19567 -0.35386,-1.52522 -0.0369,-0.32955 -0.38474,-1.14135 -0.77307,-1.804 -0.84189,-1.43656 -0.93152,-2.99475 -0.42302,-7.35426 0.18539,-1.58948 0.24621,-3.30733 0.13583,-3.83646 -0.10994,-0.527 -0.19246,-1.01771 -0.18337,-1.09047 0.009,-0.0728 0.0952,-0.92713 0.19134,-1.89859 0.0962,-0.97146 0.42209,-2.27805 0.72429,-2.90354 0.4959,-1.02639 0.52027,-1.29564 0.25006,-2.76213 -0.36976,-2.00674 -0.38194,-3.20142 -0.0348,-3.41595 0.14552,-0.0899 0.26458,-0.44423 0.26458,-0.78731 0,-0.34309 0.13192,-0.66777 0.29314,-0.72151 0.1725,-0.0575 0.31615,-0.91047 0.34906,-2.07257 0.0411,-1.45261 0.2141,-2.28041 0.65407,-3.1303 0.57931,-1.11902 0.58456,-1.19406 0.16665,-2.38125 -0.23733,-0.67419 -0.46342,-1.76159 -0.50243,-2.41643 -0.0871,-1.46199 -1.26957,-3.85322 -2.38245,-4.8179 -0.83052,-0.7199 -1.39572,-0.96588 -1.09267,-0.47553 0.0935,0.15121 -0.11366,0.23997 -0.48773,0.20901 -0.35759,-0.0296 -1.04873,0.13726 -1.53588,0.37078 -2.67042,1.28014 -3.45106,1.41855 -4.08012,0.72345 -0.4752,-0.52509 -1.17122,-0.68641 -1.17122,-0.27145 0,0.12995 -0.18478,0.30718 -0.41062,0.39384 -0.23546,0.0904 -0.34166,0.046 -0.24897,-0.10398 0.3114,-0.50385 -0.38058,-0.25566 -0.99205,0.3558 -0.33955,0.33955 -0.79145,0.63908 -1.00422,0.66562 -2.01525,0.25136 -2.63581,0.39855 -2.63581,0.6252 0,0.14581 -0.17478,0.19804 -0.3884,0.11606 -0.21362,-0.082 -0.44629,-0.0554 -0.51705,0.0591 -0.0708,0.11448 -0.66988,0.18561 -1.33139,0.15805 -0.66151,-0.0276 -1.20274,0.0574 -1.20274,0.18876 0,0.13138 -0.14883,0.21954 -0.33073,0.19592 -0.81398,-0.1057 -1.53846,0.0426 -1.38906,0.28433 0.16585,0.26835 -0.30932,0.3624 -1.38906,0.27494 -0.32743,-0.0265 -0.59532,0.0543 -0.59532,0.17958 0,0.35817 -1.41439,0.24568 -1.82631,-0.14526 -0.42383,-0.40225 -0.47649,-1.89925 -0.16911,-4.80718 0.2497,-2.36224 1.88796,-6.00196 3.1741,-7.05189 0.44313,-0.36175 1.02668,-0.83771 1.29677,-1.05768 0.27008,-0.21997 0.98446,-0.62301 1.5875,-0.89566 1.2957,-0.58581 2.02247,-1.13189 2.02247,-1.51967 0,-0.30439 4.41458,-4.8207 4.7127,-4.82129 0.10015,-2.1e-4 0.71787,-0.48256 1.37272,-1.0719 0.65484,-0.58934 1.84547,-1.38258 2.64583,-1.76276 0.80036,-0.38019 1.5468,-0.84386 1.65874,-1.03039 0.34326,-0.57197 1.73875,-1.45411 2.50751,-1.58508 l 0.72854,-0.12413 -0.79362,0.64546 c -0.43649,0.355 -0.88297,0.59023 -0.99219,0.52274 -0.10921,-0.0675 -0.19856,0.003 -0.19856,0.15747 0,0.15411 -0.17268,0.2802 -0.38373,0.2802 -0.21105,0 -0.47894,0.14883 -0.59531,0.33073 -0.31809,0.4972 -1.85745,1.52135 -2.28668,1.52135 -0.2072,0 -0.43459,0.22126 -0.50531,0.49169 -0.0707,0.27043 -0.49274,0.65288 -0.93782,0.84989 -0.44508,0.19702 -0.75188,0.45101 -0.68178,0.56443 0.18755,0.30348 -1.05192,1.45863 -1.42991,1.33263 -0.17777,-0.0592 -0.32321,0.0808 -0.32321,0.31119 0,0.23041 -0.20836,0.42629 -0.46302,0.4353 -0.49277,0.0174 -2.10404,2.0389 -2.53682,3.18266 -0.14266,0.37702 -0.56786,0.82106 -0.94488,0.98676 -0.37702,0.16569 -1.08047,0.5439 -1.56323,0.84045 -0.48275,0.29655 -0.97629,0.47827 -1.09675,0.40382 -0.12046,-0.0744 -0.28798,0.0443 -0.37226,0.26397 -0.0843,0.21963 -0.45394,0.51365 -0.82147,0.65339 -0.36753,0.13973 -0.66824,0.44263 -0.66824,0.6731 0,0.23047 -0.0974,0.35886 -0.21639,0.2853 -0.11901,-0.0736 -0.37882,0.0916 -0.57736,0.36709 -0.19854,0.27545 -0.47674,0.42927 -0.61824,0.34182 -0.1415,-0.0875 -0.17706,-0.0292 -0.079,0.1294 0.098,0.15862 -0.0554,0.70437 -0.34096,1.21278 -0.28556,0.50842 -0.52606,1.14118 -0.53445,1.40614 -0.008,0.26495 -0.13487,1.67236 -0.28108,3.12757 -0.14621,1.45521 -0.21601,2.7774 -0.1551,2.93821 0.21752,0.57431 1.98907,0.61796 3.6425,0.0898 0.88566,-0.28294 2.22154,-0.51443 2.96863,-0.51443 1.71978,0 4.49679,-0.99011 6.47506,-2.30859 l 0.89087,-0.59375 0.78431,0.55848 0.78431,0.55848 1.77096,-0.69481 c 0.97402,-0.38215 2.1365,-0.69481 2.58329,-0.69481 0.47631,0 1.01042,-0.21889 1.29122,-0.52917 0.26339,-0.29104 0.68011,-0.52916 0.92604,-0.52916 0.46697,0 1.32292,0.78689 1.32292,1.21618 0,0.13666 0.29682,0.68528 0.65959,1.21916 0.36278,0.53387 0.59229,1.14608 0.51003,1.36045 -0.0823,0.21438 0.0376,0.7518 0.26645,1.19427 0.22881,0.44247 0.41449,1.0783 0.41262,1.41294 -0.002,0.33465 0.19637,1.46261 0.44051,2.50657 0.43494,1.85979 0.43234,1.92594 -0.1289,3.27643 -0.32405,0.77976 -0.5728,1.94595 -0.5728,2.68544 0,0.71892 -0.29538,2.18706 -0.65641,3.26253 -0.5585,1.66376 -0.61946,2.15023 -0.40868,3.26164 0.28895,1.52361 0.0346,3.45747 -0.64042,4.87004 -0.44844,0.93836 -0.47558,2.26513 -0.12032,5.88122 0.0514,0.5229 -0.33831,4.24187 -0.48516,4.63021 -0.33246,0.87914 -0.23732,2.31708 0.23316,3.52404 1.02134,2.62008 1.54369,4.41047 1.717,5.88509 0.18583,1.5811 1.3507,4.1575 2.21978,4.9096 0.27208,0.23546 0.57334,0.74148 0.66947,1.12448 0.0982,0.39133 0.36135,0.69637 0.60069,0.69637 0.54119,0 1.63339,1.25552 1.63339,1.87762 0,0.25982 0.10295,0.53603 0.22877,0.61379 0.12583,0.0778 0.21512,0.40637 0.19844,0.73024 -0.0224,0.43435 -0.47448,0.83985 -1.72296,1.54535 -1.0232,0.5782 -2.10595,1.47278 -2.73772,2.26193 -0.89026,1.11202 -1.22097,1.33207 -2.23202,1.4851 -0.65279,0.0988 -1.72911,0.43452 -2.3918,0.74603 -0.77837,0.36587 -1.88968,0.60139 -3.13928,0.66531 -2.40115,0.12281 -5.87603,1.29125 -8.23059,2.76755 -0.93458,0.58598 -1.78165,1.06918 -1.88239,1.07377 -0.34708,0.0159 -1.50786,1.19682 -2.26126,2.30058 -0.65351,0.95744 -0.854,1.08662 -1.48926,0.95957 -0.40822,-0.0816 -0.81399,-0.0175 -0.91408,0.14442 -0.099,0.16018 -0.45409,0.29124 -0.7891,0.29124 -0.84325,0 -3.20585,2.40658 -5.50903,5.61159 -0.44871,0.62441 -0.91554,1.17497 -1.0374,1.22348 -0.12186,0.0485 -0.22157,0.24413 -0.22157,0.43471 0,0.51195 -0.7995,0.72744 -1.26719,0.34156 -0.32382,-0.2672 -0.42897,-0.26812 -0.51767,-0.005 -0.0612,0.1819 -0.45156,0.33072 -0.86741,0.33072 -0.41584,0 -0.82326,0.10871 -0.90537,0.24157 -0.0821,0.13285 -0.64403,0.32514 -1.2487,0.4273 -0.64037,0.10819 -1.38341,0.46975 -1.77962,0.86596 -0.42879,0.42878 -1.1275,0.75093 -1.89025,0.8715 -2.08067,0.32891 -3.43862,0.77726 -3.97316,1.3118 -0.38282,0.38281 -0.88084,0.51521 -1.93802,0.51521 -0.94194,0 -1.53414,0.13413 -1.75219,0.39687 -0.18116,0.21828 -0.47734,0.39688 -0.65818,0.39688 -0.18083,0 -0.62656,0.23422 -0.9905,0.5205 -0.36394,0.28627 -0.72767,0.45454 -0.80829,0.37392 -0.0806,-0.0806 -0.35462,0.17091 -0.60888,0.55897 -0.38861,0.59309 -0.59518,0.68062 -1.29603,0.54914 -2.15209,-2.12446 -7.20801,4.81916 -5.4718,5.14122 m 5.46805,11.14052 c 1.52456,0.33411 3.29811,0.23271 4.68643,-0.26794 0.76945,-0.27748 1.85592,-0.58249 2.41438,-0.6778 0.55847,-0.0953 1.48678,-0.419 2.06292,-0.7193 0.8103,-0.42235 1.29936,-0.50523 2.15961,-0.36596 2.79981,0.45329 3.48764,0.44805 4.32317,-0.0329 0.45641,-0.26272 1.61389,-0.88851 2.57219,-1.39065 l 1.74235,-0.91299 1.09083,0.58226 c 0.59996,0.32024 1.35343,0.58225 1.67438,0.58225 0.32094,0 0.7238,0.14027 0.89525,0.31171 0.17144,0.17144 1.35611,0.36368 2.6326,0.42721 1.36478,0.0679 2.48439,0.25708 2.71777,0.4592 0.7129,0.61743 3.95845,1.77671 4.5448,1.62338 0.7508,-0.19634 1.45088,0.20428 1.9029,1.08895 0.38446,0.75243 0.17004,1.91037 -0.35376,1.91037 -0.15021,0 -0.27311,0.23439 -0.27311,0.52087 0,0.33179 -0.1313,0.47047 -0.36173,0.38205 -0.25084,-0.0962 -0.45362,0.2261 -0.66146,1.05151 -0.39706,1.57688 -0.3835,2.80705 0.031,2.81212 0.21954,0.003 0.23632,0.0694 0.0499,0.19844 -0.15446,0.10691 -0.73809,1.62314 -1.29696,3.36939 -0.55887,1.74625 -1.10423,3.29406 -1.2119,3.43958 -0.10767,0.14552 -0.25363,0.77986 -0.32435,1.40965 -0.0707,0.62978 -0.2622,1.27867 -0.42551,1.44198 -0.1633,0.1633 -0.29691,1.04862 -0.29691,1.96738 0,0.91875 -0.10517,1.87721 -0.23372,2.12989 -0.60219,1.18378 -1.61593,3.75376 -1.57116,3.98314 0.0194,0.0993 -0.24645,0.77577 -0.59071,1.50338 -0.35984,0.76054 -0.6585,1.94152 -0.70254,2.77812 -0.0421,0.80037 -0.20279,2.40771 -0.357,3.57188 -0.15422,1.16416 -0.27545,2.83104 -0.26941,3.70416 0.0124,1.79549 -0.38879,4.11221 -0.91643,5.29167 -0.63377,1.41671 -0.96367,3.10891 -0.97741,5.01343 -0.007,1.02616 -0.11133,2.05843 -0.23094,2.29396 -0.11962,0.23554 -0.13678,0.50893 -0.0382,0.60757 0.0986,0.0986 0.19566,0.91794 0.21564,1.82073 0.02,0.90275 0.13109,3.37362 0.24691,5.49076 0.19379,3.54203 0.16664,3.97163 -0.34009,5.38086 -0.30288,0.84233 -0.48555,1.70122 -0.40594,1.90868 0.0796,0.20746 0.0376,0.52451 -0.0933,0.70456 -0.13092,0.18004 -0.26943,0.68455 -0.3078,1.12111 -0.0911,1.03672 -1.06531,4.13235 -1.44519,4.5923 -0.16306,0.1974 -0.42019,0.56036 -0.57139,0.80658 -0.1512,0.24619 -0.51304,0.83214 -0.80408,1.30209 -0.29104,0.46993 -0.7869,0.92102 -1.10191,1.00238 -0.31751,0.082 -0.7235,0.52086 -0.91102,0.98478 -0.18605,0.46029 -0.41766,0.89641 -0.51468,0.96917 -0.25735,0.19298 -1.21475,3.07477 -1.58223,4.7625 -0.17427,0.80036 -0.35953,3.06255 -0.4117,5.02708 -0.14563,5.48418 -0.3664,8.11614 -0.77887,9.28518 -0.2072,0.58727 -0.35853,1.14938 -0.33628,1.2491 0.11954,0.53602 -1.0487,3.90937 -2.03282,5.86988 -0.18262,0.36381 -0.47997,1.12094 -0.66079,1.68252 -0.63829,1.98244 -2.40607,4.65566 -3.92359,5.93322 -2.2392,1.88511 -5.08983,4.97518 -6.45041,6.9922 -0.76461,1.1335 -2.05749,3.65567 -2.18191,4.25648 -0.31066,1.50017 -2.19042,4.17524 -4.61056,6.5613 -0.38333,0.37793 -0.95471,1.03278 -1.26971,1.45521 -0.315,0.42241 -0.81278,1.04465 -1.10617,1.38271 -1.50506,1.73432 -4.30095,8.99112 -4.80911,12.4822 -0.39711,2.72817 -1.44227,5.99368 -2.92709,9.1455 -0.27872,0.59166 -0.50677,1.20582 -0.50677,1.36478 0,0.53147 -2.2275,2.58148 -4.23333,3.89607 -2.20654,1.4461 -5.6161,4.79258 -6.3514,6.23387 -0.27631,0.5416 -0.42039,1.23349 -0.34213,1.64288 0.0856,0.44762 -0.0507,0.97954 -0.37111,1.44904 -0.27847,0.40799 -0.84195,1.61653 -1.25218,2.68563 -0.62286,1.62327 -0.71798,2.18107 -0.57678,3.38243 0.093,0.79121 0.26963,1.64291 0.39252,1.89262 0.85492,1.73728 1.22804,2.37064 1.67034,2.8353 1.00157,1.05225 2.06824,2.34786 2.06824,2.51219 0,0.0924 0.41671,0.36664 0.92604,0.60952 0.50932,0.24289 0.92604,0.54968 0.92604,0.68178 0,0.13211 0.26789,0.31004 0.59531,0.39545 0.32742,0.0854 1.21968,0.63172 1.9828,1.21404 3.51038,2.6788 6.39643,3.50083 12.63543,3.59897 7.2468,0.11401 9.50404,0.42195 12.43542,1.69656 0.58208,0.2531 1.38892,0.53991 1.79298,0.63733 0.40406,0.0974 1.35656,0.45442 2.11667,0.7933 2.09568,0.93432 2.33668,1.02293 3.76326,1.38369 0.72761,0.18399 2.90352,0.75221 4.83536,1.26267 1.98387,0.52424 4.78243,1.04674 6.43068,1.20063 1.60503,0.14986 3.06052,0.36475 3.23443,0.47754 0.17391,0.11279 4.00714,0.21304 8.51828,0.22278 8.13159,0.0175 8.2341,0.0246 11.92697,0.82796 3.66782,0.79785 3.81577,0.80849 9.65729,0.69469 7.79681,-0.15187 13.2083,-0.879 17.11427,-2.29962 0.62023,-0.22559 2.08959,-0.47139 3.26523,-0.54626 1.85961,-0.1184 2.33772,-0.0519 3.67706,0.51186 1.55176,0.65312 2.73129,0.99629 5.15918,1.5009 1.60302,0.33319 6.0076,-0.0542 9.8475,-0.86614 4.89758,-1.03558 5.78926,-1.10537 14.49416,-1.13464 4.80219,-0.0161 8.86899,-0.11882 9.03733,-0.22817 0.58102,-0.37743 7.64364,-0.95063 11.73246,-0.95221 4.31417,-0.003 5.42491,-0.19071 10.05417,-1.71098 1.09141,-0.35843 2.87734,-0.7342 3.96875,-0.83503 2.408,-0.22249 6.23835,-0.84862 7.14375,-1.16782 0.3638,-0.12824 1.19724,-0.37166 1.85208,-0.54094 3.94933,-1.02094 6.06354,-2.03708 7.60873,-3.65688 0.32851,-0.34436 1.16195,-0.8736 1.85208,-1.1761 0.69014,-0.3025 1.35004,-0.71213 1.46641,-0.9103 0.11636,-0.19817 0.45021,-0.36031 0.74189,-0.36031 0.58253,0 3.05331,-1.28722 4.40012,-2.29232 0.47062,-0.35124 1.34467,-0.81114 1.94234,-1.02198 0.59766,-0.21088 1.41573,-0.65276 1.81792,-0.98195 0.40219,-0.3292 1.75504,-1.07479 3.0063,-1.65688 1.2513,-0.58208 2.34469,-1.25576 2.42978,-1.49709 0.38071,-1.07976 9.81847,-9.98471 10.62283,-10.02313 0.12497,-0.006 0.74764,-0.48141 1.38367,-1.05651 1.08916,-0.9848 1.16332,-1.14199 1.27444,-2.70113 0.0649,-0.91051 0.2775,-2.53534 0.47242,-3.61071 0.38301,-2.11313 0.20571,-3.08629 -0.89176,-4.8949 -0.27458,-0.45252 -0.57927,-1.2015 -0.67709,-1.66439 -0.0978,-0.46289 -0.34877,-0.98348 -0.55772,-1.15686 -0.20891,-0.17341 -0.37986,-0.51234 -0.37986,-0.75317 0,-0.24085 -0.17301,-0.68492 -0.38446,-0.98681 -0.26049,-0.37187 -0.35658,-1.05225 -0.298,-2.10939 0.0669,-1.20785 -0.0529,-1.85987 -0.53039,-2.88528 -0.33927,-0.72867 -0.68331,-1.85378 -0.76456,-2.50029 -0.0812,-0.64651 -0.32438,-1.44513 -0.54034,-1.77475 -0.21598,-0.32959 -0.39266,-0.93683 -0.39266,-1.3494 0,-0.41259 -0.10462,-0.86325 -0.23249,-1.0015 -0.12785,-0.13824 -0.60354,-1.41838 -1.05707,-2.84477 -1.07294,-3.37444 -1.15117,-3.50811 -3.41201,-5.82986 -1.98919,-2.04274 -2.97135,-3.96123 -2.97135,-5.80398 0,-0.43063 -0.1709,-1.33474 -0.37976,-2.00911 -0.20886,-0.67437 -0.55377,-1.82144 -0.76644,-2.54905 -0.21267,-0.7276 -0.74584,-2.15635 -1.18481,-3.175 -0.43897,-1.01864 -0.91805,-2.32833 -1.06465,-2.91041 -0.71687,-2.84637 -2.02766,-6.69978 -2.56278,-7.53396 -0.32909,-0.51298 -0.94803,-1.2899 -1.37544,-1.72646 -0.42738,-0.43656 -0.96308,-1.15094 -1.19039,-1.5875 -0.39859,-0.76552 -0.96443,-3.50737 -1.11934,-5.42396 -0.15066,-1.86412 -0.48316,-3.85291 -0.752,-4.49792 -0.15161,-0.3638 -0.29594,-0.72098 -0.3207,-0.79374 -0.0965,-0.28364 -0.47758,-1.26244 -1.13303,-2.91042 -0.64698,-1.62666 -1.42438,-2.77791 -3.14354,-4.65529 -0.41241,-0.45038 -1.11683,-1.22894 -1.56538,-1.73014 -1.06789,-1.1933 -3.02091,-5.28484 -3.02091,-6.32875 0,-1.0567 -1.11199,-4.43815 -2.12704,-6.46811 -0.95969,-1.91929 -1.23256,-2.28285 -2.17244,-2.89457 -0.40018,-0.26048 -0.7276,-0.64987 -0.7276,-0.86532 0,-0.35385 -0.74152,-1.56977 -1.4465,-2.37191 -0.15031,-0.17103 -0.92814,-1.04828 -1.7285,-1.94945 -0.80036,-0.9012 -1.75286,-2.08545 -2.11667,-2.63165 -0.3638,-0.54623 -1.09056,-1.63841 -1.61501,-2.42705 -0.52446,-0.78864 -1.16309,-1.8755 -1.4192,-2.4152 -0.25612,-0.53972 -0.57409,-0.98131 -0.70665,-0.98131 -0.13253,0 -0.35954,-0.32742 -0.50448,-0.7276 -0.32528,-0.89821 -0.77089,-1.92178 -1.06551,-2.4474 -0.12234,-0.21828 -0.52792,-0.99219 -0.90127,-1.71979 -0.99296,-1.93511 -1.32308,-2.46512 -1.95316,-3.13582 -0.31128,-0.33136 -0.56597,-0.73369 -0.56597,-0.89408 0,-0.16039 -0.11157,-0.33131 -0.24794,-0.37983 -0.36769,-0.13079 -5.56008,-10.17286 -5.68489,-10.99459 -0.027,-0.17769 -0.13189,-0.40589 -0.23312,-0.50712 -0.10123,-0.10123 -0.18405,-0.43571 -0.18405,-0.7433 0,-0.51598 -1.14534,-3.46634 -2.39466,-6.16853 -0.28668,-0.62009 -0.99626,-1.58843 -1.57683,-2.15185 -0.58058,-0.56343 -1.05559,-1.12877 -1.05559,-1.25631 0,-0.12755 -0.23812,-0.38062 -0.52917,-0.56238 -0.29104,-0.18175 -0.53076,-0.53781 -0.5327,-0.79124 -0.004,-0.58306 -2.22018,-5.04672 -3.41446,-6.87864 -0.49745,-0.76304 -1.063,-1.38735 -1.25677,-1.38735 -0.21383,0 -0.35232,-0.30712 -0.35232,-0.7813 0,-0.8473 -0.45702,-2.05376 -0.9891,-2.61104 -0.1836,-0.19229 -0.33381,-0.52345 -0.33381,-0.7359 0,-0.21246 -0.1786,-0.45482 -0.39688,-0.53858 -0.21828,-0.0838 -0.39687,-0.36904 -0.39687,-0.63395 0,-0.26491 -0.29362,-0.71262 -0.65249,-0.9949 -0.35887,-0.28229 -0.58228,-0.58345 -0.49648,-0.66925 0.0858,-0.0858 0.0623,-0.3695 -0.0523,-0.63044 -0.11456,-0.26094 -0.22038,-0.53396 -0.23518,-0.60672 -0.0148,-0.0728 -0.1263,-0.28905 -0.24778,-0.48063 -0.29583,-0.46652 -0.25259,-0.48864 1.38729,-0.70956 1.01812,-0.13716 1.3712,-0.10804 1.24116,0.10237 -0.10144,0.16413 -0.012,0.29407 0.20244,0.29407 0.2113,0 0.45602,0.18721 0.54383,0.41603 0.13078,0.34082 0.43484,0.38493 1.68195,0.24401 0.83727,-0.0946 2.05809,-0.33457 2.71293,-0.53322 1.56191,-0.47384 2.7342,-0.55013 4.4396,-0.28895 0.873,0.1337 1.51798,0.11399 1.71979,-0.0525 0.1776,-0.14656 0.97775,-0.23831 1.77811,-0.20388 2.56043,0.11015 6.29762,-1.465 7.69713,-3.24419 0.8922,-1.13427 2.1553,-1.89053 4.07141,-2.43772 2.52132,-0.72002 3.13505,-1.01734 6.14484,-2.9767 2.62885,-1.71137 4.67138,-3.63521 4.0717,-3.83511 -0.41032,-0.13677 0.46831,-0.82594 1.06791,-0.83764 0.52271,-0.0102 2.6116,-1.98581 2.6116,-2.46996 0,-0.19001 0.40896,-0.79195 0.90881,-1.33765 0.49983,-0.5457 1.01473,-1.31002 1.14422,-1.69847 0.19592,-0.58774 0.47638,-0.75694 1.6709,-1.008 1.43396,-0.3014 1.81824,-0.47244 3.82672,-1.7032 2.87814,-1.7637 3.96203,-2.54251 5.30825,-3.8142 0.70224,-0.66336 1.4209,-1.2061 1.59698,-1.2061 0.1761,0 0.65675,-0.27253 1.06809,-0.60562 0.41135,-0.33308 1.09212,-0.75491 1.51286,-0.93739 0.42074,-0.18248 1.6024,-0.89222 2.62591,-1.5772 1.02349,-0.68498 2.04849,-1.36048 2.27772,-1.5011 3.5206,-2.1596 6.30291,-4.2974 8.12837,-6.2455 0.56084,-0.5985 1.55549,-1.45631 2.21033,-1.90625 0.65485,-0.44993 1.25016,-0.88949 1.32292,-0.97679 0.47352,-0.56814 2.72656,-2.1696 3.83646,-2.72696 0.7276,-0.36538 1.91823,-1.22451 2.64583,-1.90918 0.7276,-0.68467 1.8587,-1.67391 2.51354,-2.19831 1.3122,-1.05081 5.33178,-5.0543 6.30915,-6.28389 0.34134,-0.42942 1.14517,-1.37608 1.78633,-2.10368 3.23102,-3.66676 4.70885,-5.7399 6.12974,-8.59896 0.83169,-1.67349 1.64473,-3.18258 1.80676,-3.35353 0.162,-0.17095 0.55967,-1.00438 0.88368,-1.85208 0.32404,-0.8477 0.70691,-1.76122 0.8509,-2.03005 0.14399,-0.26883 0.19878,-0.55177 0.12179,-0.62876 -0.077,-0.077 0.20735,-0.7642 0.63185,-1.52716 0.51237,-0.92087 0.83076,-1.95469 0.94713,-3.07541 0.0964,-0.92852 0.23479,-1.78916 0.30747,-1.91253 0.0727,-0.12337 0.17357,-0.83775 0.22418,-1.5875 0.0506,-0.74976 0.16568,-1.66085 0.25567,-2.02465 0.24529,-0.99156 0.15904,-7.09969 -0.10758,-7.61846 -0.12756,-0.24823 -0.30583,-1.3443 -0.39616,-2.4357 -0.21426,-2.58898 -0.27477,-3.01616 -0.44977,-3.175 -0.0801,-0.0728 -0.2877,-0.76312 -0.4613,-1.53412 -0.17356,-0.771 -0.63386,-2.0746 -1.02285,-2.89687 -0.38899,-0.82227 -0.70726,-1.64997 -0.70726,-1.83932 0,-0.18935 -0.10914,-0.34428 -0.24254,-0.34428 -0.1334,0 -0.19378,-0.14626 -0.1342,-0.32502 0.0596,-0.17876 -0.10909,-0.5584 -0.37483,-0.84364 -0.26572,-0.28524 -0.48316,-0.68128 -0.48316,-0.8801 0,-0.39915 -1.84705,-3.65003 -2.4666,-4.34126 -0.21537,-0.2403 -0.47633,-0.71655 -0.57994,-1.05834 -0.10361,-0.34178 -0.52256,-0.97862 -0.93099,-1.41518 -1.67235,-1.78748 -1.8433,-1.99484 -1.8433,-2.23579 0,-0.13827 -0.53578,-0.69927 -1.19063,-1.24665 -0.65484,-0.54738 -1.19062,-1.08818 -1.19062,-1.20178 0,-0.31731 -1.12041,-1.53349 -1.41274,-1.53349 -0.27933,0 -2.80107,-1.84306 -3.87623,-2.83302 -0.36232,-0.33361 -0.81719,-0.60656 -1.01087,-0.60656 -0.19365,0 -0.90924,-0.46214 -1.5902,-1.02699 -1.59792,-1.32547 -2.34706,-1.5633 -7.54964,-2.39668 -1.84894,-0.29617 -10.96521,0.50845 -12.87074,1.13601 -0.65484,0.21566 -1.905,0.59866 -2.77812,0.85112 -1.50374,0.43478 -7.78185,3.38241 -8.06802,3.78801 -0.0737,0.1045 -0.61032,0.46662 -1.1924,0.8047 -3.36264,1.95307 -5.95312,4.24368 -5.95312,5.26399 0,0.16422 -0.52803,1.08591 -1.17343,2.04821 -0.64537,0.9623 -1.37094,2.42363 -1.61235,3.2474 -0.24143,0.82378 -0.60227,1.91449 -0.80187,2.42381 -0.82936,2.11637 -1.23005,3.75894 -1.08897,4.4643 0.0825,0.41261 0.0289,0.87132 -0.11912,1.01935 -0.64373,0.64372 -0.10633,8.07141 0.70104,9.68985 0.21479,0.43054 0.39053,1.05715 0.39053,1.39247 0,0.34947 0.4517,1.08449 1.05833,1.72221 0.58209,0.61189 1.05834,1.21222 1.05834,1.33406 0,0.12183 0.20949,0.22151 0.46553,0.22151 0.25604,0 0.61188,0.23438 0.79079,0.52085 0.17888,0.28646 0.71355,0.71979 1.18811,0.96296 0.47458,0.24316 0.9444,0.56882 1.0441,0.7237 0.12557,0.19512 0.37287,0.17901 0.80544,-0.0525 1.42375,-0.76198 4.96644,-0.35922 4.96644,0.56462 0,0.37682 1.41658,1.77828 1.79748,1.77828 0.22219,0 0.56914,0.81999 0.58015,1.37123 0.006,0.28968 -0.94065,0.50801 -1.41431,0.32625 -0.23878,-0.0916 -0.43415,-0.37353 -0.43415,-0.62645 0,-0.56699 -0.67614,-1.19762 -2.01893,-1.883 -1.31866,-0.67307 -2.77389,-0.47834 -4.83785,0.64736 -2.25621,1.23055 -2.53566,1.49866 -3.06732,2.94273 -0.26786,0.72761 -0.8731,1.8612 -1.34493,2.5191 -0.47186,0.6579 -1.09077,1.80903 -1.37538,2.55808 -0.50157,1.31996 -0.50395,1.45422 -0.0781,4.36007 0.34751,2.37108 0.59018,3.21953 1.16025,4.0565 0.39648,0.58209 0.86228,1.74295 1.03513,2.57969 0.17286,0.83675 0.40005,1.52135 0.50488,1.52135 0.10486,0 0.26832,0.38696 0.36325,0.8599 0.23714,1.18132 1.01677,3.10666 1.25849,3.10786 0.10914,5.3e-4 0.19844,0.15095 0.19844,0.33422 0,0.18328 0.22367,0.47293 0.49707,0.64367 0.27339,0.17073 0.62468,0.67646 0.78063,1.12382 0.27532,0.78976 0.22,0.87869 -1.90366,3.06051 -1.20298,1.23591 -2.29539,2.24711 -2.42757,2.24711 -0.46638,0 -1.97356,1.95624 -1.97356,2.5616 0,0.33737 -0.18063,0.82176 -0.40142,1.07642 -1.0446,1.20488 -1.93056,2.36904 -2.21491,2.91041 -0.17198,0.32742 -0.41143,0.59531 -0.53208,0.59531 -0.34948,0 -3.59743,3.38555 -3.60833,3.76121 -0.006,0.18691 -0.22405,0.66202 -0.48583,1.0558 -0.56975,0.85708 -0.44765,1.10982 0.82889,1.71558 1.3204,0.62656 1.96463,1.32279 1.86589,2.01649 -0.0624,0.4384 -0.29128,0.59918 -0.94231,0.66196 -0.61249,0.0591 -0.8599,-0.0273 -0.8599,-0.3003 0,-0.72393 -2.40437,-1.97342 -4.27058,-2.2193 -1.11731,-0.14722 -1.83394,0.24861 -3.54142,1.95608 -0.62813,0.62814 -1.20857,1.14207 -1.28988,1.14207 -0.0813,0 -0.7753,0.47573 -1.54222,1.05719 -1.50533,1.14127 -3.16905,1.45855 -3.47449,0.6626 -0.22397,-0.58367 -1.08227,-0.48369 -1.93455,0.22533 -1.01402,0.84361 -2.94341,2.0376 -3.19185,1.97527 -0.11102,-0.0279 -0.85673,0.0881 -1.65709,0.25779 -1.57678,0.33422 -5.44317,0.73656 -6.08542,0.63325 -0.21828,-0.0351 -0.51593,-0.0993 -0.66145,-0.14259 -2.94518,-0.8766 -4.41166,-1.37944 -5.21498,-1.78816 -1.01385,-0.51582 -2.59023,-0.67753 -2.59023,-0.26571 0,0.42803 -1.015,0.50648 -1.73306,0.13394 -0.38978,-0.20222 -1.02249,-0.37145 -1.40604,-0.37608 -0.97828,-0.0118 -1.46005,-0.47648 -1.84291,-1.77752 -0.182,-0.61847 -0.45256,-1.12448 -0.60125,-1.12448 -0.52717,0 -3.18721,-1.38453 -3.86259,-2.01045 -0.37708,-0.34946 -0.78727,-0.63538 -0.91154,-0.63538 -0.12427,0 -0.22595,-0.18563 -0.22595,-0.41249 0,-0.22687 -0.12057,-0.33797 -0.26795,-0.24689 -0.14737,0.0911 -0.64192,-0.021 -1.09898,-0.24897 -0.45707,-0.22801 -1.01237,-0.41457 -1.234,-0.41457 -1.15078,0 -5.81704,-3.87167 -7.09519,-5.88698 -0.75354,-1.18814 -1.53646,-1.2819 -3.86633,-0.46302 -1.80862,0.63568 -3.25225,0.69077 -3.46656,0.13229 -0.0838,-0.21828 -0.30486,-0.40346 -0.49133,-0.41151 -0.32947,-0.0142 -1.68893,-1.53081 -1.49449,-1.66723 1.2567,-0.88165 2.31754,-1.85444 2.21073,-2.02724 -0.0758,-0.12269 -0.0169,-0.29786 0.13104,-0.38926 0.14789,-0.0914 0.2689,-0.45875 0.2689,-0.81632 0,-0.47855 -0.23685,-0.76306 -0.89744,-1.07808 -0.56657,-0.27018 -0.86668,-0.58563 -0.814,-0.85561 0.0459,-0.23522 0.0926,-0.54887 0.10369,-0.69703 0.0111,-0.14815 0.74399,-1.04112 1.62857,-1.98437 0.88458,-0.94326 1.95105,-2.43016 2.36995,-3.30422 0.68388,-1.42697 0.75873,-1.84565 0.73317,-4.10104 -0.029,-2.56188 0.3877,-4.2814 1.4191,-5.85551 0.9682,-1.47767 1.30587,-3.12132 1.13035,-5.50214 -0.15234,-2.06626 -0.10328,-2.4436 0.51572,-3.96698 0.85454,-2.10303 0.73099,-3.50428 -0.40283,-4.56864 -0.56795,-0.53316 -0.7592,-0.95679 -0.7592,-1.68172 0,-0.6776 -0.23871,-1.27043 -0.79375,-1.97122 -0.43656,-0.5512 -0.79375,-1.19816 -0.79375,-1.43767 0,-0.60334 -1.01166,-2.53108 -1.32829,-2.53108 -0.14257,0 -0.25921,-0.15784 -0.25921,-0.35075 0,-0.19292 -0.29766,-0.63039 -0.66146,-0.97216 -0.77772,-0.73063 -0.80196,-0.88004 -0.23478,-1.44722 0.39158,-0.39157 0.47989,-0.39181 1.07353,-0.003 0.35576,0.2331 1.05956,0.88066 1.564,1.43901 0.50443,0.55834 1.21197,1.08917 1.57231,1.17961 0.4693,0.11778 0.65515,0.34442 0.65515,0.79891 0,0.76232 0.93096,3.00933 1.51354,3.65317 0.22957,0.2537 0.42941,0.78102 0.44411,1.17184 0.0199,0.52889 0.19584,0.75064 0.68818,0.86731 0.36381,0.0862 4.23334,0.14717 8.59896,0.13547 6.0657,-0.0163 8.12468,-0.10568 8.73125,-0.37913 0.43656,-0.19681 0.89535,-0.33451 1.01954,-0.306 0.41025,0.0942 2.40387,-1.2498 3.36766,-2.2703 0.52119,-0.55186 1.11218,-1.4201 1.31331,-1.92942 0.20114,-0.50932 0.63159,-1.32028 0.95655,-1.80213 0.89094,-1.32105 1.53798,-3.75738 1.15905,-4.36416 -0.16732,-0.26791 -0.5592,-0.98439 -0.87086,-1.59218 -0.31166,-0.60779 -0.63553,-1.1646 -0.71972,-1.23736 -0.0842,-0.0728 -0.4478,-0.71558 -0.80804,-1.42848 -0.36024,-0.7129 -0.92288,-1.59349 -1.2503,-1.95686 -0.32742,-0.36338 -0.59531,-0.85882 -0.59531,-1.10099 0,-0.24216 -0.3525,-0.80084 -0.78333,-1.24151 -0.4496,-0.45986 -0.9268,-1.35485 -1.12009,-2.10074 -0.18522,-0.71475 -0.39827,-1.35908 -0.47345,-1.43184 -0.0752,-0.0728 -0.14426,-0.37042 -0.15353,-0.66146 -0.0267,-0.83718 -1.23675,-3.30728 -1.62022,-3.30728 -0.19102,0 -0.3473,-0.21163 -0.3473,-0.47029 0,-0.58795 -0.75744,-1.70004 -1.03926,-1.52587 -0.34602,0.21385 -1.49763,-1.26965 -1.95692,-2.52091 -0.2365,-0.6443 -0.47223,-1.89625 -0.52385,-2.78208 -0.0547,-0.93852 -0.2783,-1.87396 -0.53587,-2.24169 -0.24311,-0.34708 -0.44598,-0.51527 -0.45082,-0.37376 -0.005,0.14152 -0.25639,-0.0403 -0.55899,-0.40415 -0.30261,-0.3638 -0.60428,-0.62535 -0.67038,-0.58122 -0.0661,0.0441 -0.47594,-0.36743 -0.91075,-0.91457 -0.43481,-0.54714 -1.14004,-1.23808 -1.56718,-1.53544 -0.42714,-0.29735 -0.84534,-0.749 -0.92934,-1.00366 -0.084,-0.25466 -0.26375,-0.46302 -0.39947,-0.46302 -0.13571,0 -0.47634,-0.20836 -0.75695,-0.46302 -1.09437,-0.99317 -1.26797,-1.0491 -2.98367,-0.96141 -1.29828,0.0664 -1.82607,-0.0106 -2.06753,-0.30157 -0.17833,-0.21487 -0.56041,-0.39067 -0.84907,-0.39067 -0.28866,0 -0.99384,-0.37145 -1.56706,-0.82545 -0.57322,-0.454 -1.42379,-0.86312 -1.89016,-0.90915 -0.46637,-0.046 -0.90747,-0.10304 -0.98023,-0.12666 -0.24266,-0.0788 -1.17768,-0.15722 -2.46301,-0.20656 -0.88544,-0.034 -1.21497,-0.14174 -1.0836,-0.35431 0.11451,-0.18527 0.0728,-0.2338 -0.10591,-0.12333 -0.29308,0.18114 -1.09963,-0.17173 -1.95457,-0.85513 -0.24624,-0.19683 -0.59598,-0.30845 -0.77721,-0.24804 -0.18123,0.0604 -0.54964,-0.11031 -0.81871,-0.37938 -0.26906,-0.26906 -0.62232,-0.40694 -0.78502,-0.30638 -0.16803,0.10385 -0.22246,0.0641 -0.126,-0.0919 0.34919,-0.565 -1.33448,-0.9271 -3.45242,-0.74251 -1.25931,0.10975 -2.57363,0.0628 -3.38251,-0.12082 -1.4462,-0.3283 -3.81526,-0.60117 -4.96093,-0.57139 -0.40018,0.0104 -0.7276,-0.0995 -0.7276,-0.24433 0,-0.17411 -0.16738,-0.17366 -0.49438,0.001 -0.27191,0.14552 -0.56669,0.19227 -0.65507,0.1039 -0.0884,-0.0884 -0.34105,-0.011 -0.56151,0.17196 -0.43522,0.36121 -4.94383,1.26063 -7.27978,1.45225 -0.80195,0.0658 -1.57066,0.28244 -1.7198,0.48472 -0.14832,0.20118 -0.4185,0.31563 -0.6004,0.25436 -0.1819,-0.0613 -0.33073,0.0138 -0.33073,0.16691 0,0.15308 -0.15864,0.21745 -0.35254,0.14304 -0.1939,-0.0744 -0.87851,-0.004 -1.52135,0.15713 -0.64285,0.16082 -1.67483,0.41368 -2.2933,0.56189 -0.61846,0.14821 -1.12448,0.3789 -1.12448,0.51263 0,0.13374 -0.26789,0.24695 -0.59531,0.25157 -0.81191,0.0115 -1.38498,0.49993 -1.69743,1.4468 -0.22813,0.69134 -0.40436,0.80424 -1.36584,0.87511 -0.71669,0.0528 -1.10392,-0.0279 -1.10392,-0.23025 0,-0.22441 -0.46276,-0.26295 -1.65364,-0.13771 -0.90951,0.0956 -1.80248,0.18935 -1.98438,0.20821 -0.1819,0.0189 -0.33073,0.13353 -0.33073,0.2548 0,0.12126 -0.24186,0.22048 -0.53747,0.22048 -0.29561,0 -0.60018,0.16344 -0.67684,0.36319 -0.0767,0.19975 -0.69799,0.6295 -1.38075,0.955 -0.68277,0.32549 -1.46135,0.70609 -1.73018,0.84577 -0.26883,0.13967 -0.54659,0.19615 -0.61723,0.12551 -0.0707,-0.0707 0.65532,-0.51852 1.61326,-0.99527 1.14428,-0.56949 1.74171,-1.02439 1.74171,-1.32619 0,-0.89499 0.69895,-1.26106 2.11679,-1.10863 0.84008,0.0903 1.78466,-0.006 2.58071,-0.26404 0.69059,-0.22357 1.70211,-0.48848 2.24782,-0.58869 0.5457,-0.10021 0.99218,-0.27511 0.99218,-0.38866 0,-0.11355 0.32743,-0.28817 0.72761,-0.38804 0.40018,-0.0999 0.91527,-0.35064 1.14465,-0.55726 0.39433,-0.3552 1.41018,-0.63318 4.26139,-1.16609 0.68137,-0.12735 2.06765,-0.53051 3.08062,-0.89591 1.01298,-0.3654 1.8948,-0.61134 1.9596,-0.54654 0.18802,0.18802 4.67235,-0.65192 6.52308,-1.2218 1.31322,-0.40438 1.77322,-0.45093 2.06476,-0.20898 0.23226,0.19276 1.30171,0.30334 2.80826,0.29038 1.48893,-0.0128 2.57738,0.0984 2.80481,0.28651 0.44933,0.37171 3.51028,0.33358 4.94134,-0.0615 0.89382,-0.2468 1.0872,-0.21326 1.61174,0.27952 0.59744,0.56126 1.4608,1.11821 2.20339,1.42138 0.21828,0.0891 1.14787,0.51899 2.06576,0.95527 1.37046,0.6514 2.06582,0.80642 3.88851,0.8669 2.04207,0.0678 2.29253,0.13767 3.13107,0.87391 1.04995,0.92187 2.62821,1.35296 5.45618,1.49033 1.60094,0.0778 2.02579,0.19037 2.24896,0.59608 0.15133,0.2751 1.05689,1.2741 2.01236,2.21998 0.95547,0.94589 1.95142,2.04722 2.21324,2.4474 0.26181,0.40018 0.61757,0.7276 0.79057,0.7276 0.173,0 0.68014,0.38696 1.12698,0.8599 0.70698,0.74828 0.8348,1.11574 0.9847,2.8309 0.10001,1.14438 0.33587,2.15179 0.56238,2.40208 0.21456,0.2371 0.39277,0.6003 0.396,0.80712 0.008,0.4952 0.72869,1.34907 1.71391,2.02993 0.81281,0.5617 2.22744,3.0706 2.79707,4.9607 0.17543,0.58208 0.40951,1.29646 0.52018,1.5875 0.11068,0.29104 0.34707,0.9169 0.52533,1.39079 0.17825,0.4739 0.66462,1.24781 1.0808,1.7198 0.41619,0.47199 0.75861,1.02551 0.76094,1.23006 0.002,0.20454 0.30188,0.76215 0.66568,1.23912 0.3638,0.47697 0.66146,0.98508 0.66146,1.12915 0,0.14406 0.28041,0.59849 0.62313,1.00984 0.34272,0.41135 0.75938,1.16462 0.92591,1.67395 0.16652,0.50932 0.65544,1.33829 1.08649,1.84215 0.55215,0.64543 0.77405,1.17311 0.75101,1.78593 -0.018,0.47841 -0.13502,0.86983 -0.26008,0.86983 -0.12506,0 -0.36135,0.32742 -0.52508,0.72761 -1.85337,4.52993 -3.27466,6.67887 -5.09226,7.69932 -2.18341,1.22583 -3.34611,1.50639 -7.20737,1.73917 -0.89565,0.054 -1.8343,0.21336 -2.08588,0.35415 -0.27292,0.15274 -0.84337,0.16629 -1.41425,0.0336 -0.52626,-0.12232 -2.02799,-0.2959 -3.33718,-0.38575 -1.3092,-0.0898 -2.46134,-0.21341 -2.56033,-0.27458 -0.099,-0.0612 -1.01657,-0.0335 -2.03909,0.0616 l -1.85914,0.17279 -0.40919,1.20091 c -0.22505,0.6605 -0.40919,1.49091 -0.40919,1.84535 0,0.35445 -0.22863,1.07738 -0.50805,1.60652 -0.85826,1.6252 -1.10558,2.66782 -0.77802,3.27987 0.53291,0.99574 0.0786,4.27876 -0.82642,5.97238 -1.31892,2.46814 -1.44049,2.96193 -1.47656,5.99731 -0.0209,1.75615 -0.17293,3.22522 -0.38341,3.70417 -0.19185,0.43656 -0.36062,0.85328 -0.37505,0.92604 -0.0144,0.0728 -0.14342,0.31088 -0.28668,0.52916 -0.61958,0.9441 -0.92433,1.48488 -1.08098,1.91823 -0.0921,0.25467 -0.27256,0.46302 -0.4011,0.46302 -0.12855,0 -0.23373,0.46633 -0.23373,1.03629 0,0.56995 -0.13247,1.08044 -0.29438,1.13441 -0.18459,0.0615 -0.28375,0.83445 -0.26588,2.07257 0.0266,1.84178 -0.0241,2.03057 -0.75446,2.80982 -0.58977,0.62927 -0.70369,0.90035 -0.46172,1.09867 0.57807,0.47378 1.35219,0.43026 3.14812,-0.17699 1.64746,-0.55706 1.82324,-0.56972 2.56735,-0.18492 0.92545,0.47856 2.52888,2.06666 3.15249,3.12235 0.237,0.40121 0.53688,0.72947 0.6664,0.72947 0.22916,0 1.47343,0.92373 2.31844,1.72118 0.23049,0.21752 0.55791,0.39548 0.72761,0.39548 0.16969,0 0.30853,0.12609 0.30853,0.2802 0,0.15411 0.10507,0.21526 0.23349,0.1359 0.12841,-0.0794 0.51537,0.074 0.85989,0.34091 0.34453,0.26687 0.94551,0.56308 1.33551,0.65825 0.39001,0.0952 0.88752,0.35145 1.10558,0.56951 0.21807,0.21807 0.51279,0.39648 0.65493,0.39648 0.14215,0 0.75723,0.41672 1.36685,0.92604 0.60962,0.50933 1.34207,0.92605 1.62766,0.92605 0.2856,0 1.03733,0.13045 1.67052,0.28988 1.08427,0.27303 1.45914,0.6842 1.57247,1.72477 0.0177,0.16218 0.1988,0.49572 0.40253,0.74119 0.30107,0.36277 0.63464,0.41331 1.78195,0.26996 0.96729,-0.12085 1.41154,-0.0835 1.41154,0.11871 0,0.16626 0.44745,0.29507 1.02501,0.29507 0.5883,0 1.51828,0.2725 2.18281,0.63959 0.63679,0.35178 1.69358,0.77346 2.34843,0.93708 0.65484,0.16363 1.45172,0.42807 1.77084,0.58767 0.57539,0.28776 1.84071,0.23295 6.20777,-0.26889 1.69806,-0.19513 2.38239,-0.43666 4.23334,-1.49412 1.2143,-0.69375 2.46311,-1.49347 2.77511,-1.77715 0.48961,-0.44521 0.64349,-0.46817 1.12447,-0.1678 0.30647,0.19139 0.55722,0.49795 0.55722,0.68122 0,0.83879 1.61004,0.15669 2.74566,-1.1632 0.41867,-0.48665 0.90326,-0.88482 1.0768,-0.88482 0.17357,0 0.72395,-0.36743 1.22311,-0.81652 0.49917,-0.44908 1.71572,-1.29877 2.70349,-1.88818 0.9878,-0.58942 1.92011,-1.30363 2.07182,-1.58713 0.15174,-0.28351 0.68863,-0.68792 1.19309,-0.8987 0.91911,-0.38403 5.39019,-4.68314 5.39019,-5.18287 0,-0.14621 0.28602,-0.60574 0.63558,-1.02118 0.62278,-0.74011 1.29059,-2.30645 1.60007,-3.75281 0.12102,-0.56559 0.30774,-0.7276 0.83857,-0.7276 0.69935,0 1.43473,-0.64431 3.32589,-2.91395 0.64686,-0.77633 0.89308,-1.27161 0.72991,-1.46823 -0.13544,-0.1632 -0.18817,-0.35481 -0.11716,-0.42582 0.16156,-0.16155 -0.63238,-2.91484 -0.93077,-3.22789 -0.12095,-0.12687 -0.15635,-0.39628 -0.0787,-0.59868 0.0777,-0.2024 -0.008,-0.54796 -0.19066,-0.7679 -0.18254,-0.21995 -0.25958,-0.47221 -0.17121,-0.56059 0.0884,-0.0884 0.019,-0.41292 -0.15388,-0.72121 -0.17299,-0.30829 -0.34132,-0.84208 -0.37405,-1.18621 -0.0327,-0.34413 -0.24415,-0.82975 -0.46987,-1.07917 -0.22571,-0.24941 -0.41039,-0.58377 -0.41039,-0.74302 0,-0.15925 -0.33753,-0.62706 -0.75004,-1.03959 -0.6521,-0.6521 -0.74624,-0.9398 -0.72089,-2.20316 0.0161,-0.79922 -0.066,-1.58781 -0.18232,-1.75243 -0.21879,-0.30967 -0.33243,-3.79423 -0.15418,-4.72778 0.0556,-0.29104 0.55801,-1.22916 1.11652,-2.08471 0.55854,-0.85555 1.25447,-2.1057 1.54657,-2.77812 0.71631,-1.64897 1.65584,-2.85932 2.5976,-3.34632 1.00772,-0.52112 0.99174,-1.20901 -0.0423,-1.81982 -1.42677,-0.84281 -3.07412,-2.62225 -3.2688,-3.53092 -0.10287,-0.48012 -0.35023,-0.8599 -0.56009,-0.8599 -0.20672,0 -0.37584,-0.17859 -0.37584,-0.39687 0,-0.21828 -0.10708,-0.39688 -0.23794,-0.39688 -0.13087,0 -0.29938,-0.50601 -0.37447,-1.12448 -0.0751,-0.61846 -0.32337,-2.23653 -0.55171,-3.59571 -0.70437,-4.19253 -0.31686,-8.45416 1.05804,-11.636 0.20868,-0.48293 0.30766,-0.99417 0.21998,-1.13607 -0.0877,-0.1419 -0.0318,-0.41189 0.12435,-0.59998 0.15611,-0.18809 0.45083,-0.81528 0.6549,-1.39374 0.59836,-1.69591 1.4637,-3.48646 1.77916,-3.68143 0.16087,-0.0994 0.55711,-0.75195 0.88056,-1.45006 0.82196,-1.77411 1.82515,-2.95307 3.48634,-4.09718 0.7851,-0.54072 1.42745,-1.07475 1.42745,-1.18675 0,-0.112 0.44649,-0.39411 0.99219,-0.62692 1.14027,-0.48646 2.75577,-1.37834 3.90353,-2.15507 3.34513,-2.26374 9.66142,-3.97114 17.19699,-4.64862 3.64202,-0.32743 4.24304,-0.29522 7.80521,0.41825 2.78762,0.55835 4.13581,1.08309 5.15937,2.00812 0.43657,0.39454 1.27,0.96158 1.85209,1.2601 0.58208,0.2985 1.53458,1.01987 2.11666,1.60304 0.58209,0.58316 1.1606,1.06614 1.28556,1.07327 0.66093,0.0378 4.14652,3.39251 5.92386,5.70153 1.12014,1.4552 2.30775,2.94227 2.63912,3.30458 0.33139,0.36232 0.6025,0.75758 0.6025,0.87837 0,0.12079 0.34243,0.71732 0.76095,1.32562 0.41854,0.60831 0.77329,1.19655 0.7884,1.30722 0.0151,0.11066 0.21331,0.56065 0.44048,0.99996 0.22717,0.43931 0.34933,0.90183 0.27146,1.02783 -0.0779,0.126 0.0298,0.29484 0.23919,0.3752 0.20941,0.0804 0.46011,0.56909 0.55708,1.08606 0.097,0.51697 0.26304,0.93995 0.36901,0.93995 0.26017,0 0.65799,0.91218 1.46812,3.36616 0.37365,1.13179 0.75285,2.23639 0.8427,2.45467 0.25201,0.61221 0.3161,1.03808 0.47448,3.15321 0.0808,1.07942 0.25138,2.09146 0.37898,2.24896 0.40537,0.50033 0.16219,9.57154 -0.34038,12.69839 -0.58619,3.64696 -2.61541,9.03163 -4.99428,13.25256 -0.72535,1.28703 -1.51865,2.93022 -1.51966,3.14775 -0.003,0.29395 -1.84176,2.59534 -2.30685,2.88467 -0.18706,0.11637 -0.34009,0.34104 -0.34009,0.49926 0,0.15821 -0.75057,1.13456 -1.66796,2.16966 -0.91736,1.0351 -2.21922,2.59637 -2.89298,3.4695 -1.37851,1.78636 -3.95375,4.31565 -5.79787,5.69444 -0.67688,0.50608 -1.44843,1.24261 -1.71455,1.63673 -0.56171,0.83192 -2.67214,2.46208 -4.19852,3.24312 -1.04899,0.53676 -6.24863,4.6198 -7.56208,5.93815 -1.91317,1.92034 -5.88433,4.9714 -7.56362,5.81115 -0.60653,0.30331 -1.63581,0.91122 -2.28732,1.35091 -0.65151,0.4397 -1.31612,0.79945 -1.4769,0.79945 -0.16082,0 -0.29237,0.12329 -0.29237,0.27399 0,0.15069 -0.50601,0.49303 -1.12448,0.76076 -0.61846,0.26773 -1.43885,0.78151 -1.82311,1.14173 -0.38425,0.36023 -1.15816,0.93857 -1.71979,1.28521 -0.56163,0.34663 -1.43788,1.00366 -1.9472,1.46006 -1.24791,1.11824 -3.66953,2.62935 -4.56406,2.84799 -0.40019,0.0978 -0.72761,0.35417 -0.72761,0.56967 0,0.21551 -0.17767,0.39184 -0.39478,0.39184 -0.21715,0 -0.6041,0.44152 -0.8599,0.98116 -0.50345,1.06203 -2.13989,2.32842 -3.31375,2.56438 -0.45275,0.091 -0.82576,0.39384 -0.97784,0.79385 -0.13523,0.35569 -0.97875,1.22148 -1.87447,1.92398 -0.89572,0.70249 -2.30209,1.9321 -3.12526,2.73246 -2.09002,2.03211 -2.90994,2.67549 -4.41579,3.46505 -0.72054,0.37781 -1.84586,0.98479 -2.50071,1.34885 -0.65484,0.36406 -1.84547,0.87501 -2.64583,1.13543 -0.80036,0.26043 -1.76763,0.58441 -2.1495,0.71997 -0.38185,0.13555 -1.37195,0.94707 -2.20025,1.80337 -0.82828,0.8563 -1.73625,1.63 -2.01769,1.71932 -0.28146,0.0893 -0.51173,0.26361 -0.51173,0.38729 0,0.31451 -2.00427,0.9982 -3.50009,1.19397 -0.68813,0.0901 -3.28665,0.20916 -5.77447,0.26468 -2.48783,0.0555 -4.66325,0.2129 -4.83427,0.34975 -0.17103,0.13685 -1.23342,0.33276 -2.36087,0.43538 l -2.04991,0.18656 0.16722,0.70508 c 0.092,0.3878 0.32054,0.88369 0.50794,1.10197 0.1874,0.21828 0.41915,0.71118 0.515,1.09535 0.17966,0.72004 1.23505,1.81506 1.74936,1.81506 0.15998,0 0.21997,0.18478 0.13331,0.41062 -0.0904,0.23546 -0.046,0.34166 0.10398,0.24897 0.14556,-0.09 0.26155,0.13006 0.26155,0.4961 0,0.8007 1.45784,4.0117 2.86558,6.31168 0.56939,0.93027 1.12596,1.97719 1.23682,2.32649 0.11086,0.34929 0.60136,1.05677 1.09,1.57217 0.48864,0.51541 0.88946,1.08593 0.89073,1.26783 0.001,0.1819 0.1229,0.33073 0.27031,0.33073 0.14742,0 0.52166,0.56554 0.83166,1.25677 1.52689,3.40456 1.77713,3.99232 2.19552,5.15664 0.24786,0.68971 0.56033,1.32182 0.6944,1.40467 0.13404,0.0829 0.24373,0.39366 0.24373,0.69067 0,0.29702 0.45985,1.51038 1.02185,2.69638 0.56203,1.18596 1.11517,2.45361 1.2292,2.81694 0.20336,0.64804 1.10784,2.4004 2.45856,4.76334 0.37434,0.65485 1.11863,1.72641 1.65402,2.38125 0.53538,0.65485 1.0646,1.48828 1.17607,1.85209 0.11144,0.3638 0.39571,0.95911 0.63167,1.32291 0.23595,0.3638 0.72636,1.25677 1.08976,1.98438 0.36341,0.7276 0.72393,1.38244 0.80114,1.4552 0.23727,0.2236 2.10846,3.4661 2.11037,3.657 0,0.0987 0.65669,1.13196 1.45716,2.29613 1.36083,1.97919 3.22403,4.14803 5.88322,6.84839 0.61847,0.62805 1.12448,1.28733 1.12448,1.46513 0,0.17778 0.14883,0.48919 0.33073,0.69202 0.70591,0.78716 0.89694,1.09609 1.54816,2.50383 1.42563,3.08179 1.60303,3.58701 2.08941,5.95091 0.68181,3.31364 2.0197,6.04887 3.82463,7.81923 0.79047,0.77531 1.64971,1.80419 1.9094,2.28642 0.25968,0.48223 0.56216,0.87678 0.67214,0.87678 0.23231,0 1.53178,2.48375 1.53178,2.92777 0,0.16476 0.19074,0.73424 0.42387,1.26558 0.23309,0.53131 0.5258,1.20415 0.65039,1.49519 0.26334,0.61502 0.85842,2.72828 0.93131,3.30729 0.74486,5.9151 1.05063,7.13459 2.07386,8.27085 1.9187,2.13066 3.03141,4.1788 3.24495,5.97302 0.0808,0.67884 0.24403,1.42023 0.36269,1.64753 0.1187,0.22728 0.40704,1.23786 0.64077,2.24571 0.23374,1.00782 0.57611,2.072 0.76081,2.36484 0.61844,0.98042 1.54361,3.38331 1.65812,4.30649 0.0623,0.50253 0.21958,1.11221 0.34943,1.35485 0.12986,0.24265 0.37566,1.21198 0.54621,2.15406 0.45797,2.52986 1.41142,4.36509 3.25747,6.27012 1.57596,1.62631 1.74133,1.92069 3.2366,5.76149 0.11329,0.29104 0.43121,1.30307 0.70646,2.24895 0.27527,0.94589 0.60592,2.07698 0.73475,2.51355 0.12885,0.43656 0.37711,1.32953 0.55168,1.98437 0.1746,0.65484 0.61328,1.58909 0.97491,2.07608 0.55901,0.75285 0.65201,1.1507 0.62106,2.65668 -0.0246,1.20269 0.0894,1.9376 0.35549,2.28955 0.21556,0.28508 0.39571,0.78782 0.40034,1.11723 0.005,0.32938 0.11348,0.80563 0.24191,1.05833 0.3974,0.78187 1.35401,3.365 1.35401,3.65617 0,0.15187 0.3443,0.606 0.76512,1.00917 l 0.76515,0.73303 -0.38952,1.63158 c -0.43551,1.82417 -0.59545,6.07434 -0.26303,6.98937 0.16571,0.45614 0.1193,0.59531 -0.19843,0.59531 -0.2281,0 -0.41471,0.10615 -0.41471,0.23591 0,0.12975 -0.29345,0.30956 -0.65215,0.39957 -0.35867,0.09 -0.94855,0.46011 -1.31087,0.82243 -0.36232,0.36232 -0.77037,0.65876 -0.90676,0.65876 -0.13639,0 -0.82642,0.51266 -1.53336,1.13922 -0.70697,0.62658 -1.70212,1.42428 -2.21144,1.77265 -0.50933,0.34841 -1.02127,0.78825 -1.13763,0.97745 -0.11637,0.18921 -0.43387,0.34401 -0.70557,0.34401 -0.28596,0 -0.58679,0.27038 -0.71445,0.64212 -0.12126,0.35317 -0.93485,1.39496 -1.80798,2.3151 -0.87312,0.92015 -1.81512,2.03018 -2.09333,2.46674 -0.64931,1.01894 -1.67529,1.98438 -2.10878,1.98438 -0.18614,0 -0.92414,0.29715 -1.64002,0.66034 -0.71588,0.3632 -1.40354,0.66085 -1.52813,0.66146 -0.12456,0 -0.67749,0.3583 -1.2287,0.79486 -0.5512,0.43657 -1.1212,0.79375 -1.26664,0.79375 -0.14544,0 -0.96173,0.41315 -1.81401,0.91813 -0.85225,0.50496 -1.96627,1.13004 -2.4756,1.38907 -0.50932,0.259 -0.98557,0.53665 -1.05833,0.617 -0.0728,0.0804 -0.55531,0.34269 -1.07233,0.58299 -0.51702,0.24029 -1.31961,0.79965 -1.78353,1.24298 -0.54314,0.51906 -1.11662,0.80608 -1.61055,0.80608 -0.4931,0 -1.34469,0.42524 -2.38439,1.19063 -0.88953,0.65484 -1.792,1.19062 -2.00544,1.19062 -0.21344,0 -0.77867,0.21683 -1.25603,0.48186 -1.6215,0.90022 -9.06693,2.57069 -12.54244,2.81406 -1.18224,0.0828 -2.84911,0.37666 -3.70417,0.65309 -4.62306,1.49458 -6.98507,1.83918 -12.63057,1.84267 -5.31837,0.003 -8.41666,0.2341 -8.68279,0.64683 -0.11841,0.18364 -3.00038,0.29202 -8.46666,0.3184 -8.15708,0.0394 -10.15994,0.14313 -12.25589,0.635 -2.69889,0.63335 -3.65366,0.82467 -5.46415,1.09495 -1.80445,0.26937 -3.85691,0.5081 -5.11918,0.59539 -1.42695,0.0987 -4.44572,-0.46712 -6.27777,-1.17666 -2.9942,-1.15964 -4.22986,-1.28894 -7.01552,-0.73403 -1.29865,0.25868 -2.82752,0.64556 -3.39749,0.85971 -0.56997,0.21418 -1.51255,0.46784 -2.09464,0.56372 -0.58208,0.0959 -1.35598,0.22723 -1.71979,0.29184 -0.3638,0.0646 -1.13771,0.16793 -1.71979,0.22963 -0.58208,0.0617 -1.71318,0.18388 -2.51354,0.27154 -2.01256,0.2204 -12.94434,0.30612 -14.04788,0.11012 l 10e-5,0.002 c -0.4956,-0.088 -2.31574,-0.41942 -4.04477,-0.73649 -1.72902,-0.31705 -3.87215,-0.58182 -4.7625,-0.58838 -0.89034,-0.007 -3.64287,-0.0138 -6.11673,-0.0156 -2.47385,-0.003 -4.67651,-0.006 -4.89479,-0.01 -0.21828,-0.003 -1.79557,-0.1724 -3.5051,-0.37608 -1.70952,-0.2037 -3.67405,-0.42711 -4.36563,-0.49652 -1.98612,-0.19925 -5.32451,-0.91731 -7.34281,-1.57937 -1.01865,-0.33414 -2.68552,-0.86868 -3.70417,-1.18788 -1.01864,-0.31916 -2.14974,-0.73181 -2.51354,-0.91694 -0.3638,-0.18515 -1.85208,-0.71929 -3.30729,-1.18694 -1.45521,-0.46768 -2.88396,-0.96306 -3.175,-1.10085 -0.82132,-0.38889 -2.07075,-0.5148 -6.21771,-0.62659 -5.58536,-0.15055 -9.29993,-0.39764 -10.05416,-0.66879 -0.36381,-0.13078 -1.31863,-0.41957 -2.12183,-0.6418 -0.8032,-0.2222 -1.72096,-0.64677 -2.03946,-0.9435 -0.3185,-0.29673 -0.70815,-0.53951 -0.8659,-0.53951 -0.28533,0 -0.63894,-0.2471 -1.59963,-1.11776 -0.27691,-0.25096 -0.79928,-0.53052 -1.16081,-0.62127 -0.36153,-0.0907 -0.79586,-0.33189 -0.96517,-0.53589 -0.16931,-0.20402 -0.47185,-0.37092 -0.67231,-0.37092 -0.20046,0 -0.36448,-0.11104 -0.36448,-0.24675 0,-0.1357 -0.2208,-0.31684 -0.49068,-0.40248 -0.50644,-0.16076 -0.97203,-0.60899 -3.11308,-2.99707 -1.53632,-1.71355 -1.8252,-2.12487 -2.0848,-2.96828 -0.11198,-0.3638 -0.33021,-0.74261 -0.48497,-0.84177 -0.15475,-0.0992 -0.32942,-0.93493 -0.38815,-1.85722 -0.0866,-1.36022 0.0232,-1.99676 0.58162,-3.371 0.37862,-0.93178 0.6884,-1.80446 0.6884,-1.93929 0,-0.13481 0.16363,-0.62029 0.36363,-1.07887 0.2,-0.45855 0.50304,-1.34175 0.67341,-1.96265 0.57544,-2.09709 3.07437,-5.11635 5.85416,-7.07316 4.16211,-2.92983 5.46964,-4.49093 6.7591,-8.06979 0.23593,-0.65484 0.7123,-1.85669 1.0586,-2.67078 0.34629,-0.81407 0.68331,-1.88564 0.74893,-2.38125 0.47278,-3.57061 0.89743,-5.26881 2.04477,-8.17714 0.71761,-1.81901 1.60357,-3.88233 1.96881,-4.58514 0.74195,-1.42772 3.07832,-4.45165 4.83881,-6.26277 1.4375,-1.47884 2.69823,-3.428 3.33712,-5.15938 0.26849,-0.7276 0.64658,-1.51087 0.8402,-1.74061 0.19362,-0.22974 0.35204,-0.52102 0.35204,-0.64725 0,-0.22537 1.20006,-2.08904 1.71979,-2.67078 0.14552,-0.16291 0.79838,-0.93681 1.45081,-1.7198 0.65242,-0.783 2.40859,-2.66898 3.9026,-4.19105 1.49401,-1.52209 2.71638,-2.91116 2.71638,-3.08681 0,-0.17566 0.0911,-0.35907 0.20246,-0.40759 0.51661,-0.22503 3.66042,-8.03799 3.92143,-9.74548 0.1001,-0.65484 0.28597,-1.39345 0.41304,-1.64137 0.25135,-0.49035 0.43895,-3.30062 0.60575,-9.07425 0.0864,-2.99014 0.23904,-4.15282 0.79188,-6.0316 0.95186,-3.23483 2.09273,-5.38224 3.68586,-6.93775 1.02404,-0.99983 1.53131,-1.78377 2.05445,-3.175 0.70489,-1.87455 1.19124,-3.7415 1.41173,-5.4192 0.0669,-0.50932 0.29896,-1.75085 0.5156,-2.75894 0.21665,-1.00809 0.33339,-1.93079 0.25943,-2.05047 -0.074,-0.11967 -0.18483,-2.21191 -0.24637,-4.64941 -0.22556,-8.93376 -0.20995,-9.27124 0.54777,-11.84013 0.38631,-1.30969 0.78789,-2.50031 0.89239,-2.64584 0.10451,-0.14552 0.22061,-1.27661 0.258,-2.51354 0.0374,-1.23692 0.11899,-2.72521 0.18134,-3.30729 0.0623,-0.58208 0.1615,-2.03269 0.22032,-3.22355 0.0588,-1.19088 0.18543,-2.2922 0.28134,-2.4474 0.0959,-0.15519 0.1059,-0.39301 0.0222,-0.52847 -0.0837,-0.13547 -0.0312,-0.32109 0.11668,-0.41249 0.14789,-0.0914 0.2689,-0.44077 0.2689,-0.77636 0,-0.33559 0.24734,-0.92461 0.54966,-1.30894 0.78837,-1.00226 1.82319,-4.44661 2.07699,-6.9132 0.11979,-1.16417 0.45437,-2.72497 0.74351,-3.46845 0.28914,-0.74347 0.60359,-1.76697 0.69879,-2.27443 0.0952,-0.50745 0.42445,-1.44288 0.73165,-2.07873 0.30721,-0.63584 0.60331,-1.69594 0.65801,-2.35578 0.20912,-2.52255 0.30092,-3.35051 0.48736,-4.3954 0.15058,-0.8439 0.0947,-1.17689 -0.25658,-1.52815 -0.24702,-0.24702 -0.38186,-0.62442 -0.29964,-0.83867 0.16924,-0.44104 -0.63962,-1.05398 -1.75173,-1.32741 -0.40019,-0.0984 -0.72761,-0.27148 -0.72761,-0.38465 0,-0.36766 -1.88687,-1.11241 -2.44716,-0.96589 -0.29972,0.0784 -1.15165,0.022 -1.89317,-0.12524 -3.36062,-0.66739 -4.15994,-0.86732 -4.28657,-1.07221 -0.40899,-0.66176 -2.66956,0.0645 -3.91512,1.25788 -0.93237,0.89328 -2.3391,1.18309 -3.62737,0.74729 -1.05272,-0.35611 -3.69773,-0.15429 -4.6004,0.35102 -0.73074,0.40907 -1.46849,0.65005 -2.24896,0.7346 -0.3638,0.0394 -1.13771,0.21043 -1.71979,0.38004 -2.34875,0.6844 -2.86486,0.76164 -3.49313,0.52277 -0.71539,-0.27198 -1.77112,-0.0848 -2.62023,0.46449 -0.4422,0.28608 -0.83439,0.30096 -1.9014,0.0721 -1.44639,-0.31019 -2.43628,-0.0396 -2.43628,0.66586 0,0.51788 -0.89468,0.74414 -2.12234,0.53673 -0.98981,-0.16723 -2.87122,0.23018 -3.16933,0.66945 -0.0728,0.10721 -1.0476,0.63436 -2.16632,1.17145 -1.11871,0.53708 -2.18358,1.15671 -2.36638,1.37697 -0.55654,0.6706 -4.16072,2.20704 -5.17725,2.20704 -0.35723,0 -0.99374,0.32743 -1.41447,0.72761 -0.42073,0.40018 -0.94593,0.87979 -1.16711,1.06581 -0.52722,0.4434 -0.84855,1.71996 -0.46512,1.84777 0.39825,0.13275 0.0846,0.85612 -0.6775,1.56239 -0.50206,0.46529 -0.64641,0.89966 -0.70536,2.12249 -0.0408,0.84561 -0.28898,2.01373 -0.55161,2.59581 -0.73171,1.6218 -1.15932,3.31558 -1.1722,4.6432 -0.0109,1.11783 -0.074,1.22616 -0.88622,1.51986 -0.481,0.17393 -1.13087,0.55504 -1.44415,0.8469 -0.31328,0.29187 -0.68708,0.53066 -0.83068,0.53066 -0.14359,0 -0.75201,0.52379 -1.35203,1.16397 l -1.09096,1.16396 -2.42934,0.18966 c -1.33614,0.10432 -2.72699,0.343 -3.0908,0.53041 -0.73431,0.37828 -1.72038,2.71061 -1.62032,3.83252 0.0439,0.49181 -0.14903,0.78573 -0.74778,1.13943 -0.4438,0.26215 -0.82178,0.58896 -0.83997,0.72625 -0.0182,0.13729 -0.048,0.34436 -0.0661,0.46011 -0.0588,0.37436 -1.56548,1.75496 -2.70362,2.4774 -0.68738,0.43633 -1.39557,1.21849 -1.86471,2.05947 -0.43172,0.7739 -0.9969,1.41742 -1.31667,1.49918 -0.30814,0.0788 -0.80681,0.47672 -1.10816,0.88434 -0.30135,0.40759 -0.87541,0.82328 -1.27569,0.92374 -0.40028,0.10046 -1.04786,0.41058 -1.43907,0.68916 -1.11585,0.79454 -3.3211,1.21108 -6.06786,1.1461 -1.38245,-0.0327 -3.24616,0.0606 -4.14158,0.2074 -3.00638,0.49284 -11.22212,-1.18311 -13.06676,-2.66549 -0.55928,-0.44945 -1.11316,-0.81804 -1.23083,-0.81907 -0.11767,0 -0.6902,-0.47146 -1.27229,-1.04537 -0.58208,-0.57391 -1.13847,-1.04931 -1.23642,-1.05643 -0.098,-0.007 -0.51542,-0.34041 -0.92772,-0.74059 -0.41229,-0.40018 -1.23576,-1.14432 -1.82992,-1.65365 -1.5941,-1.36646 -3.73795,-4.04209 -3.66067,-4.56864 0.037,-0.25214 -0.0142,-0.45844 -0.11372,-0.45844 -0.20627,0 -0.87831,-1.24524 -1.46986,-2.72357 -0.22091,-0.55207 -0.88181,-1.4348 -1.46865,-1.96163 -0.91532,-0.82169 -1.06714,-1.11154 -1.06799,-2.03893 -5.2e-4,-0.59459 -0.22485,-1.44819 -0.49845,-1.89688 -0.65522,-1.07447 -0.90685,-2.65259 -0.86329,-5.41403 0.0728,-4.61235 0.32328,-5.64021 2.33233,-9.56949 0.35074,-0.68598 0.66302,-1.62588 0.69395,-2.08868 0.0749,-1.12038 1.62332,-2.73388 2.26445,-2.3596 0.27033,0.1578 0.30869,0.25855 0.10035,0.26352 -0.31056,0.007 -0.82477,0.97525 -0.96438,1.81514 -0.0322,0.19353 -0.1851,0.43166 -0.33984,0.52916 -0.15474,0.0975 -0.33893,0.68184 -0.40932,1.29852 -0.0704,0.61669 -0.24689,1.27153 -0.39223,1.45521 -0.52221,0.65996 -1.65799,2.8738 -1.65799,3.23173 0,0.20099 -0.13541,0.41057 -0.30091,0.46574 -0.33494,0.11164 -0.43653,6.01434 -0.13109,7.61671 0.0971,0.50932 0.2457,1.28323 0.33023,1.71979 0.0845,0.43656 0.32336,1.06164 0.53071,1.38906 0.20735,0.32742 0.31664,0.59531 0.24286,0.59531 -0.31018,0 1.01935,2.15353 1.48259,2.40145 0.27845,0.14901 0.44977,0.36235 0.38072,0.47407 -0.0691,0.11172 0.14562,0.49558 0.47705,0.85301 0.4791,0.51668 1.55421,2.77102 1.62875,3.41522 0.0652,0.56346 0.47434,1.32292 0.71268,1.32292 0.15997,0 0.21448,0.0764 0.12115,0.1697 -0.29842,0.29843 1.83422,2.58107 3.16328,3.38577 0.70612,0.42754 1.81099,1.37851 2.45527,2.11328 0.64429,0.73477 1.59906,1.64571 2.12172,2.02433 1.46857,1.06383 4.28736,2.08124 6.55559,2.36619 3.19965,0.40196 4.03719,0.53938 4.63495,0.76049 0.30499,0.11282 1.5005,0.0537 2.65668,-0.13144 1.15619,-0.18513 3.17161,-0.29829 4.47872,-0.25146 1.36259,0.0488 2.91841,-0.0578 3.64655,-0.24985 1.34967,-0.35605 2.9125,-1.16779 2.9125,-1.5128 0,-0.11415 0.1945,-0.20754 0.43223,-0.20754 0.53489,0 2.7209,-2.19221 3.41779,-3.42747 0.62313,-1.10453 1.86789,-2.39337 2.31152,-2.39337 0.37567,0 1.5534,-1.19771 1.996,-2.02988 0.16811,-0.31607 0.51006,-0.77909 0.75988,-1.02891 0.31659,-0.3166 0.46017,-0.9098 0.47385,-1.95777 0.0179,-1.3693 0.10122,-1.57643 0.93343,-2.32002 l 0.9138,-0.81647 -1.00788,-0.95056 c -0.55434,-0.5228 -1.11847,-0.95055 -1.25363,-0.95055 -0.13516,0 -0.24574,-0.1786 -0.24574,-0.39688 0,-0.21828 -0.14883,-0.40083 -0.33073,-0.40568 -1.04651,-0.0279 -2.00909,-1.86408 -1.15,-2.19375 0.49024,-0.18812 1.48073,0.0799 1.48073,0.40064 0,0.51749 2.82689,2.89113 4.19916,3.52587 2.13516,0.98762 3.73582,0.77594 5.33541,-0.70558 0.80069,-0.7416 2.28477,-1.81212 2.51215,-1.81212 0.36208,0 0.96037,-0.83495 1.08305,-1.51146 0.0719,-0.39658 0.26558,-0.88352 0.43037,-1.08209 0.16479,-0.19856 0.31883,-0.55944 0.34231,-0.80196 0.0235,-0.24252 0.18734,-0.95998 0.36414,-1.59435 0.63195,-2.26743 1.06885,-5.96508 0.73026,-6.1804 -0.21022,-0.13369 -0.16607,-0.20005 0.13493,-0.20278 0.56322,-0.005 0.69728,-0.22607 0.89608,-1.47698 0.14778,-0.92984 1.38632,-2.49582 1.97396,-2.49582 0.12032,0 0.30365,-0.26743 0.40739,-0.59429 0.2886,-0.90932 0.92764,-1.27966 1.91761,-1.11133 0.48398,0.0823 1.01976,0.0351 1.19063,-0.10484 0.17087,-0.13995 0.8332,-0.39421 1.47186,-0.565 0.69047,-0.18465 1.49488,-0.6637 1.98437,-1.18174 0.45276,-0.47917 1.21389,-0.95666 1.6914,-1.0611 0.47752,-0.10444 1.98174,-0.76545 3.34271,-1.46891 2.09615,-1.08345 2.63504,-1.25748 3.52451,-1.13817 0.84445,0.11326 1.26064,0.001 2.12598,-0.57121 0.89687,-0.59352 1.31075,-0.69754 2.48645,-0.62491 l 1.41047,0.0871"
       id="path8870" /></g></svg>
