<?xml version="1.0" encoding="UTF-8" standalone="no"?>
<!-- Created with Inkscape (http://www.inkscape.org/) -->

<svg
   width="210mm"
   height="297mm"
   viewBox="0 0 210 297"
   version="1.1"
   id="svg5"
   xml:space="preserve"
   xmlns="http://www.w3.org/2000/svg"
   xmlns:svg="http://www.w3.org/2000/svg"><defs
     id="defs2" /><g
     id="layer1"><path
       style="fill:#000000;stroke-width:0.0994968"
       d="m 43.994468,16.415044 c 0.0173,-0.146269 0.08742,-0.284314 0.155798,-0.306764 0.192929,-0.06335 0.261246,0.251108 0.09145,0.420907 -0.218279,0.218279 -0.283062,0.188371 -0.247246,-0.114143 z"
       id="path334" /><path
       style="fill:#000000;stroke-width:0.0994968"
       d="m 37.147897,21.720396 c -0.744386,-0.24631 -1.672928,-0.937831 -2.013236,-1.499332 -0.35773,-0.590254 -0.36929,-0.706007 -0.156494,-1.566976 0.136529,-0.55239 0.777235,-2.206177 1.043355,-2.693104 0.05193,-0.09502 0.09442,-0.24276 0.09442,-0.328304 0,-0.207355 -0.271179,-0.726117 -0.561231,-1.073634 -0.275518,-0.330102 -0.290304,-0.597786 -0.05645,-1.022055 0.201688,-0.365921 0.506,-0.63268 1.960894,-1.718916 0.601953,-0.449426 1.251789,-0.943144 1.444071,-1.097149 0.192283,-0.154004 0.606439,-0.424957 0.920345,-0.602114 0.313903,-0.1771582 0.595765,-0.3626042 0.626356,-0.4121038 0.03061,-0.0495 0.142531,-0.09 0.248747,-0.09 0.106216,0 0.193121,-0.043923 0.193121,-0.097604 0,-0.053678 0.123127,-0.1268534 0.273615,-0.1626084 0.150492,-0.035762 0.340861,-0.1230364 0.423047,-0.1939635 0.08219,-0.070923 0.26128,-0.1774361 0.397986,-0.2366867 0.13671,-0.059251 0.442556,-0.2224419 0.679661,-0.3626489 0.2371,-0.1402033 0.494549,-0.2305684 0.572105,-0.2008077 0.07769,0.029821 0.141008,-0.00474 0.141008,-0.076903 0,-0.1081562 0.704676,-0.5094707 0.894585,-0.5094707 0.03042,0 0.161048,-0.098514 0.290286,-0.2189183 0.129237,-0.120404 0.362735,-0.2469755 0.518883,-0.2812713 0.156148,-0.034296 0.31016,-0.1048394 0.342252,-0.1567646 0.03208,-0.051925 0.441337,-0.2755103 0.909431,-0.4968504 0.806014,-0.3811281 1.338754,-0.5052401 1.495572,-0.3484229 0.08781,0.087808 -0.165557,0.2549478 -0.389567,0.2569898 -0.09195,7.521e-4 -0.457376,0.1358448 -0.812068,0.3000138 -0.354688,0.1641728 -0.688133,0.2984908 -0.740987,0.2984908 -0.05285,0 -0.152993,0.068562 -0.222539,0.1523572 -0.108638,0.1309035 -0.791427,0.4870091 -1.688866,0.8808214 -0.136808,0.060033 -0.47261,0.2469679 -0.746225,0.4154089 -0.273619,0.1684372 -0.654194,0.3678535 -0.845725,0.4431465 -0.458316,0.1801662 -1.559647,0.7623802 -1.691449,0.8941825 -0.02738,0.027376 -0.122363,0.094521 -0.211123,0.1492438 -0.08875,0.05472 -0.445045,0.30098 -0.791759,0.547233 -0.346712,0.246254 -0.750361,0.514898 -0.896995,0.596982 -0.146638,0.08208 -0.493538,0.350728 -0.770891,0.596982 -0.588809,0.52279 -1.363908,1.094467 -1.483913,1.094467 -0.04603,0 -0.193422,0.177887 -0.327549,0.395309 -0.13413,0.217422 -0.27745,0.396516 -0.318493,0.39799 -0.161863,0.0058 -0.06145,0.491797 0.172984,0.83726 0.506519,0.746398 0.569827,0.936439 0.44491,1.335565 -0.188484,0.602217 -0.606973,1.639032 -0.749143,1.856009 -0.204997,0.312864 -0.476923,1.686919 -0.396926,2.00566 0.103181,0.411099 0.875169,1.089278 1.510576,1.327014 0.302526,0.113187 0.871217,0.251349 1.263766,0.307019 0.637937,0.09048 0.888045,0.06839 2.35549,-0.20799 1.867508,-0.351728 2.302826,-0.454473 2.766952,-0.653058 0.392425,-0.167907 1.2658,-0.805747 1.603457,-1.171024 0.254004,-0.274785 0.37249,-0.310404 0.58473,-0.175782 0.103451,0.06562 0.105241,0.135273 0.0089,0.346716 -0.06631,0.145532 -0.155181,0.264601 -0.197495,0.264601 -0.04232,0 -0.359738,0.229493 -0.705382,0.509986 -0.83609,0.678494 -1.300916,0.873138 -2.611162,1.093418 -0.605318,0.101763 -1.235152,0.232659 -1.399625,0.290876 -0.495873,0.175518 -2.918387,0.218828 -3.396212,0.06072 z"
       id="path332" /><path
       style="fill:#000000;stroke-width:0.0994968"
       d="m 62.735462,23.44016 c 0.03606,-0.05836 0.04512,-0.126579 0.02012,-0.151588 -0.0694,-0.0694 -0.372441,0.06799 -0.372441,0.168853 0,0.124549 0.272949,0.111174 0.35233,-0.01727 z"
       id="path330" /><path
       style="fill:#000000;stroke-width:0.0994968"
       d="m 62.016369,24.745192 c -0.410482,-0.250289 -0.528709,-0.4845 -0.528709,-1.047392 0,-0.408184 0.05064,-0.512679 0.461141,-0.951536 0.314773,-0.336517 0.590062,-0.527713 0.867321,-0.60237 0.394485,-0.106224 0.415412,-0.0993 0.726836,0.240522 0.444037,0.484533 0.573828,1.016305 0.410813,1.683203 -0.10834,0.443217 -0.181268,0.550019 -0.476171,0.69734 -0.45779,0.228691 -1.067272,0.220447 -1.461231,-0.01977 z"
       id="path328" /><path
       style="fill:#000000;stroke-width:0.0994968"
       d="m 51.836459,23.463362 c 0,-0.129552 -0.118279,-0.215713 -0.214496,-0.156249 -0.102903,0.0636 -0.01418,0.239164 0.12087,0.239164 0.05149,0 0.09363,-0.03731 0.09363,-0.08291 z"
       id="path326" /><path
       style="fill:#000000;stroke-width:0.0994968"
       d="m 51.205873,24.018887 c -0.0276,-0.06841 -0.05018,-0.01244 -0.05018,0.124371 0,0.136808 0.02256,0.192775 0.05018,0.124371 0.0276,-0.0684 0.0276,-0.180338 0,-0.248742 z"
       id="path324" /><path
       style="fill:#000000;stroke-width:0.0994968"
       d="m 51.438469,24.696363 c 0,-0.07885 -0.04168,-0.169132 -0.09262,-0.200617 -0.11829,-0.07311 -0.237262,0.113205 -0.156117,0.244493 0.09149,0.148039 0.248739,0.120301 0.248739,-0.04388 z"
       id="path322" /><path
       style="fill:#000000;stroke-width:0.0994968"
       d="m 50.222834,25.561089 c -0.0836,-0.09577 -0.206494,-0.407301 -0.273085,-0.692303 -0.114865,-0.491614 -0.106558,-0.547509 0.162048,-1.090145 0.293952,-0.593836 0.821022,-1.051982 1.343932,-1.168189 0.471712,-0.104829 1.022759,0.546634 1.353018,1.599577 0.107634,0.343155 0.09444,0.361415 -0.682085,0.943985 -0.747459,0.560768 -1.608854,0.744951 -1.903828,0.407075 z"
       id="path320" /><path
       style="fill:#000000;stroke-width:0.0994968"
       d="m 101.98291,46.629564 c 0,-0.05472 0.0672,-0.0995 0.14925,-0.0995 0.0821,0 0.14924,0.04478 0.14924,0.0995 0,0.05472 -0.0672,0.0995 -0.14924,0.0995 -0.0821,0 -0.14925,-0.04477 -0.14925,-0.0995 z"
       id="path318" /><path
       style="fill:#000000;stroke-width:0.0994968"
       d="m 102.24097,47.233371 c -0.24314,-0.04757 -0.26595,-0.07581 -0.14331,-0.177406 0.0922,-0.07641 0.24835,-0.09342 0.42464,-0.04627 0.21876,0.0585 0.24962,0.09671 0.14332,0.177406 -0.0745,0.05657 -0.26561,0.07739 -0.42465,0.04627 z"
       id="path316" /><path
       style="fill:#000000;stroke-width:0.0994968"
       d="m 21.141657,52.202672 c -0.109446,-0.04028 -0.254959,-0.05226 -0.323366,-0.02662 -0.0684,0.02565 -0.124368,-0.02053 -0.124368,-0.102621 0,-0.236694 0.234438,-0.264033 0.489953,-0.05713 0.267279,0.216429 0.249747,0.293821 -0.04222,0.186364 z"
       id="path314" /><path
       style="fill:#000000;stroke-width:0.0994968"
       d="m 88.152836,58.021962 c 0,-0.08208 0.04477,-0.149247 0.0995,-0.149247 0.05473,0 0.0995,0.06716 0.0995,0.149247 0,0.08208 -0.04477,0.149244 -0.0995,0.149244 -0.05472,0 -0.0995,-0.06716 -0.0995,-0.149244 z"
       id="path312" /><path
       style="fill:#000000;stroke-width:0.0994968"
       d="m 84.318112,78.760452 c -0.03606,-0.05836 -0.04424,-0.127455 -0.01816,-0.153538 0.0261,-0.0261 0.07393,0.02166 0.10634,0.106118 0.06727,0.175322 0.0099,0.206162 -0.08818,0.04742 z"
       id="path310" /><path
       style="fill:#000000;stroke-width:0.0994968"
       d="m 93.662406,90.859232 c -0.104775,-0.273039 0.01944,-0.375352 0.138511,-0.114064 0.07435,0.163184 0.08105,0.260025 0.01798,0.260025 -0.05527,0 -0.125692,-0.06569 -0.156498,-0.145961 z"
       id="path308" /><path
       style="fill:#000000;stroke-width:0.0994968"
       d="m 103.84984,113.01099 c -0.0946,-0.20087 -0.21643,-0.48834 -0.27076,-0.63883 -0.0543,-0.15049 -0.13988,-0.27362 -0.19011,-0.27362 -0.0502,0 -0.11797,-0.0695 -0.15057,-0.15441 -0.034,-0.0885 -0.0173,-0.12849 0.0391,-0.0936 0.13295,0.0822 0.13228,0.079 -0.1463,-0.7051 -0.13456,-0.37871 -0.26488,-0.8005 -0.28961,-0.93731 -0.0247,-0.13681 -0.0744,-0.32257 -0.11037,-0.41279 -0.036,-0.0902 -0.026,-0.18841 0.0222,-0.21817 0.0482,-0.0297 0.14425,0.22039 0.21354,0.55589 0.11076,0.53621 0.48914,1.61219 0.98023,2.78738 0.2044,0.48914 0.12513,0.56292 -0.0973,0.0906 z"
       id="path306" /><path
       style="fill:#000000;stroke-width:0.0994968"
       d="m 56.241999,41.505471 c 0.313236,-0.300978 0.530161,-0.547233 0.482064,-0.547233 -0.27785,0 -0.841754,0.348685 -1.009901,0.624466 -0.401352,0.658248 -0.208167,0.629982 0.527837,-0.07723 z"
       id="path298" /><path
       style="fill:#000000;stroke-width:0.0994968"
       d="m 57.756523,42.189073 0.39799,-0.353645 -0.391097,0.05555 c -0.448276,0.06367 -0.708184,0.274016 -0.620601,0.502249 0.08514,0.221868 0.163665,0.195745 0.613708,-0.204156 z"
       id="path296" /><path
       style="fill:#000000;stroke-width:0.0994968"
       d="m 57.008549,43.34935 c 0.123676,-0.0782 0.103591,-0.139095 -0.124371,-0.377034 -0.149526,-0.156074 -0.271866,-0.359674 -0.271866,-0.452446 0,-0.09277 -0.06716,-0.168675 -0.149248,-0.168675 -0.233716,0 -0.210333,0.964414 0.02486,1.02588 0.285153,0.07452 0.365695,0.07023 0.520613,-0.02773 z"
       id="path294" /><path
       style="fill:#000000;stroke-width:0.0994968"
       d="m 57.886438,44.350922 c 0.03501,-0.106159 -0.01068,-0.12151 -0.191215,-0.06428 -0.130452,0.04135 -0.337608,0.08513 -0.460336,0.09728 -0.456526,0.04522 -0.351691,0.16781 0.117776,0.137718 0.308087,-0.01974 0.50474,-0.08264 0.533775,-0.17072 z"
       id="path292" /><path
       style="fill:#000000;stroke-width:0.0994968"
       d="m 93.22718,89.910725 c 0,-0.05472 -0.04742,-0.0995 -0.10537,-0.0995 -0.05795,0 -0.0777,0.04477 -0.04387,0.0995 0.03381,0.05472 0.08124,0.0995 0.105366,0.0995 0.02414,0 0.04388,-0.04478 0.04388,-0.0995 z"
       id="path290" /><path
       style="fill:#000000;stroke-width:0.0994968"
       d="m 101.31835,105.05914 c -0.107,-0.30374 -0.84647,-1.21864 -1.16651,-1.44326 l -0.308115,-0.21624 0.275265,0.3447 c 0.15141,0.18958 0.34976,0.45663 0.44079,0.59344 0.16205,0.24354 0.73923,0.89547 0.7928,0.89547 0.0149,0 -0.001,-0.0784 -0.0342,-0.17411 z"
       id="path288" /><path
       style="fill:#000000;stroke-width:0.0994968"
       d="m 104.95783,116.12817 c -0.11634,-0.77941 -0.2952,-1.44271 -0.38903,-1.44271 -0.0411,0 0.01,0.347 0.11259,0.7711 0.10298,0.42411 0.21175,0.89952 0.24168,1.05646 0.0989,0.51858 0.12556,0.22349 0.0348,-0.38485 z"
       id="path286" /><path
       style="fill:#000000;stroke-width:0.0994968"
       d="m 106.89259,122.0937 c -0.0324,-0.0845 -0.0802,-0.13221 -0.10634,-0.10613 -0.0261,0.0261 -0.0179,0.0952 0.0182,0.15355 0.0981,0.15873 0.15545,0.1279 0.0882,-0.0474 z"
       id="path284" /><path
       style="fill:#000000;stroke-width:0.0994968"
       d="m 108.15882,124.01967 c -0.28427,-0.57276 -0.54819,-0.99404 -0.95038,-1.51704 -0.23314,-0.30316 -0.27035,-0.12697 -0.0635,0.30065 0.10352,0.21404 0.27166,0.56781 0.37364,0.78614 0.19294,0.41313 0.82586,1.18466 0.90605,1.10449 0.0253,-0.0253 -0.0943,-0.32871 -0.26581,-0.67424 z"
       id="path282" /><path
       id="path280"
       style="fill:#000000;stroke-width:0.0994968"
       d="m 50.59567,149.21054 c -0.294885,-0.0934 -2.001959,-0.94939 -2.193252,-1.09971 -0.164259,-0.12908 -1.840606,-0.66279 -2.486038,-0.7915 -1.212018,-0.24171 -2.406564,-0.28967 -4.626609,-0.18576 -1.961306,0.0918 -3.660126,0.19229 -4.17887,0.24719 -0.19153,0.0203 -1.194155,0.0658 -2.228052,0.10116 -2.311102,0.0791 -2.802233,0.003 -4.736732,-0.73531 -0.793487,-0.30276 -1.752023,-0.6561 -2.130075,-0.78518 -0.378052,-0.12909 -0.870563,-0.32173 -1.094467,-0.42808 -0.894856,-0.42503 -1.754348,-0.72942 -2.844769,-1.00748 -0.629318,-0.16047 -1.233764,-0.3337 -1.34321,-0.38496 -0.109446,-0.0513 -0.445249,-0.19266 -0.746226,-0.31421 -0.30098,-0.12157 -0.61792,-0.28067 -0.704314,-0.35357 -0.08639,-0.0729 -0.209521,-0.13255 -0.273615,-0.13255 -0.06409,0 -0.116538,-0.0404 -0.116538,-0.0898 0,-0.0494 -0.257449,-0.25996 -0.572106,-0.46792 -1.082934,-0.7157 -3.009784,-2.88735 -3.009784,-3.39216 0,-0.0712 -0.03501,-0.12947 -0.07778,-0.12947 -0.04277,0 -0.136217,-0.21267 -0.207648,-0.47261 -0.197321,-0.71805 -0.330101,-1.04626 -0.528713,-1.30688 -0.09946,-0.1305 -0.180832,-0.34254 -0.180832,-0.47118 0,-0.12863 -0.05313,-0.43255 -0.118072,-0.67535 -0.153031,-0.57217 -0.08817,-0.64792 0.995581,-1.1628 0.467635,-0.22218 1.04197,-0.53586 1.276299,-0.69709 0.511002,-0.35158 1.252477,-1.42414 1.925222,-2.78486 0.267861,-0.54179 0.595233,-1.13078 0.727494,-1.30888 0.377563,-0.5084 1.119268,-2.14778 1.300739,-2.87499 0.191549,-0.76761 0.228974,-2.58029 0.06232,-3.01862 -0.160916,-0.42323 -0.132896,-2.30474 0.04446,-2.98566 0.154963,-0.59493 0.755197,-2.11139 1.184893,-2.99356 1.079583,-2.21638 1.405473,-3.84848 1.349494,-6.75841 -0.06635,-3.44864 -0.0075,-3.96747 0.648933,-5.72108 0.07169,-0.19153 0.272697,-0.72882 0.44667,-1.19397 0.173973,-0.46514 0.430564,-1.13675 0.570199,-1.49245 0.139636,-0.3557 0.338518,-0.89298 0.441955,-1.19396 0.10344,-0.30098 0.228872,-0.63678 0.27874,-0.74623 0.04987,-0.10944 0.189801,-0.5348 0.310957,-0.94522 0.121156,-0.41042 0.255952,-0.835772 0.299548,-0.945218 0.151875,-0.381293 0.614851,-2.089984 0.647015,-2.38793 0.01839,-0.170359 0.240887,-0.940952 0.689479,-2.387926 0.417646,-1.347148 1.060401,-3.713602 1.20259,-4.427611 0.08802,-0.441984 0.631221,-1.677309 1.693682,-3.851706 0.460231,-0.941888 0.836782,-1.732172 0.836782,-1.75619 0,-0.02403 0.174135,-0.4175 0.386969,-0.874398 0.957784,-2.05614 1.200393,-3.599279 0.795416,-5.059351 -0.438713,-1.581713 -0.276251,-4.017582 0.368301,-5.522077 0.46398,-1.083013 1.073108,-2.314146 1.51578,-3.063605 0.283483,-0.479947 0.515424,-0.911003 0.515424,-0.957904 0,-0.07566 0.416202,-1.03847 0.730442,-1.689753 0.192817,-0.399626 0.145506,-1.248983 -0.08368,-1.502228 -0.184318,-0.203669 -0.250217,-0.214018 -0.895472,-0.140624 -0.998601,0.113582 -1.228718,0.08923 -1.880502,-0.199022 -0.320083,-0.141557 -0.664821,-0.257373 -0.766088,-0.257373 -0.101267,0 -0.487464,0.140587 -0.858217,0.31242 -1.144279,0.53033 -2.090593,0.485114 -2.677952,-0.127952 l -0.272475,-0.284404 -0.503533,0.532937 c -0.702122,0.743119 -0.901362,0.835285 -1.249412,0.577957 -0.155576,-0.115019 -0.359167,-0.180576 -0.470437,-0.151481 -0.107885,0.0282 -0.369606,-0.02117 -0.581593,-0.109747 L 26.818557,66.0232 26.347853,66.559825 c -0.258889,0.295144 -0.864591,0.866118 -1.346004,1.268832 -0.481417,0.402713 -0.987237,0.83298 -1.124044,0.956152 -0.136808,0.123168 -0.478574,0.415954 -0.759481,0.650632 -0.28091,0.234675 -0.716299,0.655849 -0.967535,0.93594 -0.424596,0.473358 -0.444704,0.51965 -0.285235,0.65671 0.09436,0.0811 0.57452,0.271652 1.067031,0.423448 0.532838,0.16423 1.01635,0.383795 1.193963,0.542188 0.164169,0.146404 0.421617,0.327503 0.572106,0.402442 0.150492,0.07494 0.273618,0.173326 0.273618,0.218637 0,0.04531 0.306787,0.407128 0.681755,0.804035 0.679675,0.719454 0.681943,0.723752 0.744146,1.411076 0.03433,0.379184 0.108103,0.735136 0.163969,0.791002 0.05587,0.05587 0.101576,0.306471 0.101576,0.556898 0,0.679416 -0.197123,2.127955 -0.30429,2.23607 -0.05153,0.05199 -0.0937,0.262021 -0.0937,0.466739 0,0.204719 -0.04088,0.397479 -0.09084,0.428357 -0.04996,0.03087 -0.119325,0.224739 -0.15414,0.430801 -0.05607,0.331887 -0.162134,0.445429 -0.929001,0.99449 -1.32038,0.945367 -1.223776,0.838313 -1.106234,1.225909 0.107288,0.353774 0.20526,0.765795 0.222581,0.936041 0.0056,0.05472 -0.02723,0.368139 -0.07291,0.696477 -0.06072,0.436611 -0.269391,0.962334 -0.776775,1.956998 -0.560343,1.098495 -0.817814,1.485925 -1.338957,2.014811 -0.354865,0.360137 -0.680582,0.6548 -0.723817,0.6548 -0.04323,0 -0.181756,0.150548 -0.307839,0.334547 -0.126079,0.184001 -0.366913,0.384914 -0.535185,0.446463 -0.168268,0.06156 -0.552201,0.291259 -0.853178,0.510448 -0.30098,0.219182 -0.636779,0.441458 -0.746229,0.493925 -0.651027,0.312111 -2.656186,1.047502 -3.034656,1.112962 -2.166729,0.374716 -2.376028,0.397121 -3.13414,0.335434 C 11.523203,91.358595 10.139736,90.977613 8.7045285,90.357098 8.5403595,90.28613 8.2045569,90.173837 7.9583034,90.107573 7.504526,89.985469 6.7207183,89.615589 6.2668543,89.309378 6.1300468,89.217072 5.7554656,88.967626 5.4344493,88.75504 5.1134331,88.542455 4.7854862,88.323751 4.705673,88.269028 4.370867,88.039467 3.0134193,86.634682 2.7769243,86.273018 1.9850315,85.062013 1.7660906,84.683953 1.5838862,84.212911 1.4730977,83.926503 1.3143025,83.535462 1.2310071,83.343928 1.1477081,83.152397 1.0411839,82.906144 0.99428276,82.796698 c -0.046901,-0.10945 -0.1087992,-0.310931 -0.1375559,-0.447738 -0.028768,-0.136808 -0.1269775,-0.517353 -0.2182715,-0.845653 -0.146551,-0.527002 -0.1528611,-0.777528 -0.053854,-2.139184 0.2554743,-3.51364 0.54577844,-5.327941 1.00298924,-6.268378 0.039907,-0.08208 0.2995776,-0.596981 0.5770471,-1.144215 0.2774695,-0.54723 0.821394,-1.644183 1.2087194,-2.437674 0.3873255,-0.793487 0.9002633,-1.800895 1.1398644,-2.238679 0.2396012,-0.437788 0.6806455,-1.243711 0.980099,-1.790945 0.2994535,-0.547234 0.7285471,-1.269952 0.9535387,-1.606044 0.4151457,-0.620139 1.8722207,-2.03416 2.5710821,-2.495112 0.2106866,-0.138963 0.6740947,-0.530466 1.0297977,-0.870007 0.3557,-0.339536 0.847424,-0.770299 1.092715,-0.957242 0.245291,-0.186947 0.519929,-0.413059 0.610302,-0.502469 0.09038,-0.08941 0.449355,-0.354364 0.797729,-0.58878 0.348374,-0.234419 0.758616,-0.529506 0.911646,-0.65575 0.241888,-0.199548 1.869547,-1.030577 2.018489,-1.030577 0.02982,0 0.30878,-0.116613 0.619932,-0.259144 0.311153,-0.142528 0.744826,-0.325789 0.963718,-0.407241 0.218896,-0.08145 0.487536,-0.189143 0.596982,-0.239305 0.453319,-0.207775 2.183208,-0.356154 3.134155,-0.268827 1.33543,0.122637 1.629149,0.101789 2.34101,-0.166155 0.959078,-0.360994 1.180633,-0.611625 1.538212,-1.74008 0.285134,-0.899827 0.342813,-0.997935 0.838072,-1.425509 0.589581,-0.509008 1.475084,-1.770751 1.430421,-2.038191 -0.02162,-0.129418 0.05374,-0.179471 0.306587,-0.203655 0.184385,-0.01764 0.417466,-0.108667 0.517958,-0.202289 0.100492,-0.09363 0.352597,-0.229166 0.56023,-0.301202 0.207633,-0.07204 0.500415,-0.266651 0.650629,-0.432474 0.26133,-0.288488 0.297919,-0.298694 0.847846,-0.236476 0.485147,0.05489 0.706758,0.01929 1.42176,-0.228467 0.465863,-0.16142 1.136514,-0.325649 1.490329,-0.364958 0.741099,-0.08233 0.955547,-0.222287 1.641987,-1.071641 0.503574,-0.623087 0.656616,-0.709714 2.234637,-1.264909 0.519687,-0.182843 1.098487,-0.436674 1.286223,-0.564073 0.395482,-0.268384 1.798515,-1.675783 1.798515,-1.80411 0,-0.159777 0.975031,-1.000747 1.21024,-1.04384 0.127854,-0.02343 0.660779,-0.108594 1.18428,-0.189264 0.541142,-0.08339 1.217327,-0.265829 1.567183,-0.422835 0.533643,-0.239485 0.714648,-0.399595 1.362949,-1.205627 0.411171,-0.511207 0.995371,-1.116546 1.298216,-1.345198 0.846597,-0.639185 0.920864,-0.925272 0.435588,-1.677941 -0.158769,-0.246255 -0.338807,-0.55967 -0.400081,-0.696479 -0.29634,-0.661636 -0.606439,-1.939013 -0.688396,-2.835662 -0.05002,-0.547233 -0.15928,-1.353158 -0.242809,-1.790945 -0.315973,-1.656081 -0.407982,-3.045972 -0.250867,-3.789552 0.08435,-0.399192 0.122096,-1.530671 0.117426,-3.519772 -0.0055,-2.323726 0.02249,-3.001785 0.134855,-3.270677 0.07795,-0.186566 0.141734,-0.425525 0.141734,-0.531011 0,-0.10549 0.123127,-0.480101 0.273615,-0.832472 0.259806,-0.608327 0.290718,-0.640724 0.612404,-0.641773 0.312731,-0.0011 0.327405,0.0123 0.1908,0.173017 -0.285031,0.335367 -0.689621,1.390518 -0.829791,2.164056 -0.03966,0.218894 -0.09407,1.763584 -0.120904,3.432645 -0.09033,5.618204 -0.08673,5.865225 0.09712,6.666294 0.0942,0.410425 0.238935,1.328284 0.321644,2.039687 0.23029,1.980801 0.497599,2.631719 1.910443,4.652098 0.373351,0.533891 0.826756,1.205496 1.007569,1.492454 0.294535,0.467445 0.77825,0.916248 1.323739,1.228201 0.325164,0.185954 1.582548,1.258832 2.049043,1.748372 0.243655,0.255689 0.619628,0.535561 0.835493,0.621933 0.3268,0.130756 2.469161,0.397392 2.549278,0.317278 0.01369,-0.01369 -0.130042,-0.268046 -0.319388,-0.565247 -0.316127,-0.496194 -0.344478,-0.603802 -0.346817,-1.316408 -0.0038,-1.17437 0.252334,-1.547176 1.244076,-1.810388 1.063417,-0.282236 1.660019,-0.28076 2.204485,0.0055 0.633101,0.332807 0.867573,0.536219 1.070558,0.928751 0.216323,0.418322 0.221423,0.730242 0.02474,1.514173 -0.08769,0.349545 -0.182155,0.748403 -0.209919,0.88635 -0.02775,0.137947 -0.191835,0.395396 -0.364601,0.572106 -0.336322,0.343997 -0.230572,0.418538 0.243219,0.171438 0.156746,-0.08175 0.376311,-0.148634 0.487923,-0.148634 0.256602,0 1.375806,-0.61466 1.963251,-1.078204 0.445817,-0.351789 1.824459,-1.663289 2.617893,-2.490405 0.229219,-0.23895 0.670624,-0.630574 0.980896,-0.870276 0.880878,-0.68052 1.782687,-1.65946 2.097743,-2.277156 0.473881,-0.929082 1.088029,-2.739283 1.350258,-3.979877 0.559887,-2.648821 0.718194,-4.665658 0.515438,-6.566797 -0.05252,-0.49251 -0.124225,-1.275976 -0.159337,-1.741035 -0.03512,-0.465059 -0.104925,-0.953641 -0.155147,-1.085736 -0.05022,-0.132096 -0.0624,-0.432991 -0.02708,-0.668656 0.05295,-0.35311 0.145276,-0.494659 0.524855,-0.804705 0.714028,-0.583228 0.811199,-0.703748 0.811199,-1.006142 0,-0.34056 0.08109,-0.386141 1.540916,-0.866129 0.60125,-0.197691 1.139917,-0.398224 1.197036,-0.445629 0.05712,-0.04741 1.087491,-0.112921 2.289713,-0.145596 2.457443,-0.06679 3.267604,-0.172235 3.950243,-0.514156 0.617991,-0.309539 0.670924,-0.533997 0.384682,-1.631134 -0.258438,-0.990665 -0.235668,-1.148359 0.303146,-2.099216 0.611704,-1.079478 0.657638,-1.377458 0.390943,-2.535993 -0.124391,-0.540359 -0.26688,-1.094407 -0.316639,-1.231215 -0.04976,-0.136807 -0.100147,-0.581642 -0.11197,-0.988515 C 79.950903,10.8251 79.907075,10.689755 79.338474,9.5608152 79.002453,8.893655 78.554444,8.0848286 78.3429,7.7634137 77.903529,7.0958549 76.987137,6.134314 76.790289,6.134314 c -0.175763,0 -0.80478,-0.3351182 -1.441134,-0.7677878 -0.405605,-0.2757773 -0.62875,-0.356132 -1.044716,-0.3762019 -1.508184,-0.072766 -7.339011,-0.03976 -7.872316,0.044562 -1.376145,0.2175834 -2.625892,0.4161648 -2.954561,0.4694701 -0.191534,0.031062 -0.460174,0.066253 -0.596981,0.078196 -0.136812,0.011958 -0.315906,0.047811 -0.397991,0.079704 -0.191703,0.074485 -1.297922,0.1946856 -1.940188,0.2108182 -0.273619,0.00688 -0.519872,0.0358 -0.547234,0.064271 -0.127191,0.1323701 -0.637347,0.2965918 -0.925026,0.2977726 -0.175277,7.521e-4 -0.744036,0.089677 -1.263905,0.1976864 -1.251127,0.2599343 -1.80613,0.2496568 -2.686417,-0.049748 -0.402236,-0.1368075 -0.798507,-0.248743 -0.880603,-0.248743 -0.0821,0 -0.488416,-0.1676813 -0.902922,-0.3726255 -0.612738,-0.3029583 -0.849888,-0.3689365 -1.26838,-0.3528791 -0.509997,0.019555 -2.133114,0.284558 -2.420429,0.3951548 -0.08208,0.031588 -0.36064,0.070645 -0.619014,0.086774 -0.258374,0.016133 -0.523185,0.062338 -0.588472,0.1026884 -0.06529,0.04035 -0.245659,0.083352 -0.400829,0.095558 -0.235295,0.018502 -0.282125,-0.016208 -0.282125,-0.2091109 0,-0.1272144 0.05597,-0.2665114 0.124371,-0.3095505 0.0684,-0.043035 0.616883,-0.1345737 1.218839,-0.2034174 1.55879,-0.1782672 1.719574,-0.2024548 1.839794,-0.2767551 0.05911,-0.036515 0.38434,-0.1055538 0.722745,-0.1533838 0.720616,-0.101861 1.373836,0.015268 1.754291,0.3145783 0.308087,0.2423764 0.860819,0.4849822 1.10494,0.4849822 0.09563,0 0.45955,0.091662 0.808699,0.2036957 0.535444,0.1718141 0.774993,0.1930498 1.530288,0.1356831 0.492511,-0.037417 1.096957,-0.1327988 1.343211,-0.2119802 0.401231,-0.1290081 1.214277,-0.2688955 3.034655,-0.5221134 0.328342,-0.045671 0.910398,-0.1314225 1.293459,-0.1905603 0.383065,-0.059138 1.211378,-0.1779287 1.840697,-0.2639768 0.629318,-0.086048 1.435241,-0.2100059 1.790944,-0.2754577 0.698286,-0.1284892 6.196188,-0.1722503 8.087023,-0.064365 1.027933,0.058649 1.085807,0.074037 1.392958,0.3703918 0.176256,0.1700617 0.642492,0.4679471 1.036082,0.661967 0.393591,0.1940237 0.886098,0.5213276 1.094468,0.7273511 0.513385,0.5076092 1.459681,1.8634925 1.531947,2.1950307 0.06527,0.2994723 0.611764,1.4107079 0.887733,1.805126 0.125575,0.179466 0.194332,0.519575 0.23255,1.150281 0.02986,0.49251 0.154516,1.253661 0.277052,1.691445 0.122536,0.437788 0.240319,1.172043 0.261739,1.63168 0.03306,0.70918 0.0098,0.875112 -0.153526,1.096039 -0.105863,0.143189 -0.338755,0.541401 -0.517537,0.88492 -0.348521,0.669661 -0.347352,0.635753 -0.06644,1.930306 0.125326,0.577566 0.09849,1.316443 -0.05116,1.408515 -0.01846,0.01136 -0.212669,0.138684 -0.431561,0.282941 -0.218892,0.144261 -0.57708,0.306663 -0.795976,0.360901 -0.547625,0.135686 -2.453867,0.291827 -3.825977,0.313386 -0.92705,0.01455 -1.213849,0.05581 -1.537934,0.221141 -0.234434,0.119599 -0.584384,0.201578 -0.85038,0.199209 -0.2486,-0.0023 -0.738614,0.09289 -1.088913,0.211333 -0.59767,0.20209 -0.63834,0.235333 -0.660102,0.539544 -0.02884,0.403311 -0.143689,0.543029 -0.809721,0.985114 l -0.529936,0.351752 0.0026,1.010168 c 0.0015,0.555593 0.04549,1.435518 0.09779,1.955389 0.243478,2.42027 0.09824,5.094345 -0.399915,7.362773 -0.114162,0.519872 -0.2336,1.06928 -0.26541,1.220908 -0.03181,0.151627 -0.09683,0.299784 -0.144486,0.329237 -0.04766,0.02945 -0.08665,0.122002 -0.08665,0.205667 0,0.301959 -0.916355,2.484351 -1.250228,2.977549 -0.193302,0.285539 -0.921665,0.997283 -1.67716,1.638879 -0.734507,0.623776 -1.31733,1.16348 -1.295166,1.199343 0.05517,0.08926 0.870202,0.288674 1.179873,0.288674 0.176729,0 0.438713,0.186714 0.876286,0.624521 0.884191,0.884659 1.47317,1.340289 1.950048,1.508542 0.346615,0.122292 1.633759,0.375292 2.604273,0.511893 0.838715,0.11805 1.281169,0.22313 1.561542,0.370861 0.388769,0.204851 1.255417,0.922127 2.119843,1.75448 1.121069,1.07947 1.631243,1.477983 2.292691,1.790899 0.52921,0.250356 0.767491,0.303947 1.351668,0.304015 0.405496,4.2e-5 0.862169,-0.06383 1.066399,-0.149168 0.493139,-0.206046 0.695857,-0.187748 0.971875,0.08772 0.297099,0.29652 1.106321,0.766773 1.63039,0.947447 0.439935,0.151669 1.34321,0.709018 1.34321,0.828802 0,0.04192 0.06968,0.07622 0.154854,0.07622 0.17591,0 0.740618,0.5796 0.740618,0.76015 0,0.06535 0.08666,0.320998 0.192584,0.568101 0.186698,0.435558 0.203978,0.447862 0.565829,0.402984 0.205291,-0.02546 0.429045,-0.0926 0.497242,-0.149198 0.0891,-0.07395 0.181847,-0.04504 0.329639,0.102752 0.113109,0.113109 0.250424,0.205651 0.305147,0.205651 0.05472,0 0.0995,0.06452 0.0995,0.143374 0,0.236683 0.154907,0.261476 0.611264,0.09783 0.389432,-0.139647 1.395817,-0.181528 2.388991,-0.09942 0.612892,0.05067 1.165857,0.709594 0.855739,1.019712 -0.203463,0.203467 -0.448265,0.110932 -0.490255,-0.185314 -0.02249,-0.158574 -0.109803,-0.240289 -0.281331,-0.263255 -0.136808,-0.01831 -0.291278,-0.07428 -0.343264,-0.124371 -0.05199,-0.05009 -0.262555,-0.09107 -0.467924,-0.09107 h -0.3734 l 0.05818,0.522358 c 0.032,0.287296 0.113726,0.688874 0.181607,0.892393 0.09538,0.285953 0.0968,0.421602 0.0062,0.596981 -0.161277,0.3123 -0.769596,2.229278 -0.858262,2.704614 -0.07595,0.40717 0.01719,0.555477 0.599859,0.955261 l 0.217936,0.14953 -0.252544,0.996288 c -0.138899,0.547959 -0.266572,1.35847 -0.283712,1.801143 -0.02636,0.68039 -0.07337,0.868626 -0.304068,1.217233 -0.150093,0.226812 -0.312247,0.412382 -0.36034,0.412382 -0.169159,0 -0.190887,-0.276797 -0.04394,-0.55973 0.0817,-0.157295 0.191802,-0.66657 0.244682,-1.131719 0.05288,-0.46515 0.160066,-1.092584 0.238202,-1.394301 0.19299,-0.74524 0.220295,-1.218538 0.07313,-1.267594 -0.06636,-0.02211 -0.219242,-0.120051 -0.339736,-0.217621 -0.312266,-0.252857 -0.313736,-1.017298 -0.0038,-1.878982 0.420861,-1.169377 0.528043,-1.693465 0.497914,-2.434621 l -0.02914,-0.716885 -0.198995,0.33426 c -0.283291,0.47586 -0.521989,0.768315 -0.579864,0.710456 -0.06362,-0.0636 0.326511,-0.97221 0.554992,-1.292583 0.09577,-0.134281 0.174119,-0.278959 0.174119,-0.321505 0,-0.113169 -0.375589,-0.0946 -0.447738,0.02215 -0.03381,0.05472 -0.16183,0.0995 -0.284464,0.0995 -0.12263,0 -0.272803,0.04983 -0.333708,0.110739 -0.0609,0.06091 -0.291128,0.124191 -0.511606,0.140636 -0.369057,0.02753 -0.403301,0.0089 -0.431519,-0.235111 -0.02944,-0.254632 -0.05904,-0.266955 -0.755811,-0.314755 -0.449566,-0.03084 -0.756194,-0.100071 -0.806815,-0.182159 -0.04491,-0.07283 -0.136446,-0.377225 -0.203406,-0.676441 -0.112834,-0.504184 -0.1667,-0.576201 -0.735387,-0.983183 -0.337502,-0.241534 -0.658413,-0.475431 -0.713136,-0.519771 -0.05472,-0.04434 -0.390526,-0.209791 -0.746226,-0.367669 -0.355597,-0.157882 -0.813635,-0.391933 -1.017759,-0.520114 -0.204125,-0.128181 -0.396287,-0.233058 -0.427022,-0.233058 -0.03072,0 -0.153184,-0.09064 -0.272103,-0.201432 -0.123093,-0.11468 -0.281997,-0.174781 -0.368952,-0.139549 -0.330857,0.134055 -1.769938,0.165659 -2.151476,0.04725 -1.064519,-0.330375 -1.962834,-0.945663 -3.381292,-2.315986 -1.404086,-1.356433 -1.787719,-1.541698 -3.873183,-1.87045 -1.772101,-0.279354 -2.578968,-0.536791 -2.999879,-0.957137 -0.101485,-0.10135 -0.52021,-0.475578 -0.930497,-0.831619 -0.639871,-0.555268 -0.834019,-0.666625 -1.364909,-0.78287 -0.699877,-0.153248 -0.923274,-0.108877 -0.923274,0.183384 0,0.235116 -0.17876,0.271119 -0.26251,0.05287 -0.0727,-0.189454 -0.334471,-0.195805 -0.334471,-0.0081 0,0.07762 -0.167904,0.244643 -0.373115,0.37116 -0.205211,0.126515 -0.485046,0.364341 -0.621857,0.528501 -0.696233,0.835431 -1.10998,1.112859 -2.451513,1.643795 -1.456026,0.576246 -1.28384,0.561896 -3.011141,0.250962 -0.459829,-0.08277 -0.888617,-0.194122 -0.952862,-0.247442 -0.06424,-0.05332 -0.823079,-0.186589 -1.686293,-0.296152 -1.693747,-0.214981 -2.031614,-0.341165 -2.395117,-0.894502 -0.109446,-0.166606 -0.230301,-0.303045 -0.268572,-0.303202 -0.03827,-2e-4 -0.306911,-0.226856 -0.596982,-0.503773 -0.290071,-0.276918 -0.819792,-0.701629 -1.177161,-0.943802 -0.901557,-0.610951 -1.579604,-1.375088 -2.070685,-2.333595 -0.07009,-0.136809 -0.225928,-0.370385 -0.346306,-0.51906 l -0.218862,-0.270317 -1.010804,0.966796 c -0.555943,0.531737 -1.198709,1.229428 -1.428374,1.550425 -0.347709,0.485979 -0.527995,0.633845 -1.077527,0.883744 -0.383531,0.17441 -1.035025,0.358962 -1.555427,0.440613 -1.364382,0.214072 -1.624467,0.319086 -2.167335,0.875113 -0.268655,0.275164 -0.548085,0.614957 -0.62096,0.755093 -0.07287,0.140135 -0.441033,0.545842 -0.81813,0.901575 -0.609617,0.575084 -0.789652,0.682345 -1.624005,0.967558 -1.565994,0.535317 -1.685191,0.60686 -2.688334,1.61361 l -0.953979,0.957408 -0.956912,0.05709 c -0.582172,0.03475 -1.065797,0.117772 -1.234952,0.212037 -0.152922,0.08522 -0.534663,0.226187 -0.848308,0.313258 -0.31365,0.08707 -0.596125,0.200142 -0.627728,0.251278 -0.03159,0.05114 -0.208092,0.09297 -0.392191,0.09297 -0.207333,0 -0.441782,0.09008 -0.615984,0.236657 -0.154689,0.130159 -0.370802,0.253902 -0.480248,0.27498 -0.109446,0.02106 -0.198991,0.101327 -0.198991,0.178331 0,0.077 -0.187112,0.234216 -0.415804,0.349355 -0.451284,0.227214 -0.827911,0.635828 -0.827911,0.898229 0,0.25256 -0.189199,0.54987 -0.349927,0.54987 -0.157565,0 -0.67931,0.493583 -0.993279,0.939662 -0.345163,0.490401 -0.638592,1.282839 -0.642736,1.73579 -0.0043,0.470534 -0.186134,0.698605 -0.561498,0.70428 -0.309001,0.0047 -1.540235,0.469959 -1.851267,0.699598 -0.337739,0.249356 -0.376578,0.2483 -0.896439,-0.02433 -0.377378,-0.197912 -0.562008,-0.222051 -1.61989,-0.211804 -1.217387,0.01181 -2.600846,0.264376 -3.069301,0.56037 -0.117753,0.0744 -0.437965,0.216726 -0.71158,0.31627 -0.273618,0.09954 -0.780445,0.309577 -1.126285,0.466744 -0.345835,0.157163 -0.653833,0.285754 -0.684432,0.285754 -0.07397,0 -1.537148,0.997427 -1.699019,1.158201 -0.06976,0.06929 -0.338108,0.295967 -0.596327,0.503732 -0.25822,0.207764 -0.962293,0.818615 -1.564611,1.357447 -0.6023139,0.538829 -1.2294397,1.049112 -1.3936087,1.133961 -0.3567412,0.184374 -2.2386791,2.008738 -2.2386791,2.170192 0,0.06211 -0.086127,0.190865 -0.1913913,0.286127 -0.1052606,0.09526 -0.3105847,0.42681 -0.4562745,0.736775 -0.1456861,0.309964 -0.4834105,0.928282 -0.7504972,1.374042 -0.2670868,0.44576 -0.9143991,1.677035 -1.4384756,2.736165 -0.5240764,1.05913 -1.0001462,2.010563 -1.0579415,2.114297 -1.3689888,2.457213 -1.7525048,3.831945 -1.9459043,6.975174 -0.15765204,2.56223 -0.058852,3.457063 0.5273068,4.775853 0.072969,0.164168 0.2269169,0.544744 0.3421052,0.845724 0.1151921,0.300977 0.3405597,0.752633 0.5008178,1.003674 0.1602618,0.251052 0.2913834,0.486012 0.2913834,0.522132 0,0.133592 0.7526819,1.123559 1.1471936,1.50885 0.7343644,0.717205 1.3160595,1.218181 1.6292765,1.403205 0.1693622,0.100045 0.3079334,0.217023 0.3079334,0.259946 0,0.04292 0.058461,0.07805 0.1299146,0.07805 0.071453,0 0.2841295,0.114541 0.4726102,0.254534 0.4224937,0.313792 0.6971918,0.439465 1.8351496,0.839583 0.4925107,0.173176 1.0745668,0.397848 1.2934588,0.499295 1.3281383,0.615468 3.2832783,0.877065 4.7758523,0.63899 1.514743,-0.241609 2.527299,-0.542785 3.313716,-0.985645 0.147495,-0.08306 0.469655,-0.239699 0.715912,-0.348092 1.078786,-0.474829 1.953944,-1.091888 2.984908,-2.104617 0.787414,-0.773481 1.229308,-1.454864 1.953966,-3.012927 0.377673,-0.812023 0.399867,-1.698301 0.05855,-2.338431 -0.134081,-0.251473 -0.253041,-0.587467 -0.264352,-0.74665 -0.01395,-0.196449 -0.138252,-0.388235 -0.38689,-0.596982 -0.353337,-0.296659 -0.480872,-0.672744 -0.271919,-0.801884 0.107273,-0.0663 1.004471,0.132253 1.136808,0.251575 0.04931,0.04446 0.04009,0.212939 -0.02128,0.388968 -0.08587,0.246318 -0.08005,0.321355 0.02813,0.362867 0.175063,0.06718 0.967317,-0.424355 1.502103,-0.931941 0.07207,-0.06841 0.178478,-0.124372 0.236461,-0.124372 0.05799,0 0.13407,-0.179094 0.169073,-0.39799 0.03501,-0.218892 0.09906,-0.397987 0.142362,-0.397987 0.191816,0 0.518195,-1.885886 0.456315,-2.636669 -0.140985,-1.710526 -0.288935,-2.199118 -0.818923,-2.704452 -0.161777,-0.154249 -0.382482,-0.394328 -0.490454,-0.533508 -0.107975,-0.139177 -0.397794,-0.38857 -0.644052,-0.55421 -0.68673,-0.461911 -2.662857,-1.234016 -3.155526,-1.232918 -0.124672,3.01e-4 -0.270565,-0.0933 -0.335964,-0.215496 -0.09579,-0.17899 -0.08461,-0.238646 0.06527,-0.348239 0.09947,-0.07274 0.230678,-0.13225 0.291568,-0.13225 0.128895,0 0.619785,-0.507413 0.931716,-0.963079 0.119111,-0.173995 0.365534,-0.408422 0.547606,-0.520947 0.182073,-0.11253 0.498727,-0.36274 0.703668,-0.556026 0.204944,-0.193287 0.53649,-0.473434 0.736767,-0.622553 1.385712,-1.031735 1.963297,-1.599136 2.328405,-2.287367 0.248367,-0.468172 0.40245,-0.512859 0.771906,-0.223867 0.267429,0.209186 0.55002,0.255974 0.64248,0.10637 0.03148,-0.05094 0.007,-0.123698 -0.0545,-0.16168 -0.08018,-0.04956 -0.07583,-0.09126 0.01538,-0.14763 0.09998,-0.06179 0.08992,-0.135348 -0.04708,-0.344437 -0.09581,-0.146223 -0.148627,-0.291439 -0.117366,-0.322701 0.03125,-0.03125 0.01448,-0.107855 -0.03727,-0.170208 -0.05175,-0.06236 -0.137699,-0.357508 -0.190993,-0.655886 -0.141971,-0.794837 -0.301052,-1.387367 -0.450664,-1.678588 -0.07258,-0.141283 -0.234716,-0.458358 -0.360295,-0.704615 -0.275882,-0.540984 -0.594338,-0.956942 -1.320632,-1.724974 -0.655804,-0.693488 -0.864997,-0.940697 -0.864997,-1.022195 0,-0.03343 -0.195122,-0.339882 -0.43361,-0.68104 -0.531033,-0.75965 -0.83832,-1.50847 -0.682823,-1.663963 0.153493,-0.153493 0.419956,-0.02426 0.419956,0.203703 0,0.105663 0.156708,0.424983 0.348238,0.709598 0.191534,0.284614 0.348239,0.540566 0.348239,0.568777 0,0.12697 0.810676,1.143986 1.491408,1.871021 0.411002,0.438958 0.889302,1.065787 1.062895,1.392959 0.262137,0.494064 0.887752,2.055696 0.92679,2.313419 0.103876,0.685794 0.399287,1.212935 0.399287,0.712505 0,-0.164982 0.05329,-0.199383 0.269682,-0.17412 0.349724,0.04082 0.439803,0.384885 0.249841,0.954253 -0.153023,0.458651 -0.09759,0.917923 0.110796,0.917923 0.134619,0 0.69859,-0.589886 0.869761,-0.909725 0.156381,-0.292199 0.530289,-0.22219 0.911951,0.17075 0.591503,0.608981 1.247555,0.645545 2.286363,0.127429 0.699587,-0.348923 1.101296,-0.356655 1.8282,-0.0352 0.65871,0.291312 0.998537,0.310442 1.475392,0.08305 0.323991,-0.154501 0.382054,-0.154531 0.859263,-3.76e-4 0.281482,0.09091 0.551908,0.140489 0.600949,0.110183 0.04904,-0.03031 0.187992,0.01414 0.308791,0.09873 0.185028,0.129598 0.223964,0.262755 0.247159,0.84519 0.02881,0.723335 -0.05333,0.983969 -0.874643,2.775451 -0.158554,0.34584 -0.288277,0.666717 -0.288277,0.713062 0,0.04635 -0.03584,0.09919 -0.07963,0.117429 -0.148387,0.0618 -1.441691,2.496338 -1.78829,3.366314 -0.507677,1.274277 -0.764419,3.556601 -0.526047,4.676354 0.292304,1.37311 0.404368,2.27211 0.347272,2.785916 -0.100222,0.901873 -0.424694,1.9902 -0.756431,2.53717 -0.09957,0.164169 -0.181204,0.369967 -0.181407,0.457324 -2e-4,0.08736 -0.06234,0.288841 -0.138079,0.447738 -0.07574,0.1589 -0.393102,0.826185 -0.705251,1.482864 -0.312152,0.65668 -0.608661,1.261126 -0.658905,1.343211 -0.05025,0.08208 -0.118878,0.216406 -0.152516,0.298491 -0.03366,0.08208 -0.238999,0.529818 -0.456353,0.994968 -0.456124,0.976124 -0.870849,2.236422 -1.175717,3.572864 -0.227801,0.998623 -0.333938,1.366353 -0.85622,2.96659 -0.182626,0.559561 -0.423491,1.387874 -0.535253,1.840693 -0.279109,1.130854 -0.402146,1.580698 -0.504067,1.842983 -0.0478,0.123029 -0.155441,0.52599 -0.239187,0.895472 -0.08375,0.369482 -0.190888,0.761333 -0.238086,0.870773 -0.0472,0.10945 -0.18806,0.51241 -0.313014,0.89548 -0.239045,0.73279 -0.754397,2.02923 -1.153447,2.90165 -0.130377,0.28502 -0.237052,0.57931 -0.237052,0.65396 0,0.0747 -0.03557,0.17826 -0.07906,0.23024 -0.04348,0.052 -0.160875,0.36317 -0.26087,0.69151 -0.1,0.32834 -0.238646,0.75369 -0.308107,0.94522 -0.442646,1.22057 -0.540141,2.28437 -0.460497,5.0246 0.05437,1.87068 -0.202478,4.30824 -0.513717,4.87534 -0.06007,0.10945 -0.122735,0.28012 -0.139267,0.37927 -0.02986,0.17908 -0.136751,0.42834 -0.79742,1.85942 -0.788877,1.70877 -1.131592,2.78807 -1.216376,3.83063 -0.0445,0.54723 -0.0662,1.02065 -0.04822,1.05203 0.06555,0.11441 0.26254,1.84303 0.248615,2.18162 -0.03663,0.8902 -0.156498,1.5845 -0.41231,2.38792 -0.190952,0.59971 -0.350334,0.92301 -1.250796,2.53718 -0.183164,0.32833 -0.613035,1.15665 -0.955268,1.84069 -0.80008,1.59916 -1.257464,2.08182 -2.590848,2.73399 -0.535497,0.26192 -1.020182,0.5632 -1.077079,0.66951 -0.146344,0.27345 -0.02753,0.83852 0.365767,1.73936 0.186619,0.42746 0.339856,0.83914 0.340525,0.91485 0.0019,0.21831 0.682616,1.49648 0.951215,1.78615 0.134179,0.14471 0.243963,0.29025 0.243963,0.32344 0,0.0686 0.920142,1.00932 1.354142,1.3844 0.563356,0.48687 1.986864,1.36894 2.476491,1.53454 0.273615,0.0925 1.026195,0.30506 1.672402,0.47227 0.646206,0.16721 1.519292,0.45094 1.940188,0.63051 0.809657,0.34542 1.727377,0.72385 2.058735,0.84893 0.109446,0.0413 0.445248,0.1757 0.746225,0.29864 1.268812,0.51829 2.776515,1.02069 3.333146,1.1107 0.66651,0.10777 4.578625,0.0265 5.920068,-0.12297 2.896343,-0.32275 6.259709,-0.33657 7.760759,-0.0319 1.198446,0.24328 3.148257,0.9776 3.768603,1.41933 0.145791,0.10381 0.501446,0.26607 0.79034,0.36056 0.715719,0.23409 2.213652,0.16165 3.052574,-0.14763 1.289781,-0.4755 2.848458,-0.68382 3.706058,-0.49532 0.232464,0.0511 0.702584,0.13514 1.044716,0.18679 0.342135,0.0516 1.002636,0.16258 1.467785,0.24651 1.686906,0.30441 4.496819,0.37246 6.382803,0.1546 0.4734,-0.0547 1.189778,-0.12529 1.591953,-0.15689 0.402172,-0.0316 1.134186,-0.12341 1.626697,-0.20401 0.492511,-0.0806 1.201161,-0.1879 1.574779,-0.23844 0.373619,-0.0505 0.843743,-0.13486 1.044716,-0.18739 0.200977,-0.0525 0.566894,-0.12267 0.813147,-0.15586 0.593977,-0.0801 1.903181,-0.34527 2.000063,-0.40515 0.04228,-0.0261 0.43179,-0.092 0.865581,-0.1464 0.704524,-0.0883 1.888594,-0.36982 3.502162,-0.83255 0.972394,-0.27885 2.081505,-0.37143 2.945603,-0.24587 0.432042,0.0628 0.852689,0.12339 0.934778,0.13468 0.08208,0.0113 0.328338,0.071 0.54723,0.13274 0.218895,0.0617 0.442763,0.11971 0.497486,0.12889 0.05472,0.009 0.388378,0.12542 0.741453,0.25832 0.600008,0.22584 0.739794,0.23886 2.139187,0.19916 2.419447,-0.0686 4.001006,-0.46134 5.261019,-1.3063 0.373667,-0.25058 0.721624,-0.45559 0.773237,-0.45559 0.05161,0 0.260784,-0.10667 0.464822,-0.23704 0.431094,-0.27543 1.390529,-0.47473 1.962932,-0.40773 0.606563,0.071 3.970245,0.18196 4.925099,0.16249 1.33464,-0.0272 3.15532,-0.45924 4.27837,-1.01521 0.30097,-0.149 0.79348,-0.34272 1.09446,-0.43049 0.57206,-0.16682 2.62535,-0.36044 4.33237,-0.40852 1.02339,-0.0289 1.29281,-0.10216 2.60128,-0.70796 0.28385,-0.13142 0.55854,-0.23894 0.61041,-0.23894 0.14391,0 0.38116,-0.40997 0.4615,-0.79744 0.0395,-0.19073 0.18622,-0.52353 0.32598,-0.73958 0.32243,-0.49846 0.39352,-1.09057 0.18955,-1.57874 -0.0858,-0.20547 -0.2072,-0.85334 -0.26966,-1.4397 -0.13674,-1.28356 -0.38377,-1.96943 -0.97376,-2.70351 -0.2438,-0.30335 -0.45462,-0.5661 -0.46847,-0.58388 -0.0138,-0.0178 -0.0943,-0.0425 -0.17876,-0.0549 -0.25509,-0.0375 -0.55846,-0.36958 -1.10175,-1.20624 -0.70406,-1.08423 -0.68549,-1.04894 -0.70342,-1.33646 -0.086,-1.37827 -0.44436,-3.09116 -0.64673,-3.09116 -0.0458,0 -0.11523,-0.14551 -0.15418,-0.32336 -0.0823,-0.37591 -0.57697,-1.66685 -0.8215,-2.14409 -0.0925,-0.18055 -0.3641,-0.44317 -0.60354,-0.58361 -0.23943,-0.14044 -0.54664,-0.35091 -0.68266,-0.4677 -0.33439,-0.28713 -1.24997,-2.21539 -1.51812,-3.19728 -0.11956,-0.43779 -0.30101,-0.94081 -0.40323,-1.11785 -0.2159,-0.37397 -0.4058,-1.02146 -0.44541,-1.51882 -0.0153,-0.19153 -0.10146,-0.61688 -0.19158,-0.94522 -0.17563,-0.64004 -0.65031,-2.8388 -0.69274,-3.20893 -0.0141,-0.12322 -0.0555,-0.25381 -0.0919,-0.2902 -0.0364,-0.0364 -0.0662,-0.15049 -0.0662,-0.25352 0,-0.10305 -0.0683,-0.31946 -0.15181,-0.48091 -0.0835,-0.16145 -0.11706,-0.2932 -0.0746,-0.29277 0.1017,0.001 0.32593,0.48927 0.32593,0.70966 0,0.0953 0.0448,0.20096 0.0995,0.23478 0.0547,0.0338 0.0995,0.007 0.0995,-0.0606 0,-0.24048 -0.21358,-1.43573 -0.29142,-1.63085 -0.19688,-0.49354 -0.40603,-1.21144 -0.40579,-1.39295 0,-0.21531 -0.75044,-2.02629 -0.90704,-2.1881 -0.0628,-0.0649 -0.12377,-0.0529 -0.17804,0.0349 -0.0752,0.12167 -0.13776,-0.12225 -0.26436,-1.03071 -0.0686,-0.49226 -0.63091,-1.44941 -1.23801,-2.10733 -0.2434,-0.26377 -0.76723,-0.90494 -1.16405,-1.42481 -0.396824,-0.51987 -0.757363,-0.99 -0.801192,-1.04472 -0.04383,-0.0547 -0.153891,-0.25731 -0.24458,-0.45018 -0.09069,-0.19288 -0.281798,-0.48391 -0.424686,-0.64673 -0.473415,-0.5395 -1.094136,-1.48112 -1.408527,-2.13674 -0.170565,-0.3557 -0.517491,-1.072077 -0.770943,-1.591949 -0.253447,-0.519872 -0.4602,-0.995148 -0.459455,-1.05617 0.0011,-0.06103 -0.0902,-0.22735 -0.202098,-0.36961 -0.111905,-0.142253 -0.199732,-0.293805 -0.195174,-0.33678 0.01079,-0.101993 -0.600844,-1.739674 -0.69808,-1.869077 -0.04112,-0.05472 -0.107422,-0.30098 -0.147344,-0.547234 -0.06068,-0.374306 -0.415116,-1.12504 -0.845537,-1.790945 -0.05303,-0.08205 -0.347591,-0.641728 -0.654551,-1.243684 -0.962466,-1.887425 -1.622613,-2.898037 -1.982392,-3.034825 -0.13656,-0.05192 -0.24857,-0.151474 -0.248905,-0.221231 -2.97e-4,-0.06977 -0.22876,-0.373092 -0.507606,-0.674073 -0.495255,-0.534564 -1.083735,-1.317168 -1.083735,-1.44122 0,-0.242764 -0.473941,-1.000462 -0.958122,-1.531767 -0.317436,-0.34834 -0.657063,-0.795747 -0.754728,-0.994242 -0.269704,-0.548151 -0.743434,-1.281222 -1.022344,-1.58201 -0.137342,-0.14812 -0.249713,-0.319291 -0.249713,-0.380384 0,-0.0611 -0.150165,-0.307809 -0.333705,-0.548253 -0.183539,-0.240443 -0.363826,-0.532158 -0.400637,-0.64826 -0.05984,-0.188717 -0.461205,-0.944065 -0.786613,-1.480356 -0.06641,-0.109446 -0.177651,-0.235326 -0.247205,-0.279733 -0.06956,-0.0444 -0.102489,-0.119536 -0.07318,-0.166956 0.02929,-0.04742 -0.03693,-0.114846 -0.147152,-0.149834 -0.110244,-0.03497 -0.20044,-0.129166 -0.20044,-0.20928 0,-0.08011 -0.06306,-0.169862 -0.140135,-0.199439 -0.07708,-0.0296 -0.193825,-0.183389 -0.259442,-0.341808 -0.06562,-0.158415 -0.199912,-0.313616 -0.298427,-0.344881 -0.232317,-0.07374 -0.899612,-0.956283 -1.203315,-1.591468 -0.130825,-0.273615 -0.271445,-0.512407 -0.312488,-0.53065 -0.04104,-0.01824 -0.07462,-0.112875 -0.07462,-0.210299 0,-0.09743 -0.117088,-0.294226 -0.260198,-0.437333 -0.148408,-0.148408 -0.235859,-0.323622 -0.203545,-0.407824 0.03621,-0.0944 -0.118738,-0.301439 -0.429785,-0.574219 -0.267538,-0.234626 -0.580428,-0.628077 -0.695312,-0.874331 -0.381519,-0.817795 -0.473351,-0.941497 -1.337799,-1.802091 -0.323652,-0.322208 -0.625874,-0.585835 -0.671602,-0.585835 -0.04573,0 -0.08439,-0.05597 -0.08591,-0.124371 -0.0015,-0.0684 -0.135841,-0.300247 -0.298491,-0.51521 -0.162646,-0.214962 -0.295723,-0.447696 -0.295723,-0.517191 0,-0.0695 -0.234359,-0.408516 -0.520797,-0.753377 -0.286439,-0.344862 -0.58866,-0.710012 -0.671602,-0.811444 -0.362401,-0.443173 -0.997728,-1.059292 -1.09232,-1.059292 -0.05676,0 -0.103207,-0.04588 -0.103207,-0.101958 0,-0.05608 -0.111932,-0.144517 -0.248743,-0.196532 -0.136808,-0.05201 -0.24874,-0.156802 -0.24874,-0.232859 0,-0.07606 -0.09827,-0.263217 -0.218373,-0.415909 -0.14707,-0.186969 -0.226901,-0.443128 -0.244497,-0.784518 -0.04116,-0.798662 -0.07644,-0.99733 -0.196035,-1.103884 -0.06142,-0.05472 -0.135627,-0.200424 -0.16491,-0.32378 -0.04319,-0.1819 -0.0034,-0.234536 0.211164,-0.278534 0.542856,-0.111383 1.018268,-0.280523 1.283956,-0.456797 0.397193,-0.263522 0.602987,-0.393982 1.203601,-0.762997 l 0.53655,-0.329658 0.218516,0.205286 c 0.120183,0.112906 0.299348,0.205283 0.398141,0.205283 0.0988,0 0.588419,0.196848 1.088052,0.437434 1.02098,0.491631 1.638287,0.756529 1.762982,0.756529 0.04621,0 0.314367,-0.204576 0.595894,-0.454612 0.460441,-0.408937 0.548246,-0.448787 0.873921,-0.396625 0.199127,0.03189 0.78001,0.09983 1.290849,0.150958 0.510844,0.05113 0.980964,0.134228 1.04472,0.184656 0.06375,0.05043 0.282554,0.121705 0.486223,0.158393 0.317639,0.05722 0.401567,0.03076 0.590051,-0.186021 0.120859,-0.138996 0.294275,-0.252726 0.38537,-0.252726 0.251868,0 0.494963,0.328004 0.494963,0.667841 0,0.246246 0.04784,0.313078 0.252052,0.352116 0.333674,0.06379 1.923401,-0.06495 3.259986,-0.263996 1.492491,-0.222261 2.446921,-0.278458 5.144195,-0.302886 1.916271,-0.01737 2.40331,-0.05049 2.699112,-0.183623 1.026632,-0.46205 1.817404,-0.57529 4.168222,-0.596891 2.04817,-0.0188 2.28246,-0.0039 2.4603,0.156298 0.25612,0.230746 1.12939,0.368843 2.33695,0.369561 0.98043,7.52e-4 1.45293,-0.07758 2.48925,-0.41178 0.31488,-0.101545 0.61465,-0.184626 0.66616,-0.184626 0.0515,0 0.68936,-0.285604 1.41744,-0.634677 0.72807,-0.34907 1.6148,-0.727821 1.9705,-0.841671 0.35571,-0.113846 1.27356,-0.412359 2.03969,-0.663358 0.76613,-0.250999 1.52728,-0.495971 1.69145,-0.54438 0.16417,-0.04841 0.54474,-0.160935 0.84572,-0.250055 0.69759,-0.20655 2.43144,-0.669627 3.33315,-0.890215 3.33538,-0.815942 4.94393,-1.365601 6.27052,-2.142696 1.80092,-1.054956 3.29076,-2.450234 5.23889,-4.906403 0.70678,-0.891087 1.57443,-2.327904 1.57443,-2.60722 0,-0.03882 0.0633,-0.211668 0.14067,-0.38411 0.22633,-0.504473 0.37685,-1.049737 0.45454,-1.646617 0.0881,-0.677321 0.45241,-2.018835 0.65404,-2.40874 0.081,-0.156607 0.16626,-0.408558 0.18949,-0.559885 0.0721,-0.469491 0.71967,-2.564176 0.90133,-2.915466 0.331,-0.64007 0.55029,-1.631381 0.59346,-2.682764 0.0236,-0.574595 0.11403,-1.402906 0.20097,-1.840693 0.18415,-0.92736 0.17694,-2.470132 -0.0165,-3.548172 -0.3485,-1.941428 -0.60805,-3.72144 -0.67685,-4.641919 -0.0217,-0.290856 -0.0815,-0.581884 -0.13281,-0.64673 -0.0513,-0.06485 -0.19237,-0.453704 -0.31348,-0.864129 -0.4121,-1.396604 -0.52947,-1.740916 -0.72924,-2.139184 -0.2965,-0.591142 -1.15767,-1.840693 -1.26858,-1.840693 -0.0531,0 -0.0965,-0.06494 -0.0965,-0.144303 0,-0.07937 -0.0646,-0.180445 -0.14353,-0.224619 -0.0789,-0.04417 -0.42464,-0.348622 -0.76822,-0.676547 -0.3436,-0.327928 -0.71556,-0.649738 -0.82659,-0.715137 -0.4876,-0.28722 -1.83223,-0.896277 -2.24154,-1.015312 -0.24626,-0.07162 -0.54397,-0.167313 -0.66159,-0.212657 -0.11762,-0.04534 -0.30815,-0.05778 -0.42339,-0.02764 -0.11525,0.03016 -0.27362,0.0015 -0.35195,-0.06339 -0.24748,-0.205384 -3.35664,-0.126361 -3.57385,0.09084 -0.0569,0.05685 -0.24006,0.103369 -0.40715,0.103369 -0.99236,0 -4.68684,1.477559 -6.07074,2.427916 -0.74456,0.511307 -2.091,1.865437 -2.83536,2.851555 -1.01223,1.340966 -2.32991,4.0742 -2.85109,5.913932 -0.10725,0.378585 -0.4206,2.509747 -0.43387,2.950886 -10e-4,0.03601 0.22302,-0.0065 0.49802,-0.09441 0.42692,-0.136522 0.63063,-0.143398 1.39394,-0.04705 0.62529,0.07893 0.97244,0.17458 1.15513,0.318281 0.14365,0.112994 0.31386,0.205444 0.37825,0.205444 0.16862,0 0.55257,0.3805 0.55257,0.547608 0,0.244695 -0.38785,0.386916 -0.65917,0.241711 -0.12996,-0.06956 -0.2363,-0.184911 -0.2363,-0.256344 0,-0.298751 -0.61623,-0.472957 -1.69145,-0.478166 -0.97266,-0.0047 -1.09619,0.01773 -1.79094,0.325313 -2.0972,0.928481 -2.43656,1.160862 -3.04741,2.086771 -0.20602,0.31227 -0.43012,0.612537 -0.498,0.66726 -0.0679,0.05472 -0.25413,0.390525 -0.41388,0.746227 -0.68571,1.52677 -1.07033,2.80892 -1.21026,4.034361 -0.0559,0.489905 -0.14793,1.047445 -0.20442,1.238976 -0.0588,0.199435 -0.0725,0.582075 -0.0319,0.895472 0.039,0.30098 0.0605,0.619436 0.048,0.70768 -0.0126,0.08824 0.0685,0.392124 0.18011,0.675287 0.11161,0.283163 0.20293,0.552186 0.20293,0.597831 0,0.04564 -0.1564,0.1895 -0.34756,0.319682 -0.19115,0.130181 -0.34786,0.288002 -0.34824,0.350716 0,0.06271 -0.2479,0.352131 -0.55006,0.64315 -0.40696,0.391958 -0.72293,0.59128 -1.21883,0.768889 -0.3682,0.13187 -0.78779,0.323401 -0.93241,0.425623 -0.52146,0.368583 -1.53254,0.784323 -1.90765,0.784402 -0.20881,4.1e-5 -0.4695,0.04816 -0.57931,0.10693 -0.1098,0.05877 -0.49863,0.120528 -0.86406,0.137244 -0.965247,0.04416 -2.44992,0.237262 -2.773125,0.360686 -0.153553,0.05864 -0.928419,0.121036 -1.721906,0.138654 -1.652479,0.0367 -2.117951,0.154245 -3.613034,0.912503 -1.281489,0.64993 -1.471414,0.729608 -1.809548,0.759131 -0.164169,0.01433 -0.415307,0.104656 -0.558086,0.20071 -0.332306,0.223567 -0.586129,0.1289 -0.586129,-0.218598 0,-0.382317 0.172991,-0.506741 0.704532,-0.506741 0.411355,0 1.66003,-0.381872 1.932137,-0.590889 0.05472,-0.04203 0.621715,-0.285878 1.259975,-0.541872 1.094362,-0.438923 1.23892,-0.47103 2.537178,-0.563528 0.757179,-0.05394 1.622943,-0.145302 1.92392,-0.203015 0.30098,-0.05771 1.062131,-0.145772 1.691449,-0.195686 1.327457,-0.105283 2.157237,-0.260073 2.434937,-0.454221 0.10795,-0.07546 0.33724,-0.137206 0.50953,-0.137206 0.52868,0 3.12484,-1.238254 3.12484,-1.490412 0,-0.03906 0.16075,-0.236533 0.35723,-0.438837 0.234,-0.240944 0.3358,-0.423652 0.29512,-0.529668 -0.0342,-0.08901 -0.005,-0.197318 0.0656,-0.240673 0.12714,-0.07846 0.16147,-0.945796 0.0851,-2.149927 -0.0182,-0.286772 0.0136,-0.5778 0.0706,-0.646731 0.057,-0.06893 0.10059,-0.237262 0.0968,-0.374071 -0.01,-0.347606 0.28982,-2.029038 0.47843,-2.686417 0.0864,-0.300978 0.17612,-0.676819 0.19948,-0.8352 0.0233,-0.158383 0.084,-0.338021 0.13479,-0.399197 0.0508,-0.06117 0.18438,-0.356939 0.29693,-0.657252 0.20896,-0.557629 1.14919,-2.058515 1.68215,-2.685209 0.27375,-0.321883 1.08707,-0.788174 2.22389,-1.274994 0.25525,-0.109309 0.51008,-0.284668 0.56628,-0.389688 0.0919,-0.171684 0.43381,-2.345933 0.42669,-2.713183 -0.004,-0.232835 0.20957,-1.01806 0.35265,-1.29346 0.0711,-0.136808 0.13091,-0.315903 0.13296,-0.397988 0.002,-0.08209 0.11386,-0.373113 0.24845,-0.646729 0.1346,-0.273617 0.24512,-0.542615 0.24563,-0.597774 0,-0.05516 0.11284,-0.310556 0.24965,-0.56755 0.13681,-0.256993 0.24874,-0.512711 0.24874,-0.568262 0,-0.21025 1.00556,-1.791596 1.62175,-2.550368 0.70653,-0.870013 2.37134,-2.610848 2.65423,-2.775438 0.0987,-0.05741 0.45465,-0.271848 0.79105,-0.476525 0.3364,-0.204678 0.7331,-0.401409 0.88158,-0.437183 0.14847,-0.03576 0.52613,-0.192921 0.83922,-0.349216 0.3131,-0.156291 0.67129,-0.284265 0.79598,-0.284381 0.12469,-1.02e-4 0.49176,-0.139925 0.81571,-0.310686 0.53288,-0.280881 2.17785,-0.719706 2.28737,-0.610193 0.0246,0.02463 0.35014,-0.02189 0.72337,-0.10338 0.37324,-0.08147 0.74578,-0.149432 0.82786,-0.151018 0.0821,-0.0015 0.5746,-0.03448 1.09447,-0.07312 1.50948,-0.112161 3.21017,0.29807 5.05023,1.218185 0.4964,0.248216 1.86221,1.564588 2.49921,2.408731 0.57682,0.7644 1.20577,1.742394 1.20691,1.876681 0,0.04022 0.0619,0.19061 0.13683,0.334197 0.0749,0.143587 0.1908,0.501776 0.2575,0.795975 0.0667,0.2942 0.20464,0.758775 0.30649,1.032392 0.24267,0.651834 0.35183,1.179806 0.49377,2.387926 0.11792,1.003721 0.45654,3.372806 0.54765,3.83145 0.10413,0.524275 0.0517,2.78189 -0.0923,3.974645 -0.0829,0.686469 -0.19386,1.65982 -0.24663,2.163001 -0.0528,0.503181 -0.16085,1.062852 -0.24017,1.243711 -0.29958,0.683061 -0.56679,1.404807 -0.56679,1.530932 0,0.183749 -0.45223,1.613553 -0.84898,2.684178 -0.18371,0.495752 -0.37955,1.256903 -0.43519,1.691449 -0.11268,0.87999 -0.60788,2.552923 -0.83225,2.811544 -0.0799,0.09211 -0.1771,0.301789 -0.21599,0.465962 -0.0848,0.357967 -0.55918,1.207377 -0.84507,1.513167 -0.11298,0.12084 -0.20541,0.262375 -0.20541,0.314522 0,0.05215 -0.13433,0.207836 -0.29849,0.345974 -0.16417,0.138139 -0.2985,0.271367 -0.2985,0.296058 0,0.04299 -0.51068,0.628021 -1.14421,1.310769 -0.16417,0.176924 -0.4552,0.510896 -0.64673,0.74216 -0.4974,0.600576 -0.78426,0.872044 -1.29346,1.224028 -0.24626,0.170224 -0.47012,0.340812 -0.49748,0.379086 -0.10764,0.150552 -1.94315,1.286754 -2.07873,1.286754 -0.0794,0 -0.21498,0.06249 -0.30137,0.138872 -0.0864,0.07638 -0.37985,0.213594 -0.65212,0.304925 -0.27228,0.09133 -0.54219,0.205185 -0.59981,0.253004 -0.13717,0.113838 -2.62928,0.861436 -3.33276,0.999781 -0.30098,0.05919 -0.65917,0.129204 -0.79598,0.155584 -0.52861,0.101936 -2.85547,0.771695 -3.23365,0.930772 -0.21889,0.09208 -0.68901,0.2454 -1.04471,0.340718 -0.35572,0.09532 -0.82951,0.25649 -1.05287,0.358159 -0.22337,0.101665 -0.76065,0.280512 -1.19396,0.397433 -1.61551,0.435912 -1.87371,0.525254 -2.74885,0.9512 -0.49257,0.23974 -0.94684,0.473076 -1.0095,0.518522 -0.20135,0.146077 -1.18679,0.512709 -1.9546,0.727212 -0.53194,0.148612 -1.16379,0.223841 -2.20031,0.26198 l -1.4541,0.0535 -0.78573,-0.313552 c -0.6511,-0.259825 -0.93898,-0.316985 -1.68006,-0.333602 -2.06125,-0.04622 -4.021427,0.205 -4.986913,0.639129 -0.452882,0.203632 -0.648722,0.219024 -3.021445,0.237431 -3.192277,0.02478 -4.315524,0.107047 -6.119059,0.448201 -0.273619,0.05176 -0.878061,0.101587 -1.34321,0.110728 -0.734297,0.01444 -0.989922,-0.03136 -1.940189,-0.347685 -1.626892,-0.541533 -1.639603,-0.544869 -2.338178,-0.613415 -0.355703,-0.0349 -0.810711,-0.08091 -1.011131,-0.102226 -0.317105,-0.03373 -0.413438,0.01177 -0.742277,0.350585 -0.207832,0.214142 -0.396734,0.370493 -0.419782,0.347445 -0.02305,-0.02305 -0.121559,7.52e-4 -0.218907,0.05282 -0.18607,0.09958 -0.554792,-1.99e-4 -1.394906,-0.377491 -1.715938,-0.770616 -1.95687,-0.85736 -2.35034,-0.846206 -0.252917,0.0071 -0.545752,0.100184 -0.746229,0.237032 -0.181475,0.123879 -0.4636,0.315624 -0.626945,0.426101 -0.163342,0.110472 -0.51034,0.303785 -0.771101,0.429582 -0.260762,0.125793 -0.474111,0.267918 -0.474111,0.315827 0,0.208486 0.311446,0.777354 0.543353,0.992456 0.13894,0.128869 0.25262,0.332617 0.25262,0.452773 0,0.319978 0.222607,0.74747 0.422968,0.812256 0.09583,0.03099 0.226334,0.154046 0.290018,0.273468 0.06368,0.119423 0.422498,0.555439 0.797357,0.968931 0.714257,0.787865 1.606085,2.013021 1.714892,2.355834 0.03509,0.110596 0.297607,0.4092 0.58335,0.663565 0.888748,0.791159 1.041666,0.970303 1.424738,1.669138 0.204625,0.373291 0.608711,0.936161 0.897973,1.250822 0.289263,0.314665 0.669108,0.863143 0.844096,1.218846 0.174992,0.3557 0.353793,0.713889 0.39734,0.795973 0.587058,1.106614 0.739246,1.360393 0.875207,1.459403 0.08775,0.06391 0.377146,0.315131 0.643093,0.558275 0.4994,0.456579 0.774436,0.874131 1.91306,2.90435 0.367346,0.654991 0.829084,1.401461 1.02609,1.658823 0.197006,0.257358 0.514901,0.748778 0.706431,1.092042 0.191531,0.343263 0.521121,0.828069 0.732424,1.077346 0.2113,0.249277 0.479943,0.566833 0.596982,0.705683 0.117038,0.138845 0.390714,0.600779 0.608165,1.02653 0.385043,0.753855 1.669394,2.253157 1.930137,2.253157 0.10385,0 0.154715,0.136837 0.122175,0.328695 -0.01861,0.109717 0.199533,0.314311 0.427097,0.400566 0.103598,0.03927 0.160747,0.09901 0.126992,0.132769 -0.07262,0.07262 0.23956,0.630424 0.35283,0.630424 0.04292,0 0.07805,0.07195 0.07805,0.159889 0,0.0965 0.05546,0.138609 0.139895,0.106205 0.221946,-0.08517 0.490721,0.282828 0.418049,0.572365 -0.04528,0.180418 0.02271,0.388168 0.245486,0.750238 0.335585,0.545402 0.434287,0.623763 0.348728,0.276867 -0.03038,-0.123126 0.03937,-0.02463 0.154978,0.218885 0.115606,0.243508 0.21019,0.544913 0.21019,0.669785 0,0.124879 0.03392,0.206076 0.07539,0.180456 0.08822,-0.05452 0.392068,0.626264 0.688509,1.542672 0.11506,0.355699 0.253301,0.724474 0.3072,0.819495 0.0539,0.09503 0.09799,0.253458 0.09799,0.352081 0,0.09862 0.08955,0.354944 0.198992,0.569617 0.109449,0.214676 0.198995,0.450336 0.198995,0.523685 0,0.07336 0.08413,0.298946 0.186976,0.501326 0.489217,0.962751 0.907619,1.870949 0.907559,1.96996 -3.8e-5,0.06024 0.117317,0.328887 0.260792,0.596981 0.143474,0.268084 0.393511,0.739032 0.555631,1.046546 0.162119,0.30752 0.414115,0.69231 0.559989,0.85509 0.348099,0.38844 0.712546,0.89571 0.714546,0.99456 0.0011,0.0433 0.133476,0.22826 0.294682,0.41113 0.161194,0.18287 0.317932,0.41076 0.348299,0.50643 0.03035,0.0957 0.17759,0.23473 0.327179,0.30902 0.43823,0.21765 1.54135,1.3778 1.47485,1.55111 -0.0762,0.19848 0.1081,0.53461 0.29307,0.53461 0.0802,0 0.14574,0.0815 0.14574,0.18106 0,0.0996 0.23555,0.64806 0.52343,1.21883 0.55717,1.10465 1.06852,2.21858 1.06852,2.32766 0,0.0363 0.11694,0.32067 0.25986,0.63182 0.14292,0.31115 0.31617,0.76722 0.38498,1.01347 0.0688,0.24626 0.19496,0.64922 0.28029,0.89547 0.18067,0.52129 0.36967,1.34098 0.41746,1.81054 0.0184,0.18076 0.13095,0.66445 0.25009,1.07487 0.22894,0.78864 0.34802,1.49427 0.44496,2.63667 0.10813,1.27431 0.36508,2.58051 0.61655,3.13415 0.47749,1.05129 0.76155,1.54452 1.06734,1.85332 0.50603,0.51101 0.90451,1.04143 0.91371,1.21623 0.017,0.3231 0.16702,0.81083 0.24942,0.81083 0.0462,0 0.0586,0.066 0.0277,0.14656 -0.0348,0.0908 0.15378,0.36674 0.49554,0.72503 0.4775,0.50062 0.58634,0.69181 0.80868,1.42052 0.14129,0.46313 0.30029,0.91979 0.35331,1.01482 0.053,0.095 0.0964,0.22243 0.0964,0.28313 0,0.0607 0.0833,0.22921 0.18508,0.37446 0.19301,0.27543 0.3779,1.13496 0.46345,2.15455 0.0275,0.32834 0.14781,0.84323 0.26724,1.14421 0.27313,0.68823 0.91267,1.63966 1.28939,1.91818 0.15822,0.11697 0.26543,0.27062 0.23824,0.34144 -0.0272,0.0708 0.18337,0.37889 0.4679,0.68459 0.84684,0.9099 0.94116,1.18627 1.1199,3.28208 0.0144,0.16842 0.14319,0.55369 0.28629,0.85616 0.30869,0.65252 0.27774,0.99792 -0.15062,1.68137 -0.15714,0.25071 -0.31474,0.66768 -0.35023,0.92661 -0.0475,0.34647 -0.15222,0.5611 -0.39663,0.81276 -0.18265,0.18809 -0.40692,0.34198 -0.49837,0.34198 -0.0915,0 -0.39446,0.10747 -0.67336,0.23883 -1.31121,0.61758 -1.78509,0.76607 -2.06915,0.64841 -0.43667,-0.18088 -3.93034,0.10808 -4.557,0.3769 -0.80083,0.34353 -2.5859,0.94186 -3.23364,1.08388 -1.01659,0.2229 -2.50801,0.42999 -2.763511,0.38374 -0.238248,-0.0431 -4.315382,-0.15974 -5.03396,-0.14398 -0.760522,0.0167 -1.295545,0.24315 -2.699462,1.14269 -0.80554,0.51613 -1.515246,0.80581 -2.315619,0.94512 -0.340748,0.0593 -0.990666,0.17937 -1.444267,0.26679 -1.053666,0.20308 -2.994546,0.14634 -3.47391,-0.10154 -0.174946,-0.0905 -0.432245,-0.16449 -0.571771,-0.16449 -0.139526,0 -0.253684,-0.0342 -0.253684,-0.0759 0,-0.0896 -0.815667,-0.30815 -1.597828,-0.42818 -1.514009,-0.23236 -2.308158,-0.15105 -4.421736,0.4527 -0.492507,0.14068 -1.388431,0.34153 -1.990936,0.44632 -0.602506,0.10479 -1.318884,0.24091 -1.59195,0.30247 -0.27307,0.0616 -0.832288,0.17734 -1.242714,0.25727 -0.410423,0.0799 -0.947706,0.19071 -1.193964,0.24614 -1.844629,0.41522 -6.1701,0.88921 -8.40749,0.92128 -1.528344,0.0219 -2.551907,-0.0719 -4.799995,-0.43976 -2.673165,-0.43745 -3.402697,-0.40014 -5.298944,0.27099 -0.813959,0.28808 -2.371312,0.41305 -2.932223,0.23528 z" /></g></svg>
