<?xml version="1.0" encoding="UTF-8" standalone="no"?>
<!-- Created with Inkscape (http://www.inkscape.org/) -->

<svg
   width="210mm"
   height="297mm"
   viewBox="0 0 210 297"
   version="1.1"
   id="svg374"
   xml:space="preserve"
   xmlns="http://www.w3.org/2000/svg"
   xmlns:svg="http://www.w3.org/2000/svg"><defs
     id="defs371" /><g
     id="layer1"><path
       style="fill:#000000;stroke-width:0.120946"
       d="m 49.260142,194.42142 c -3.453837,-0.43102 -6.9097,-1.72175 -9.863396,-3.68389 -1.637807,-1.08799 -4.219665,-3.6226 -5.379838,-5.28139 -1.49699,-2.14036 -2.458874,-4.19506 -2.926921,-6.25222 -0.349228,-1.53493 -0.349145,-4.14681 1.81e-4,-5.75439 0.853503,-3.92776 3.233225,-7.08944 6.622089,-8.79803 1.070711,-0.53983 3.242671,-1.17747 5.440089,-1.59709 5.149907,-0.98344 6.573161,-1.53838 8.473416,-3.3039 1.40956,-1.30961 2.584296,-3.04556 4.353322,-6.43306 2.480874,-4.7506 4.298053,-9.58148 5.373927,-14.2863 0.52767,-2.3075 0.723312,-3.86327 0.721016,-5.73359 -0.0035,-2.88992 -0.398039,-4.21586 -1.659771,-5.57868 -1.405025,-1.51759 -3.182146,-2.46722 -8.674713,-4.63542 -1.796055,-0.70899 -4.24522,-1.67558 -5.44259,-2.14798 -3.058325,-1.20659 -6.117671,-2.51722 -7.581779,-3.24805 -4.139843,-2.06646 -6.615918,-4.86655 -7.960747,-9.00247 -0.356185,-1.09542 -0.398949,-1.38747 -0.453524,-3.09719 -0.105119,-3.29317 0.296833,-5.23933 1.632826,-7.905801 0.946117,-1.88833 1.716068,-2.97935 3.043721,-4.31293 1.322532,-1.32844 2.856117,-2.38085 4.555357,-3.12608 1.482517,-0.65018 2.66964,-0.94057 4.426818,-1.08288 3.241571,-0.26251 5.922214,0.27639 13.706294,2.75542 5.413289,1.72399 8.17375,2.39247 8.632587,2.09047 0.201043,-0.13233 0.03477,-0.50217 -1.502534,-3.34203 -1.75079,-3.23424 -2.54511,-5.26713 -3.189903,-8.16388 -0.496708,-2.23147 -0.659743,-4.10416 -0.579123,-6.65206 0.06914,-2.18521 0.240748,-3.42069 0.764357,-5.50306 1.131778,-4.50103 3.574164,-8.79529 6.975318,-12.26416 4.258298,-4.34308 9.13923,-6.84971 15.137173,-7.77377 2.438822,-0.37573 6.415963,-0.3702 8.888882,0.0124 3.4783,0.53811 6.62273,1.67568 9.584944,3.46759 6.92908,4.19154 11.43251,10.88849 12.7612,18.97689 0.3318,2.01983 0.30283,6.70543 -0.0542,8.76862 -0.55376,3.19986 -1.66232,6.00646 -4.20145,10.63699 -0.95427,1.74026 -0.98293,1.86807 -0.43065,1.92063 0.74228,0.0707 3.89835,-0.74301 8.35184,-2.15315 7.43762,-2.35505 9.37973,-2.78669 12.51795,-2.78221 2.62644,0.004 4.01592,0.34824 6.59443,1.63491 3.8922,1.94218 7.02732,6.14753 7.99367,10.722431 0.34652,1.6405 0.37718,4.37955 0.0665,5.94066 -0.78876,3.96332 -3.21408,7.34445 -6.78089,9.45321 -1.63823,0.96855 -5.49755,2.64716 -11.7146,5.09527 -7.15827,2.81874 -8.48693,3.40741 -10.07359,4.46314 -1.59876,1.06377 -2.28801,2.00408 -2.7924,3.80953 -0.34144,1.22214 -0.31013,4.63036 0.0617,6.71253 0.919,5.14663 2.52041,9.65941 5.66535,15.96493 2.66344,5.34012 3.96941,7.01758 6.44593,8.27948 1.17137,0.59686 2.81641,1.07673 6.04576,1.76358 4.41312,0.93864 5.20757,1.1872 6.70427,2.09758 2.88422,1.75435 4.79935,4.36489 5.68923,7.75505 2.11724,8.06604 -4.10578,17.46661 -13.68169,20.66772 -2.13822,0.71478 -3.66251,0.90301 -6.69427,0.82667 -2.75896,-0.0695 -3.86312,-0.23215 -6.0323,-0.88875 -3.8884,-1.177 -5.83152,-2.32078 -14.63881,-8.61679 -8.661054,-6.19146 -9.577584,-6.76318 -12.649644,-7.89066 -1.06987,-0.39266 -1.12372,-0.39958 -3.144602,-0.40405 l -2.05609,-0.005 -1.330411,0.46568 c -3.012262,1.05435 -4.384962,1.91983 -15.124127,9.53565 -3.972005,2.81679 -6.395256,4.41395 -7.659796,5.04852 -3.65209,1.8327 -7.180038,2.7647 -10.778712,2.84745 -0.964548,0.0222 -1.944214,0.0166 -2.177036,-0.0125 z m 5.191397,-1.06932 c 1.460081,-0.24834 3.593948,-0.86722 5.209996,-1.51106 2.636692,-1.05045 4.019326,-1.92323 11.954354,-7.54601 7.968317,-5.64638 9.85094,-6.82608 12.565283,-7.87371 2.752505,-1.06236 5.544862,-1.06418 8.262964,-0.005 2.57016,1.0012 4.98254,2.52025 11.604744,7.30738 8.5628,6.18997 11.52701,7.93979 15.28702,9.02413 1.78043,0.51346 2.48114,0.6308 4.63371,0.77592 3.97678,0.26812 7.17535,-0.38698 10.46564,-2.14344 5.05119,-2.69647 8.79421,-7.23158 10.02746,-12.14943 0.23834,-0.95042 0.28124,-1.42795 0.28008,-3.11793 -0.001,-1.79477 -0.0343,-2.11441 -0.32844,-3.17601 -0.70499,-2.54422 -2.12602,-4.74283 -4.06074,-6.28278 -1.80945,-1.44023 -2.84191,-1.80761 -8.60482,-3.06185 -7.06124,-1.5368 -8.48663,-2.78964 -12.51881,-11.00344 -3.23484,-6.58957 -4.85069,-11.52286 -5.57903,-17.03317 -0.49317,-3.73111 0.18136,-6.92685 1.81531,-8.60045 1.45852,-1.4939 3.52475,-2.52074 10.71582,-5.32535 2.83915,-1.10731 6.44703,-2.57264 8.58489,-3.48674 1.67167,-0.71476 3.96442,-1.89278 4.8941,-2.51459 1.9375,-1.29588 3.72865,-3.47639 4.69297,-5.71317 0.75036,-1.74046 0.98172,-2.95301 0.98471,-5.16085 0.003,-2.1723 -0.21072,-3.48442 -0.82742,-5.081241 -1.70109,-4.40471 -4.314,-7.13736 -8.44715,-8.83429 -1.5928,-0.65395 -2.70288,-0.85093 -4.7955,-0.85093 -2.06504,0 -2.96876,0.11864 -5.26802,0.69155 -1.68845,0.42071 -2.63887,0.70021 -6.53111,1.92072 -4.95771,1.55459 -8.01363,2.35751 -8.97278,2.35751 -0.43528,0 -0.94684,-0.23803 -1.15463,-0.53725 -0.26414,-0.38036 -0.0637,-1.01404 0.86091,-2.72136 2.2535,-4.16126 3.3109,-6.68011 3.88703,-9.25935 0.48864,-2.18757 0.62849,-6.39792 0.29808,-8.97408 -1.0844,-8.45498 -6.3226,-15.8967 -13.92603,-19.78419 -3.977964,-2.03386 -7.305234,-2.79623 -12.196763,-2.79464 -4.014576,10e-4 -6.928162,0.52569 -10.188549,1.8337 -4.886892,1.96055 -9.488502,5.90578 -12.454793,10.67822 -1.488886,2.39545 -2.69439,5.42582 -3.31662,8.33723 -0.396335,1.85446 -0.400656,1.90923 -0.400656,5.07975 0,3.15118 0.0065,3.23561 0.388599,5.02011 0.702405,3.28072 1.39086,5.0204 3.668977,9.27125 1.317677,2.45873 1.469345,2.91233 1.118551,3.34535 -0.689848,0.85154 -2.618671,0.49495 -10.019689,-1.8524 -6.096046,-1.93346 -7.865267,-2.38147 -10.298804,-2.60794 -3.116895,-0.29005 -5.796283,0.26767 -8.326947,1.73329 -2.464363,1.42722 -4.153468,3.23848 -5.608455,6.01407 -1.394274,2.659781 -1.760776,4.320431 -1.685701,7.638061 0.0454,2.00641 0.06509,2.14836 0.450332,3.24712 0.755572,2.155 1.631022,3.63882 3.008227,5.09873 2.059278,2.18294 4.360381,3.42097 11.878535,6.39084 10.470054,4.13595 11.583321,4.62683 13.182857,5.81281 1.603632,1.18902 2.578507,2.54141 2.967321,4.1164 0.107961,0.43732 0.221375,1.59157 0.260337,2.64957 0.05665,1.53827 0.02321,2.18936 -0.186347,3.62839 -0.749566,5.1472 -2.843266,11.25 -5.87614,17.12801 -2.686141,5.20602 -4.440006,7.32711 -7.142947,8.63854 -1.508545,0.73193 -2.705516,1.07387 -5.926376,1.69299 -4.345226,0.83524 -6.364628,1.66841 -8.201405,3.38376 -2.118858,1.97878 -3.336238,4.30152 -3.770659,7.19436 -0.22784,1.5172 -0.229095,2.46686 -0.0052,3.95204 0.29958,1.98741 1.048661,3.82657 2.395403,5.88124 3.410364,5.20307 8.512789,8.41532 14.903525,9.38259 0.736697,0.1115 4.268728,-0.0349 5.372817,-0.22265 z m 57.001901,-9.91133 c -1.30228,-0.4249 -2.17854,-1.73788 -1.78631,-2.67661 0.23085,-0.55248 0.61729,-0.76832 1.52594,-0.85227 1.13662,-0.10501 1.55785,-0.26214 1.70572,-0.6363 0.0697,-0.17641 0.16791,-1.08271 0.2182,-2.014 0.10889,-2.01624 0.34763,-2.95652 0.95459,-3.75958 0.61754,-0.81706 1.40579,-1.18534 3.34188,-1.56136 0.86477,-0.16795 1.72454,-0.36694 1.91061,-0.44219 0.58039,-0.23476 0.71469,-0.6922 0.8193,-2.79078 0.10181,-2.04232 0.29933,-2.97861 0.78176,-3.70565 0.39717,-0.59855 1.70802,-1.46909 2.33973,-1.55382 0.47431,-0.0636 0.53246,-0.0354 1.10421,0.53638 0.58766,0.58765 0.60354,0.62231 0.60326,1.31626 -2.5e-4,0.62948 -0.0557,0.79421 -0.47426,1.41044 -0.6041,0.8893 -0.73492,1.52363 -0.73492,3.56366 0,1.15256 -0.059,1.8595 -0.19604,2.34781 -0.46722,1.66517 -1.83486,2.43655 -5.32664,3.0044 -0.47643,0.0775 -0.95572,0.20631 -1.0651,0.28628 -0.25578,0.18704 -0.38789,0.7927 -0.54648,2.50539 -0.0704,0.76045 -0.21172,1.68198 -0.31401,2.04784 -0.2197,0.78575 -0.87459,1.79707 -1.44594,2.23285 -0.9797,0.74726 -2.43142,1.06231 -3.4155,0.74125 z m 1.83407,-0.84734 c 0.73922,-0.22247 1.34381,-0.69201 1.7832,-1.38484 0.4518,-0.71242 0.53363,-1.04374 0.76572,-3.10037 0.20005,-1.77269 0.34641,-2.41096 0.6267,-2.73297 0.21696,-0.24926 0.80126,-0.42022 2.45228,-0.71751 1.7854,-0.32149 2.61643,-0.64414 3.23128,-1.25453 0.65506,-0.65033 0.76834,-1.10989 0.76916,-3.12033 9.7e-4,-2.28286 0.25069,-3.298 1.04525,-4.24835 0.15721,-0.18804 0.28584,-0.47188 0.28584,-0.63076 0,-0.31197 -0.65519,-1.14392 -0.90088,-1.14392 -0.0826,0 -0.48211,0.21456 -0.88786,0.47681 -1.16034,0.74997 -1.32589,1.2001 -1.4788,4.0209 -0.11497,2.12083 -0.2349,2.62098 -0.74,3.08591 -0.43037,0.39615 -0.99113,0.59342 -2.49173,0.87662 -0.74406,0.14042 -1.58549,0.33739 -1.86985,0.43773 -1.29583,0.45719 -1.91046,1.72968 -1.91203,3.95854 -0.002,2.65325 -0.48742,3.40458 -2.29831,3.55639 -0.54243,0.0455 -0.95879,0.14918 -1.11861,0.27858 -0.22807,0.18468 -0.23878,0.24425 -0.10294,0.57221 0.42631,1.02919 1.55933,1.45579 2.84158,1.06989 z m -45.804453,-1.40658 c -0.422916,-0.33267 -0.55493,-0.88731 -0.479702,-2.01545 0.05906,-0.88568 0.04496,-0.95882 -0.234931,-1.21848 -0.200852,-0.18634 -0.608714,-0.33569 -1.253161,-0.45888 -2.553616,-0.48818 -3.514638,-0.85654 -4.310289,-1.6522 -0.801696,-0.8017 -0.95108,-1.30112 -1.054163,-3.52433 -0.05345,-1.15273 -0.154068,-2.08345 -0.246127,-2.27664 -0.212276,-0.44546 -0.723901,-0.6619 -2.372858,-1.00384 -2.892596,-0.59984 -3.665323,-1.01669 -4.329495,-2.33556 -0.694066,-1.37823 -0.687972,-1.92345 0.02794,-2.4998 0.53639,-0.43182 0.796405,-0.53789 1.329226,-0.54227 0.64641,-0.005 0.902399,0.12251 1.603674,0.80071 0.687144,0.66453 1.676805,1.02153 3.620378,1.30598 1.554162,0.22746 2.286822,0.49951 2.881727,1.07006 0.836635,0.80239 1.104864,1.72609 1.183537,4.07575 0.0323,0.96455 0.08474,1.87885 0.116546,2.03178 0.07355,0.35365 0.715459,0.63463 2.576429,1.12779 2.30983,0.61212 3.317863,1.30371 3.967041,2.7217 0.782159,1.70846 0.257019,3.67036 -1.178462,4.40269 -0.619858,0.31622 -1.438917,0.31223 -1.847313,-0.009 z m 1.198532,-0.59923 c 0.09415,0 0.379828,-0.18851 0.634845,-0.4189 1.033801,-0.93397 0.979877,-2.61905 -0.123943,-3.87304 -0.616277,-0.70014 -1.083649,-0.93729 -2.728479,-1.38453 -1.924869,-0.52338 -2.824927,-0.8874 -3.097818,-1.25292 -0.203831,-0.27301 -0.249974,-0.6104 -0.329421,-2.40877 -0.165961,-3.75669 -0.522123,-4.24113 -3.444531,-4.68519 -2.312108,-0.35132 -3.291963,-0.7358 -4.157321,-1.63124 -0.499423,-0.51678 -1.03404,-0.57304 -1.583712,-0.16665 -0.443885,0.32818 -0.444603,0.45887 -0.0076,1.38262 0.564814,1.19391 1.304748,1.58923 3.914964,2.0917 2.833917,0.54552 3.0872,0.85479 3.22529,3.93823 0.07232,1.61473 0.12871,2.01876 0.338032,2.42184 0.595989,1.14765 1.649257,1.61603 4.870742,2.16594 0.551661,0.0942 1.141161,0.45961 1.414549,0.87689 0.174759,0.26674 0.218228,0.58195 0.218228,1.58249 0,0.97872 0.0393,1.27437 0.181419,1.36467 0.09978,0.0634 0.253903,0.0886 0.342495,0.0561 0.08859,-0.0326 0.238105,-0.0592 0.332254,-0.0592 z m 18.126024,-28.10834 c -2.175776,-0.68147 -3.712424,-2.43817 -4.048769,-4.62854 -0.402527,-2.62136 1.4346,-5.36885 4.080502,-6.10254 2.005052,-0.55598 3.92563,0.0186 5.45007,1.63046 1.01337,1.07149 1.47901,2.27754 1.47901,3.83076 0,3.0324 -2.50865,5.45453 -5.624005,5.43004 -0.465644,-0.004 -1.067207,-0.0757 -1.336808,-0.16018 z m 2.666539,-0.82153 c 0.757243,-0.19204 1.380424,-0.55684 2.077554,-1.21615 2.16068,-2.04348 1.81054,-5.58447 -0.71816,-7.26279 -1.608226,-1.06739 -3.530119,-1.06607 -5.141666,0.004 -3.000256,1.99129 -2.841067,6.34946 0.2938,8.04351 1.211075,0.65446 2.151696,0.77091 3.488472,0.4319 z m -2.609489,-21.48463 c -2.155831,-0.56277 -3.789249,-2.38096 -4.132767,-4.60027 -0.267232,-1.72648 0.318368,-3.30712 1.730208,-4.67013 0.967234,-0.93379 1.821402,-1.36394 3.050623,-1.53624 1.183374,-0.16589 1.907065,-0.0603 2.921119,0.42634 2.21029,1.06061 3.33458,2.75513 3.33458,5.02582 0,1.73985 -0.41373,2.72805 -1.65261,3.9473 -0.86661,0.85287 -1.47231,1.20736 -2.461201,1.44043 -1.003533,0.23652 -1.792543,0.22711 -2.789952,-0.0333 z m 3.36255,-1.00067 c 0.690983,-0.33449 1.970573,-1.57419 2.306773,-2.23486 0.13828,-0.27174 0.30017,-0.85789 0.35975,-1.30257 0.30668,-2.28899 -0.64231,-4.02453 -2.787379,-5.09766 -0.692337,-0.34637 -0.979397,-0.42262 -1.585111,-0.42107 -2.088669,0.005 -3.616867,0.96376 -4.625317,2.90082 -0.310109,0.59567 -0.346318,0.78532 -0.346384,1.8142 -6.7e-5,1.02561 0.03803,1.22683 0.354751,1.87391 0.635858,1.29909 1.786013,2.30218 3.064035,2.67228 0.847571,0.24544 2.549501,0.13836 3.258882,-0.20505 z m -43.20458,-11.76591 c -0.607573,-0.26542 -1.121094,-0.77893 -1.332492,-1.33247 -0.179698,-0.47053 -0.181921,-0.56266 -0.02107,-0.8737 0.259211,-0.50126 0.530571,-0.70073 1.395814,-1.02602 0.892733,-0.33561 1.348697,-0.70733 1.348477,-1.09931 -8.7e-5,-0.15285 -0.14462,-0.84938 -0.321188,-1.54784 -0.240312,-0.95063 -0.32339,-1.58925 -0.330415,-2.53988 -0.0088,-1.18808 0.01361,-1.31168 0.347357,-1.91767 0.477109,-0.86628 0.952275,-1.23693 2.602384,-2.02996 1.748146,-0.84014 2.143944,-1.13509 2.244828,-1.67285 0.05063,-0.26991 -0.05354,-1.04144 -0.297726,-2.20497 -0.644415,-3.070621 -0.481853,-4.044711 0.891826,-5.343881 0.742899,-0.7026 1.0971,-0.77505 1.867588,-0.38197 1.067425,0.54456 1.422035,1.46779 0.955028,2.48643 -0.398897,0.87007 -0.362514,2.04209 0.114679,3.694201 0.75578,2.6166 0.641511,3.52855 -0.593553,4.73706 -0.584668,0.5721 -1.042566,0.86182 -2.378857,1.50513 -0.910152,0.43816 -1.750742,0.88036 -1.867976,0.98267 -0.23558,0.20559 -0.229183,0.3551 0.114619,2.6789 0.267193,1.806 0.181092,3.03555 -0.27135,3.87497 -0.745728,1.38357 -1.962777,2.18247 -3.312491,2.17441 -0.435952,-0.003 -0.955919,-0.0761 -1.155482,-0.16325 z m 1.827764,-0.73639 c 0.802222,-0.23824 1.530065,-0.88493 1.940778,-1.7244 0.397203,-0.81185 0.426548,-1.71017 0.113649,-3.47902 -0.105903,-0.59869 -0.192726,-1.47577 -0.192939,-1.94907 -4.84e-4,-1.01028 0.190614,-1.33912 0.997893,-1.71747 2.422926,-1.13557 2.892284,-1.39449 3.470976,-1.91479 1.096154,-0.98553 1.204754,-1.6531 0.59959,-3.6857 -0.525781,-1.76596 -0.61778,-3.534471 -0.230678,-4.434311 0.237061,-0.55106 0.251943,-0.67666 0.118383,-0.9991 -0.151601,-0.366 -0.655557,-0.72024 -1.024638,-0.72024 -0.251392,0 -1.122212,0.92005 -1.341404,1.41724 -0.266763,0.60509 -0.211323,1.62078 0.203212,3.722991 0.572429,2.90292 0.434873,3.17909 -2.235836,4.48898 -0.863996,0.42376 -1.730815,0.92053 -1.926268,1.10393 -0.909968,0.85388 -1.024483,2.04529 -0.436796,4.54446 0.241574,1.0273 0.34542,1.72225 0.296401,1.98355 -0.120414,0.64185 -0.694645,1.18638 -1.626684,1.54253 -0.455244,0.17396 -0.925302,0.42412 -1.044575,0.55592 -0.208848,0.23077 -0.207987,0.25181 0.02329,0.56928 0.249559,0.34257 1.161324,0.87391 1.499602,0.87391 0.106872,0 0.465093,-0.0804 0.796044,-0.17869 z m 79.159193,-0.47388 c -0.66882,-0.37069 -0.76149,-1.0169 -0.31568,-2.20131 0.54017,-1.43511 0.42225,-1.65028 -1.45136,-2.64825 -1.79437,-0.95578 -2.53432,-1.61378 -3.05495,-2.71665 -0.42348,-0.89708 -0.40457,-1.66444 0.0821,-3.3316 0.2136,-0.73173 0.41841,-1.60437 0.45513,-1.9392 0.10381,-0.9466 -0.0414,-1.07935 -3.04404,-2.78177 -0.8023,-0.45489 -1.72054,-1.327961 -2.02562,-1.925961 -0.1708,-0.3348 -0.26585,-0.81119 -0.30746,-1.54102 -0.0752,-1.31938 0.0564,-1.5688 0.98216,-1.86061 1.13834,-0.35883 1.96963,0.007 2.49822,1.09867 0.39911,0.82444 1.25924,1.50551 2.97175,2.35306 1.83618,0.90876 2.48036,1.476021 2.76512,2.434931 0.33043,1.11267 0.2152,2.31401 -0.41079,4.28284 -0.56062,1.76324 -0.56163,1.67837 0.0255,2.15202 0.28284,0.22817 1.14794,0.82902 1.92246,1.33523 0.77452,0.5062 1.57845,1.1353 1.78651,1.398 1.91365,2.41619 0.75818,6.07305 -1.91357,6.05612 -0.37203,-0.002 -0.80649,-0.0764 -0.96547,-0.1645 z m 1.58634,-0.74496 c 0.4237,-0.101 1.11046,-0.86114 1.30179,-1.44086 0.32599,-0.98776 -0.0223,-2.49547 -0.76585,-3.31517 -0.14351,-0.15821 -0.94997,-0.74234 -1.79214,-1.29806 -0.84217,-0.55572 -1.72659,-1.19466 -1.96538,-1.41987 -0.37873,-0.35719 -0.43416,-0.48214 -0.43416,-0.9786 0,-0.31302 0.13901,-0.98323 0.30891,-1.48937 0.46159,-1.37504 0.65488,-2.30158 0.65687,-3.14869 0.003,-1.37786 -0.55167,-2.02853 -2.50315,-2.935151 -1.83406,-0.85206 -2.81018,-1.65224 -3.33613,-2.73479 -0.31735,-0.65321 -0.75309,-0.85751 -1.40947,-0.66086 -0.25575,0.0766 -0.49723,0.22329 -0.53661,0.32592 -0.13803,0.3597 0.14627,1.76279 0.45025,2.22214 0.31649,0.47825 1.31027,1.18482 2.98283,2.120771 2.22515,1.24519 2.40442,1.77622 1.55886,4.61755 -0.2219,0.74562 -0.39391,1.60067 -0.39823,1.9795 -0.0143,1.25787 0.80029,2.18714 2.91174,3.32144 1.34844,0.7244 1.80402,1.06724 2.04983,1.54259 0.24206,0.46809 0.16847,1.24495 -0.1954,2.06286 -0.32856,0.73855 -0.28629,1.19736 0.12052,1.30787 0.1663,0.0452 0.384,0.0635 0.48378,0.0408 0.0998,-0.0228 0.3298,-0.0767 0.51114,-0.11998 z M 86.572117,94.033449 c -1.720943,-0.26996 -4.063896,-1.23784 -5.795048,-2.39395 -2.587611,-1.72808 -4.766185,-4.47476 -5.346788,-6.74108 -0.487882,-1.90439 0.497217,-3.13894 2.515346,-3.1523 0.657731,-0.004 0.906964,0.053 1.344999,0.30975 0.542009,0.31764 0.723722,0.55525 2.328279,3.04453 0.808939,1.25498 2.357322,2.84294 3.332953,3.41815 1.225876,0.72275 1.962187,0.92477 3.373982,0.92568 1.152726,7.3e-4 1.361829,-0.0358 2.265536,-0.39548 1.99048,-0.79232 3.70297,-2.42087 5.06291,-4.81475 1.1363,-2.00021 1.89299,-2.54862 3.35466,-2.43129 2.963864,0.23791 3.174344,2.9092 0.50762,6.4423 -2.1385,2.83325 -4.77351,4.62382 -8.04172,5.46457 -0.88523,0.22772 -1.547061,0.30648 -2.84664,0.33875 -0.931287,0.0231 -1.856527,0.0164 -2.056089,-0.0149 z m 4.657529,-1.10946 c 2.31358,-0.559 4.40673,-1.76453 6.22985,-3.58801 2.34076,-2.34124 3.609244,-4.9851 2.906404,-6.05776 -0.2668,-0.40719 -0.877954,-0.65722 -1.606434,-0.65722 -0.82173,0 -1.34874,0.32017 -1.81026,1.09976 -1.15688,1.95421 -1.86186,2.91969 -2.87017,3.93075 -1.18712,1.19036 -2.13974,1.80159 -3.61449,2.31915 -1.60722,0.56406 -3.697335,0.40024 -5.338621,-0.41842 -0.681683,-0.34001 -2.173734,-1.43789 -2.54504,-1.87268 -1.110505,-1.30037 -1.470823,-1.78486 -2.232944,-3.00247 -1.058522,-1.69115 -1.248249,-1.90246 -1.854742,-2.06578 -1.367706,-0.36828 -2.506228,0.43866 -2.339115,1.65789 0.193755,1.41359 1.434548,3.44489 3.063458,5.01516 2.022212,1.94942 4.286742,3.21902 6.68937,3.75037 1.362803,0.30139 3.829409,0.25007 5.322734,-0.11074 z m 3.15187,-19.19248 c -1.23008,-0.55795 -2.19079,-1.95359 -2.21639,-3.21979 -0.0211,-1.04436 0.32654,-1.87256 1.11846,-2.66447 1.06016,-1.06016 2.31215,-1.33344 3.71106,-0.81004 0.87551,0.32757 1.74684,1.18667 2.02169,1.99331 0.28967,0.85011 0.25938,2.3284 -0.0617,3.01145 -0.30881,0.65697 -1.12615,1.40588 -1.76023,1.61285 -0.77159,0.25186 -2.33287,0.29443 -2.8129,0.0767 z m 2.3497,-0.80082 c 0.28401,-0.0789 0.69051,-0.34132 0.98557,-0.63637 1.64515,-1.64515 0.39443,-4.67068 -1.93081,-4.67068 -1.09542,0 -1.90407,0.48925 -2.44798,1.48107 -0.74266,1.35424 -0.3033,2.78787 1.15279,3.76156 0.35172,0.23519 1.50576,0.26837 2.24043,0.0644 z m -18.27931,0.68986 c -1.12946,-0.27401 -2.171749,-1.2915 -2.476467,-2.41754 -0.204021,-0.75393 -0.07395,-1.96502 0.287518,-2.67712 0.380167,-0.74894 1.219818,-1.54309 1.853086,-1.75266 0.260485,-0.0862 0.881804,-0.16064 1.380708,-0.16542 0.718616,-0.007 1.013205,0.0477 1.417758,0.26242 1.211055,0.64295 1.93666,1.70832 2.053002,3.01432 0.151362,1.69913 -1.049458,3.34792 -2.725612,3.74243 -0.81335,0.19144 -0.976829,0.19085 -1.789993,-0.006 z m 2.109806,-0.98854 c 1.789422,-0.89171 2.143005,-3.01295 0.737501,-4.42448 -0.739902,-0.74307 -1.306387,-0.91845 -2.375244,-0.73536 -0.659406,0.11295 -0.871333,0.21269 -1.268673,0.59709 -0.76297,0.73811 -0.972451,1.25571 -0.920952,2.27555 0.03526,0.69827 0.108761,0.96664 0.374861,1.36875 0.764564,1.15533 2.207071,1.53907 3.452507,0.91845 z"
       id="path434" /></g></svg>
