<?xml version="1.0" standalone="no"?>
<!DOCTYPE svg PUBLIC "-//W3C//DTD SVG 1.1//EN" "http://www.w3.org/Graphics/SVG/1.1/DTD/svg11.dtd">
<svg width="30mm" height="52mm" viewBox="0 -52 30 52" xmlns="http://www.w3.org/2000/svg" version="1.1">
<title>OpenSCAD Model</title>
<path d="
M 8.59999,-52 L 6.59999,-52 L 6.59999,-44 L 8.59999,-44 z
M 21.8,-52 L 19.8,-52 L 19.8,-44 L 21.8,-44 z
M 4.2,-52 L 2.2,-52 L 2.2,-44 L 4.2,-44 z
M 2,-52 L 0,-52 L 0,-44 L 2,-44 z
M 13,-52 L 11,-52 L 11,-44 L 13,-44 z
M 19.6,-52 L 17.6,-52 L 17.6,-44 L 19.6,-44 z
M 17.4,-52 L 15.4,-52 L 15.4,-44 L 17.4,-44 z
M 15.2,-52 L 13.2,-52 L 13.2,-44 L 15.2,-44 z
M 30,-52 L 22,-52 L 22,-44 L 30,-44 z
M 6.39999,-52 L 4.39999,-52 L 4.39999,-44 L 6.39999,-44 z
M 10.8,-52 L 8.79999,-52 L 8.79999,-44 L 10.8,-44 z
M 8.59999,-43.2 L 6.59999,-43.2 L 6.59999,-35.2 L 8.59999,-35.2 z
M 13,-43.2 L 11,-43.2 L 11,-35.2 L 13,-35.2 z
M 10.8,-43.2 L 8.79999,-43.2 L 8.79999,-35.2 L 10.8,-35.2 z
M 4.2,-43.2 L 2.2,-43.2 L 2.2,-35.2 L 4.2,-35.2 z
M 6.39999,-43.2 L 4.39999,-43.2 L 4.39999,-35.2 L 6.39999,-35.2 z
M 21.8,-43.2 L 19.8,-43.2 L 19.8,-35.2 L 21.8,-35.2 z
M 19.6,-43.2 L 17.6,-43.2 L 17.6,-35.2 L 19.6,-35.2 z
M 17.4,-43.2 L 15.4,-43.2 L 15.4,-35.2 L 17.4,-35.2 z
M 15.2,-43.2 L 13.2,-43.2 L 13.2,-35.2 L 15.2,-35.2 z
M 30,-43.2 L 22,-43.2 L 22,-35.2 L 30,-35.2 z
M 2,-43.2 L 0,-43.2 L 0,-35.2 L 2,-35.2 z
M 17.4,-34.4 L 15.4,-34.4 L 15.4,-26.4 L 17.4,-26.4 z
M 10.8,-34.4 L 8.79999,-34.4 L 8.79999,-26.4 L 10.8,-26.4 z
M 8.59999,-34.4 L 6.59999,-34.4 L 6.59999,-26.4 L 8.59999,-26.4 z
M 6.39999,-34.4 L 4.39999,-34.4 L 4.39999,-26.4 L 6.39999,-26.4 z
M 4.2,-34.4 L 2.2,-34.4 L 2.2,-26.4 L 4.2,-26.4 z
M 2,-34.4 L 0,-34.4 L 0,-26.4 L 2,-26.4 z
M 19.6,-34.4 L 17.6,-34.4 L 17.6,-26.4 L 19.6,-26.4 z
M 13,-34.4 L 11,-34.4 L 11,-26.4 L 13,-26.4 z
M 15.2,-34.4 L 13.2,-34.4 L 13.2,-26.4 L 15.2,-26.4 z
M 30,-34.4 L 22,-34.4 L 22,-26.4 L 30,-26.4 z
M 21.8,-34.4 L 19.8,-34.4 L 19.8,-26.4 L 21.8,-26.4 z
M 30,-25.6 L 22,-25.6 L 22,-17.6 L 30,-17.6 z
M 19.6,-25.6 L 17.6,-25.6 L 17.6,-17.6 L 19.6,-17.6 z
M 6.39999,-25.6 L 4.39999,-25.6 L 4.39999,-17.6 L 6.39999,-17.6 z
M 10.8,-25.6 L 8.79999,-25.6 L 8.79999,-17.6 L 10.8,-17.6 z
M 8.59999,-25.6 L 6.59999,-25.6 L 6.59999,-17.6 L 8.59999,-17.6 z
M 4.2,-25.6 L 2.2,-25.6 L 2.2,-17.6 L 4.2,-17.6 z
M 13,-25.6 L 11,-25.6 L 11,-17.6 L 13,-17.6 z
M 17.4,-25.6 L 15.4,-25.6 L 15.4,-17.6 L 17.4,-17.6 z
M 15.2,-25.6 L 13.2,-25.6 L 13.2,-17.6 L 15.2,-17.6 z
M 21.8,-25.6 L 19.8,-25.6 L 19.8,-17.6 L 21.8,-17.6 z
M 2,-25.6 L 0,-25.6 L 0,-17.6 L 2,-17.6 z
M 10.8,-16.8 L 8.79999,-16.8 L 8.79999,-8.79999 L 10.8,-8.79999 z
M 6.39999,-16.8 L 4.39999,-16.8 L 4.39999,-8.79999 L 6.39999,-8.79999 z
M 8.59999,-16.8 L 6.59999,-16.8 L 6.59999,-8.79999 L 8.59999,-8.79999 z
M 4.2,-16.8 L 2.2,-16.8 L 2.2,-8.79999 L 4.2,-8.79999 z
M 2,-16.8 L 0,-16.8 L 0,-8.79999 L 2,-8.79999 z
M 21.8,-16.8 L 19.8,-16.8 L 19.8,-8.79999 L 21.8,-8.79999 z
M 17.4,-16.8 L 15.4,-16.8 L 15.4,-8.79999 L 17.4,-8.79999 z
M 15.2,-16.8 L 13.2,-16.8 L 13.2,-8.79999 L 15.2,-8.79999 z
M 30,-16.8 L 22,-16.8 L 22,-8.79999 L 30,-8.79999 z
M 19.6,-16.8 L 17.6,-16.8 L 17.6,-8.79999 L 19.6,-8.79999 z
M 13,-16.8 L 11,-16.8 L 11,-8.79999 L 13,-8.79999 z
M 10.8,-8 L 8.79999,-8 L 8.79999,-0 L 10.8,-0 z
M 8.59999,-8 L 6.59999,-8 L 6.59999,-0 L 8.59999,-0 z
M 6.39999,-8 L 4.39999,-8 L 4.39999,-0 L 6.39999,-0 z
M 4.2,-8 L 2.2,-8 L 2.2,-0 L 4.2,-0 z
M 2,-8 L 0,-8 L 0,-0 L 2,-0 z
M 17.4,-8 L 15.4,-8 L 15.4,-0 L 17.4,-0 z
M 21.8,-8 L 19.8,-8 L 19.8,-0 L 21.8,-0 z
M 19.6,-8 L 17.6,-8 L 17.6,-0 L 19.6,-0 z
M 13,-8 L 11,-8 L 11,-0 L 13,-0 z
M 15.2,-8 L 13.2,-8 L 13.2,-0 L 15.2,-0 z
M 30,-8 L 22,-8 L 22,-0 L 30,-0 z
" stroke="black" fill="lightgray" stroke-width="0.5"/>
</svg>
