<?xml version="1.0" standalone="no"?>
<!DOCTYPE svg PUBLIC "-//W3C//DTD SVG 1.1//EN" "http://www.w3.org/Graphics/SVG/1.1/DTD/svg11.dtd">
<svg width="299mm" height="352mm" viewBox="0 -352 299 352" xmlns="http://www.w3.org/2000/svg" version="1.1">
<title>OpenSCAD Model</title>
<path d="
M 23.55,-351.15 L 0,-351.15 L 0,-52.7 L 23.55,-52.7 z
M 4.759,-342.892 L 4.09999,-344.483 L 4.759,-346.074 L 6.34999,-346.733 L 7.94098,-346.074 L 8.59999,-344.483
 L 7.94098,-342.892 L 6.34999,-342.233 z
M 19.45,-344.483 L 18.791,-342.892 L 17.2,-342.233 L 15.609,-342.892 L 14.95,-344.483 L 15.609,-346.074
 L 17.2,-346.733 L 18.791,-346.074 z
M 4.759,-57.7757 L 4.09999,-59.3667 L 4.759,-60.9577 L 6.34999,-61.6167 L 7.94098,-60.9577 L 8.59999,-59.3667
 L 7.94098,-57.7757 L 6.34999,-57.1167 z
M 15.609,-57.7757 L 14.95,-59.3667 L 15.609,-60.9577 L 17.2,-61.6167 L 18.791,-60.9577 L 19.45,-59.3667
 L 18.791,-57.7757 L 17.2,-57.1167 z
M 298.45,-39.6833 L 273.05,-39.6833 L 273.05,-46.35 L 266.7,-46.35 L 266.7,-39.6833 L 260.35,-39.6833
 L 260.35,-46.35 L 254,-46.35 L 254,-39.6833 L 247.65,-39.6833 L 247.65,-46.35 L 241.3,-46.35
 L 241.3,-39.6833 L 234.95,-39.6833 L 234.95,-46.35 L 228.6,-46.35 L 228.6,-39.6833 L 222.25,-39.6833
 L 222.25,-46.35 L 215.9,-46.35 L 215.9,-39.6833 L 209.55,-39.6833 L 209.55,-46.35 L 203.2,-46.35
 L 203.2,-39.6833 L 196.85,-39.6833 L 196.85,-46.35 L 190.5,-46.35 L 190.5,-39.6833 L 184.15,-39.6833
 L 184.15,-46.35 L 177.8,-46.35 L 177.8,-39.6833 L 171.45,-39.6833 L 171.45,-46.35 L 165.1,-46.35
 L 165.1,-39.6833 L 158.75,-39.6833 L 158.75,-46.35 L 152.4,-46.35 L 152.4,-39.6833 L 146.05,-39.6833
 L 146.05,-46.35 L 139.7,-46.35 L 139.7,-39.6833 L 133.35,-39.6833 L 133.35,-46.35 L 127,-46.35
 L 127,-39.6833 L 120.65,-39.6833 L 120.65,-46.35 L 114.3,-46.35 L 114.3,-39.6833 L 107.95,-39.6833
 L 107.95,-46.35 L 101.6,-46.35 L 101.6,-39.6833 L 95.25,-39.6833 L 95.25,-46.35 L 88.9,-46.35
 L 88.9,-39.6833 L 82.55,-39.6833 L 82.55,-46.35 L 76.2,-46.35 L 76.2,-39.6833 L 69.85,-39.6833
 L 69.85,-46.35 L 63.5,-46.35 L 63.5,-39.6833 L 57.15,-39.6833 L 57.15,-46.35 L 50.8,-46.35
 L 50.8,-39.6833 L 44.45,-39.6833 L 44.45,-46.35 L 38.1,-46.35 L 38.1,-39.6833 L 31.75,-39.6833
 L 31.75,-46.35 L 25.4,-46.35 L 25.4,-39.6833 L 0,-39.6833 L 0,-26.35 L 298.45,-26.35
 z
M 279.659,-31.4257 L 279,-33.0167 L 279.659,-34.6077 L 281.25,-35.2667 L 282.841,-34.6077 L 283.5,-33.0167
 L 282.841,-31.4257 L 281.25,-30.7667 z
M 15.609,-31.4257 L 14.95,-33.0167 L 15.609,-34.6077 L 17.2,-35.2667 L 18.791,-34.6077 L 19.45,-33.0167
 L 18.791,-31.4257 L 17.2,-30.7667 z
M 290.509,-31.4257 L 289.85,-33.0167 L 290.509,-34.6077 L 292.1,-35.2667 L 293.691,-34.6077 L 294.35,-33.0167
 L 293.691,-31.4257 L 292.1,-30.7667 z
M 4.759,-31.4257 L 4.09999,-33.0167 L 4.759,-34.6077 L 6.34999,-35.2667 L 7.94098,-34.6077 L 8.59999,-33.0167
 L 7.94098,-31.4257 L 6.34999,-30.7667 z
M 298.45,-13.3333 L 266.7,-13.3333 L 266.7,-20 L 260.35,-20 L 260.35,-13.3333 L 254,-13.3333
 L 254,-20 L 247.65,-20 L 247.65,-13.3333 L 241.3,-13.3333 L 241.3,-20 L 234.95,-20
 L 234.95,-13.3333 L 228.6,-13.3333 L 228.6,-20 L 222.25,-20 L 222.25,-13.3333 L 215.9,-13.3333
 L 215.9,-20 L 209.55,-20 L 209.55,-13.3333 L 203.2,-13.3333 L 203.2,-20 L 196.85,-20
 L 196.85,-13.3333 L 190.5,-13.3333 L 190.5,-20 L 184.15,-20 L 184.15,-13.3333 L 177.8,-13.3333
 L 177.8,-20 L 171.45,-20 L 171.45,-13.3333 L 165.1,-13.3333 L 165.1,-20 L 158.75,-20
 L 158.75,-13.3333 L 152.4,-13.3333 L 152.4,-20 L 146.05,-20 L 146.05,-13.3333 L 139.7,-13.3333
 L 139.7,-20 L 133.35,-20 L 133.35,-13.3333 L 127,-13.3333 L 127,-20 L 120.65,-20
 L 120.65,-13.3333 L 114.3,-13.3333 L 114.3,-20 L 107.95,-20 L 107.95,-13.3333 L 101.6,-13.3333
 L 101.6,-20 L 95.25,-20 L 95.25,-13.3333 L 88.9,-13.3333 L 88.9,-20 L 82.55,-20
 L 82.55,-13.3333 L 76.2,-13.3333 L 76.2,-20 L 69.85,-20 L 69.85,-13.3333 L 63.5,-13.3333
 L 63.5,-20 L 57.15,-20 L 57.15,-13.3333 L 50.8,-13.3333 L 50.8,-20 L 44.45,-20
 L 44.45,-13.3333 L 38.1,-13.3333 L 38.1,-20 L 31.75,-20 L 31.75,-13.3333 L 0,-13.3333
 L 0,-0 L 298.45,-0 z
M 15.609,-5.07567 L 14.95,-6.66666 L 15.609,-8.25764 L 17.2,-8.91666 L 18.791,-8.25764 L 19.45,-6.66666
 L 18.791,-5.07567 L 17.2,-4.41666 z
M 4.759,-5.07567 L 4.09999,-6.66666 L 4.759,-8.25764 L 6.34999,-8.91666 L 7.94098,-8.25764 L 8.59999,-6.66666
 L 7.94098,-5.07567 L 6.34999,-4.41666 z
M 279.659,-5.07567 L 279,-6.66666 L 279.659,-8.25764 L 281.25,-8.91666 L 282.841,-8.25764 L 283.5,-6.66666
 L 282.841,-5.07567 L 281.25,-4.41666 z
M 294.35,-6.66666 L 293.691,-5.07567 L 292.1,-4.41666 L 290.509,-5.07567 L 289.85,-6.66666 L 290.509,-8.25764
 L 292.1,-8.91666 L 293.691,-8.25764 z
" stroke="black" fill="lightgray" stroke-width="0.5"/>
</svg>
