<?xml version="1.0" standalone="no"?>
<!DOCTYPE svg PUBLIC "-//W3C//DTD SVG 1.1//EN" "http://www.w3.org/Graphics/SVG/1.1/DTD/svg11.dtd">
<svg width="299mm" height="47mm" viewBox="0 -47 299 47" xmlns="http://www.w3.org/2000/svg" version="1.1">
<title>OpenSCAD Model</title>
<path d="
M 298.45,-39.6833 L 273.05,-39.6833 L 273.05,-46.35 L 266.7,-46.35 L 266.7,-39.6833 L 260.35,-39.6833
 L 260.35,-46.35 L 254,-46.35 L 254,-39.6833 L 247.65,-39.6833 L 247.65,-46.35 L 241.3,-46.35
 L 241.3,-39.6833 L 234.95,-39.6833 L 234.95,-46.35 L 228.6,-46.35 L 228.6,-39.6833 L 222.25,-39.6833
 L 222.25,-46.35 L 215.9,-46.35 L 215.9,-39.6833 L 209.55,-39.6833 L 209.55,-46.35 L 203.2,-46.35
 L 203.2,-39.6833 L 196.85,-39.6833 L 196.85,-46.35 L 190.5,-46.35 L 190.5,-39.6833 L 184.15,-39.6833
 L 184.15,-46.35 L 177.8,-46.35 L 177.8,-39.6833 L 171.45,-39.6833 L 171.45,-46.35 L 165.1,-46.35
 L 165.1,-39.6833 L 158.75,-39.6833 L 158.75,-46.35 L 152.4,-46.35 L 152.4,-39.6833 L 146.05,-39.6833
 L 146.05,-46.35 L 139.7,-46.35 L 139.7,-39.6833 L 133.35,-39.6833 L 133.35,-46.35 L 127,-46.35
 L 127,-39.6833 L 120.65,-39.6833 L 120.65,-46.35 L 114.3,-46.35 L 114.3,-39.6833 L 107.95,-39.6833
 L 107.95,-46.35 L 101.6,-46.35 L 101.6,-39.6833 L 95.25,-39.6833 L 95.25,-46.35 L 88.9,-46.35
 L 88.9,-39.6833 L 82.55,-39.6833 L 82.55,-46.35 L 76.2,-46.35 L 76.2,-39.6833 L 69.85,-39.6833
 L 69.85,-46.35 L 63.5,-46.35 L 63.5,-39.6833 L 57.15,-39.6833 L 57.15,-46.35 L 50.8,-46.35
 L 50.8,-39.6833 L 44.45,-39.6833 L 44.45,-46.35 L 38.1,-46.35 L 38.1,-39.6833 L 31.75,-39.6833
 L 31.75,-46.35 L 25.4,-46.35 L 25.4,-39.6833 L 0,-39.6833 L 0,-26.35 L 298.45,-26.35
 z
M 14.7729,-30.1635 L 13.2729,-31.2533 L 12.7,-33.0167 L 13.2729,-34.78 L 14.7729,-35.8698 L 16.627,-35.8698
 L 18.127,-34.78 L 18.7,-33.0167 L 18.127,-31.2533 L 16.627,-30.1635 z
M 291.173,-30.1635 L 289.673,-31.2533 L 289.1,-33.0167 L 289.673,-34.78 L 291.173,-35.8698 L 293.027,-35.8698
 L 294.527,-34.78 L 295.1,-33.0167 L 294.527,-31.2533 L 293.027,-30.1635 z
M 5.42294,-30.1635 L 3.92294,-31.2533 L 3.34999,-33.0167 L 3.92294,-34.78 L 5.42294,-35.8698 L 7.27704,-35.8698
 L 8.77704,-34.78 L 9.34999,-33.0167 L 8.77704,-31.2533 L 7.27704,-30.1635 z
M 281.823,-30.1635 L 280.323,-31.2533 L 279.75,-33.0167 L 280.323,-34.78 L 281.823,-35.8698 L 283.677,-35.8698
 L 285.177,-34.78 L 285.75,-33.0167 L 285.177,-31.2533 L 283.677,-30.1635 z
M 298.45,-13.3333 L 266.7,-13.3333 L 266.7,-20 L 260.35,-20 L 260.35,-13.3333 L 254,-13.3333
 L 254,-20 L 247.65,-20 L 247.65,-13.3333 L 241.3,-13.3333 L 241.3,-20 L 234.95,-20
 L 234.95,-13.3333 L 228.6,-13.3333 L 228.6,-20 L 222.25,-20 L 222.25,-13.3333 L 215.9,-13.3333
 L 215.9,-20 L 209.55,-20 L 209.55,-13.3333 L 203.2,-13.3333 L 203.2,-20 L 196.85,-20
 L 196.85,-13.3333 L 190.5,-13.3333 L 190.5,-20 L 184.15,-20 L 184.15,-13.3333 L 177.8,-13.3333
 L 177.8,-20 L 171.45,-20 L 171.45,-13.3333 L 165.1,-13.3333 L 165.1,-20 L 158.75,-20
 L 158.75,-13.3333 L 152.4,-13.3333 L 152.4,-20 L 146.05,-20 L 146.05,-13.3333 L 139.7,-13.3333
 L 139.7,-20 L 133.35,-20 L 133.35,-13.3333 L 127,-13.3333 L 127,-20 L 120.65,-20
 L 120.65,-13.3333 L 114.3,-13.3333 L 114.3,-20 L 107.95,-20 L 107.95,-13.3333 L 101.6,-13.3333
 L 101.6,-20 L 95.25,-20 L 95.25,-13.3333 L 88.9,-13.3333 L 88.9,-20 L 82.55,-20
 L 82.55,-13.3333 L 76.2,-13.3333 L 76.2,-20 L 69.85,-20 L 69.85,-13.3333 L 63.5,-13.3333
 L 63.5,-20 L 57.15,-20 L 57.15,-13.3333 L 50.8,-13.3333 L 50.8,-20 L 44.45,-20
 L 44.45,-13.3333 L 38.1,-13.3333 L 38.1,-20 L 31.75,-20 L 31.75,-13.3333 L 0,-13.3333
 L 0,-0 L 298.45,-0 z
M 291.173,-3.81349 L 289.673,-4.90331 L 289.1,-6.66666 L 289.673,-8.43001 L 291.173,-9.51982 L 293.027,-9.51982
 L 294.527,-8.43001 L 295.1,-6.66666 L 294.527,-4.90331 L 293.027,-3.81349 z
M 5.42294,-3.81349 L 3.92294,-4.90331 L 3.34999,-6.66666 L 3.92294,-8.43001 L 5.42294,-9.51982 L 7.27704,-9.51982
 L 8.77704,-8.43001 L 9.34999,-6.66666 L 8.77704,-4.90331 L 7.27704,-3.81349 z
M 281.823,-3.81349 L 280.323,-4.90331 L 279.75,-6.66666 L 280.323,-8.43001 L 281.823,-9.51982 L 283.677,-9.51982
 L 285.177,-8.43001 L 285.75,-6.66666 L 285.177,-4.90331 L 283.677,-3.81349 z
M 14.7729,-3.81349 L 13.2729,-4.90331 L 12.7,-6.66666 L 13.2729,-8.43001 L 14.7729,-9.51982 L 16.627,-9.51982
 L 18.127,-8.43001 L 18.7,-6.66666 L 18.127,-4.90331 L 16.627,-3.81349 z
" stroke="black" fill="lightgray" stroke-width="0.5"/>
</svg>
