<?xml version="1.0" standalone="no"?>
<!DOCTYPE svg PUBLIC "-//W3C//DTD SVG 1.1//EN" "http://www.w3.org/Graphics/SVG/1.1/DTD/svg11.dtd">
<svg width="82mm" height="18mm" viewBox="0 -18 82 18" xmlns="http://www.w3.org/2000/svg" version="1.1">
<title>OpenSCAD Model</title>
<path d="
M 82,-15 L 78,-15 L 78,-18 L 76,-18 L 76,-15 L 74,-15
 L 74,-18 L 72,-18 L 72,-15 L 70,-15 L 70,-18 L 68,-18
 L 68,-15 L 66,-15 L 66,-18 L 64,-18 L 64,-15 L 62,-15
 L 62,-18 L 60,-18 L 60,-15 L 58,-15 L 58,-18 L 56,-18
 L 56,-15 L 54,-15 L 54,-18 L 52,-18 L 52,-15 L 50,-15
 L 50,-18 L 48,-18 L 48,-15 L 46,-15 L 46,-18 L 44,-18
 L 44,-15 L 42,-15 L 42,-18 L 40,-18 L 40,-15 L 38,-15
 L 38,-18 L 36,-18 L 36,-15 L 34,-15 L 34,-18 L 32,-18
 L 32,-15 L 30,-15 L 30,-18 L 28,-18 L 28,-15 L 26,-15
 L 26,-18 L 24,-18 L 24,-15 L 22,-15 L 22,-18 L 20,-18
 L 20,-15 L 18,-15 L 18,-18 L 16,-18 L 16,-15 L 14,-15
 L 14,-18 L 12,-18 L 12,-15 L 10,-15 L 10,-18 L 8,-18
 L 8,-15 L 6,-15 L 6,-18 L 4,-18 L 4,-15 L 0,-15
 L 0,-10 L 82,-10 z
M 82,-5 L 80,-5 L 80,-8 L 78,-8 L 78,-5 L 76,-5
 L 76,-8 L 74,-8 L 74,-5 L 72,-5 L 72,-8 L 70,-8
 L 70,-5 L 68,-5 L 68,-8 L 66,-8 L 66,-5 L 64,-5
 L 64,-8 L 62,-8 L 62,-5 L 60,-5 L 60,-8 L 58,-8
 L 58,-5 L 56,-5 L 56,-8 L 54,-8 L 54,-5 L 52,-5
 L 52,-8 L 50,-8 L 50,-5 L 48,-5 L 48,-8 L 46,-8
 L 46,-5 L 44,-5 L 44,-8 L 42,-8 L 42,-5 L 40,-5
 L 40,-8 L 38,-8 L 38,-5 L 36,-5 L 36,-8 L 34,-8
 L 34,-5 L 32,-5 L 32,-8 L 30,-8 L 30,-5 L 28,-5
 L 28,-8 L 26,-8 L 26,-5 L 24,-5 L 24,-8 L 22,-8
 L 22,-5 L 20,-5 L 20,-8 L 18,-8 L 18,-5 L 16,-5
 L 16,-8 L 14,-8 L 14,-5 L 12,-5 L 12,-8 L 10,-8
 L 10,-5 L 8,-5 L 8,-8 L 6,-8 L 6,-5 L 4,-5
 L 4,-8 L 2,-8 L 2,-5 L 0,-5 L 0,-0 L 82,-0
 z
" stroke="black" fill="lightgray" stroke-width="0.5"/>
</svg>
