<?xml version="1.0" encoding="UTF-8" standalone="no"?>
<!-- Created with Inkscape (http://www.inkscape.org/) -->

<svg
   version="1.1"
   id="svg9"
   width="1536"
   height="2048"
   viewBox="0 0 1536 2048"
   sodipodi:docname="robot.jpeg"
   inkscape:version="1.2.2 (b0a8486541, 2022-12-01)"
   xmlns:inkscape="http://www.inkscape.org/namespaces/inkscape"
   xmlns:sodipodi="http://sodipodi.sourceforge.net/DTD/sodipodi-0.dtd"
   xmlns="http://www.w3.org/2000/svg"
   xmlns:svg="http://www.w3.org/2000/svg">
  <defs
     id="defs13" />
  <sodipodi:namedview
     id="namedview11"
     pagecolor="#ffffff"
     bordercolor="#000000"
     borderopacity="0.25"
     inkscape:showpageshadow="2"
     inkscape:pageopacity="0.0"
     inkscape:pagecheckerboard="0"
     inkscape:deskcolor="#d1d1d1"
     showgrid="false"
     inkscape:zoom="0.35209067"
     inkscape:cx="399.04494"
     inkscape:cy="992.64205"
     inkscape:window-width="1534"
     inkscape:window-height="831"
     inkscape:window-x="0"
     inkscape:window-y="0"
     inkscape:window-maximized="1"
     inkscape:current-layer="g15" />
  <g
     inkscape:groupmode="layer"
     inkscape:label="Image"
     id="g15">
    <path
       style="fill:#000000"
       d="m 29.4304,505.2992 c 0,-0.55 0.675,-1 1.5,-1 0.825,0 1.5,0.45 1.5,1 0,0.55 -0.675,1 -1.5,1 -0.825,0 -1.5,-0.45 -1.5,-1 z"
       id="path263" />
    <path
       style="fill:#000000"
       d="m -377.08531,527.22769 c -0.37103,-1.68932 -0.43673,-3.30939 -0.14598,-3.60013 0.84785,-0.84785 2.75204,0.71643 2.11898,1.74074 -0.31643,0.51199 0.12623,0.9309 0.98369,0.9309 0.85746,0 1.55902,0.45 1.55902,1 0,0.55 -0.47656,1 -1.05902,1 -0.58246,0 -0.7809,0.45 -0.44098,1 0.33992,0.55 -0.0478,1 -0.86153,1 -0.83852,0 -1.77185,-1.33077 -2.15418,-3.07151 z"
       id="path261" />
    <path
       style="fill:#000000"
       d="m -367.5696,539.2992 c 0,-0.55 0.45,-1 1,-1 0.55,0 1,0.45 1,1 0,0.55 -0.45,1 -1,1 -0.55,0 -1,-0.45 -1,-1 z"
       id="path259" />
    <path
       style="fill:#000000"
       d="m -731.5696,850.76402 c 0,-1.22531 0.4037,-1.31913 2,-0.46482 1.1,0.5887 2,1.27953 2,1.53518 0,0.25565 -0.9,0.46482 -2,0.46482 -1.13148,0 -2,-0.66667 -2,-1.53518 z"
       id="path249" />
    <path
       style="fill:#000000"
       d="m -691.5696,924.2992 c 0,-0.55 0.42344,-1 0.94098,-1 0.51754,0 1.2191,0.45 1.55902,1 0.33992,0.55 -0.0835,1 -0.94098,1 -0.85746,0 -1.55902,-0.45 -1.55902,-1 z"
       id="path245" />
    <path
       style="fill:#000000"
       d="m -841.5696,1809.2992 c 0,-0.55 0.45,-1 1,-1 0.55,0 1,0.45 1,1 0,0.55 -0.45,1 -1,1 -0.55,0 -1,-0.45 -1,-1 z"
       id="path195" />
    <path
       id="path185"
       style="fill:#000000"
       d="m 651.79827,1561.4397 c -1.55679,-1.5568 -2.11614,-3.696 -3.14047,-12.0103 -1.33575,-10.842 -6.82505,-25.1081 -11.73577,-30.5 -1.25229,-1.375 -2.86843,-3.6497 -3.59141,-5.0548 -0.72298,-1.4051 -2.61996,-3.9516 -4.2155,-5.6589 -1.59555,-1.7072 -5.2307,-7.1932 -8.07813,-12.1911 -5.5212,-9.691 -6.13268,-10.4084 -11.15298,-13.086 -3.8675,-2.0627 -7.36707,-8.5187 -11.81876,-21.8034 -3.61474,-10.787 -3.56407,-12.2674 0.99969,-29.2058 1.70417,-6.325 3.96266,-15.55 5.01887,-20.5 1.0562,-4.95 2.6287,-11.7 3.49443,-15 0.86574,-3.3 3.00381,-12.975 4.75128,-21.5 2.76219,-13.4753 3.26552,-18.3737 3.8532,-37.5 0.3718,-12.1 0.96338,-29.0341 1.31463,-37.6314 0.53918,-13.1972 0.40576,-15.8246 -0.8568,-16.8724 -1.92129,-1.5945 -1.89977,-3.9739 0.0613,-6.7737 2.10282,-3.0022 4.67244,-2.7979 6.63534,0.5275 1.43891,2.4377 1.57886,6.952 1.23233,39.75 -0.22018,20.8398 -0.85812,39.1838 -1.4606,42 -0.58833,2.75 -1.69571,8.375 -2.46086,12.5 -1.2664,6.8273 -2.31693,11.8854 -5.5039,26.5 -0.59968,2.75 -1.76201,8.15 -2.58295,12 -2.95158,13.8421 -4.443,20.1401 -6.80683,28.7439 l -2.40232,8.744 2.47061,9.256 c 1.35884,5.0909 2.71462,10.2679 3.01284,11.5046 0.29822,1.2367 2.17739,3.6359 4.17593,5.3315 7.55455,6.4095 9.87181,9.0155 11.69774,13.1556 1.03442,2.3454 2.12735,4.4894 2.42872,4.7644 0.30138,0.275 1.05525,1.6576 1.67528,3.0725 0.62003,1.4148 3.54247,5.4648 6.49431,9 7.18471,8.6044 10.46053,13.5894 12.22744,18.607 0.80948,2.2988 2.24561,5.3606 3.19139,6.804 0.94578,1.4435 2.53541,6.0487 3.53251,10.2338 0.9971,4.1851 2.24772,8.0441 2.77916,8.5755 1.25161,1.2516 7.57058,-8.5231 8.59331,-13.2928 1.58817,-7.4068 3.54776,-8.7689 5.94532,-4.1325 1.2862,2.4872 1.29382,3.1171 0.0575,4.75 -0.78394,1.0354 -1.43965,2.809 -1.45715,3.9414 -0.0175,1.1323 -0.6995,2.9323 -1.51558,4 -0.81607,1.0676 -1.94207,3.5161 -2.50221,5.4411 -0.56015,1.925 -2.59739,5.3 -4.52722,7.5 -1.92982,2.2 -3.75914,4.7875 -4.06516,5.75 -0.68069,2.1409 -3.7494,2.2794 -5.76849,0.2603 z m 387.72823,-33.0674 c -1.8598,-1.9719 -3.3814,-4.1826 -3.3814,-4.9126 0,-0.7299 -1.3599,-3.9124 -3.0219,-7.072 -1.6621,-3.1596 -2.7824,-6.4994 -2.4897,-7.4218 0.5491,-1.7301 9.6893,-6.0365 12.8123,-6.0365 0.9691,0 2.0368,-0.7159 2.3725,-1.5908 0.4745,-1.2366 1.8594,-1.5365 6.2186,-1.3468 11.5829,0.5041 15.1082,0.077 15.1082,-1.8303 0,-0.9723 1.046,-3.3348 2.3245,-5.25 9.8259,-14.7195 7.4029,-22.6712 -14.6152,-47.9628 -8.8154,-10.126 -11.8149,-14.43 -15.8988,-22.813 -2.7685,-5.6827 -6.0559,-11.3164 -7.3054,-12.5193 -4.2078,-4.0509 -16.2663,-25.5401 -18.4974,-32.9638 -1.194,-3.9728 -3.1935,-9.6982 -4.4433,-12.7232 -2.8263,-6.8403 -8.2688,-23.989 -9.52117,-30 -0.5156,-2.475 -2.3251,-9 -4.021,-14.5 -2.4713,-8.0149 -2.9637,-11.0429 -2.4804,-15.2536 0.4697,-4.0918 0.2794,-5.3778 -0.8603,-5.8151 -1.281,-0.4916 -1.2774,-0.9341 0.029,-3.553 1.1795,-2.3644 2.0476,-2.9273 4.1409,-2.6849 2.5209,0.2918 2.6631,0.6159 2.9506,6.7254 0.1958,4.16 0.9373,7.3271 2.10707,9 0.9927,1.4197 2.0607,4.5628 2.3733,6.9847 0.3126,2.4219 1.4279,5.5719 2.4784,7 2.062,2.803 2.9943,5.7926 4.2401,13.5965 0.4391,2.75 3.5691,12.875 6.9558,22.5 3.3866,9.625 6.6329,19.075 7.2138,21 0.581,1.925 1.9053,4.6945 2.9429,6.1544 1.0376,1.4599 1.8865,3.0855 1.8865,3.6125 0,0.5269 1.35,2.6568 3,4.7331 1.65,2.0763 3,4.321 3,4.9883 0,0.6673 2.5677,4.768 5.7059,9.1125 3.1383,4.3446 7.7508,11.3097 10.25,15.478 2.4993,4.1684 5.8026,9.1184 7.3408,11 9.8967,12.1068 14.1376,17.8181 15.3496,20.6712 0.7593,1.7875 1.7926,3.25 2.2963,3.25 1.3397,0 7.0961,8.8581 8.6874,13.3685 0.7535,2.1356 1.37,6.2687 1.37,9.1846 0,4.2914 -0.4288,5.6491 -2.25,7.1243 -3.7428,3.0318 -9.0045,12.1044 -10.1913,17.5726 -0.4639,2.1375 -1.173,2.75 -3.1838,2.75 -2.5922,0 -6.5918,3.8704 -7.0209,6.7939 -0.1149,0.7825 -1.1415,2.4154 -2.2814,3.6288 -1.1399,1.2134 -2.0726,2.6873 -2.0726,3.2754 0,1.7922 -7.7709,8.2119 -10.7248,8.86 -1.5264,0.3349 -3.3911,0.8027 -4.1438,1.0395 -0.7527,0.2369 -2.8902,-1.1827 -4.75,-3.1547 z m 12.7231,-8.0244 c 1.8675,-1.9699 4.72,-4.9317 6.3388,-6.5818 3.9277,-4.0037 2.6195,-6.4213 -3.3267,-6.1479 -5.7363,0.2637 -12.0731,5.496 -12.0986,9.9898 -0.018,3.2555 2.1194,6.3214 4.4079,6.3214 0.7057,0 2.811,-1.6117 4.6786,-3.5815 z m -613.0712,5.0226 c -0.0487,-1.5503 2.69978,-5.0414 3.40997,-4.3312 0.33372,0.3337 -0.28951,1.683 -1.38497,2.9984 -1.09545,1.3155 -2.0067,1.9152 -2.025,1.3328 z m 3.97566,-5.9411 c -1.8e-4,-0.55 1.68524,-3.2731 3.74537,-6.0514 6.46268,-8.7155 8.24557,-11.3429 8.25,-12.1581 0.002,-0.4348 1.80237,-3.1621 4,-6.0608 2.19764,-2.8986 3.9957,-5.947 3.9957,-6.7741 0,-0.8271 1.575,-3.7935 3.5,-6.5919 1.925,-2.7985 3.5,-5.4876 3.5,-5.9759 0,-0.4883 0.45,-0.8878 1,-0.8878 3.07445,0 -0.51978,9.8351 -6.33837,17.3441 -4.50594,5.815 -7.66163,10.6341 -7.66163,11.7003 0,0.5256 -0.45,0.9556 -1,0.9556 -0.55,0 -1,0.6225 -1,1.3834 0,0.7608 -0.89458,1.6173 -1.98796,1.9032 -1.09338,0.2859 -2.44024,1.7095 -2.99304,3.1634 -1.09545,2.8813 -7.00954,9.6727 -7.01007,8.05 z m 30.45517,-44.75 c 0.38355,-1.2375 0.9385,-3.2625 1.23321,-4.5 0.29471,-1.2375 1.08234,-2.25 1.75029,-2.25 0.66794,0 1.79263,-1.2375 2.49931,-2.75 0.70668,-1.5125 1.66057,-3.425 2.11975,-4.25 3.52965,-6.3416 4.99926,-10.2169 4.48679,-11.8316 -0.3641,-1.1472 0.062,-2.431 1.08769,-3.2772 1.53663,-1.2677 1.57989,-1.1915 0.4874,0.8588 -0.6594,1.2375 -0.77529,2.25 -0.25753,2.25 1.06931,0 8.12899,-9.5059 8.12899,-10.9458 0,-0.5176 1.35,-1.7386 3,-2.7133 1.74768,-1.0324 3.00928,-2.6214 3.02224,-3.8065 0.0122,-1.1189 0.90222,-3.1594 1.97776,-4.5344 1.07554,-1.375 1.96553,-3.1055 1.97776,-3.8456 0.0122,-0.7401 0.92977,-2.6202 2.03897,-4.1779 1.1092,-1.5577 2.38268,-4.7772 2.82996,-7.1544 0.44728,-2.3771 1.55253,-5.6721 2.45612,-7.3221 l 1.64288,-3 -0.55531,3.5 -0.55532,3.5 2.01982,-2.4927 c 1.1109,-1.3709 2.95567,-5.4579 4.09949,-9.0821 1.14382,-3.6242 2.7327,-7.4525 3.53085,-8.5073 0.79814,-1.0549 1.46548,-2.8929 1.48298,-4.0846 0.0175,-1.1916 0.42978,-2.3166 0.91619,-2.5 0.48642,-0.1833 2.88142,-3.9333 5.32224,-8.3333 8.27815,-14.9228 15.98476,-27.9882 18.39353,-31.1833 1.31991,-1.7508 2.39984,-3.45 2.39984,-3.7761 0,-1.6883 10.87755,-16.5538 11.26347,-15.3928 0.24722,0.7437 0.32325,0.5343 0.16897,-0.4653 -0.29344,-1.9013 3.32164,-7.8731 6.63422,-10.9592 1.06334,-0.9907 1.93334,-2.6677 1.93334,-3.7268 0,-1.059 1.19701,-4.079 2.66003,-6.711 1.46301,-2.632 2.96776,-5.4605 3.34387,-6.2855 1.48279,-3.2525 6.86752,-12.6595 12.30696,-21.5 1.35363,-2.2 3.67901,-6.475 5.16751,-9.5 1.4885,-3.025 3.6344,-7.3 4.76866,-9.5 1.13426,-2.2 2.39971,-6.025 2.81211,-8.5 0.41239,-2.475 1.42555,-6.2988 2.25146,-8.4974 0.82591,-2.1985 1.31903,-4.2929 1.09582,-4.654 -0.52977,-0.8572 -10.44299,2.9022 -12.48516,4.7347 -0.86831,0.7792 -1.99477,1.4167 -2.50325,1.4167 -0.50848,0 -2.19354,1.3445 -3.74458,2.9879 -4.3711,4.6312 -13.80231,8.2306 -15.28402,5.8332 -0.40323,-0.6525 -0.66812,-3.6584 -0.58862,-6.6798 0.15222,-5.7855 -1.08582,-8.6352 -9.71046,-22.351 -4.15074,-6.6009 -5.63144,-7.2013 -17.2854,-7.0082 -6.13473,0.1016 -8.15956,-0.2487 -9.98582,-1.7275 -2.19739,-1.7793 -2.39325,-1.7828 -4.80494,-0.086 -1.38279,0.973 -3.52667,2.0834 -4.76417,2.4676 -1.64927,0.5121 -2.25,1.4658 -2.25,3.5722 0,3.0781 -1.77375,4.9757 -2.91894,3.1228 -0.46614,-0.7543 -2.00553,-0.1616 -4.67028,1.7981 -2.18623,1.6078 -5.16784,3.2226 -6.62582,3.5885 -2.33523,0.5861 -2.88607,0.2079 -4.62617,-3.1762 -1.08641,-2.1129 -4.18187,-5.5129 -6.8788,-7.5556 -2.69693,-2.0427 -5.51426,-4.8552 -6.26073,-6.25 -0.74647,-1.3948 -1.73118,-2.536 -2.18824,-2.536 -0.45706,0 -0.83102,-0.5763 -0.83102,-1.2808 0,-0.7044 -1.35,-1.7903 -3,-2.4131 -2.44087,-0.9213 -3,-1.7077 -3,-4.2192 0,-1.6978 0.43103,-3.0869 0.95785,-3.0869 0.52681,0 2.1968,-2.1375 3.71109,-4.75 4.47688,-7.7237 11.36697,-17.5314 14.57725,-20.75 4.49389,-4.5055 5.82975,-8.4481 5.1485,-15.195 -0.92165,-9.1274 2.07434,-14.8103 14.13133,-26.8049 5.27225,-5.2449 10.18433,-9.3088 15.68766,-12.9786 1.80747,-1.2053 5.08632,-3.3967 7.28632,-4.8697 3.55476,-2.3801 9.76091,-7.5646 14.71903,-12.296 0.94547,-0.9022 2.58246,-2.1388 3.63776,-2.748 1.05531,-0.6093 6.13174,-3.6541 11.28097,-6.7665 7.52719,-4.5496 11.22429,-6.0809 18.86224,-7.8124 17.62253,-3.9951 30.62778,-8.8762 33.263,-12.4841 0.41966,-0.5746 0.5295,-1.9447 0.24411,-3.0447 -0.92246,-3.5555 -1.76663,-23.3299 -1.10797,-25.9542 0.451,-1.7969 1.30994,-2.5458 2.91991,-2.5458 1.25452,0 2.74837,-0.4674 3.31967,-1.0387 0.57129,-0.5713 3.47379,-1.1427 6.45,-1.2698 2.9762,-0.1271 5.93317,-0.5612 6.57104,-0.9646 0.63786,-0.4033 1.82985,-0.4763 2.64885,-0.162 0.819,0.3143 1.77402,0.1104 2.12226,-0.4531 0.34825,-0.5634 1.2995,-0.7688 2.11389,-0.4563 0.81439,0.3126 2.16905,0 3.01036,-0.7012 1.09484,-0.9087 1.83649,-0.9627 2.60912,-0.1901 0.59371,0.5937 1.74505,0.8241 2.55854,0.5119 0.81349,-0.3121 1.88365,0.061 2.37814,0.8282 0.7537,1.17 1.04059,1.1763 1.77423,0.039 0.49419,-0.7663 1.6913,-1.1027 2.75,-0.7728 1.03117,0.3213 2.53476,0.1702 3.34131,-0.3358 0.85501,-0.5364 1.91167,-0.5505 2.53421,-0.034 0.60868,0.5051 2.69634,0.5188 4.85561,0.032 2.08331,-0.4698 7.46792,-0.7291 11.96578,-0.5761 4.49787,0.1529 10.0886,-0.1651 12.42386,-0.7068 3.4845,-0.8083 4.71694,-0.6762 6.87258,0.7362 2.05265,1.3449 3.09158,1.4839 4.75409,0.636 1.17007,-0.5967 4.37741,-1.1038 7.12741,-1.1269 2.75,-0.023 6.8,-0.078 9,-0.1217 2.2,-0.044 6.25,0.1986 9,0.5388 7.31975,0.9055 20.51453,1.8378 24.19407,1.7095 1.75674,-0.061 3.4335,0.276 3.72613,0.7495 0.29264,0.4735 1.66781,0.6438 3.05593,0.3784 1.94564,-0.3719 2.52387,-0.068 2.52387,1.3253 0,1.6452 0.11235,1.6618 1.25,0.1844 1.26666,-1.6449 7.44943,-2.6808 9.27306,-1.5538 0.54684,0.338 2.79036,0.3033 4.9856,-0.077 2.19524,-0.3803 5.11634,-0.5477 6.49134,-0.3719 5.00307,0.6395 10.81093,0.2383 23.91467,-1.6518 3.52806,-0.5089 7.9606,-0.6744 9.85008,-0.3678 2.29184,0.3719 3.7096,0.1138 4.25912,-0.7753 0.67675,-1.095 1.10295,-1.101 2.38895,-0.034 1.73448,1.4395 8.58718,0.6631 8.58718,-0.9729 0,-0.5251 -0.46964,-0.9547 -1.04364,-0.9547 -2.44244,0 -6.09602,-4.9655 -7.63555,-10.3774 -1.36435,-4.796 -2.6721,-6.7681 -7.5981,-11.4578 -6.77446,-6.44963 -7.8195,-8.45653 -6.85623,-13.16643 0.81322,-3.9762 2.83363,-5.0719 3.33016,-1.806 0.19296,1.2692 0.90266,2.1951 1.5771,2.0576 0.68537,-0.1397 1.22626,0.7645 1.22626,2.05 0,2.1718 1.63502,4.7 3.03948,4.7 1.6294,0 2.88977,-5.0612 1.8362,-7.3735 -0.76881,-1.6874 -0.77261,-2.9506 -0.0131,-4.3697 0.72326,-1.3514 0.76764,-3.8954 0.13741,-7.8765 -0.512,-3.2341 -0.8825,-18.4803 -0.82332,-33.8803 0.0592,-15.4 -0.26352,-36.775 -0.71708,-47.5 -0.45357,-10.725 -0.72681,-39.75 -0.60721,-64.5 0.20168,-41.7333 -0.52148,-63.6125 -2.89206,-87.5 -0.51853,-5.225 -1.4072,-15.453 -1.97484,-22.7289 -1.12667,-14.4418 -1.60838,-16.6298 -3.5013,-15.9034 -1.40122,0.5377 -0.79116,-3.4462 0.67784,-4.4265 0.46057,-0.3074 0.36867,-4.1324 -0.20422,-8.5 -0.5729,-4.36767 -1.49269,-11.3162 -2.04399,-15.4412 -1.34924,-10.09548 -2.58262,-20.49227 -3.84011,-32.37015 -0.57472,-5.42858 -1.74015,-14.42858 -2.58985,-20 -3.11045,-20.39497 -3.51244,-23.49015 -5.5847,-43.00014 -1.60388,-15.10028 -1.84509,-20.45285 -1.00482,-22.29705 0.6081,-1.33482 1.10567,-3.54862 1.10567,-4.91965 0,-2.72715 3.56445,-10.41311 4.82919,-10.41311 0.4337,0 1.66206,0.64023 2.72968,1.42273 1.06762,0.78251 3.08275,1.19543 4.47806,0.91762 2.79115,-0.55574 3.30858,0.16691 6.55847,9.15965 2.87529,7.95618 2.72731,22.22155 -0.21878,21.09103 -1.79163,-0.68751 -1.77412,1.92413 0.0991,14.78063 0.81165,5.57059 2.39247,18.22834 3.51295,28.12834 1.12047,9.9 2.52217,20.7 3.11488,24 0.59271,3.3 1.7462,12.3 2.5633,20 0.8171,7.7 1.88171,17.72372 2.36579,22.27494 0.48408,4.55121 1.09154,8.61696 1.34991,9.03506 1.08157,1.75 3.54842,29.8079 4.01706,45.69 0.17852,6.05 0.8413,14.0833 1.47284,17.8519 2.4856,14.8319 2.82834,36.9596 1.41179,91.1481 -0.43133,16.5 -0.45581,35.4 -0.0544,42 0.40141,6.6 0.95961,33.375 1.24045,59.5 0.28083,26.125 0.70718,48.62503 0.94745,50.00003 0.24027,1.375 0.95116,4.975 1.57974,8 2.25456,10.8498 2.35837,13.2213 0.62126,14.1935 -0.89031,0.4982 -1.61875,1.7247 -1.61875,2.7255 0,1.6014 0.68949,1.7649 5.75,1.3633 3.1625,-0.251 10.925,-0.6162 17.25,-0.8116 6.325,-0.1954 14.425,-0.6489 18,-1.0078 16.88604,-1.6954 19.21359,-1.7343 20.11448,-0.3367 0.71934,1.116 1.04299,1.1301 1.72468,0.075 0.62595,-0.9688 5.21795,-1.3499 18.07346,-1.5 19.37459,-0.2262 19.02727,-0.3518 21.18602,7.6651 0.87992,3.2678 0.75041,4.5062 -0.77045,7.3668 -1.00551,1.8913 -2.61569,3.8659 -3.57819,4.388 -3.21902,1.7461 -1.79951,2.5476 3.70397,2.0912 5.25705,-0.436 5.58341,-0.3151 9.03952,3.3495 2.8564,3.0286 3.4668,4.3425 3.00158,6.4606 -0.7202,3.2791 0.68799,4.5345 6.08356,5.4235 3.08342,0.508 4.39434,0.2916 5.37245,-0.887 0.71159,-0.8574 2.13873,-1.5589 3.17133,-1.5589 1.0327,0 1.8776,-0.4338 1.8776,-0.9639 0,-1.5783 7.2736,-6.0361 9.8488,-6.0361 1.9848,0 2.2834,0.3771 1.7815,2.25 -0.3317,1.2375 -0.6091,3.21 -0.6166,4.3834 -0.01,1.4763 -0.7838,2.2807 -2.5137,2.6114 -1.9187,0.3667 -2.5,0.059 -2.5,-1.3245 0,-2.6284 -1.8622,-3.355 -3.8918,-1.5183 -0.9711,0.8789 -2.2927,1.598 -2.9369,1.598 -0.6442,0 -1.1713,0.6863 -1.1713,1.525 0,1.591 4.8842,3.1289 8.5,2.6765 21.24707,-2.6586 26.49807,-2.6981 34.61257,-0.261 4.0631,1.2204 8.7686,3.0198 10.4567,3.9988 1.6881,0.979 5.7381,2.7122 9,3.8516 19.1916,6.7035 40.878,16.7507 47.1133,21.8272 4.267,3.4741 7.3174,8.2622 7.3174,11.4858 0,0.9882 0.6583,2.1651 1.4628,2.6154 1.7799,0.996 4.757,9.0268 3.6093,9.7361 -0.4515,0.2791 -0.4204,2.6509 0.069,5.2708 0.5857,3.1353 0.5406,4.8799 -0.1319,5.104 -0.562,0.1874 -0.7124,0.8412 -0.3342,1.4531 0.3781,0.6119 0.7688,3.3859 0.8681,6.1646 0.099,2.7786 0.5083,6.5361 0.9087,8.3498 0.6103,2.7647 0.9666,3.0997 2.2042,2.0726 1.2701,-1.054 1.4321,-0.6068 1.1601,3.2022 -0.1826,2.5562 -0.7858,4.3413 -1.4272,4.2237 -0.7135,-0.1308 -1.0823,1.7848 -1.0307,5.3531 0.06,4.1656 -0.3501,5.8715 -1.639,6.8139 -0.9456,0.6915 -1.7195,2.1076 -1.7198,3.1469 -3e-4,1.0394 -0.9003,4.2571 -2,7.1505 -1.0997,2.8934 -1.9995,6.3809 -1.9995,7.75 0,1.3691 -0.4011,2.4893 -0.8914,2.4893 -0.4903,0 -1.6117,1.8 -2.4919,4 -0.8803,2.2 -1.9996,4 -2.4873,4 -0.4877,0 -1.4642,1.4625 -2.1699,3.25 -0.7058,1.7875 -2.081,4.15 -3.0561,5.25 -2.8807,3.2496 -6.7778,8.8324 -7.8531,11.25 -0.5504,1.2375 -1.6494,2.25 -2.4421,2.25 -0.7928,0 -2.3163,1.2011 -3.3857,2.6692 -1.5706,2.156 -2.6921,2.645 -5.8335,2.5434 -9.1728,-0.2967 -12.8952,-0.037 -14.1262,0.9843 -0.7211,0.5984 -1.5964,0.8029 -1.945,0.4543 -0.3486,-0.3486 -1.2327,-0.1368 -1.9646,0.4707 -0.732,0.6075 -3.6984,2.3258 -6.5921,3.8185 -2.8936,1.4928 -5.7146,3.6157 -6.2689,4.7176 -0.5543,1.1019 -1.5929,1.8084 -2.3079,1.5701 -0.715,-0.2383 -2.0615,0.2414 -2.9922,1.066 -0.9306,0.8247 -2.5921,1.661 -3.6921,1.8585 -1.1,0.1975 -2.4323,1.3413 -2.9606,2.5417 -1.9806,4.5 -8.5086,4.4032 -13.1061,-0.1943 -1.925,-1.925 -3.9399,-3.5 -4.4775,-3.5 -0.53767,0 -3.11017,-0.9448 -5.71667,-2.0997 -7.3068,-3.2372 -9.6952,-4.2884 -10.2391,-4.5063 -0.275,-0.1102 -0.5712,3.1779 -0.6582,7.3068 -0.2056,9.7561 -1.1842,15.1678 -2.3924,13.23 -0.8515,-1.3657 -0.5416,8.6466 0.4807,15.5275 1.7886,12.0387 1.7893,12.6418 0.017,14.6004 -2.3116,2.5543 -3.7188,2.4523 -9.0188,-0.6537 -3.11406,-1.825 -4.42811,-3.2494 -4.42811,-4.8 0,-1.2128 -0.50705,-2.7121 -1.12678,-3.3318 -0.70374,-0.7037 -0.83731,-2.1867 -0.35578,-3.95 1.11329,-4.0765 0.56863,-9.4477 -1.24368,-12.2646 -2.09171,-3.2512 -3.26812,-8.1795 -3.83331,-16.0586 -0.25644,-3.575 -0.90218,-8.525 -1.43497,-11 -0.53279,-2.475 -1.15497,-6.3 -1.38262,-8.5 -0.53431,-5.1635 -2.54787,-9.5 -4.41118,-9.5 -1.15884,0 -1.32884,0.8659 -0.80867,4.1188 0.57712,3.6092 0.44815,4.0381 -1.04224,3.4661 -0.93688,-0.3595 -2.04246,-0.1 -2.46134,0.5778 -0.89912,1.4548 -3.83622,-1.7076 -6.65231,-7.1627 -0.99375,-1.925 -2.6578,-4.7759 -3.69789,-6.3353 -1.59622,-2.3933 -1.66953,-2.9756 -0.47016,-3.7347 2.13828,-1.3534 8.15977,-1.1098 12.76926,0.5165 4.58998,1.6194 5.70421,0.8911 4.70817,-3.0774 -0.34749,-1.3845 -0.65478,-5.5131 -0.68289,-9.1747 -0.0281,-3.6616 -0.45924,-7.4201 -0.95808,-8.3522 -0.49885,-0.9321 -1.81299,-8.3654 -2.92032,-16.5185 -1.10734,-8.153 -2.40615,-16.8487 -2.88627,-19.3237 -3.56549,-18.3802 -5.39625,-26.6682 -6.23842,-28.2418 -0.5373,-1.004 -1.04272,-7.6603 -1.12314,-14.7918 -0.0804,-7.1314 -0.47511,-12.9663 -0.87709,-12.9663 -0.40197,0 -0.72614,-4.8375 -0.72037,-10.75 0.006,-5.9125 -0.005,-12.3032 -0.0248,-14.2016 -0.0194,-1.8984 0.36531,-3.9344 0.85492,-4.5243 1.51962,-1.8311 -0.006,-9.5241 -1.88918,-9.5241 -2.57974,0 -6.09084,-2.915 -6.09084,-5.0567 0,-2.0492 0.713,-1.9494 -15.25,-2.1358 -2.3375,-0.027 -6.275,0.2298 -8.75,0.5712 -2.475,0.3415 -17.1,0.8118 -32.5,1.0452 -15.4,0.2334 -28,0.4851 -28,0.5594 0,0.074 -8.55,0.356 -19,0.6261 -31.02373,0.8019 -70.69726,0.5991 -91,-0.4652 -27.46186,-1.4395 -75.01121,0.2237 -87.5,3.0607 -2.475,0.5622 -5.48679,1.1537 -6.69287,1.3144 -3.74026,0.4982 -4.30713,1.4247 -4.30713,7.0397 0,4.7072 0.26011,5.441 1.92857,5.441 1.06072,0 2.67468,-0.7461 3.5866,-1.658 0.9288,-0.9288 3.48914,-1.7372 5.82142,-1.838 6.27096,-0.2712 6.66341,-0.3863 6.66341,-1.9543 0,-0.7977 0.60902,-1.8102 1.35337,-2.25 0.74435,-0.4398 1.56988,-1.4747 1.83452,-2.2997 0.29563,-0.9216 0.68856,-0.4173 1.01905,1.308 0.40426,2.1104 0.19692,2.6772 -0.83452,2.2814 -0.75483,-0.2896 -1.37242,-0.091 -1.37242,0.442 0,0.5327 1.2375,0.999 2.75,1.0361 2.0582,0.05 1.54681,0.3911 -2.03281,1.3537 -5.06942,1.3634 -7.38203,3.4803 -8.30993,7.6068 -0.72517,3.2249 -5.97074,6.5519 -6.82407,4.3282 -0.40553,-1.0568 -1.03666,-1.2018 -2.2574,-0.5186 -1.53549,0.8593 -1.70723,4.0785 -1.8302,34.3053 -0.0881,21.6491 -0.52057,34.2682 -1.23225,35.9529 -1.1467,2.7144 -3.52249,45.4602 -3.31041,59.5615 0.0675,4.4865 0.77916,12.3615 1.58152,17.5 0.80235,5.1384 1.92755,12.9426 2.50044,17.3426 0.57289,4.4 1.26771,8.7496 1.54404,9.6658 0.27633,0.9163 0.0341,1.9553 -0.53825,2.3091 -0.57238,0.3537 -1.04068,1.0931 -1.04068,1.6431 0,0.55 0.38319,0.7632 0.85152,0.4738 1.22432,-0.7567 2.945,5.6747 4.6997,17.5662 0.94,6.3703 2.08728,10.7684 2.98742,11.4522 0.80375,0.6107 1.46136,1.5307 1.46136,2.0445 0,0.5138 2.47163,0.992 5.49252,1.0628 3.02089,0.071 6.75225,0.757 8.29193,1.5251 1.53968,0.7681 6.07012,1.4679 10.06766,1.5551 3.99754,0.087 7.64959,0.3943 8.11568,0.6824 0.46609,0.2881 3.70151,0.7124 7.18982,0.943 6.84058,0.4521 9.84239,1.2707 9.84239,2.6839 0,0.4911 0.675,0.893 1.5,0.893 0.825,0 1.5,-0.45 1.5,-1 0,-1.6503 6.72993,-1.1272 8.51932,0.6622 0.97156,0.9715 1.93609,1.2632 2.32143,0.702 0.87347,-1.2722 4.96474,-1.4879 5.69858,-0.3006 0.75419,1.2203 7.16978,1.2161 7.92459,-0.01 0.32007,-0.5179 2.48413,-0.6832 4.80901,-0.3672 2.32489,0.3159 5.12707,0.6271 6.22707,0.6916 1.1,0.064 2.32099,0.5672 2.71331,1.1172 0.95769,1.3426 5.95744,1.4409 7.62151,0.1499 1.69396,-1.3142 20.9483,-1.0748 22.58168,0.2808 1.51777,1.2596 8.33733,0.7155 9.83782,-0.785 0.8245,-0.8245 1.58947,-0.6921 2.91118,0.5041 1.47615,1.3359 1.88676,1.3776 2.32477,0.2363 0.66469,-1.7319 12.97787,-1.8246 16.10653,-0.1213 1.15325,0.6279 2.50325,0.7708 3,0.3175 1.54802,-1.4124 6.24929,-2.1404 6.91078,-1.07 0.74238,1.2012 10.33454,1.0522 11.09131,-0.1723 0.94171,-1.5237 6.40111,-0.9608 6.40111,0.66 0,0.825 0.45,1.5 1,1.5 0.55,0 1,-0.9 1,-2 0,-1.1 0.45,-2 1,-2 0.55,0 1,0.3938 1,0.875 0,1.7451 5.93767,2.049 9.65835,0.4944 3.41121,-1.4253 3.98439,-1.4209 6.4733,0.049 1.93784,1.1447 2.93214,1.2871 3.42452,0.4904 0.49158,-0.7954 0.94889,-0.7271 1.56883,0.2341 0.55584,0.8619 1.14856,0.992 1.625,0.3568 1.35097,-1.8013 3.53647,-2 21.99783,-2 14.7072,0 18.24825,0.2636 18.25,1.3584 0.002,1.0026 0.72257,1.1558 2.75217,0.585 4.9638,-1.3959 16.39994,-1.2162 16.96897,0.2666 0.37171,0.9687 0.86984,1.0462 1.794,0.2792 0.79833,-0.6625 6.48864,-0.9753 15.13322,-0.8318 9.45282,0.157 15.10224,-0.1927 17.78372,-1.1006 3.68796,-1.2487 4.04197,-1.1923 5.75,0.9171 2.35068,2.9029 2.30562,6.7176 -0.12647,10.7063 -1.56836,2.5721 -2.81036,3.3108 -6.49627,3.8635 -2.50644,0.3759 -4.55783,0.9698 -4.55864,1.3198 -0.004,1.8413 -15.9434,1.8644 -36.99853,0.054 -8.525,-0.7332 -26.58907,-1.408 -40.14238,-1.4996 -13.55331,-0.092 -25.10972,-0.4555 -25.6809,-0.8085 -0.57119,-0.353 -1.27963,-0.2517 -1.57432,0.2251 -0.29468,0.4768 -6.73828,0.94 -14.3191,1.0294 -7.58081,0.089 -24.9208,0.322 -38.5333,0.5172 -15.90974,0.228 -24.75,0 -24.75,-0.6355 0,-0.5888 -0.54805,-0.5354 -1.35175,0.1316 -1.81313,1.5047 -38.14054,0.2716 -56.14825,-1.9059 -4.4,-0.5321 -10.28668,-1.1198 -13.08151,-1.3061 -2.79483,-0.1863 -5.49483,-0.55 -6,-0.8082 -0.50517,-0.2582 -2.49349,-0.5864 -4.41849,-0.7294 -1.925,-0.143 -8.621,-1.1467 -14.88,-2.2304 -6.25899,-1.0837 -11.60355,-1.7468 -11.87678,-1.4736 -0.27323,0.2733 -1.69163,-0.121 -3.15199,-0.8762 -1.46036,-0.7552 -4.76117,-1.3412 -7.33514,-1.3023 -3.75919,0.057 -5.08492,-0.403 -6.73838,-2.3371 -3.77551,-4.4163 -4.69327,-7.3269 -5.96179,-18.9078 -0.69282,-6.325 -1.6005,-11.95 -2.01708,-12.5 -1.44292,-1.9051 -1.94013,-7.1987 -0.78467,-8.3542 0.82686,-0.8268 0.83485,-1.1458 0.0287,-1.1458 -1.93178,0 -5.00462,-16.972 -5.70317,-31.5 -0.18512,-3.85 -0.82862,-8.8011 -1.43001,-11.0024 -1.30649,-4.7823 -0.68673,-59.4204 0.85638,-75.4975 0.55429,-5.775 0.97067,-16.125 0.92529,-23 -0.0454,-6.875 -0.0446,-16.1 0.002,-20.5 0.0464,-4.4 -0.17858,-9.2293 -0.49988,-10.7318 l -0.5842,-2.7319 -3.92133,2.0006 c -2.15674,1.1003 -6.04569,2.2917 -8.64212,2.6475 -2.59643,0.3559 -6.98537,1.5233 -9.7532,2.5942 -2.76783,1.0709 -6.26992,2.1724 -7.78242,2.4477 -1.5125,0.2754 -2.75,0.8786 -2.75,1.3404 0,0.4618 -1.96693,1.7098 -4.37095,2.7732 -2.40402,1.0634 -4.66843,2.4148 -5.03203,3.0031 -0.36359,0.5883 -1.32166,0.8162 -2.12905,0.5063 -0.80738,-0.3098 -1.46797,-0.1029 -1.46797,0.4597 0,1.7862 -8.19175,7.5897 -10.9862,7.7831 -3.35426,0.2322 -5.90026,1.66 -13.65559,7.6579 -3.37799,2.6125 -6.37745,4.75 -6.66548,4.75 -1.65463,0 -24.77105,23.0758 -25.78316,25.7378 -0.50026,1.3158 -0.91697,5.8505 -0.92602,10.0772 -0.0189,8.8048 -0.30232,9.402 -11.54193,24.3179 -3.88212,5.1518 -8.09111,11.2148 -9.35333,13.4732 l -2.29493,4.1062 2.48519,3.8938 c 3.44902,5.4039 5.87389,8.008 10.1744,10.9264 l 3.69878,2.5101 3.92413,-2.0214 c 2.15828,-1.1117 5.67291,-2.9213 7.81029,-4.0213 4.54535,-2.3393 7.95653,-2.5735 8.71441,-0.5985 0.59884,1.5605 3.92801,2.7366 4.92487,1.7397 0.64335,-0.6433 0.98653,-0.731 4.22457,-1.0796 1.37445,-0.1479 1.24943,-0.389 -0.58258,-1.1233 -1.28292,-0.5142 -3.53292,-0.6361 -5,-0.2708 -2.40025,0.5977 -2.52996,0.4974 -1.29498,-1.0016 1.70796,-2.0731 6.48408,-2.1665 8.4847,-0.1659 1.13884,1.1388 3.9759,1.5 11.78311,1.5 h 10.2831 l 5.3249,5.7217 c 2.9287,3.1469 5.58223,6.7469 5.89674,8 0.3145,1.253 0.91191,2.2783 1.32756,2.2783 0.41565,0 1.52909,2.025 2.4743,4.5 0.94521,2.475 2.13135,4.5 2.63586,4.5 0.50451,0 0.91729,0.6484 0.91729,1.441 0,2.0734 1.63736,2.7858 3.70932,1.614 0.98488,-0.557 4.71568,-2.1932 8.29068,-3.6361 3.575,-1.4429 9.17283,-3.7024 12.43961,-5.0212 3.26679,-1.3187 7.42929,-2.3977 9.25,-2.3977 3.01416,0 3.31039,0.2694 3.31039,3.0107 0,2.8418 -6.36312,21.1938 -8.18693,23.6121 -0.46572,0.6175 -3.08593,5.5207 -5.82269,10.8961 -2.73676,5.3754 -6.00692,11.1701 -7.26702,12.8772 -1.2601,1.7072 -2.81832,4.3186 -3.46271,5.8033 -0.6444,1.4846 -2.42916,4.5939 -3.96614,6.9095 -1.53698,2.3156 -3.55941,5.3758 -4.49429,6.8006 -0.93487,1.4248 -3.46515,5.9655 -5.62284,10.0905 -4.76686,9.1132 -6.23228,11.7547 -8.32124,15 -9.14981,14.2189 -10.85646,17.0402 -10.85646,17.9517 0,0.5793 -0.5625,1.0549 -1.25,1.0569 -0.6875,0 -2.08207,2.0271 -3.09906,4.5 -1.01698,2.473 -2.23042,4.4963 -2.69654,4.4963 -0.98994,0 -7.9544,10.2386 -7.9544,11.6939 0,0.5428 -2.23308,4.7024 -4.9624,9.2435 -2.72933,4.5412 -5.95954,10.463 -7.17826,13.1597 -1.21872,2.6966 -2.58564,4.9029 -3.0376,4.9029 -0.45196,0 -0.82174,0.5705 -0.82174,1.2679 0,0.6973 -1.23055,3.0598 -2.73456,5.25 -1.50401,2.1901 -3.4895,5.3321 -4.4122,6.9821 -0.9227,1.65 -2.12002,2.9032 -2.6607,2.7849 -0.54068,-0.1183 -1.25739,1.2472 -1.59268,3.0345 -0.33529,1.7872 -1.31056,4.2503 -2.16727,5.4734 -0.85671,1.2231 -3.84993,6.6076 -6.65161,11.9655 -2.80168,5.3579 -6.59854,11.3036 -8.43747,13.2125 -1.83893,1.909 -3.34351,3.7916 -3.34351,4.1836 0,1.1211 -6.06538,10.8071 -10.48314,16.741 -2.20927,2.9674 -5.04475,7.2298 -6.30106,9.4719 -1.2563,2.2421 -3.07512,4.9892 -4.04182,6.1046 -0.96669,1.1155 -2.51902,3.7156 -3.44962,5.7781 -1.84669,4.0928 -4.43263,5.2826 -3.26026,1.5 z m 56.5359,-92.691 c 0,-0.5175 -0.45,-1.2191 -1,-1.559 -0.55,-0.3399 -1,0.083 -1,0.941 0,0.8574 0.45,1.559 1,1.559 0.55,0 1,-0.4234 1,-0.941 z m 449.9847,-136.309 c 0.01,-0.9625 0.4653,-1.75 1.0153,-1.75 0.5729,0 1,-3.0357 1,-7.107 0,-5.9065 -0.2534,-7.0097 -1.5,-6.5314 -0.8755,0.336 -1.5,0.015 -1.5,-0.7705 0,-0.7404 -0.675,-1.9064 -1.5,-2.5911 -1.3032,-1.0816 -1.5,-0.5039 -1.5,4.4038 0,7.1609 2.1771,18.916 3.204,17.3003 0.421,-0.6623 0.7723,-1.9916 0.7807,-2.9541 z m 0.094,-12.3333 c 0.048,-1.165 0.285,-1.4019 0.6042,-0.6042 0.2889,0.7219 0.2534,1.5844 -0.079,1.9167 -0.3323,0.3323 -0.5687,-0.2584 -0.5253,-1.3125 z m -14.38591,10.8523 c -0.25354,-0.9729 -0.47766,-0.419 -0.49804,1.231 -0.0204,1.65 0.18706,2.4461 0.46099,1.769 0.27392,-0.677 0.29059,-2.027 0.0371,-3 z m 51.74248,-12.1467 c 2.7632,-2.5133 20.5616,-13.1223 22.0148,-13.1223 0.6323,0 1.64,-0.4903 2.2393,-1.0896 0.5993,-0.5993 4.6709,-1.3974 9.048,-1.7735 7.0524,-0.6061 8.6018,-1.1271 13.6104,-4.5766 3.1086,-2.141 5.652,-4.4916 5.652,-5.2236 0,-0.732 1.5153,-3.0197 3.3673,-5.0838 1.852,-2.0641 3.6824,-4.7654 4.0674,-6.0029 0.385,-1.2375 1.071,-2.25 1.5243,-2.25 0.4533,0 1.1202,-1.1794 1.482,-2.6208 0.3617,-1.4414 1.3258,-3.2889 2.1423,-4.1054 0.8165,-0.8165 1.2245,-2.3041 0.9066,-3.3058 -0.6408,-2.0189 1.904,-8.968 3.2841,-8.968 0.4818,0 0.892,-1.4625 0.9115,-3.25 0.019,-1.7875 0.6239,-7.7462 1.3432,-13.2416 1.2493,-9.5447 0.7529,-20.3288 -1.6725,-36.3359 -0.7657,-5.0534 -5.1682,-16.2102 -8.0615,-20.4294 -3.383,-4.9332 -15.9309,-11.3402 -39.2947,-20.0639 -5.7405,-2.1434 -11.2451,-4.3865 -22.7768,-9.2814 -2.3636,-1.0033 -5.9865,-1.2535 -13,-0.898 -12.54107,0.6356 -15.62857,1.4858 -16.05637,4.4214 -0.3163,2.1713 -0.3985,2.1931 -1.6319,0.4327 -1.201,-1.7142 -3.197,-2.0191 -9.5349,-1.4564 -1.2501,0.111 -1.2692,0.2794 -0.1147,1.0106 0.9278,0.5875 1.1645,1.7574 0.7167,3.5415 -0.873,3.4782 -2.1798,3.1432 -14.90491,-3.821 -2.64161,-1.4457 -4.95915,-2.6285 -5.1501,-2.6285 -0.19095,0 -0.30201,1.6875 -0.2468,3.75 0.0552,2.0625 -0.0385,7.125 -0.20817,11.25 -0.1697,4.125 -0.0849,8.175 0.18841,9 0.27333,0.825 1.02339,5.325 1.66682,10 0.64342,4.675 1.78833,11.65 2.54423,15.5 2.91309,14.8371 6.48493,36.2546 6.97609,41.8302 0.28248,3.2066 0.74962,6.2121 1.03808,6.6788 0.60703,0.9822 4.49235,30.8872 5.05305,38.8929 0.3782,5.4006 3.1661,10.098 5.9932,10.098 0.6618,0 1.7408,0.6478 2.398,1.4396 1.2544,1.5114 13.4539,7.5296 15.4124,7.6031 0.6257,0.024 3.61267,1.3366 6.63767,2.9181 6.5275,3.4127 9.6408,3.7034 12.4355,1.1615 z m -54.43527,-68.1223 c 0,-0.55 -0.45,-1 -1,-1 -0.55,0 -1,0.45 -1,1 0,0.55 0.45,1 1,1 0.55,0 1,-0.45 1,-1 z m -219.25821,184.7695 c -0.60121,-1.5667 2.78716,-27.9634 4.14224,-32.2695 0.90494,-2.8757 0.94744,-2.8135 1.02541,1.5 0.0802,4.4345 -3.47908,30.903 -4.26065,31.6845 -0.22094,0.221 -0.62909,-0.1908 -0.907,-0.915 z m -143.5839,-203.7695 c 0,-1.3749 0.22698,-1.9374 0.50439,-1.2499 0.27741,0.6875 0.27741,1.8124 0,2.4999 -0.27741,0.6875 -0.50439,0.125 -0.50439,-1.25 z m -54.15789,-19.1684 c -4.3967,-1.2412 -5.44013,-2.2422 -4.60526,-4.4178 0.60754,-1.5832 0.75797,-1.5903 1.88278,-0.089 0.67236,0.8974 2.9894,1.9923 5.14898,2.4329 2.15957,0.4407 4.10957,1.3505 4.33333,2.0218 0.47541,1.4262 -1.8294,1.444 -6.75983,0.052 z m 13.73333,-19.9556 c 0.67834,-0.6834 1.48524,-0.9907 1.79313,-0.6828 0.30789,0.3079 -0.24711,0.8671 -1.23333,1.2426 -1.4252,0.5427 -1.54006,0.4278 -0.5598,-0.5598 z m 116.26667,-11.4349 c 0,-0.8575 0.45,-1.2809 1,-0.941 0.55,0.3399 1,1.0415 1,1.559 0,0.5176 -0.45,0.941 -1,0.941 -0.55,0 -1,-0.7016 -1,-1.559 z m -10.33665,-14.0254 c -1.82693,-2.5082 -1.66305,-5.4156 0.30527,-5.4156 0.56726,0 1.03138,0.9296 1.03138,2.0657 0,1.1362 0.46583,2.9362 1.03518,4 1.49212,2.7881 -0.2067,2.3224 -2.37183,-0.6501 z m 125.08292,-61.1028 c -3.9176,-2.8903 -4.34616,-3.6575 -5.20233,-9.3128 -0.3747,-2.475 -1.76068,-9.45 -3.07996,-15.50003 -2.68319,-12.3047 -5.30392,-32.9034 -5.91609,-46.5 -0.1362,-3.025 -0.97992,-10.9 -1.87494,-17.5 -0.89502,-6.6 -1.83692,-17.175 -2.09311,-23.5 -1.04658,-25.839 -1.72125,-37.6301 -2.28871,-40 -0.32924,-1.375 -0.71154,-4.075 -0.84956,-6 -0.13801,-1.925 -0.72949,-6.65 -1.31438,-10.5 -0.5849,-3.85 -1.53248,-13.075 -2.10573,-20.5 -1.09681,-14.2061 -2.42025,-30.1727 -4.02007,-48.5 -0.52812,-6.05 -1.1816,-15.5 -1.45218,-21 -1.34872,-27.4144 -1.76744,-34.4309 -3.10319,-52 -1.44944,-19.06445 -2.77778,-31.82449 -4.47638,-43 -1.90723,-12.54821 -6.98445,-77.60297 -7.04324,-90.24558 -0.0405,-8.70187 -0.17188,-9.27076 -2.2347,-9.67373 -1.20543,-0.23549 -16.88801,-0.9106 -34.85017,-1.50025 -20.59901,-0.67621 -34.07699,-1.53521 -36.5,-2.32627 -4.67129,-1.52507 -5.19982,-3.85531 -2.9056,-12.81055 1.9476,-7.60222 1.96282,-11.56555 0.0785,-20.44399 -3.16937,-14.93332 -3.79948,-27.88963 -2.22498,-45.75046 1.2285,-13.93588 1.90128,-17.63294 4.00351,-22 2.41432,-5.01538 5.70704,-18.42453 5.70704,-23.24112 0,-1.35842 1.06535,-2.97607 2.63906,-4.00721 2.31762,-1.51856 3.13976,-1.57153 6.75,-0.43488 2.26102,0.71186 4.58774,1.64721 5.17049,2.07855 0.58275,0.43134 4.10585,0.76088 7.8291,0.7323 3.72325,-0.0286 6.98113,0.15964 7.23974,0.41825 0.25861,0.25861 2.36052,0.0205 4.6709,-0.52912 2.31039,-0.54962 6.22571,-1.10217 8.70071,-1.2279 2.475,-0.12572 5.37103,-0.60341 6.43563,-1.06153 1.06459,-0.45813 5.00091,-0.86525 8.74736,-0.90473 3.74646,-0.0395 6.81292,-0.32153 6.81437,-0.62678 0.004,-0.83736 14.84536,-3.16024 15.92565,-2.49258 0.51634,0.31911 1.25114,0.0748 1.63289,-0.54287 0.49198,-0.79604 0.9489,-0.72799 1.5691,0.23369 0.68737,1.06583 1.04775,1.08989 1.68064,0.11222 0.4974,-0.76837 3.46266,-1.3034 7.75,-1.39836 3.8194,-0.0846 7.44653,-0.54208 8.06029,-1.01663 0.61376,-0.47455 3.95178,-1.08332 7.41783,-1.35281 3.46606,-0.2695 6.51056,-0.69864 6.76556,-0.95365 0.25501,-0.255 1.33324,0.002 2.39609,0.57057 1.23868,0.66292 2.35824,0.69049 3.11851,0.0768 1.49564,-1.2073 8.05616,-1.9739 22.68608,-2.65085 10.47542,-0.48472 33.07185,-1.76975 35.5,-2.01884 0.55,-0.0564 0.8875,-0.64462 0.75,-1.30712 -0.51623,-2.48731 1.5653,-1.08962 2.3016,1.54545 0.53173,1.90298 0.88979,2.24175 1.16249,1.09988 0.44514,-1.8639 7.32888,-2.96496 9.82019,-1.57076 0.96049,0.53752 2.06357,0.26589 3.09049,-0.76103 1.26457,-1.26458 3.915,-1.6072 12.73606,-1.64641 23.06941,-0.10255 21.76092,-0.30273 25.37458,3.8818 1.77947,2.06059 3.9678,6.22152 4.86296,9.24652 1.75896,5.94404 5.36887,24.8958 6.79976,35.69826 0.20411,1.54096 0.63503,3.47674 0.95758,4.30174 0.32256,0.825 0.80504,2.625 1.07218,4 0.26714,1.375 1.13642,4.3 1.93173,6.5 0.79531,2.2 1.97687,8.5 2.6257,14 0.64883,5.5 1.85966,11.56606 2.69075,13.48013 0.89112,2.05235 1.73768,8.08159 2.06343,14.69584 0.9319,18.92181 -2.55795,32.87878 -10.03262,40.12351 -5.2177,5.0572 -23.49223,10.87498 -46.20263,14.70881 -10.0978,1.70465 -34.62272,-0.50657 -40.75425,-3.6745 -2.50225,-1.29282 -2.44664,-9.89336 0.0787,-12.1788 2.22637,-2.01484 4.27071,-2.0584 10.32802,-0.22006 4.46635,1.3555 4.8957,1.30052 10.5,-1.34453 3.21378,-1.5168 7.12378,-3.07702 8.68889,-3.46717 3.2627,-0.81331 5.83084,0.75328 4.95906,3.02508 -0.48493,1.26372 0.35763,1.42297 5.30944,1.0035 8.23351,-0.69747 28.19503,-6.24459 33.27951,-9.24806 4.4606,-2.63494 6.5038,-8.56628 6.51187,-18.90375 0.008,-9.8809 -3.1883,-30.96517 -6.82124,-45 -0.85421,-3.3 -2.68914,-12.845 -4.07761,-21.21111 -2.42023,-14.58289 -6.73489,-32.86362 -8.06441,-34.16797 -1.09118,-1.07053 -21.33703,-0.2892 -35.94227,1.38709 -7.7,0.88376 -22.00849,2.01646 -31.79665,2.51713 -9.78816,0.50066 -22.16316,1.37145 -27.5,1.93507 -28.30785,2.9896 -38.12616,4.22174 -52.70335,6.61395 -19.65587,3.22565 -32.44441,4.27968 -47.7132,3.93254 l -11.71319,-0.2663 -1.47921,4.1298 c -4.43385,12.37887 -5.55614,17.29005 -6.62447,28.98877 -1.31325,14.38075 -0.61788,31.25163 1.73693,42.14103 0.83256,3.85 1.49382,10.7043 1.46946,15.23179 -0.0244,4.52748 0.27778,8.43082 0.6714,8.6741 1.0208,0.63089 10.4177,1.38165 27.15228,2.16931 7.975,0.37537 14.90596,0.91838 15.40213,1.20669 0.49617,0.2883 3.96352,0.67908 7.70521,0.86838 l 6.80307,0.34419 0.61601,-3.28359 c 0.3388,-1.80598 0.47146,-3.94223 0.29479,-4.74723 -0.24724,-1.12661 0.65743,-1.4214 3.92879,-1.28019 3.10873,0.13418 4.25,-0.20148 4.25,-1.25 0,-0.7884 0.45,-1.43345 1,-1.43345 0.55,0 1,0.45 1,1 0,0.55 0.91412,1 2.03138,1 1.11727,0 2.27553,0.7875 2.57392,1.75 1.15979,3.741 3.30466,6.80083 5.56852,7.94394 3.52818,1.7815 15.36078,3.51667 23.57618,3.45729 3.9875,-0.0288 7.25,0.32288 7.25,0.78155 0,0.45868 0.8363,1.05266 1.85845,1.31995 2.73718,0.71579 3.44247,5.68674 1.24108,8.74727 -2.27429,3.16187 -6.38466,3.57516 -19.09953,1.9204 -5.225,-0.68 -11.02952,-1.27777 -12.89894,-1.32838 l -3.39894,-0.092 0.0376,11.5 c 0.0341,10.40708 1.40981,37.59127 2.88465,57 0.31345,4.125 0.71011,9.525 0.88147,12 0.17135,2.475 0.77864,7.2 1.34953,10.5 0.57088,3.3 1.25741,8.925 1.52563,12.5 0.26821,3.575 0.98466,10.775 1.59211,16 0.60745,5.225 1.35134,14.89996 1.65308,21.49996 0.30175,6.6 0.744,14.025 0.98279,16.5 0.23879,2.475 0.66074,9.9 0.93767,16.5 0.27692,6.6 0.90553,14.7 1.39691,18 0.49137,3.3 0.96657,9.15 1.05599,13 0.19149,8.245 0.39002,11.6402 1.95632,33.4567 0.64982,9.0511 1.33216,16.7011 1.5163,17 0.18415,0.2988 0.61557,4.5933 0.95873,9.5433 0.34315,4.95 1.08669,13.275 1.6523,18.5 0.56562,5.225 1.23211,12.875 1.48109,17 0.4688,7.7666 0.90545,12.0114 1.85165,18 0.30414,1.925 0.81862,8.9 1.14328,15.5 1.06299,21.6094 1.23121,23.7903 3.39389,44 1.17712,11 2.3011,21.8 2.49772,24 0.81085,9.0726 2.70336,20.7166 5.04481,31.03933 2.97061,13.0963 2.97432,13.1827 0.75431,17.5321 -2.13563,4.1841 -5.00678,4.5592 -9.50373,1.2414 z M 923.53814,503.34768 c 0.97865,-2.55031 0.72526,-3.09269 -1.37264,-2.93813 -2.59884,0.19146 -3.40143,1.08451 -2.67529,2.97679 0.77091,2.00896 3.27135,1.98508 4.04793,-0.0387 z M 657.64797,794.93837 c -0.79331,-2.4995 0.26144,-4.3133 2.09831,-3.6085 1.635,0.6275 1.9822,-2.9218 0.38254,-3.9105 -0.55897,-0.3454 -0.73699,-1.0801 -0.39559,-1.6324 0.35288,-0.571 1.26037,-0.091 2.10314,1.1121 1.31624,1.8792 1.30454,2.3879 -0.10441,4.5382 -0.87276,1.332 -1.58683,3.1127 -1.58683,3.957 0,2.2108 -1.75233,1.8909 -2.49716,-0.4559 z m -6.8889,-6.41 c -2.12882,-4.4862 -2.09615,-4.5989 1.33308,-4.5989 2.7981,0 2.93895,0.2021 2.7875,4 -0.19643,4.9259 -1.94656,5.1803 -4.12058,0.5989 z m 131.4773,-255.7201 c -5.72482,-0.41743 -15.06078,-1.48843 -20.74656,-2.38002 -5.68579,-0.89159 -10.75825,-1.36121 -11.27214,-1.04361 -0.51389,0.3176 -1.18791,0.16717 -1.49783,-0.33428 -0.30991,-0.50145 -4.27851,-1.20012 -8.81909,-1.55258 -10.42135,-0.80897 -16.49613,-2.35975 -18.07528,-4.6143 -0.67885,-0.96919 -1.36519,-5.06783 -1.52521,-9.10809 -0.36323,-9.17133 -1.54975,-18.15794 -3.67655,-27.84592 -1.84526,-8.40556 -1.49483,-15.41232 0.89011,-17.79726 1.36208,-1.36209 2.27781,-1.42165 6.36122,-0.41377 5.17455,1.27719 8.98015,1.47961 22.77009,1.21111 4.95,-0.0964 9.9,-0.16348 11,-0.14911 1.1,0.0144 5.825,0.0717 10.5,0.1273 4.675,0.0556 10.525,-0.49977 13,-1.23425 2.475,-0.73448 7.875,-1.23458 12,-1.11134 4.125,0.12324 9.28892,-0.16865 11.47538,-0.64864 2.73896,-0.60129 4.1926,-0.52126 4.67379,0.25732 0.50908,0.82372 1.0579,0.83195 2.02461,0.0304 2.03759,-1.68953 20.64196,-1.8694 24.93234,-0.24106 4.64734,1.76382 6.23308,5.46036 4.10505,9.56935 -0.82604,1.59499 -1.99898,3.24258 -2.60653,3.66132 -0.60755,0.41873 -8.30464,0.64618 -17.10464,0.50543 -15.75075,-0.25192 -28.30916,0.30685 -50,2.22468 -6.05,0.53492 -16.76631,1.15949 -23.81402,1.38792 -7.04771,0.22843 -13.04612,0.64744 -13.32981,0.93113 -0.53197,0.53197 0.97405,11.64551 3.00543,22.17833 l 1.15502,5.98884 4.99169,0.74422 c 2.74543,0.40932 8.14169,1.22009 11.99169,1.8017 19.08973,2.88385 26.33489,3.47045 42,3.40052 9.35,-0.0418 19.475,-0.23822 22.5,-0.43661 6.53339,-0.42849 14.87238,-2.678 17.07874,-4.60713 0.86831,-0.7592 2.1398,-1.38037 2.82553,-1.38037 1.65363,0 14.97627,-7.71085 17.89617,-10.35792 2.58953,-2.34755 2.57563,-2.65511 -0.90616,-20.0486 -5.11948,-25.57472 -5.14336,-34.59351 -0.0916,-34.59351 2.72848,0 11.15386,4.28455 11.64643,5.92255 0.2609,0.8676 0.93705,5.17745 1.50254,9.57745 1.21239,9.43336 3.69158,23.53028 4.19512,23.85389 5.79598,3.72492 7.85322,6.02737 7.85322,8.78927 0,1.67276 -0.88559,4.16722 -1.96797,5.54325 -1.51344,1.92403 -1.8418,3.4617 -1.42172,6.65773 0.82331,6.26389 -0.95445,8.00632 -8.13016,7.96858 -4.91572,-0.0258 -7.06158,0.62622 -14.13252,4.29445 -13.0952,6.79348 -25.52886,11.12935 -36.84763,12.84953 -6.6519,1.01093 -25.35875,1.2278 -36.40876,0.4221 z M 657.10996,519.38709 c -2.06612,-2.48952 0.3265,-4.04482 2.87092,-1.86622 1.13399,0.97095 1.83329,2.13509 1.55401,2.58698 -0.81228,1.31429 -3.0367,0.95196 -4.42493,-0.72076 z" />
    <path
       style="fill:#000000"
       d="m -823.0696,1904.2992 c 0.33992,-0.55 0.14148,-1 -0.44098,-1 -0.58246,0 -1.05902,0.45 -1.05902,1 0,0.55 0.19844,1 0.44098,1 0.24254,0 0.7191,-0.45 1.05902,-1 z"
       id="path183" />
    <path
       style="fill:#000000"
       d="m 118.9304,2089.2992 c 0.3399,-0.55 0.1415,-1 -0.441,-1 -0.5824,0 -1.059,0.45 -1.059,1 0,0.55 0.1984,1 0.441,1 0.2425,0 0.7191,-0.45 1.059,-1 z"
       id="path181" />
  </g>
</svg>
