<?xml version="1.0" encoding="UTF-8" standalone="no"?>
<!-- Created with Inkscape (http://www.inkscape.org/) -->

<svg
   width="210mm"
   height="297mm"
   viewBox="0 0 210 297"
   version="1.1"
   id="svg2104"
   xml:space="preserve"
   xmlns="http://www.w3.org/2000/svg"
   xmlns:svg="http://www.w3.org/2000/svg"><defs
     id="defs2101" /><g
     id="layer1"><path
       style="fill:#000000;stroke-width:0.0846667"
       d="m 40.233269,125.80485 c -0.958177,-0.14959 -0.980931,-0.16172 -1.334245,-0.71095 -0.560281,-0.87098 -0.816203,-1.10762 -1.290202,-1.19298 -0.279081,-0.0503 -0.459215,-0.0462 -0.529167,0.0118 -0.132956,0.11035 -0.135952,0.49818 -0.0072,0.92801 0.167631,0.55951 0.01819,0.57366 -0.844472,0.08 -0.41747,-0.2389 -0.798178,-0.48162 -0.846019,-0.53938 -0.04784,-0.0577 -0.170402,-0.46696 -0.272358,-0.90934 -0.222993,-0.96755 -0.290575,-1.08289 -0.792451,-1.35246 -0.364562,-0.19581 -0.399184,-0.20023 -0.531615,-0.0678 -0.08566,0.0857 -0.15729,0.33018 -0.181201,0.61853 -0.05417,0.6532 -0.200556,0.68929 -0.674136,0.1662 -0.2048,-0.22621 -0.478691,-0.56628 -0.608647,-0.75571 l -0.236284,-0.34443 0.111331,-0.67733 c 0.186719,-1.13599 0.166593,-1.30096 -0.211747,-1.73567 -0.393733,-0.4524 -0.517367,-0.42367 -0.859623,0.19977 -0.119904,0.21841 -0.259232,0.43834 -0.309618,0.48872 -0.140656,0.14066 -0.321239,-0.19959 -0.573557,-1.08068 l -0.22142,-0.7732 0.431429,-0.7508 c 0.237285,-0.41295 0.451339,-0.82882 0.475674,-0.92416 0.02434,-0.0953 -0.02566,-0.36204 -0.111094,-0.59266 -0.207635,-0.56049 -0.400863,-0.58578 -0.907482,-0.1188 -0.594762,0.54824 -0.677291,0.45768 -0.602358,-0.66096 0.03343,-0.49901 0.08809,-0.9561 0.121472,-1.01576 0.03338,-0.0596 0.344555,-0.33956 0.691495,-0.62203 0.34694,-0.28247 0.677075,-0.59612 0.733633,-0.69701 0.156465,-0.2791 0.139707,-1.04247 -0.02427,-1.10539 -0.154176,-0.0592 -0.86377,0.10284 -0.93167,0.21271 -0.02524,0.0408 -0.119842,0.0743 -0.210227,0.0743 -0.254928,0 -0.205326,-0.27488 0.206465,-1.14418 l 0.370802,-0.78277 0.454698,-0.14301 c 1.338836,-0.42109 1.424545,-0.46813 1.644726,-0.90264 0.113835,-0.22464 0.206972,-0.46074 0.206972,-0.52466 0,-0.17875 -0.382579,-0.31274 -0.892984,-0.31274 -0.637605,0 -0.609168,-0.13907 0.18453,-0.90246 l 0.646213,-0.62154 h 1.072271 1.07227 l 0.313517,-0.32107 c 0.479939,-0.4915 0.425392,-0.62035 -0.40615,-0.95941 -0.52965,-0.21597 -0.474461,-0.34657 0.295104,-0.69834 1.014231,-0.46362 1.061492,-0.46513 1.977657,-0.0633 0.437454,0.19186 0.873408,0.34883 0.968786,0.34883 0.09538,0 0.348023,-0.0748 0.561433,-0.16633 0.512232,-0.21957 0.512232,-0.42102 -3e-6,-0.91182 -0.213413,-0.20449 -0.36899,-0.4214 -0.345727,-0.48202 0.04755,-0.12392 1.373278,-0.25295 1.781646,-0.17341 0.156632,0.0305 0.478913,0.28791 0.902962,0.72118 l 0.659399,0.67373 h 0.512226 c 0.702577,0 0.783042,-0.14697 0.466565,-0.85217 -0.146274,-0.32594 -0.199495,-0.53925 -0.147516,-0.59123 0.09118,-0.0912 0.624615,0.0479 1.409389,0.36735 l 0.490589,0.19972 0.371357,0.82456 c 0.204246,0.45351 0.409853,0.87095 0.456903,0.92764 0.04705,0.0567 0.284031,0.17445 0.526624,0.26169 0.432431,0.1555 0.443468,0.15544 0.562982,-0.003 0.08928,-0.1181 0.109455,-0.3021 0.07538,-0.68756 -0.02894,-0.32747 -0.0128,-0.54714 0.04274,-0.58147 0.100268,-0.062 0.399291,0.14096 1.102338,0.74809 l 0.47884,0.41351 0.06153,0.9847 0.06153,0.98471 0.354195,0.37487 c 0.271288,0.28713 0.394673,0.36203 0.527129,0.31999 0.171262,-0.0543 0.392074,-0.46952 0.488749,-0.91893 0.105198,-0.48903 0.386797,-0.21905 0.963842,0.92407 l 0.260293,0.51564 -0.310647,0.94029 -0.310647,0.94029 0.22909,0.46711 c 0.157616,0.32137 0.279133,0.4671 0.389491,0.4671 0.160776,0 0.772772,-0.60365 0.772772,-0.76224 0,-0.14698 0.325293,-0.0911 0.37094,0.0637 0.05867,0.199 0.222009,1.42591 0.220613,1.65713 -5.93e-4,0.10237 -0.228238,0.44798 -0.511762,0.77704 -0.68345,0.79322 -0.741107,0.91878 -0.680371,1.48167 0.04777,0.44274 0.06279,0.46689 0.305087,0.49068 0.173662,0.017 0.381941,-0.0592 0.653838,-0.23927 0.634751,-0.42044 0.671388,-0.28208 0.297629,1.12399 l -0.174307,0.65574 -0.643,0.35082 c -1.017867,0.55533 -1.091574,0.62351 -1.2451,1.15162 -0.131997,0.45405 -0.13109,0.48057 0.0203,0.59344 0.153595,0.11451 0.336127,0.10935 1.026301,-0.029 0.232273,-0.0466 0.275125,-0.0304 0.274898,0.10358 -2.54e-4,0.16575 -0.467569,0.90883 -0.867202,1.37903 -0.218211,0.25674 -0.287126,0.28069 -1.123476,0.39047 -0.490053,0.0643 -0.937891,0.14499 -0.995196,0.17925 -0.109517,0.0655 -0.260358,0.25173 -0.505322,0.62392 -0.213689,0.32467 -0.04635,0.50754 0.578629,0.6323 0.343585,0.0686 0.508259,0.14332 0.52678,0.23905 0.03699,0.19117 -1.47723,1.18861 -1.71793,1.13163 -0.09442,-0.0223 -0.536912,-0.12285 -0.983307,-0.22332 l -0.811627,-0.18267 -0.391189,0.23821 c -0.215155,0.13102 -0.411761,0.2886 -0.436904,0.35018 -0.07703,0.18868 0.10035,0.4099 0.551064,0.68722 0.236917,0.14578 0.415605,0.31051 0.397085,0.36607 -0.0409,0.12269 -0.528754,0.26979 -1.355344,0.40868 l -0.617293,0.10373 -0.752054,-0.52134 c -0.794406,-0.55069 -0.98253,-0.60173 -1.592945,-0.43221 -0.23292,0.0647 -0.3175,0.13371 -0.3175,0.2591 0,0.22169 0.137609,0.48455 0.402343,0.76856 0.230412,0.24719 0.209791,0.49738 -0.03985,0.48351 -0.08295,-0.005 -0.455623,-0.056 -0.828157,-0.11412 z m 0.193288,-0.71066 c -0.154509,-0.36571 -0.160437,-0.43633 -0.05508,-0.65616 0.136572,-0.28496 0.575264,-0.46436 1.188964,-0.48624 0.357769,-0.0127 0.469083,0.0366 1.157371,0.51344 l 0.76153,0.52755 0.493629,-0.0912 c 0.271496,-0.0502 0.518459,-0.10652 0.548808,-0.12524 0.03035,-0.0187 -0.07443,-0.16364 -0.232834,-0.32204 -0.506781,-0.50679 -0.37576,-0.9353 0.415982,-1.36048 0.50979,-0.27376 0.514066,-0.27366 1.981322,0.0485 0.428275,0.094 0.454554,0.0887 0.867833,-0.1765 0.234402,-0.15042 0.424803,-0.29809 0.423116,-0.32816 -0.0017,-0.0301 -0.163612,-0.13087 -0.359833,-0.22401 -0.636564,-0.30213 -0.618734,-0.76992 0.05748,-1.50818 0.274434,-0.29961 0.318243,-0.31227 1.852674,-0.53529 0.26087,-0.0379 0.380912,-0.12669 0.653344,-0.48316 l 0.333755,-0.4367 -0.413488,-0.044 c -0.734738,-0.0782 -0.892948,-0.38744 -0.637808,-1.24659 0.149839,-0.50456 0.356496,-0.701 1.257997,-1.19577 0.675068,-0.3705 0.648376,-0.33293 0.859912,-1.21041 l 0.05435,-0.22545 -0.349401,0.12038 c -0.653235,0.22505 -0.964925,-0.005 -1.0675,-0.7868 -0.08173,-0.62315 -0.01856,-0.78601 0.599326,-1.54512 0.511112,-0.62793 0.548922,-0.70333 0.548922,-1.09454 0,-0.66266 -0.04963,-0.72336 -0.383313,-0.46884 -0.312941,0.23869 -0.723616,0.28996 -0.932692,0.11645 -0.222029,-0.18427 -0.546662,-0.9004 -0.546662,-1.20593 0,-0.15579 0.115889,-0.62378 0.257529,-1.03998 l 0.25753,-0.75671 -0.230764,-0.48684 c -0.12692,-0.26775 -0.257235,-0.48683 -0.289591,-0.48683 -0.03235,0 -0.1068,0.11582 -0.165434,0.25737 -0.133165,0.32149 -0.387596,0.50463 -0.70107,0.50463 -0.172722,0 -0.362482,-0.11545 -0.666615,-0.40557 -0.477937,-0.45592 -0.568189,-0.73089 -0.574564,-1.75052 -0.0037,-0.58738 -0.0053,-0.5914 -0.402671,-0.99484 -0.219441,-0.22279 -0.428991,-0.40507 -0.465667,-0.40507 -0.03668,0 -0.06668,0.14726 -0.06668,0.32725 0,0.43094 -0.264404,0.77342 -0.597098,0.77342 -0.314406,0 -0.915691,-0.23173 -1.152474,-0.44416 -0.100781,-0.0904 -0.345059,-0.52119 -0.542839,-0.95729 l -0.3596,-0.7929 -0.515494,-0.20693 c -0.283522,-0.11381 -0.526086,-0.19687 -0.53903,-0.18457 -0.01294,0.0123 0.01563,0.12538 0.0635,0.25128 0.131661,0.3463 0.105534,0.59488 -0.08844,0.84148 -0.162984,0.2072 -0.222867,0.22309 -0.841041,0.22309 h -0.665562 l -0.715556,-0.67734 -0.715556,-0.67733 h -0.567596 -0.567597 l 0.219194,0.2605 c 0.264038,0.31379 0.299344,0.82661 0.07103,1.03166 -0.08149,0.0732 -0.356092,0.21178 -0.610223,0.30799 -0.53961,0.20428 -0.737101,0.17157 -1.74953,-0.28981 l -0.633176,-0.28855 -0.440285,0.1725 c -0.444724,0.17423 -0.684521,0.32971 -0.508507,0.32971 0.05095,0 0.210975,0.11054 0.3556,0.24564 0.412441,0.38527 0.368687,0.7151 -0.164387,1.23921 l -0.427342,0.42015 h -1.05268 -1.052681 l -0.402697,0.40217 -0.402698,0.40216 0.252886,3.4e-4 c 0.139088,1.7e-4 0.376711,0.0758 0.528053,0.16809 0.227215,0.13854 0.275167,0.22012 0.275167,0.46817 0,0.3173 -0.31899,1.03409 -0.542895,1.21992 -0.07302,0.0606 -0.504621,0.23252 -0.959105,0.38203 -0.812801,0.26739 -0.830114,0.27867 -1.057189,0.68882 -0.315489,0.56986 -0.304652,0.61573 0.133791,0.56631 0.69834,-0.0787 0.933647,0.22802 0.844747,1.10116 -0.05835,0.57308 -0.101145,0.62989 -1.197331,1.58944 -0.434504,0.38032 -0.439352,0.38998 -0.439352,0.87487 0,0.26966 0.02857,0.47559 0.0635,0.45761 0.904893,-0.4658 1.170359,-0.37118 1.453521,0.51804 0.164198,0.51564 0.107321,0.78423 -0.331881,1.56725 -0.232727,0.41491 -0.42314,0.79341 -0.42314,0.84111 0,0.0477 0.06138,0.30547 0.136389,0.57282 l 0.136388,0.48608 0.316169,-0.33236 c 0.229089,-0.24082 0.38528,-0.33236 0.567096,-0.33236 0.294626,0 0.410981,0.0852 0.788681,0.57775 l 0.280744,0.36609 -0.05607,0.77691 c -0.03084,0.4273 -0.07759,0.89324 -0.103897,1.03541 -0.03974,0.21477 0.01398,0.33653 0.317498,0.71967 0.300939,0.37989 0.370826,0.43132 0.396517,0.29183 0.06926,-0.37604 0.29105,-0.71097 0.524751,-0.79243 0.198103,-0.0691 0.318378,-0.0468 0.656111,0.12151 0.641437,0.31964 0.76244,0.50042 1.013179,1.51373 l 0.22486,0.90871 0.427624,0.24528 c 0.53315,0.30581 0.581057,0.30596 0.514217,0.002 -0.07062,-0.32151 0.141118,-0.82224 0.379706,-0.89797 0.222569,-0.0706 0.8735,0.0172 1.231093,0.16613 0.173215,0.0721 0.429998,0.35851 0.781017,0.87101 l 0.522957,0.76354 0.488983,0.0837 c 0.268942,0.0461 0.514282,0.0886 0.5452,0.0946 0.03092,0.006 -0.0217,-0.17355 -0.116928,-0.39895 z m -0.515191,-8.25862 c -0.776637,-0.28943 -1.389276,-0.94329 -1.594625,-1.70192 -0.228636,-0.84466 0.123568,-1.98643 0.769207,-2.49359 0.598217,-0.46992 0.843633,-0.55425 1.612988,-0.55425 0.542515,0 0.792611,0.0392 1.016,0.15904 0.536972,0.28818 0.894129,0.62504 1.147321,1.08211 0.221527,0.3999 0.249679,0.53187 0.249679,1.17039 0,0.63852 -0.02815,0.77049 -0.249679,1.17039 -0.255722,0.46164 -0.623155,0.80602 -1.147321,1.07533 -0.391321,0.20106 -1.376674,0.25159 -1.80357,0.0925 z m 1.686933,-0.4609 c 0.743535,-0.38308 1.163697,-1.0609 1.163697,-1.87732 0,-0.8186 -0.413881,-1.4842 -1.17406,-1.88812 -0.468188,-0.24877 -1.309812,-0.24877 -1.778,0 -0.760179,0.40392 -1.17406,1.06952 -1.17406,1.88812 0,0.61442 0.142759,0.9716 0.569705,1.42539 0.637902,0.678 1.60089,0.85989 2.392718,0.45193 z"
       id="path2224" /></g></svg>
