<?xml version="1.0" encoding="UTF-8" standalone="no"?>
<!-- Created with Inkscape (http://www.inkscape.org/) -->

<svg
   width="210mm"
   height="297mm"
   viewBox="0 0 210 297"
   version="1.1"
   id="svg5"
   xml:space="preserve"
   inkscape:version="1.2.2 (b0a8486541, 2022-12-01)"
   sodipodi:docname="shield.svg"
   xmlns:inkscape="http://www.inkscape.org/namespaces/inkscape"
   xmlns:sodipodi="http://sodipodi.sourceforge.net/DTD/sodipodi-0.dtd"
   xmlns="http://www.w3.org/2000/svg"
   xmlns:svg="http://www.w3.org/2000/svg"><sodipodi:namedview
     id="namedview7"
     pagecolor="#ffffff"
     bordercolor="#000000"
     borderopacity="0.25"
     inkscape:showpageshadow="2"
     inkscape:pageopacity="0.0"
     inkscape:pagecheckerboard="0"
     inkscape:deskcolor="#d1d1d1"
     inkscape:document-units="mm"
     showgrid="false"
     inkscape:zoom="0.13742248"
     inkscape:cx="-607.6153"
     inkscape:cy="593.06164"
     inkscape:window-width="1534"
     inkscape:window-height="831"
     inkscape:window-x="0"
     inkscape:window-y="0"
     inkscape:window-maximized="1"
     inkscape:current-layer="layer1" /><defs
     id="defs2" /><g
     inkscape:label="Layer 1"
     inkscape:groupmode="layer"
     id="layer1"><path
       style="fill:#000000;stroke-width:0.264583"
       d="m 71.675058,168.42448 c -12.467076,-7.58469 -20.59788,-18.07172 -24.80914,-31.99858 -2.000454,-6.61561 -3.26309,-15.56795 -3.413123,-24.19971 l -0.07801,-4.48825 0.661458,-0.18516 c 0.363802,-0.10183 1.944719,-0.38135 3.513148,-0.62115 9.004955,-1.37679 17.182669,-5.60348 24.929557,-12.884973 1.29545,-1.21763 2.27065,-1.93831 2.51354,-1.85755 0.21828,0.0726 1.40891,1.08813 2.64584,2.25677 3.96951,3.75038 8.67142,7.003653 13.03613,9.019743 3.79088,1.75104 9.257,3.34242 12.760742,3.71509 2.3187,0.24662 2.70229,0.35551 2.87954,0.81742 0.2288,0.59625 -0.29786,10.47085 -0.77534,14.53714 -1.61639,13.76552 -5.760452,24.56231 -12.748382,33.21426 -2.06758,2.55992 -6.54607,6.87243 -9.22446,8.88258 -3.69898,2.77611 -7.9754,5.39587 -8.80806,5.39587 -0.24626,0 -1.6338,-0.72158 -3.08344,-1.6035 z m 4.46551,-0.0502 c 2.29691,-1.25697 6.54402,-4.19836 8.82318,-6.11062 9.61861,-8.07018 15.691752,-18.69751 18.469782,-32.3201 1.05779,-5.18712 1.98042,-14.12933 1.9843,-19.23223 l 0.002,-2.29889 -1.25677,-0.15687 C 93.950528,106.98088 85.046628,102.71181 77.239358,95.346767 l -2.37901,-2.24425 -2.20845,2.09012 c -4.71637,4.46367 -8.939125,7.230763 -15.386341,10.082373 -2.576284,1.13949 -6.976354,2.23443 -12.013527,2.98952 l -1.033318,0.15489 0.171509,5.20582 c 0.525029,15.93613 4.21571,28.86754 11.000438,38.54331 3.704052,5.2824 9.311579,10.62958 14.971773,14.27669 4.567346,2.94293 4.168746,2.80986 5.778286,1.92904 z m -4.19843,-5.18516 c -5.744853,-3.74454 -10.571115,-8.42861 -14.081257,-13.6664 -4.593348,-6.85414 -7.519693,-15.00989 -8.923838,-24.87083 -0.508089,-3.56818 -1.19674,-12.25958 -1.00994,-12.74637 0.07494,-0.19529 0.391013,-0.40759 0.702383,-0.47179 9.43384,-1.94485 16.635931,-5.36419 23.771882,-11.28619 1.20684,-1.001533 2.31331,-1.820073 2.45883,-1.818983 0.14552,10e-4 0.92618,0.56838 1.73479,1.26063 7.30268,6.251803 14.53771,9.747783 24.525112,11.850573 0.55664,0.11719 0.59448,0.25822 0.58246,2.17082 -0.032,5.0912 -1.10549,13.23515 -2.466862,18.71423 -3.35932,13.52013 -10.17811,23.36169 -21.31005,30.75678 -1.36994,0.91007 -2.7426,1.65467 -3.05035,1.65467 -0.30775,0 -1.62767,-0.69621 -2.93316,-1.54714 z m 7.48385,-2.35228 c 10.71764,-7.73286 17.10322,-18.42343 19.87521,-33.27453 0.63049,-3.37789 1.270462,-8.94485 1.450442,-12.61703 l 0.1256,-2.56286 -2.389972,-0.56109 c -7.9802,-1.87353 -14.65561,-5.16006 -21.31024,-10.49175 l -2.44568,-1.959473 -1.1262,1.026853 c -5.489538,5.00525 -14.392478,9.60822 -21.822713,11.28269 -0.986188,0.22225 -2.060961,0.46599 -2.388382,0.54164 -0.736363,0.17015 -0.751737,0.68474 -0.197471,6.60977 1.538957,16.4512 5.909086,27.36991 14.546269,36.34365 2.811444,2.92099 5.559365,5.19164 8.968957,7.41118 l 2.08494,1.35724 0.95777,-0.57417 c 0.52677,-0.31579 2.17893,-1.45525 3.67147,-2.53212 z"
       id="path691" /></g></svg>
