<?xml version="1.0" encoding="UTF-8" standalone="no"?>
<!-- Created with Inkscape (http://www.inkscape.org/) -->

<svg
   width="210mm"
   height="297mm"
   viewBox="0 0 210 297"
   version="1.1"
   id="svg5"
   xml:space="preserve"
   inkscape:version="1.2.2 (b0a8486541, 2022-12-01)"
   xmlns:inkscape="http://www.inkscape.org/namespaces/inkscape"
   xmlns:sodipodi="http://sodipodi.sourceforge.net/DTD/sodipodi-0.dtd"
   xmlns="http://www.w3.org/2000/svg"
   xmlns:svg="http://www.w3.org/2000/svg"><sodipodi:namedview
     id="namedview7"
     pagecolor="#ffffff"
     bordercolor="#000000"
     borderopacity="0.25"
     inkscape:showpageshadow="2"
     inkscape:pageopacity="0.0"
     inkscape:pagecheckerboard="0"
     inkscape:deskcolor="#d1d1d1"
     inkscape:document-units="mm"
     showgrid="false"
     inkscape:zoom="0.914906"
     inkscape:cx="214.77616"
     inkscape:cy="562.35285"
     inkscape:window-width="1534"
     inkscape:window-height="831"
     inkscape:window-x="0"
     inkscape:window-y="0"
     inkscape:window-maximized="1"
     inkscape:current-layer="layer1" /><defs
     id="defs2" /><g
     inkscape:label="Layer 1"
     inkscape:groupmode="layer"
     id="layer1"><path
       style="fill:#000000;stroke-width:0.264583"
       d="m 121.01615,214.56298 c -1.03698,-0.4515 -1.90131,-1.54524 -2.11304,-2.67388 -0.16012,-0.85349 -16.44516,-17.22943 -78.562436,-79.00095 l -10.583333,-10.52442 -2.513542,-0.42295 c -1.382448,-0.23262 -2.717159,-0.48375 -2.966025,-0.55807 -0.515244,-0.15385 -1.529044,-1.95759 -6.82598,-12.14468 -1.059321,-2.03729 -2.027916,-3.81728 -2.152433,-3.95552 -0.358619,-0.39816 -0.263162,-1.20386 0.14263,-1.20386 0.202964,0 2.018667,0.87326 4.034896,1.94058 2.016229,1.06731 5.689933,2.99221 8.163787,4.27756 2.473854,1.28534 4.571967,2.44826 4.662473,2.58428 0.09051,0.13601 0.382926,1.55636 0.649823,3.15632 l 0.485267,2.90902 44.41488,44.22207 c 37.976873,37.81201 44.569573,44.26774 45.482083,44.53717 1.3875,0.40968 2.27332,1.26445 2.61136,2.51983 0.81819,3.03853 -2.07268,5.58176 -4.93041,4.3375 z m 2.67399,-0.83498 c 1.52928,-0.72569 2.09564,-2.82103 1.10625,-4.09274 -0.55373,-0.71174 -1.60285,-1.31078 -2.29561,-1.31078 -0.53676,0 -9.48872,-8.82698 -45.280573,-44.64843 l -44.611541,-44.64844 -0.435552,-2.76697 c -0.239553,-1.52184 -0.523914,-2.84552 -0.631912,-2.94152 -0.195693,-0.17396 -2.190957,-1.22856 -9.721361,-5.13827 -2.182813,-1.13329 -4.372495,-2.30187 -4.86596,-2.59684 l -0.897211,-0.5363 0.668278,1.16912 c 0.367553,0.64301 1.138448,2.06208 1.7131,3.15349 0.574652,1.09141 2.156114,4.09343 3.51436,6.67116 l 2.469538,4.68678 1.212489,0.16249 c 0.666869,0.0894 2.017165,0.30204 3.000657,0.47259 l 1.788168,0.3101 44.580061,44.58048 c 26.360139,26.36039 44.580069,44.77583 44.580069,45.05845 0,0.87697 0.81842,2.07498 1.67076,2.44569 1.09306,0.4754 1.37823,0.47188 2.43599,-0.0301 z"
       id="path269" /></g></svg>
