<?xml version="1.0" encoding="UTF-8" standalone="no"?>
<!-- Created with Inkscape (http://www.inkscape.org/) -->

<svg
   width="210mm"
   height="297mm"
   viewBox="0 0 210 297"
   version="1.1"
   id="svg5"
   xml:space="preserve"
   inkscape:version="1.2.2 (b0a8486541, 2022-12-01)"
   sodipodi:docname="sword.svg"
   xmlns:inkscape="http://www.inkscape.org/namespaces/inkscape"
   xmlns:sodipodi="http://sodipodi.sourceforge.net/DTD/sodipodi-0.dtd"
   xmlns="http://www.w3.org/2000/svg"
   xmlns:svg="http://www.w3.org/2000/svg"><sodipodi:namedview
     id="namedview7"
     pagecolor="#ffffff"
     bordercolor="#000000"
     borderopacity="0.25"
     inkscape:showpageshadow="2"
     inkscape:pageopacity="0.0"
     inkscape:pagecheckerboard="0"
     inkscape:deskcolor="#d1d1d1"
     inkscape:document-units="mm"
     showgrid="false"
     inkscape:zoom="0.13742248"
     inkscape:cx="-607.6153"
     inkscape:cy="593.06164"
     inkscape:window-width="1534"
     inkscape:window-height="831"
     inkscape:window-x="0"
     inkscape:window-y="0"
     inkscape:window-maximized="1"
     inkscape:current-layer="layer1" /><defs
     id="defs2" /><g
     inkscape:label="Layer 1"
     inkscape:groupmode="layer"
     id="layer1"><path
       style="fill:#000000;stroke-width:0.264583"
       d="m 193.74749,278.14765 c -3.19858,-0.88161 -6.37789,-3.24013 -8.02683,-5.95459 -1.03591,-1.70528 -1.99027,-4.21752 -1.99027,-5.2391 0,-0.64842 -1.0759,-1.85078 -3.70537,-4.14091 -0.65418,-0.56976 -2.43114,-2.17711 -3.9488,-3.57188 -1.51766,-1.39476 -3.3594,-3.07172 -4.09277,-3.72656 -0.73336,-0.65485 -1.73241,-1.57402 -2.22009,-2.0426 -0.48769,-0.46858 -1.26532,-1.16618 -1.72807,-1.55021 -0.46275,-0.38403 -1.49621,-1.31297 -2.29657,-2.06431 -0.80037,-0.75134 -4.01505,-3.68515 -7.14375,-6.51958 -3.1287,-2.83443 -5.73299,-5.2571 -5.78732,-5.3837 -0.0543,-0.12661 -3.39662,3.06606 -7.42731,7.09482 -7.92166,7.91787 -8.03555,8.00105 -10.46558,7.64384 -0.93482,-0.13742 -1.52631,-0.62339 -5.06815,-4.16403 -3.74814,-3.74687 -4.02179,-4.08831 -4.19331,-5.23209 -0.10092,-0.673 -0.10542,-1.46961 -0.01,-1.77025 0.17306,-0.54527 1.72605,-3.1838 4.38089,-7.44314 0.77097,-1.23693 2.21686,-3.58291 3.21309,-5.21329 l 1.81133,-2.96433 -2.44818,-2.34924 c -1.34649,-1.29209 -3.99598,-3.76781 -5.88775,-5.50161 -1.89177,-1.73379 -4.51115,-4.16916 -5.82084,-5.41191 -1.30968,-1.24276 -3.92643,-3.68387 -5.81499,-5.4247 -1.88855,-1.74082 -3.68712,-3.40326 -3.99681,-3.6943 -2.03771,-1.91498 -4.16246,-3.8926 -7.51841,-6.99778 -2.11005,-1.95239 -5.503332,-5.11125 -7.540622,-7.0197 -2.03729,-1.90844 -4.59714,-4.28957 -5.68854,-5.29138 -1.09141,-1.00181 -2.93688,-2.73615 -4.10104,-3.85408 -1.16417,-1.11792 -2.89058,-2.72241 -3.83646,-3.56553 -0.94589,-0.84312 -2.73434,-2.49647 -3.97434,-3.67411 -1.24,-1.17764 -3.79984,-3.56457 -5.68854,-5.30428 -1.8887,-1.73972 -4.38932,-4.06144 -5.55694,-5.15938 -1.16762,-1.09794 -2.95633,-2.77016 -3.97491,-3.71605 -1.01858,-0.94588 -2.74226,-2.55323 -3.83039,-3.57187 -6.80999,-6.37511 -9.79009,-9.14424 -12.95822,-12.04088 -1.96453,-1.79618 -4.52437,-4.18286 -5.68854,-5.30374 -1.16416,-1.12088 -6.46245,-6.06374 -11.77396,-10.98413 -12.53478,-11.61178 -12.09276,-11.18442 -12.40018,-11.98856 -0.14574,-0.38122 -0.97558,-2.53859 -1.8441,-4.79416 -3.28286,-8.52571 -4.2652,-11.092687 -5.7207404,-14.948957 -1.82037,-4.82282 -3.21504,-8.457 -4.92458,-12.83229 -2.02826,-5.19101 -3.14874996,-8.13961 -4.08149996,-10.74058 -0.47459,-1.32341 -1.03914004,-2.8117 -1.25455004,-3.30729 -1.01839,-2.34306 -1.07287,-3.03911 -0.25131,-3.21097 0.24572,-0.0514 1.57785004,0.3455 2.9603,0.88199 1.38244,0.53649 4.29948,1.65276 6.48229,2.48059 2.1828104,0.82784 5.5165604,2.10236 7.4083304,2.83227 6.09381,2.3512 8.65087,3.32898 12.7,4.85625 2.18281,0.82333 5.75469,2.18809 7.9375,3.0328 2.18281,0.84472 5.5761,2.15008 7.54063,2.90082 1.96453,0.75073 3.87524,1.4812 4.24602,1.62325 0.37078,0.14206 2.63297,2.35894 5.02709,4.9264 2.39411,2.56747 6.96444,7.47432 10.15629,10.90411 3.19186,3.429787 7.24879,7.783797 9.01542,9.675567 1.76662,1.89177 4.80855,5.16599 6.75983,7.27604 1.95129,2.11005 4.39189,4.72943 5.42356,5.82083 2.50343,2.64839 14.63561,15.68734 20.093662,21.59549 0.29104,0.31504 1.1323,1.21064 1.86946,1.99022 0.73717,0.77958 2.15588,2.31039 3.15269,3.40179 0.99683,1.09141 2.77494,2.99786 3.95138,4.23656 1.17644,1.23872 3.56588,3.79856 5.30988,5.68855 1.744,1.89 3.95754,4.2698 4.91898,5.28844 0.96144,1.01865 3.51293,3.75709 5.66997,6.08542 2.15704,2.32833 5.41977,5.84068 7.2505,7.80521 1.83074,1.96453 3.98406,4.28625 4.78517,5.15937 0.80111,0.87313 2.48064,2.65906 3.73229,3.96875 1.25165,1.30969 3.74261,3.9886 5.53547,5.95313 1.79285,1.96453 4.3683,4.73771 5.7232,6.16262 l 2.46346,2.59074 2.98128,-1.82161 c 1.6397,-1.00188 3.99331,-2.4524 5.23023,-3.22337 7.1655,-4.46624 7.63366,-4.68179 9.43667,-4.3449 0.85336,0.15945 1.64812,0.82346 5.00702,4.18334 3.50633,3.50735 4.01266,4.12271 4.15702,5.05214 0.37562,2.41836 0.28723,2.53952 -7.63503,10.46558 -4.02876,4.03068 -7.22143,7.37297 -7.09483,7.4273 0.12661,0.0543 1.30176,1.28941 2.61144,2.74461 1.30969,1.45521 2.44094,2.70537 2.51389,2.77813 0.0729,0.0728 1.20405,1.32292 2.51354,2.77812 1.3095,1.45521 2.44044,2.70537 2.5132,2.77813 0.0728,0.0728 1.14057,1.26339 2.37292,2.64583 1.23234,1.38245 2.97548,3.28745 3.87364,4.23334 0.89815,0.94588 2.03299,2.19175 2.52187,2.7686 0.48887,0.57685 1.35075,1.52935 1.91529,2.11667 0.56453,0.58732 1.93055,2.07988 3.03559,3.31681 3.43648,3.84663 4.42225,4.7625 5.12596,4.7625 1.88144,0 6.0688,2.16932 7.78844,4.03491 1.35164,1.46636 2.94166,4.29878 3.41836,6.08938 0.2028,0.7618 0.37014,2.40722 0.37187,3.65649 0.008,6.07191 -3.83729,11.23304 -9.83782,13.20291 -1.89283,0.62139 -5.67463,0.69411 -7.6586,0.14727 z m 7.55018,-1.35325 c 2.55053,-0.7327 5.10737,-2.71388 6.74367,-5.22536 1.45063,-2.22652 1.94835,-3.99744 1.95199,-6.94531 0.004,-3.35902 -0.45533,-4.75625 -2.4382,-7.41425 -2.05818,-2.75894 -5.07658,-4.6109 -8.18765,-5.0236 -1.08184,-0.14351 -1.50174,-0.3499 -2.04592,-1.00561 -0.37659,-0.45377 -1.23718,-1.42104 -1.91242,-2.14948 -0.67524,-0.72845 -2.29912,-2.51438 -3.60861,-3.96875 -1.3095,-1.45437 -2.91684,-3.22191 -3.57188,-3.92787 -2.60433,-2.80678 -3.13211,-3.38619 -12.90861,-14.17155 -4.50687,-4.97193 -5.8789,-6.64565 -5.82084,-7.10073 0.0472,-0.36978 2.84606,-3.37782 7.38557,-7.9375 7.79301,-7.82765 8.09078,-8.22721 7.28086,-9.77016 -0.54521,-1.03866 -7.57369,-7.91579 -8.3261,-8.14681 -0.77174,-0.23695 -1.83653,0.18619 -3.93201,1.56256 -1.90584,1.2518 -3.46325,2.2159 -6.03651,3.73683 -1.01865,0.60207 -3.04271,1.82655 -4.49792,2.72107 -1.4552,0.89451 -2.78146,1.62684 -2.94723,1.62739 -0.29478,0.001 -1.3115,-1.01457 -5.03185,-5.02608 -1.01219,-1.09141 -3.56004,-3.81739 -5.66188,-6.05774 -2.10184,-2.24035 -4.64131,-4.97879 -5.64325,-6.08542 -1.00194,-1.10663 -2.7887,-3.02408 -3.97058,-4.26101 -1.18187,-1.23692 -4.23163,-4.51114 -6.77724,-7.27604 -2.54561,-2.76489 -4.7578,-5.14614 -4.91599,-5.29166 -0.15818,-0.14552 -1.88269,-1.99099 -3.83225,-4.10105 -4.84882,-5.24798 -6.12299,-6.6188 -8.5933,-9.24507 -2.1736,-2.31083 -5.06684,-5.4389 -5.54309,-5.993 -0.14552,-0.1693 -1.27662,-1.36806 -2.51355,-2.6639 -1.23692,-1.29584 -3.43864,-3.66184 -4.89271,-5.25778 -1.454062,-1.59594 -3.781032,-4.09234 -5.171052,-5.54755 -1.39001,-1.4552 -3.23642,-3.42425 -4.10312,-4.37566 -0.8667,-0.95141 -3.84749,-4.16609 -6.62398,-7.14375 -2.77648,-2.97765 -5.92382,-6.36642 -6.99408,-7.53059 -1.07026,-1.16416 -3.51135,-3.78354 -5.42463,-5.82083 -1.91328,-2.03729 -4.88608,-5.24014 -6.60621,-7.11743 -1.72013,-1.8773 -3.45154,-3.72277 -3.84757,-4.10104 -0.39603,-0.37828 -2.12822,-2.235587 -3.84931,-4.127357 -1.72109,-1.89177 -4.0369,-4.39209 -5.14624,-5.55625 -1.99546,-2.09408 -5.11667,-5.48657 -5.18068,-5.63097 -0.0596,-0.13454 -4.42724,-1.93931 -6.32187,-2.61233 -1.01865,-0.36184 -2.11998,-0.76849 -2.4474,-0.90365 -0.32742,-0.13517 -0.8632,-0.35268 -1.19063,-0.48337 -0.32742,-0.13068 -1.03772,-0.43199 -1.57845,-0.66958 -0.54073,-0.23758 -1.686,-0.65651 -2.54506,-0.93094 -0.85904,-0.27443 -2.44069,-0.85711 -3.51477,-1.29484 -3.47319,-1.41545 -9.59343,-3.77974 -10.8164,-4.17844 -1.19809,-0.39059 -1.47837,-0.50016 -3.175,-1.24118 -0.50933,-0.22245 -2.05714,-0.81745 -3.43959,-1.32222 -3.1809104,-1.16145 -9.3725104,-3.53162 -10.4356004,-3.99479 -0.44505,-0.1939 -1.41879,-0.59235 -2.16385996,-0.88544 l -1.35468,-0.53289 1.37336,3.47678 c 1.28410996,3.25084 1.97732996,5.0551 5.45289996,14.1924 2.79823,7.35654 4.5138204,11.81408 5.0406604,13.09687 0.29883,0.72761 0.90021,2.33495 1.3364,3.571877 0.43619,1.23693 0.94887,2.60614 1.13928,3.04271 0.19041,0.43656 0.72604,1.80578 1.19029,3.04271 0.46426,1.23692 1.24215,3.20317 1.72866,4.36943 0.4865,1.16626 0.96335,2.43442 1.05965,2.81812 0.21028,0.83782 0.2722,0.90486 4.236,4.5864 1.72345,1.60073 3.38113,3.14855 3.68373,3.43959 0.30259,0.29104 2.15646,2.00959 4.11971,3.81901 1.96325,1.80941 4.46251,4.1429 5.55392,5.18553 1.09141,1.04263 3.65125,3.43063 5.68854,5.30666 2.03729,1.87602 3.94229,3.65622 4.23334,3.956 0.29104,0.29977 2.01744,1.9048 3.83645,3.56673 1.81901,1.66193 4.26262,3.91808 5.43024,5.01367 4.41419,4.14188 5.91811,5.54217 9.51872,8.86276 2.03729,1.87885 4.65667,4.32872 5.82084,5.44415 1.16416,1.11542 2.9501,2.77579 3.96875,3.68969 1.01864,0.91391 2.33786,2.15158 2.9316,2.75039 0.59373,0.59881 1.42717,1.39315 1.85208,1.76519 1.0335,0.90492 7.76415,7.12108 12.07695,11.1538 1.91224,1.78806 4.49776,4.20351 5.74562,5.36768 1.24785,1.16416 3.875212,3.61579 5.838582,5.44805 1.96336,1.83227 4.40226,4.09446 5.41978,5.02709 1.01752,0.93263 2.86299,2.66136 4.10104,3.84164 1.23806,1.18027 3.91789,3.67315 5.95518,5.53972 2.03729,1.86658 4.00983,3.69887 4.38343,4.07176 0.37359,0.37289 2.09695,1.98767 3.82968,3.5884 7.69525,7.10901 10.7046,10.00375 10.7046,10.29696 0,0.17328 -0.35719,0.87829 -0.79375,1.56668 -0.43656,0.68839 -0.79375,1.30844 -0.79375,1.37789 0,0.0695 -0.51722,0.92852 -1.14938,1.90904 -0.63216,0.98052 -1.83806,2.91386 -2.67977,4.29631 -0.84172,1.38244 -2.02768,3.28744 -2.63548,4.23333 -1.42013,2.21008 -1.83257,3.24726 -1.59672,4.01539 0.23102,0.75241 7.10815,7.78089 8.14681,8.3261 1.53472,0.80561 1.93568,0.50564 9.82322,-7.34889 4.45333,-4.4347 7.60386,-7.37385 7.90415,-7.37385 0.56793,0 1.15724,0.46606 4.67675,3.69862 1.38245,1.26974 3.88006,3.5466 5.55024,5.05969 1.67018,1.51308 3.41026,3.10825 3.86685,3.54481 0.76572,0.73213 4.30411,3.93751 5.43149,4.92031 0.26649,0.23231 1.58872,1.43421 2.93828,2.67088 1.34957,1.23667 4.00158,3.64366 5.89335,5.34887 1.89177,1.7052 3.51821,3.30127 3.61432,3.54682 0.0961,0.24555 0.366,1.27744 0.59979,2.29308 0.77535,3.36836 3.19648,6.44579 6.50152,8.2639 2.46156,1.35411 6.39501,1.64748 9.62978,0.71823 z m -6.38379,-5.24972 c -2.83204,-1.02994 -4.53631,-3.46302 -4.81535,-6.87457 -0.15425,-1.88579 -0.16641,-1.91061 -1.98179,-4.04644 -1.03516,-1.2179 -1.97293,-2.09286 -2.16435,-2.0194 -0.48566,0.18636 -0.86235,-0.0769 -3.32441,-2.3233 -1.21269,-1.10647 -3.5741,-3.24746 -5.24759,-4.75775 -1.67349,-1.5103 -3.10224,-2.80766 -3.175,-2.88303 -0.0728,-0.0754 -0.73098,-0.67282 -1.46271,-1.32767 -0.73172,-0.65484 -2.51766,-2.27437 -3.96875,-3.59895 -1.45108,-1.32458 -3.41224,-3.09526 -4.35813,-3.93485 -0.94588,-0.83958 -2.09509,-1.89896 -2.5538,-2.35417 -0.4587,-0.45521 -1.73062,-1.60156 -2.82647,-2.54744 -1.09586,-0.94589 -2.00048,-1.91474 -2.01027,-2.15301 -0.0145,-0.35289 -1.50282,-1.68402 -4.20254,-3.7587 -0.26389,-0.20279 -2.28388,1.66717 -8.33597,7.71682 -5.34643,5.34428 -8.16945,7.98447 -8.53738,7.98447 -0.78765,0 -2.7544,-1.89427 -2.7544,-2.65289 0,-0.33963 0.45626,-1.34019 1.01391,-2.22346 0.55764,-0.88327 1.70546,-2.73704 2.5507,-4.11948 1.68306,-2.75276 3.00706,-4.89822 4.8984,-7.9375 0.67917,-1.09141 1.65685,-2.68928 2.17262,-3.55082 l 0.93775,-1.56644 -2.12442,-1.67376 c -2.04931,-1.61458 -2.13751,-1.65508 -2.4944,-1.14554 -0.73829,1.05406 -1.44668,0.62282 -5.46873,-3.3291 -0.48551,-0.47704 -6.58106,-6.14408 -17.90671,-16.64788 -1.72597,-1.60073 -5.25603,-4.8679 -7.84457,-7.26038 -2.58853,-2.39248 -5.65893,-5.25849 -6.82309,-6.3689 -1.16417,-1.11042 -3.009642,-2.84232 -4.101052,-3.84867 -1.0914,-1.00635 -2.9397,-2.72425 -4.10732,-3.81755 -1.16762,-1.09331 -2.95356,-2.76534 -3.96875,-3.71562 -3.81017,-3.56655 -12.82987,-11.93544 -16.53018,-15.33745 -2.11005,-1.93996 -4.78895,-4.44188 -5.95312,-5.55983 -1.16417,-1.11794 -3.00964,-2.84446 -4.10104,-3.8367 -1.09141,-0.99224 -2.99641,-2.7683 -4.23334,-3.9468 -1.23692,-1.17849 -3.49911,-3.28656 -5.02708,-4.68459 -1.52797,-1.39804 -3.26215,-3.00369 -3.85374,-3.56812 -0.59158,-0.56443 -1.78221,-1.67249 -2.64583,-2.46235 -0.86362,-0.78986 -2.46319,-2.27918 -3.5546,-3.30959 -1.0914,-1.03042 -3.4123,-3.18214 -5.15754,-4.7816 -1.74524,-1.59946 -3.59484,-3.32483 -4.11023,-3.83415 -0.51538,-0.50933 -1.6494,-1.58089 -2.52005,-2.38125 -9.16454,-8.42477 -10.0985,-9.35885 -10.40439,-10.40572 -0.50095,-1.71448 -1.24978,-3.7192 -2.29004,-6.13074 -0.18832,-0.43657 -0.69623,-1.74625 -1.12869,-2.91042 -1.86127,-5.010507 -3.31571,-8.804597 -3.75277,-9.789577 -0.25829,-0.58209 -0.85664,-2.18943 -1.32967,-3.57188 -0.47303,-1.38245 -1.19134,-3.23752 -1.59624,-4.12238 -0.4049,-0.88486 -0.9144,-2.19455 -1.13221,-2.91042 -0.21782,-0.71586 -0.58561,-1.74423 -0.8173104,-2.28526 -0.2317,-0.54103 -0.42127,-1.28517 -0.42127,-1.65365 0,-0.54049 0.12946,-0.66995 0.6699504,-0.66995 0.36848,0 1.11262,0.18725 1.65365,0.41611 0.54103,0.22886 1.87666,0.71693 2.96806,1.0846 1.09141,0.36767 2.10344,0.75626 2.24896,0.86354 0.25218,0.18592 1.4532,0.6583 4.82865,1.8992 0.83674,0.30761 1.92615,0.73838 2.42091,0.95728 0.49475,0.21889 2.16163,0.84983 3.70416,1.40209 3.63633,1.30188 10.22438,3.86146 11.22945,4.36286 0.43153,0.21527 0.91513,0.39184 1.07467,0.39237 0.61398,0.002 4.28491,1.5708 4.788,2.04611 0.67474,0.6375 6.65044,7.03077 8.84427,9.46229 0.91906,1.018647 2.04352,2.210867 2.49879,2.649387 0.45527,0.43852 2.13181,2.22445 3.72563,3.96875 1.59382,1.7443 3.85601,4.18567 5.02708,5.42527 2.39629,2.53652 3.91479,4.17058 8.47806,9.12326 1.74304,1.89177 4.13432,4.45161 5.31396,5.68854 1.17964,1.23693 3.67573,3.91584 5.54685,5.95313 1.87112,2.03729 3.7055,4.00411 4.07641,4.37071 0.3709,0.3666 1.97036,2.093 3.55435,3.83646 1.584,1.74345 3.7914,4.12241 4.90535,5.28658 1.11394,1.16416 4.279132,4.55744 7.033742,7.54062 2.75461,2.98319 5.91414,6.37647 7.02118,7.54064 1.10705,1.16416 2.88788,3.06916 3.9574,4.23333 1.06953,1.16417 2.84634,3.0744 3.94847,4.24495 1.10213,1.17056 3.31356,3.55031 4.91429,5.28834 1.60073,1.73802 4.04151,4.35304 5.42396,5.81115 1.38245,1.45812 4.5376,4.84841 7.01146,7.53399 2.47385,2.68559 5.4593,5.8994 6.63432,7.14181 1.17503,1.24241 3.61581,3.86223 5.42396,5.82183 1.80815,1.9596 3.61497,3.91202 4.01515,4.33872 0.40019,0.4267 0.72761,1.05958 0.72761,1.4064 0,0.69292 2.7891,4.589 3.2732,4.5723 0.16427,-0.006 0.91684,-0.39262 1.67237,-0.8599 0.75554,-0.46727 2.36288,-1.45878 3.57188,-2.20334 1.20899,-0.74456 3.21021,-1.98316 4.44713,-2.75245 1.23693,-0.76928 3.13782,-1.92941 4.22419,-2.57805 1.08638,-0.64864 2.39394,-1.46387 2.90569,-1.81161 0.51175,-0.34775 1.18678,-0.63227 1.50005,-0.63227 0.71476,0 2.74716,2.05456 2.74716,2.77712 0,0.3465 -2.69042,3.22281 -7.67292,8.20309 -4.2201,4.21822 -7.67292,7.74141 -7.67292,7.8293 0,0.0879 0.75609,1.16022 1.6802,2.38296 1.67561,2.21709 2.94542,3.68302 7.31163,8.44087 1.26865,1.38244 2.71128,2.98979 3.20585,3.57187 0.49456,0.58208 1.19685,1.35599 1.56066,1.71979 0.56419,0.5642 8.51319,9.3392 11.37318,12.55502 0.51147,0.5751 1.67408,1.8503 2.58359,2.83379 0.9095,0.98349 1.65849,2.00124 1.66442,2.26166 0.006,0.26042 0.88375,1.38918 1.95072,2.50837 l 1.93995,2.03488 1.42895,-0.14749 c 2.47427,-0.25536 5.23308,0.97758 6.52172,2.91463 1.55808,2.34206 1.82377,4.9702 0.7483,7.40202 -0.77174,1.74505 -1.72355,2.68876 -3.54598,3.51581 -1.5504,0.70361 -4.00686,0.81869 -5.54386,0.25972 z m 5.70132,-1.66057 c 0.73477,-0.45427 1.54566,-1.27602 2.0259,-2.05303 0.70041,-1.13324 0.79944,-1.53306 0.79035,-3.19101 -0.01,-1.73587 -0.0886,-2.00487 -0.93903,-3.19535 -1.35985,-1.90353 -3.24853,-2.85886 -5.56696,-2.81587 l -1.77392,0.0329 -2.33714,-2.60566 c -1.28543,-1.43312 -2.69433,-3.02687 -3.13089,-3.54168 -0.43656,-0.5148 -3.65125,-4.06163 -7.14375,-7.88183 -3.4925,-3.8202 -7.82428,-8.56026 -9.62619,-10.53346 -4.73683,-5.18712 -11.93735,-14.37828 -11.93735,-15.23751 0,-0.23467 3.39328,-3.82253 7.54062,-7.97302 4.14735,-4.15048 7.54063,-7.632 7.54063,-7.73669 0,-0.1047 -0.32742,-0.49947 -0.7276,-0.87727 l -0.72761,-0.6869 -1.98437,1.26226 c -1.59502,1.01458 -6.13332,3.80317 -8.20209,5.03983 -1.57824,0.94343 -4.37854,2.69276 -5.82083,3.63623 -0.94589,0.61875 -1.91364,1.12524 -2.15058,1.12553 -0.42321,5.3e-4 -3.74711,-4.17879 -4.53648,-5.70396 -0.22141,-0.42779 -0.93167,-1.31358 -1.57835,-1.96842 -0.64669,-0.65484 -1.99072,-2.08359 -2.98675,-3.175 -0.99602,-1.09141 -3.31404,-3.59172 -5.15116,-5.55625 -3.26405,-3.49044 -13.33403,-14.30409 -16.50796,-17.72708 -1.56455,-1.68733 -4.57925,-4.92151 -7.02887,-7.54063 -0.68053,-0.7276 -2.05136,-2.21588 -3.04631,-3.30729 -0.99495,-1.09141 -2.72171,-2.93687 -3.83725,-4.10104 -1.11553,-1.16417 -2.84656,-3.00964 -3.84672,-4.10104 -1.00016,-1.09141 -3.37324,-3.65004 -5.2735,-5.68585 -1.90027,-2.03581 -4.169412,-4.47502 -5.042532,-5.42047 -0.87313,-0.94545 -2.36898,-2.55402 -3.32411,-3.57458 -0.95514,-1.02056 -2.44342,-2.62497 -3.30729,-3.56534 -0.86388,-0.94037 -2.53203,-2.72631 -3.70702,-3.96875 -3.10212,-3.28021 -8.17473,-8.74527 -12.37823,-13.3359 -2.01666,-2.20238 -4.52504,-4.8973 -5.57416,-5.9887 -1.04913,-1.09141 -2.72688,-2.87735 -3.72833,-3.96875 -1.00146,-1.09141 -3.43418,-3.70869 -5.40605,-5.81619 -3.99756,-4.2725 -5.55037,-5.93752 -12.0409,-12.910957 -2.4678,-2.65143 -4.61093,-4.82033 -4.7625,-4.81979 -0.15157,5.3e-4 -1.76386,-0.58135 -3.58287,-1.2931 -1.81901,-0.71174 -4.73604,-1.83906 -6.48229,-2.50514 -7.61262,-2.90371 -11.80071,-4.51045 -14.02292,-5.3798 -1.30969,-0.51237 -3.46914,-1.32604 -4.7988,-1.80816 -1.32965,-0.48211 -2.79449,-1.0715 -3.25521,-1.30975 l -0.83767,-0.43317 0.40659,0.78627 c 0.22363,0.43245 0.65615,1.48058 0.96114,2.32917 0.305,0.8486 1.13013,3.03119 1.83363,4.8502 1.84206,4.76296 4.34208,11.27931 5.73522,14.948957 0.66295,1.74625 1.7877,4.66328 2.49944,6.48229 0.71175,1.81901 1.29365,3.43062 1.2931,3.58136 -5.2e-4,0.15074 2.22912,2.35339 4.95479,4.89479 2.72568,2.5414 5.97013,5.56575 7.2099,6.72078 1.23977,1.15503 3.02803,2.82466 3.97391,3.7103 0.94589,0.88564 3.4462,3.20738 5.55625,5.15942 2.11006,1.95204 4.72943,4.40093 5.82084,5.44197 1.76526,1.6838 2.95628,2.7889 7.40833,6.87387 0.65484,0.60086 2.26219,2.09801 3.57188,3.32701 1.30968,1.229 3.21468,3.00738 4.23333,3.95196 3.21444,2.98072 9.15783,8.51239 11.5076,10.71042 5.31486,4.97164 9.63227,8.98119 13.09865,12.16462 2.03729,1.871 3.94229,3.66582 4.23333,3.9885 0.29104,0.32267 2.13651,2.04908 4.10104,3.83647 1.964542,1.78739 4.405322,4.04759 5.423962,5.02267 1.73452,1.66033 14.28956,13.33507 19.03181,17.69739 1.17417,1.08011 3.80174,3.53206 5.83903,5.44879 9.67083,9.09855 10.00944,9.38518 10.53199,8.91543 0.39477,-0.3549 0.56964,-0.3722 1.00616,-0.0996 1.25272,0.78233 5.26289,4.09406 5.26289,4.34625 0,0.34576 -1.37257,2.7072 -3.5736,6.14822 -0.93082,1.45521 -1.8785,3.00302 -2.10595,3.43958 -0.22746,0.43657 -1.64854,2.75829 -3.15797,5.15938 l -2.74442,4.36562 0.6811,0.72761 c 0.3746,0.40018 0.76717,0.7276 0.87238,0.7276 0.10521,0 3.70404,-3.51234 7.99739,-7.80521 4.29335,-4.29286 7.98743,-7.8052 8.20907,-7.8052 0.4315,0 4.7205,3.27249 6.26313,4.77875 0.51246,0.50038 1.46496,1.37749 2.11666,1.94914 0.65171,0.57164 1.90044,1.70273 2.77496,2.51354 0.87452,0.8108 2.71999,2.49547 4.10104,3.74371 11.13846,10.06725 14.91751,13.50762 16.43812,14.96497 0.96595,0.92577 1.93795,1.68322 2.15999,1.68322 0.38743,0 4.16027,4.18714 5.00649,5.55625 0.22485,0.3638 0.41166,1.21631 0.41512,1.89446 0.009,1.75228 0.9926,3.57577 2.57594,4.77521 1.52305,1.15377 1.87224,1.25512 3.91965,1.13766 1.13277,-0.065 1.87343,-0.29115 2.77113,-0.84616 z"
       id="path516" /></g></svg>
