<?xml version="1.0" encoding="UTF-8" standalone="no"?>
<!-- Created with Inkscape (http://www.inkscape.org/) -->

<svg
   width="210mm"
   height="297mm"
   viewBox="0 0 210 297"
   version="1.1"
   id="svg806"
   xml:space="preserve"
   xmlns="http://www.w3.org/2000/svg"
   xmlns:svg="http://www.w3.org/2000/svg"><defs
     id="defs803" /><g
     id="layer1"><path
       style="fill:none;stroke:#343434;stroke-width:0.264583"
       d="m 82.233171,105.20037 c 1.494632,0.2222 2.645305,-0.0471 4.762501,1.00811 2.788179,1.38954 4.234656,2.87804 4.7625,4.54814"
       id="path852" /><path
       style="fill:none;stroke:#343434;stroke-width:0.264583"
       d="m 73.237337,253.8962 c 2.054226,0.98848 3.872178,0.7792 7.143751,0"
       id="path1094" /><path
       style="fill:none;stroke:#343434;stroke-width:0.264583"
       d="m 120.06859,253.10245 c -1.64359,1.00674 -3.07763,0.8935 -5.02708,1.10226 -0.63077,0.0675 -1.41949,0.22807 -2.11006,0.19288 -0.71437,-0.0362 -1.02129,-0.16352 -1.32953,-0.23681"
       id="path1092" /><path
       style="fill:none;stroke:#343434;stroke-width:0.264583"
       d="m 87.789422,249.1337 c 1.363927,0 2.489994,0 3.704167,0"
       id="path1090" /><path
       style="fill:none;stroke:#343434;stroke-width:0.264583"
       d="m 126.41859,248.86912 v 1.5875"
       id="path1088" /><path
       style="fill:none;stroke:#343434;stroke-width:0.264583"
       d="m 86.731088,244.90037 c 0.685536,1.81716 0.903817,2.47068 0.822855,4.23333 -0.02699,0.59161 -0.100013,1.04272 -0.374915,1.58644 -0.822854,1.62798 -3.760259,3.35492 -5.723996,3.04589 -1.056482,-0.1659 -1.022615,-1.15147 -1.196446,-1.9865 -0.297127,-1.42716 -1.546225,-3.84783 -3.317082,-3.84783 -2.377281,0 -3.062287,3.33798 -3.439583,4.64158"
       id="path1086" /><path
       style="fill:none;stroke:#343434;stroke-width:0.264583"
       d="m 107.36859,240.93162 h 5.02708"
       id="path1084" /><path
       style="fill:none;stroke:#343434;stroke-width:0.264583"
       d="m 74.560254,240.93162 h 1.322917"
       id="path1082" /><path
       style="fill:none;stroke:#343434;stroke-width:0.264583"
       d="m 123.50817,240.13787 c 0.29634,1.53723 1.3425,2.78765 1.86214,4.23333 0.91414,2.54371 0.24421,2.99138 1.04828,4.49792 0.29289,-0.35613 0.57997,-0.71438 0.98319,-1.32821 0.3855,-0.58685 1.18295,-1.64888 2.19208,-1.48246 2.27991,0.37544 2.55058,2.78844 2.64556,3.869"
       id="path1080" /><path
       style="fill:none;stroke:#343434;stroke-width:0.264583"
       d="m 107.89776,239.34412 h 3.96875"
       id="path1078" /><path
       style="fill:none;stroke:#343434;stroke-width:0.264583"
       d="m 72.708171,239.34412 h 2.645833"
       id="path1076" /><path
       style="fill:none;stroke:#343434;stroke-width:0.264583"
       d="m 86.731088,239.07954 c 0.945621,0.11959 1.427427,0.26326 3.439584,0.26458"
       id="path1074" /><path
       style="fill:none;stroke:#343434;stroke-width:0.264583"
       d="m 113.18942,238.81495 h 0.26459"
       id="path1072" /><path
       style="fill:none;stroke:#343434;stroke-width:0.264583"
       d="m 76.147754,238.81495 h 0.264584"
       id="path1070" /><path
       style="fill:none;stroke:#343434;stroke-width:0.264583"
       d="m 124.30192,238.28578 h 2.91042"
       id="path1068" /><path
       style="fill:none;stroke:#343434;stroke-width:0.264583"
       d="m 86.731088,237.75662 c 0.525992,0 0.74295,0 2.116667,0"
       id="path1066" /><path
       style="fill:none;stroke:#343434;stroke-width:0.264583"
       d="m 107.89776,237.22745 h 3.175"
       id="path1064" /><path
       style="fill:none;stroke:#343434;stroke-width:0.264583"
       d="m 94.668589,227.70245 c 1.512623,0.12356 2.114815,0.38629 3.175,0.52917"
       id="path1062" /><path
       style="fill:none;stroke:#343434;stroke-width:0.264583"
       d="m 83.026921,223.99828 c 0.06694,0.84905 0.137319,1.90633 0.376767,3.70417 0.130969,0.9824 0.1524,1.6428 0.369094,2.64583 0.676804,3.12976 2.020888,4.00368 2.654035,7.40834 0.436828,2.3487 -0.701675,4.77679 0.568855,6.87916 1.039548,-0.58155 1.802871,-1.21655 3.118379,-0.11297 0.740833,0.6215 1.0922,1.56395 1.303073,2.49423 0.150019,0.66039 0.08017,1.40361 0.741627,1.83435 1.285082,0.83661 2.828661,-0.24977 4.097338,-0.51144"
       id="path1060" /><path
       style="fill:none;stroke:#343434;stroke-width:0.264583"
       d="m 89.641505,220.82328 1.5875,3.43959"
       id="path1058" /><path
       style="fill:none;stroke:#343434;stroke-width:0.264583"
       d="m 123.50817,220.5587 c -0.48418,1.87113 -0.96467,4.37806 -1.05833,5.55625"
       id="path1056" /><path
       style="fill:none;stroke:#343434;stroke-width:0.264583"
       d="m 96.520672,218.9712 c 0.796396,2.55111 0.598752,3.72295 1.852084,5.29167"
       id="path1054" /><path
       style="fill:none;stroke:#343434;stroke-width:0.264583"
       d="m 132.23942,218.17745 -2.60482,3.43932 -3.74518,3.39804 -3.06123,1.62534 -0.7874,1.59173 -0.39502,3.43932 -0.2069,2.11667 0.26881,2.38125 1.22317,3.11203 1.90024,0.59743 3.70417,-0.005"
       id="path1052" /><path
       style="fill:none;stroke:#343434;stroke-width:0.264583"
       d="m 142.82276,208.38787 c -0.31803,0.41725 -0.71623,0.84719 -0.99166,1.85261 -0.34766,1.26974 -0.85275,3.64305 -1.23719,5.02656 -1.77086,6.37063 -4.77388,13.42469 -5.15488,20.10833 -0.14869,2.61064 1.25651,5.52106 1.97564,7.9375 0.20903,0.7022 0.36381,1.39224 0.3601,2.11666 -0.005,0.88689 -0.21299,1.58459 -0.77099,2.37067 -1.15438,1.62613 -2.77707,2.08995 -4.49977,2.55164 -1.48114,0.39714 -2.60959,0.68527 -4.23334,0.62918 -0.77999,-0.0273 -1.38377,-0.30136 -2.11666,-0.23151 -0.7702,0.0736 -1.25651,0.52017 -1.85209,0.91784 -0.78554,0.52414 -2.58101,1.83436 -3.64384,1.37213 -0.8374,-0.36407 -0.7866,-1.29249 -1.01203,-2.05369 -0.49742,-1.67746 -2.04047,-3.98198 -4.07538,-4.09337 -2.95275,-0.16166 -3.36021,4.43812 -4.23333,5.94545"
       id="path1050" /><path
       style="fill:none;stroke:#343434;stroke-width:0.264583"
       d="m 80.381086,208.38787 v 0.26458"
       id="path1048" /><path
       style="fill:none;stroke:#343434;stroke-width:0.264583"
       d="m 77.735252,206.53578 1.5875,-0.26458"
       id="path1046" /><path
       style="fill:none;stroke:#343434;stroke-width:0.264583"
       d="m 81.968586,206.00662 0.529167,0.79375"
       id="path1044" /><path
       style="fill:none;stroke:#343434;stroke-width:0.264583"
       d="m 74.560252,205.74203 c 2.157942,0.44318 2.948517,0.52229 3.439584,2.38125"
       id="path1042" /><path
       style="fill:none;stroke:#343434;stroke-width:0.264583"
       d="m 83.820669,204.41912 0.793751,0.52916"
       id="path1040" /><path
       style="fill:none;stroke:#343434;stroke-width:0.264583"
       d="m 107.89776,202.30245 c -1.30466,1.30466 -2.23388,2.08333 -3.30253,3.43958 -0.82392,1.04537 -1.56925,2.26616 -2.18626,3.43959 -0.44555,0.84772 -0.85936,1.49595 -1.29143,2.38125 -0.38258,0.78396 -0.5752,1.54437 -0.81571,2.38125 -0.28125,0.97869 -0.569116,1.90632 -0.747974,2.91041 -0.301625,1.69202 -0.328877,2.76067 -0.391319,4.7625 -0.07276,2.31564 -1.164431,3.05383 -1.062302,6.08542 0.04207,1.25254 0.09419,1.54543 0.03016,2.64583 -0.08414,1.4478 -0.325173,3.00911 -0.60325,4.49792 -0.143139,0.76676 -0.20611,1.34144 -0.211402,2.11667 -0.01191,1.68037 0.816769,3.66395 0.757238,5.29166 -0.03175,0.87022 -0.353484,1.57004 -0.6223,2.38125 -0.396346,1.19672 -0.827882,2.53709 -0.817827,3.70417 0.0069,0.77841 0.235214,1.64386 0.683683,2.38019 0.705379,1.15729 1.920875,1.93464 3.172883,2.35453 0.57918,0.1942 1.49834,0.37492 2.05634,0.13176 0.65908,-0.28733 0.69903,-0.70829 0.85302,-1.42822 0.32438,-1.51527 1.04458,-3.24458 2.65086,-4.04892 1.16602,-0.58393 2.23176,-0.27014 3.07049,0.64585 0.74586,0.81465 1.22502,2.11032 1.54385,3.13981 0.2278,0.73501 0.51117,1.12527 0.39317,1.82325 -0.13785,0.81306 -0.92261,1.00647 -1.57216,1.03478 -0.59214,0.0257 -1.26576,-0.14737 -1.85182,-0.18865 -1.62295,-0.1135 -3.0689,-0.20849 -4.49791,-0.55271"
       id="path1038" /><path
       style="fill:none;stroke:#343434;stroke-width:0.264583"
       d="m 81.439421,216.32537 c -1.53326,-0.0317 -5.240073,-0.75089 -7.408334,-1.93464 -1.876425,-1.02473 -3.437731,-2.32304 -4.581525,-4.14972 -0.418306,-0.66807 -0.457994,-1.12739 -1.054629,-1.54622 -1.328208,-0.93266 -2.030413,-1.15623 -1.73699,-3.48192 0.272257,-2.15768 2.014538,-3.31602 3.932503,-3.15939 1.843087,0.15081 3.406246,2.93132 3.705225,4.21772"
       id="path1036" /><path
       style="fill:none;stroke:#343434;stroke-width:0.264583"
       d="m 126.68317,201.77328 v 0.52917"
       id="path1034" /><path
       style="fill:none;stroke:#343434;stroke-width:0.264583"
       d="m 128.27067,199.12745 c -0.0484,1.05807 -0.38232,2.6289 -0.63235,3.43958 -0.29236,0.94907 -0.78978,1.30043 -1.24539,2.64584 -0.48446,1.42981 -0.77788,3.04429 -0.99722,4.49791 -0.16272,1.08003 -0.25241,1.87855 -0.41222,2.91042 -0.45085,2.90566 -1.19353,5.58509 -1.21073,7.67292 2.93423,-0.70353 5.92561,-3.71607 8.10286,-6.61459 2.18043,-2.90274 3.93833,-6.07218 4.86172,-9.525"
       id="path1032" /><path
       style="fill:none;stroke:#343434;stroke-width:0.264583"
       d="m 71.120671,196.7462 c 0.661723,0.92684 1.347258,2.02592 2.38125,3.96875"
       id="path1030" /><path
       style="fill:none;stroke:#343434;stroke-width:0.264583"
       d="m 144.41025,194.89412 c -0.24818,0.46249 -0.44477,0.85672 -0.60008,1.85261 -0.28231,1.80949 -0.69188,6.56855 -0.72363,8.46614 -0.0143,0.8464 -0.32041,2.00131 -0.12224,2.91041 0.23019,1.05622 0.61198,1.36261 0.84005,2.38125 0.42598,1.90315 0.96679,4.45321 1.71821,6.35 0.39634,1.00039 0.90884,2.13096 1.39276,2.91042 0.49213,0.79296 0.7292,1.025 0.98346,1.32265 0.38391,0.44927 0.67072,0.7247 1.00383,1.01918 0.42201,0.37306 0.86863,0.61859 1.32847,0.83317"
       id="path1028" /><path
       style="fill:none;stroke:#343434;stroke-width:0.264583"
       d="m 112.66025,194.62953 c -0.3736,0.6059 -0.63791,0.91229 -1.32292,2.11667"
       id="path1026" /><path
       style="fill:none;stroke:#343434;stroke-width:0.264583"
       d="m 90.170664,187.48579 h 6.614584"
       id="path1024" /><path
       style="fill:none;stroke:#343434;stroke-width:0.264583"
       d="m 77.99983,186.69203 c 0.906198,1.37319 0.987425,4.04654 2.116667,6.35"
       id="path1022" /><path
       style="fill:none;stroke:#343434;stroke-width:0.264583"
       d="m 63.447745,186.69203 c 0.827353,1.02235 1.41949,2.74135 3.175001,5.02709"
       id="path1020" /><path
       style="fill:none;stroke:#343434;stroke-width:0.264583"
       d="m 57.097745,184.57537 c -0.09657,2.25213 -1.869281,10.61958 -1.563688,15.08125 0.05609,0.82021 0.181769,1.34779 0.234157,2.11666 0.150018,2.19763 0.573352,5.13028 1.012825,7.40834 0.812271,4.21084 2.147623,8.62885 3.491442,12.7 1.490927,4.51617 3.919537,10.63969 3.967956,15.34583 0.0082,0.80566 0.02196,1.35017 -0.122766,2.11667 -0.372798,1.9767 -1.675871,3.6957 -2.586303,5.55625 -0.766498,1.56633 -1.33641,3.30597 -0.842433,5.02708 0.966523,3.36921 7.138194,4.0857 10.167144,4.33493 0.828411,0.0683 1.716617,0.007 2.074334,-0.68077 0.318558,-0.6133 -0.146844,-1.07553 -0.310092,-1.56104 -0.225954,-0.67231 -0.294217,-1.60602 -0.603515,-2.35664 -0.847195,-2.05502 -2.939785,-2.54715 -4.460346,-0.76703 -1.310746,1.53485 -1.28561,2.80935 -1.462881,4.20555"
       id="path1018" /><path
       style="fill:none;stroke:#343434;stroke-width:0.264583"
       d="m 105.78108,184.31078 c -1.26841,1.6682 -1.64888,2.17858 -2.20795,4.49792 -0.35745,1.48326 -0.84852,4.85696 -1.23534,6.61459 -1.1176,5.07947 -2.873107,9.9769 -6.204476,14.02291 -2.000779,2.4302 -4.62624,4.42331 -7.55015,5.60308 -2.50243,1.00992 -4.976019,0.97817 -6.879167,1.54067 0.720725,2.4384 -0.190765,4.5302 1.735666,6.80667 0.677069,0.8001 1.750219,1.26947 2.497667,1.91162 1.051719,0.90328 3.881438,2.853 5.291667,3.48826 0.68924,0.31036 2.035175,1.11575 2.751667,0.54928 0.682361,-0.53922 0.556948,-1.34938 0.340254,-1.8841 -0.245533,-0.60616 -2.23811,-2.14868 -2.827337,-2.45004 -0.941653,-0.48154 -1.434836,-0.45614 -2.030678,-1.05331 -1.043781,-1.04563 -2.106612,-2.87046 -3.260989,-4.45796"
       id="path1016" /><path
       style="fill:none;stroke:#343434;stroke-width:0.264583"
       d="m 58.156078,184.0462 0.782638,1.85261 0.967581,5.29114 1.160198,3.43958"
       id="path1014" /><path
       style="fill:none;stroke:#343434;stroke-width:0.264583"
       d="m 80.645663,182.4587 v 1.05834"
       id="path1012" /><path
       style="fill:none;stroke:#343434;stroke-width:0.264583"
       d="m 120.06858,182.19412 c 0,2.2225 0.0939,2.62387 0.52917,3.43958"
       id="path1010" /><path
       style="fill:none;stroke:#343434;stroke-width:0.264583"
       d="m 60.801912,181.92953 c 0.370152,1.61793 0.505354,2.38655 1.322917,2.91042"
       id="path1008" /><path
       style="fill:none;stroke:#343434;stroke-width:0.264583"
       d="m 96.256081,181.40037 1.058333,0.26458"
       id="path1006" /><path
       style="fill:none;stroke:#343434;stroke-width:0.264583"
       d="m 89.641497,181.66495 1.322917,-0.26458"
       id="path1004" /><path
       style="fill:none;stroke:#343434;stroke-width:0.264583"
       d="m 92.287331,181.13578 h 2.38125"
       id="path1002" /><path
       style="fill:none;stroke:#343434;stroke-width:0.264583"
       d="m 141.23525,180.34203 c 1.35652,3.06044 2.18969,8.94372 2.94111,12.43542 0.59002,2.74214 1.17422,2.68473 1.2819,5.02708 0.0505,1.10358 0.027,1.87828 0.16272,2.91042 0.52599,4.00632 0.32518,8.29099 1.17158,12.43542 0.27966,1.36948 1.33508,4.37303 1.82192,5.29166 1.17157,2.21139 1.60258,2.56329 1.83515,3.43959 0.10874,0.40931 -0.13097,0.68924 0.5752,2.11666"
       id="path1000" /><path
       style="fill:none;stroke:#343434;stroke-width:0.264583"
       d="m 61.860245,180.34203 c 0.694267,1.30096 0.733955,2.40163 0.5715,3.96875 -0.02461,0.23866 -0.468048,1.66106 0.514615,2.02513 0.611717,0.22674 0.821267,-0.33867 0.915988,-0.48181 0.333639,-0.5043 0.374385,-0.95329 0.379148,-2.33706"
       id="path998" /><path
       style="fill:none;stroke:#343434;stroke-width:0.264583"
       d="m 121.92066,177.96078 0.79375,3.175"
       id="path996" /><path
       style="fill:none;stroke:#343434;stroke-width:0.264583"
       d="m 105.78108,182.19412 c 0.37042,-0.37042 0.67813,-0.68263 1.58882,-1.58856 0.5297,-0.52679 1.18057,-1.20253 1.85076,-1.68249 2.44422,-1.74942 3.16283,-1.3925 4.49792,-0.43312"
       id="path994" /><path
       style="fill:none;stroke:#343434;stroke-width:0.264583"
       d="m 124.03733,176.1087 -0.13811,0.57124 c -0.39476,2.54793 -0.0648,2.99429 -1.13348,4.98501 -0.55853,1.04087 -0.53472,1.27529 -0.9689,2.37728 -0.41116,1.04378 -0.68421,1.10464 -1.38245,1.90103 -0.62415,0.71173 -0.92895,1.25175 -1.25465,1.80711 -0.42519,0.72469 -0.93531,1.48087 -1.47241,2.11666"
       id="path992" /><path
       style="fill:none;stroke:#343434;stroke-width:0.264583"
       d="m 81.17483,176.1087 c 7.94e-4,1.00092 0.135731,2.28891 0.219604,3.175 0.192088,2.02724 -0.275167,2.51672 -0.748771,3.175 -0.388673,-0.42201 -0.617273,-0.75512 -1.632744,-1.84864 -0.424656,-0.45694 -1.137973,-1.1176 -1.806839,-1.56316 -2.657211,-1.7698 -3.529013,-1.44992 -4.762501,-1.08612"
       id="path990" /><path
       style="fill:none;stroke:#343434;stroke-width:0.264583"
       d="m 105.78108,175.31495 c -0.30745,1.64994 -0.58552,4.4077 -0.61304,5.29167 -0.0262,0.83396 -0.0571,1.69016 0.55033,3.14722 0.36936,0.88556 0.94906,1.03822 1.12872,1.16787 1.03214,0.74559 1.50256,1.38006 2.37357,3.88699"
       id="path988" /><path
       style="fill:none;stroke:#343434;stroke-width:0.264583"
       d="m 90.170664,175.31495 1.058333,-0.26458"
       id="path986" /><path
       style="fill:none;stroke:#343434;stroke-width:0.264583"
       d="m 93.345664,174.78578 h 0.529167"
       id="path984" /><path
       style="fill:none;stroke:#343434;stroke-width:0.264583"
       d="m 67.151912,173.72745 c 1.724025,1.21761 3.084248,3.1541 4.497917,3.43958"
       id="path982" /><path
       style="fill:none;stroke:#343434;stroke-width:0.264583"
       d="m 120.86233,171.08162 c 1.30731,1.57877 3.72639,4.12221 4.7625,6.08541"
       id="path980" /><path
       style="fill:none;stroke:#343434;stroke-width:0.264583"
       d="m 75.883171,164.9962 c -1.468967,2.07963 -2.575984,4.64926 -3.202782,7.14375 -0.232568,0.92604 -0.436297,1.98543 -0.492125,2.91042 -0.07223,1.19406 -0.354806,1.58591 -0.12991,2.64583 0.268288,1.26471 0.445029,1.35467 0.0074,2.91042 -0.760677,2.70272 -2.660385,7.10591 -4.052623,9.525 -0.4445,0.77205 -0.890852,1.28402 -1.322123,2.11666 -1.339585,2.58684 -3.234267,4.9538 -4.455848,7.67292 -0.385763,0.85805 -0.572823,2.3376 0.699029,2.51275 2.757488,0.37994 6.154209,-4.01029 7.777428,-5.68775 2.1082,-2.17858 4.283075,-6.1722 5.894123,-8.72093 0.889,-1.40573 1.943894,-3.09906 2.491317,-3.54436 0.159014,-0.12938 0.875771,-0.86228 1.757627,-0.4363 0.572558,0.27649 0.779992,0.79746 0.950119,1.06204 0.573881,0.89271 1.468967,1.94522 1.784615,3.96663 0.505883,3.23983 0.787135,8.6151 -0.36195,11.90625 -0.995628,2.85142 -4.237038,4.52438 -3.110971,6.61459"
       id="path978" /><path
       style="fill:none;stroke:#343434;stroke-width:0.264583"
       d="m 109.74984,164.73162 3.39937,7.9375 0.56541,3.17368 0.004,1.58882"
       id="path976" /><path
       style="fill:none;stroke:#343434;stroke-width:0.264583"
       d="m 124.56651,159.43995 c -0.0955,1.20042 -0.47228,2.64636 -0.52917,3.96875"
       id="path974" /><path
       style="fill:none;stroke:#343434;stroke-width:0.264583"
       d="m 61.331087,159.17537 c 1.017587,1.6592 1.118658,3.13928 1.5875,5.55625"
       id="path972" /><path
       style="fill:none;stroke:#343434;stroke-width:0.264583"
       d="m 124.83109,155.73578 0.27093,3.25173 1.38034,1.5158 2.84665,4.22831"
       id="path966" /><path
       style="fill:none;stroke:#343434;stroke-width:0.264583"
       d="m 53.129003,163.14412 c 1.931987,-3.35809 6.049698,-7.2353 8.466667,-7.67292"
       id="path964" /><path
       style="fill:none;stroke:#343434;stroke-width:0.264583"
       d="m 124.56651,149.1212 c 1.45574,0.0122 4.81303,1.17369 7.40833,2.11667"
       id="path958" /><path
       style="fill:none;stroke:#343434;stroke-width:0.264583"
       d="m 62.654003,148.85662 c 0.370153,1.07394 0.446088,2.27621 0.124619,3.70416 -0.216958,0.96441 -0.545835,1.48511 -0.769144,2.38125 -0.115623,0.46435 -0.470429,3.55733 -0.680773,3.96875 -0.447675,0.87578 -0.885825,1.18163 -1.345935,1.85209 -1.060715,1.5449 -2.793736,4.55057 -3.678767,6.61458"
       id="path956" /><path
       style="fill:none;stroke:#343434;stroke-width:0.264583"
       d="m 124.30192,147.5337 c -0.0952,0.73237 -0.42994,1.43113 -0.60245,2.11667 -0.21379,0.84878 -0.0638,1.34488 0.14869,2.38125 0.25797,1.25624 0.3392,2.31907 1.0668,3.1025 0.64823,0.69771 1.33218,0.8935 2.0328,1.40944 2.08465,1.53564 4.25106,3.60733 5.29166,5.80681"
       id="path952" /><path
       style="fill:none;stroke:#343434;stroke-width:0.264583"
       d="m 115.30609,147.79828 1.32292,-0.52916"
       id="path950" /><path
       style="fill:none;stroke:#343434;stroke-width:0.264583"
       d="m 44.133171,150.7087 c 2.546085,-2.54582 5.086086,-4.48469 8.73125,-5.12895 3.509963,-0.62044 7.24297,0.76703 9.525001,2.21853"
       id="path946" /><path
       style="fill:none;stroke:#343434;stroke-width:0.264583"
       d="m 124.03734,143.30037 c 0,1.64624 -0.29104,2.35347 0.26458,4.23333 1.84336,-0.87339 3.08584,-1.71926 5.29167,-2.03729 4.59449,-0.66225 8.6069,1.79943 12.17084,4.94771"
       id="path942" /><path
       style="fill:none;stroke:#343434;stroke-width:0.264583"
       d="m 47.043586,142.50662 h 0.264583"
       id="path936" /><path
       style="fill:none;stroke:#343434;stroke-width:0.264583"
       d="m 58.156086,140.91912 c 1.407584,0.74163 2.188369,1.86108 4.497917,2.11666"
       id="path934" /><path
       style="fill:none;stroke:#343434;stroke-width:0.264583"
       d="m 128.79984,140.65453 c 1.49701,0.76809 2.7559,-0.18944 6.08542,0.35058 1.69624,0.27516 3.06599,0.93239 4.7625,1.50151"
       id="path932" /><path
       style="fill:none;stroke:#343434;stroke-width:0.264583"
       d="m 66.622754,132.71703 c -0.243946,1.36869 -2.597944,5.98091 -3.344334,8.73125 -0.366183,1.34991 -0.32041,2.74241 -0.473339,3.96875 -0.08599,0.69004 -0.154253,1.67852 -0.424128,2.37623 -0.43815,1.13162 -1.103841,1.22687 -2.1082,1.36763 -1.92696,0.27067 -4.216135,1.12395 -6.085417,2.07698"
       id="path926" /><path
       style="fill:none;stroke:#343434;stroke-width:0.264583"
       d="m 120.06859,132.45245 0.25559,1.58882 2.47835,5.55493 0.64691,2.11535 0.5879,1.58882 c 1.82695,-1.07739 2.5191,-1.00462 4.16481,-2.52122 2.54476,-2.34553 4.99798,-5.18477 8.53519,-5.82242 9.07389,-1.63618 15.39108,6.26719 17.22835,14.69364 0.19764,0.9062 0.23257,1.66634 0.23415,2.64583 0.005,3.27105 -0.45984,6.20686 -1.69439,9.26042 -2.85221,7.05564 -12.05997,14.85715 -20.00144,11.07678 -2.08042,-0.99034 -3.95579,-2.60747 -5.31098,-4.4622 -0.64241,-0.87921 -1.48961,-2.61064 -1.97803,-3.41471 -0.47096,-0.77549 -0.83714,-1.03082 -1.17766,-1.34779 -1.6383,2.45084 -1.72614,4.78314 -3.34857,7.40833 -0.58605,0.94827 -1.04854,1.65392 -1.73672,2.64584 -0.87948,1.26788 -2.22726,2.72335 -3.38032,3.62135 -0.37438,0.29131 -1.25492,0.6387 -1.57559,1.03108 -0.70194,0.85857 -0.38232,1.4478 -0.23231,2.49132 0.20585,1.43192 1.99867,5.99228 2.68632,7.40833 0.33099,0.68157 0.72549,1.16999 1.1094,1.85208 0.32887,0.5842 0.41063,1.00304 0.64373,1.58751 0.3802,0.95355 1.17634,2.24049 1.71212,3.17499 0.68871,1.20095 2.91359,3.95526 1.84176,5.19695 -1.11522,1.2917 -3.59701,-0.63288 -4.59899,-1.40811 -1.47769,-1.14327 -2.8231,-2.56355 -3.92774,-4.05342 -1.77958,-2.4003 -2.35267,-3.88858 -4.00976,-5.29167 -0.73686,1.27635 -1.36498,3.80974 -2.11666,6.61459"
       id="path924" /><path
       style="fill:none;stroke:#343434;stroke-width:0.264583"
       d="m 118.48109,131.12953 c -0.32332,0.65988 -0.76121,1.12898 0.26458,2.91042"
       id="path922" /><path
       style="fill:none;stroke:#343434;stroke-width:0.264583"
       d="m 118.21651,130.86495 1.32291,0.79375"
       id="path920" /><path
       style="fill:none;stroke:#343434;stroke-width:0.264583"
       d="m 62.654003,130.86495 c 1.021292,1.34012 1.588823,1.23322 2.381251,1.05833"
       id="path918" /><path
       style="fill:none;stroke:#343434;stroke-width:0.264583"
       d="m 68.474837,130.60037 c 0.373327,0.73924 0.445294,1.20412 0,2.64583"
       id="path916" /><path
       style="fill:none;stroke:#343434;stroke-width:0.264583"
       d="m 123.24363,131.39448 c 1.66079,-0.6014 2.55746,-1.28641 4.7625,-2.2651 1.76213,-0.78184 3.72189,-1.30149 5.55625,-1.5875 0.93795,-0.14605 1.63142,-0.11774 2.64583,-0.11615 0.85911,0.001 1.54544,0.0151 2.38126,0.16272 7.78562,1.37583 14.05572,6.91594 17.52785,13.86019 1.54199,3.08425 2.42358,6.38784 2.95354,9.78959 0.13203,0.84746 0.15478,1.49569 0.15611,2.38125 0.003,1.58961 0.0585,2.75378 -0.1532,4.23333 -0.43788,3.05753 -1.34461,6.47912 -2.83898,9.26042 -3.107,5.78194 -8.47434,11.06752 -14.99949,12.65026 -1.70312,0.41301 -3.18479,0.56171 -4.7625,0.57785 -1.10331,0.0114 -1.67005,-0.0524 -2.64584,-0.19183 -0.89376,-0.12779 -2.00712,-0.32147 -2.91041,-0.60854 -2.05052,-0.65167 -3.36312,-1.78805 -5.02709,-2.10899 0.005,1.8161 0.3183,3.62267 0.87578,6.61458 0.33311,1.78753 0.44714,2.79638 0.44714,4.7625"
       id="path914" /><path
       style="fill:none;stroke:#343434;stroke-width:0.264583"
       d="m 47.837376,141.97781 c 1.671637,-0.20399 2.452423,-0.72628 3.96875,-0.97234 3.277394,-0.53181 4.385204,0.59372 6.085417,-0.61516 -1.332177,-1.63115 -2.917031,-3.01916 -4.7625,-4.11321 -1.753923,-1.03981 -3.593836,-1.43351 -5.556251,-1.44277 -5.176044,-0.0246 -9.40689,2.98106 -12.203907,7.40806 -2.420011,3.83038 -3.40651,8.25262 -3.40651,12.7 0,1.59941 -0.02365,2.76993 0.295407,4.23334 0.553297,2.53762 1.262618,5.50254 2.483115,7.9375 2.533438,5.0546 6.80638,9.56574 12.302729,10.97253 0.894821,0.22887 1.443566,0.38656 2.38125,0.39952 1.15861,0.0161 1.821656,-0.15213 2.910417,-0.4945 3.291417,-1.03558 5.786702,-3.67903 7.553061,-6.64422 0.716491,-1.20279 1.6256,-3.58325 2.008452,-4.76197 0.327025,-1.007 0.513821,-1.41578 0.757237,-1.85261 1.469232,1.26391 1.790965,3.35465 2.917826,5.55625 0.538162,1.05145 1.177396,1.83277 0.947737,2.91041 -0.224631,1.05331 -1.284287,2.42438 -2.047875,3.43959 -1.65391,2.19869 -2.85115,3.87403 -4.968875,5.50307 -0.749036,0.57626 -1.089025,1.45785 -1.903413,1.76265 -1.111779,0.41566 -1.307835,-0.013 -2.618317,0.45932 -3.618177,1.3036 -8.174567,1.15358 -11.906251,-0.42995 -4.566126,-1.93781 -8.513154,-5.46047 -11.162507,-9.67634 -3.188626,-5.07418 -4.976707,-11.04689 -4.977077,-16.93334 -1.06e-4,-1.53961 -0.03855,-2.82971 0.152506,-4.23333 0.972979,-7.14772 3.333406,-13.79723 8.582634,-19.04603 3.289829,-3.28983 7.576953,-5.64489 12.166945,-6.45583 1.030552,-0.18204 1.806046,-0.16775 2.910417,-0.16246 2.188633,0.0103 4.211373,0.46276 6.35,1.30281 1.134004,0.44556 2.350559,1.16549 3.439584,1.57295 1.944158,0.72707 1.880658,-0.65881 2.645833,-2.08227"
       id="path912" /><path
       style="fill:none;stroke:#343434;stroke-width:0.264583"
       d="m 120.86238,126.89656 1.32292,1.32292"
       id="path910" /><path
       style="fill:none;stroke:#343434;stroke-width:0.264583"
       d="m 99.695712,126.63198 v 0.26458"
       id="path908" /><path
       style="fill:none;stroke:#343434;stroke-width:0.264583"
       d="m 90.170712,125.83823 c 1.491985,1.94178 2.064015,2.65721 3.704167,1.5875"
       id="path906" /><path
       style="fill:none;stroke:#343434;stroke-width:0.264583"
       d="m 96.520712,123.98614 c -0.236008,2.35294 -0.960702,3.70708 -2.910417,3.17501"
       id="path904" /><path
       style="fill:none;stroke:#343434;stroke-width:0.264583"
       d="m 77.206128,123.98614 c -0.31115,1.09247 -0.22225,1.46553 0.264583,2.38126"
       id="path902" /><path
       style="fill:none;stroke:#343434;stroke-width:0.264583"
       d="m 108.16238,122.92781 c 2.02195,0.58357 3.50864,1.50318 5.29167,3.18638 0.94985,0.89694 2.20371,2.24896 2.94111,3.15965 0.73871,0.91229 1.21232,1.26101 1.82139,1.59147 l -0.26459,-2.91041"
       id="path900" /><path
       style="fill:none;stroke:#343434;stroke-width:0.264583"
       d="m 91.493629,122.66323 c 1.420548,1.84375 1.346464,2.98185 2.116666,4.23333 l 0.79375,-1.5875"
       id="path898" /><path
       style="fill:none;stroke:#343434;stroke-width:0.264583"
       d="m 68.474877,130.07156 c 0.01085,-0.36936 -0.105833,-0.65193 0.202406,-1.58882 0.440267,-1.33773 2.542646,-4.91969 4.030928,-6.08409"
       id="path896" /><path
       style="fill:none;stroke:#343434;stroke-width:0.264583"
       d="m 95.991546,122.13406 0.529166,1.85208 c 1.059657,-0.56017 1.138767,-0.95236 1.5875,-1.58749"
       id="path894" /><path
       style="fill:none;stroke:#343434;stroke-width:0.264583"
       d="m 89.112378,122.13406 -0.529166,0.79375"
       id="path892" /><path
       style="fill:none;stroke:#343434;stroke-width:0.264583"
       d="m 65.829044,121.34031 c -0.313532,0.9815 -2.203451,2.92807 -2.829984,5.02576 -0.270669,0.90594 -0.270669,1.20703 -0.345017,1.58883 1.416051,0.13282 2.029884,-0.71755 3.175001,-1.85209"
       id="path890" /><path
       style="fill:none;stroke:#343434;stroke-width:0.264583"
       d="m 87.524878,120.81115 c 0.245534,1.02105 1.899444,3.7698 2.645834,4.7625 1.107017,-1.57446 1.093787,-2.38443 0.79375,-4.23334"
       id="path888" /><path
       style="fill:none;stroke:#343434;stroke-width:0.264583"
       d="m 97.579046,120.28198 c 0.117739,0.50758 0.279135,1.26201 0.724429,2.11667 1.058069,2.03035 0.832379,2.02795 1.656821,3.96875 1.153584,-1.44511 0.478104,-2.68378 1.587504,-4.7625"
       id="path886" /><path
       style="fill:none;stroke:#343434;stroke-width:0.264583"
       d="m 66.35821,127.9549 -0.742421,3.66765 0.992188,0.67151 2.134394,-1.80075 2.501106,-2.53841 3.845984,-3.50309 1.776413,-1.12591 2.986087,-3.04392"
       id="path884" /><path
       style="fill:none;stroke:#343434;stroke-width:0.264583"
       d="m 118.48109,120.01739 c 1.12104,1.56838 3.56844,3.81408 4.24762,6.61459 0.20161,0.83132 0.0963,1.00303 0.0175,1.85208 -0.17727,1.90421 -0.12832,4.49739 -2.10608,3.78592 -0.30903,-0.11139 -0.5506,-0.38973 -0.83608,-0.61092 l 0.52916,-2.64583"
       id="path882" /><path
       style="fill:none;stroke:#343434;stroke-width:0.264583"
       d="m 106.57484,119.75281 1.23296,2.91042 -0.70379,3.175"
       id="path880" /><path
       style="fill:none;stroke:#343434;stroke-width:0.264583"
       d="m 99.166506,118.16531 2.189424,3.25483 4.11533,2.83466 1.63275,2.37718"
       id="path878" /><path
       style="fill:none;stroke:#343434;stroke-width:0.264583"
       d="m 117.68734,117.90073 c 1.17951,1.81911 -0.0159,2.38588 -1.32292,2.38125"
       id="path876" /><path
       style="fill:none;stroke:#343434;stroke-width:0.264583"
       d="m 87.524838,117.90073 c -0.0093,1.01079 0.148961,1.78588 -0.643996,2.3845 -0.495829,0.37441 -1.382712,0.49493 -2.001837,0.71006 -2.278857,0.79166 -4.376209,1.89413 -5.888303,3.78175 -0.747712,0.93366 -1.248039,1.30487 -1.784614,2.38411"
       id="path874" /><path
       style="fill:none;stroke:#343434;stroke-width:0.264583"
       d="m 75.089421,113.93198 2.910417,0.52917"
       id="path872" /><path
       style="fill:none;stroke:#343434;stroke-width:0.264583"
       d="m 72.179004,112.34448 c 1.326356,0.81719 1.883569,0.82685 2.910417,1.5875 -1.690159,1.22989 -4.453202,1.13149 -7.142692,3.27808 -1.022615,0.81629 -2.092061,2.57932 -1.766094,3.24832 0.57785,1.18589 1.903677,0.0858 2.823369,-0.1764"
       id="path870" /><path
       style="fill:none;stroke:#343434;stroke-width:0.264583"
       d="m 105.25192,110.75698 c 1.63645,0.38962 3.77508,-0.0476 6.61459,1.26881 3.47742,1.61221 5.54143,3.78415 5.82083,5.87494 -1.76504,-0.36917 -4.35187,-1.58713 -7.67292,-1.5875"
       id="path868" /><path
       style="fill:none;stroke:#343434;stroke-width:0.264583"
       d="m 106.31026,108.37573 h 1.5875"
       id="path866" /><path
       style="fill:none;stroke:#343434;stroke-width:0.264583"
       d="m 99.695672,108.11115 -1.5875,1.5875"
       id="path864" /><path
       style="fill:none;stroke:#343434;stroke-width:0.264583"
       d="m 91.229005,109.16948 c 1.344348,-1.49209 1.545167,-2.31405 3.175,-2.64583"
       id="path862" /><path
       style="fill:none;stroke:#343434;stroke-width:0.264583"
       d="m 83.820671,105.99412 c 0.411163,0.74372 0.883444,1.32757 1.500982,2.64583 0.372798,0.79605 0.771525,1.83875 0.187589,2.57397 -0.826029,1.04005 -2.132806,0.30353 -3.276071,0.002 -2.120635,-0.55999 -4.208462,-0.63828 -6.35,-0.43915 -1.897327,0.17642 -3.250407,1.15697 -4.7625,1.56771"
       id="path860" /><path
       style="fill:none;stroke:#343434;stroke-width:0.264583"
       d="m 100.75401,105.46495 c -0.2974,1.18428 -0.64665,1.56456 -1.058338,2.64584 2.037818,0.56007 4.690798,-0.76203 6.614588,0.26458 l -2.64584,2.64583"
       id="path858" /><path
       style="fill:none;stroke:#343434;stroke-width:0.264583"
       d="m 95.197756,105.20037 -0.793751,1.32292 c 1.632744,0.5298 2.226469,-0.41297 4.497917,-1.08265 2.014278,-0.59386 1.847588,-0.021 3.704168,-0.24027"
       id="path856" /><path
       style="fill:none;stroke:#343434;stroke-width:0.264583"
       d="m -280.37749,127.77387 c 1.49463,0.2222 2.64531,-0.0471 4.7625,1.00811 2.78818,1.38954 4.23466,2.87804 4.7625,4.54814"
       id="path852-2" /><path
       style="fill:none;stroke:#343434;stroke-width:0.264583"
       d="m -289.37332,276.4697 c 2.05422,0.98848 3.87218,0.7792 7.14375,0"
       id="path1094-3" /><path
       style="fill:none;stroke:#343434;stroke-width:0.264583"
       d="m -242.54207,275.67595 c -1.64359,1.00674 -3.07763,0.8935 -5.02708,1.10226 -0.63077,0.0675 -1.41949,0.22807 -2.11006,0.19288 -0.71437,-0.0362 -1.02129,-0.16352 -1.32953,-0.23681"
       id="path1092-7" /><path
       style="fill:none;stroke:#343434;stroke-width:0.264583"
       d="m -274.82124,271.7072 c 1.36393,0 2.49,0 3.70417,0"
       id="path1090-5" /><path
       style="fill:none;stroke:#343434;stroke-width:0.264583"
       d="m -236.19207,271.44262 v 1.5875"
       id="path1088-9" /><path
       style="fill:none;stroke:#343434;stroke-width:0.264583"
       d="m -275.87957,267.47387 c 0.68553,1.81716 0.90382,2.47068 0.82285,4.23333 -0.027,0.59161 -0.10001,1.04272 -0.37491,1.58644 -0.82286,1.62798 -3.76026,3.35492 -5.724,3.04589 -1.05648,-0.1659 -1.02261,-1.15147 -1.19644,-1.9865 -0.29713,-1.42716 -1.54623,-3.84783 -3.31709,-3.84783 -2.37728,0 -3.06228,3.33798 -3.43958,4.64158"
       id="path1086-2" /><path
       style="fill:none;stroke:#343434;stroke-width:0.264583"
       d="m -255.24207,263.50512 h 5.02708"
       id="path1084-2" /><path
       style="fill:none;stroke:#343434;stroke-width:0.264583"
       d="m -288.05041,263.50512 h 1.32292"
       id="path1082-8" /><path
       style="fill:none;stroke:#343434;stroke-width:0.264583"
       d="m -239.10249,262.71137 c 0.29634,1.53723 1.3425,2.78765 1.86214,4.23333 0.91414,2.54371 0.24421,2.99138 1.04828,4.49792 0.29289,-0.35613 0.57997,-0.71438 0.98319,-1.32821 0.3855,-0.58685 1.18295,-1.64888 2.19208,-1.48246 2.27991,0.37544 2.55058,2.78844 2.64556,3.869"
       id="path1080-9" /><path
       style="fill:none;stroke:#343434;stroke-width:0.264583"
       d="m -254.7129,261.91762 h 3.96875"
       id="path1078-7" /><path
       style="fill:none;stroke:#343434;stroke-width:0.264583"
       d="m -289.90249,261.91762 h 2.64583"
       id="path1076-3" /><path
       style="fill:none;stroke:#343434;stroke-width:0.264583"
       d="m -275.87957,261.65304 c 0.94562,0.11959 1.42743,0.26326 3.43958,0.26458"
       id="path1074-6" /><path
       style="fill:none;stroke:#343434;stroke-width:0.264583"
       d="m -249.42124,261.38845 h 0.26459"
       id="path1072-1" /><path
       style="fill:none;stroke:#343434;stroke-width:0.264583"
       d="m -286.46291,261.38845 h 0.26459"
       id="path1070-2" /><path
       style="fill:none;stroke:#343434;stroke-width:0.264583"
       d="m -238.30874,260.85928 h 2.91042"
       id="path1068-9" /><path
       style="fill:none;stroke:#343434;stroke-width:0.264583"
       d="m -275.87957,260.33012 c 0.52599,0 0.74295,0 2.11667,0"
       id="path1066-3" /><path
       style="fill:none;stroke:#343434;stroke-width:0.264583"
       d="m -254.7129,259.80095 h 3.175"
       id="path1064-1" /><path
       style="fill:none;stroke:#343434;stroke-width:0.264583"
       d="m -267.94207,250.27595 c 1.51262,0.12356 2.11481,0.38629 3.175,0.52917"
       id="path1062-9" /><path
       style="fill:none;stroke:#343434;stroke-width:0.264583"
       d="m -279.58374,246.57178 c 0.0669,0.84905 0.13732,1.90633 0.37677,3.70417 0.13097,0.9824 0.1524,1.6428 0.36909,2.64583 0.67681,3.12976 2.02089,4.00368 2.65404,7.40834 0.43683,2.3487 -0.70168,4.77679 0.56885,6.87916 1.03955,-0.58155 1.80287,-1.21655 3.11838,-0.11297 0.74083,0.6215 1.0922,1.56395 1.30307,2.49423 0.15002,0.66039 0.0802,1.40361 0.74163,1.83435 1.28508,0.83661 2.82866,-0.24977 4.09734,-0.51144"
       id="path1060-4" /><path
       style="fill:none;stroke:#343434;stroke-width:0.264583"
       d="m -272.96915,243.39678 1.58749,3.43959"
       id="path1058-7" /><path
       style="fill:none;stroke:#343434;stroke-width:0.264583"
       d="m -239.10249,243.1322 c -0.48418,1.87113 -0.96467,4.37806 -1.05833,5.55625"
       id="path1056-8" /><path
       style="fill:none;stroke:#343434;stroke-width:0.264583"
       d="m -266.08999,241.5447 c 0.7964,2.55111 0.59875,3.72295 1.85209,5.29167"
       id="path1054-4" /><path
       style="fill:none;stroke:#343434;stroke-width:0.264583"
       d="m -230.37124,240.75095 -2.60482,3.43932 -3.74518,3.39804 -3.06123,1.62534 -0.7874,1.59173 -0.39502,3.43932 -0.2069,2.11667 0.26881,2.38125 1.22317,3.11203 1.90024,0.59743 3.70417,-0.005"
       id="path1052-5" /><path
       style="fill:none;stroke:#343434;stroke-width:0.264583"
       d="m -219.7879,230.96137 c -0.31803,0.41725 -0.71623,0.84719 -0.99166,1.85261 -0.34766,1.26974 -0.85275,3.64305 -1.23719,5.02656 -1.77086,6.37063 -4.77388,13.42469 -5.15488,20.10833 -0.14869,2.61064 1.25651,5.52106 1.97564,7.9375 0.20903,0.7022 0.36381,1.39224 0.3601,2.11666 -0.005,0.88689 -0.21299,1.58459 -0.77099,2.37067 -1.15438,1.62613 -2.77707,2.08995 -4.49977,2.55164 -1.48114,0.39714 -2.60959,0.68527 -4.23334,0.62918 -0.77999,-0.0273 -1.38377,-0.30136 -2.11666,-0.23151 -0.7702,0.0736 -1.25651,0.52017 -1.85209,0.91784 -0.78554,0.52414 -2.58101,1.83436 -3.64384,1.37213 -0.8374,-0.36407 -0.7866,-1.29249 -1.01203,-2.05369 -0.49742,-1.67746 -2.04047,-3.98198 -4.07538,-4.09337 -2.95275,-0.16166 -3.36021,4.43812 -4.23333,5.94545"
       id="path1050-0" /><path
       style="fill:none;stroke:#343434;stroke-width:0.264583"
       d="m -282.22957,230.96137 v 0.26458"
       id="path1048-3" /><path
       style="fill:none;stroke:#343434;stroke-width:0.264583"
       d="m -284.87541,229.10928 1.5875,-0.26458"
       id="path1046-6" /><path
       style="fill:none;stroke:#343434;stroke-width:0.264583"
       d="m -280.64207,228.58012 0.52916,0.79375"
       id="path1044-1" /><path
       style="fill:none;stroke:#343434;stroke-width:0.264583"
       d="m -288.05041,228.31553 c 2.15794,0.44318 2.94852,0.52229 3.43959,2.38125"
       id="path1042-0" /><path
       style="fill:none;stroke:#343434;stroke-width:0.264583"
       d="m -278.78999,226.99262 0.79375,0.52916"
       id="path1040-6" /><path
       style="fill:none;stroke:#343434;stroke-width:0.264583"
       d="m -254.7129,224.87595 c -1.30466,1.30466 -2.23388,2.08333 -3.30253,3.43958 -0.82392,1.04537 -1.56925,2.26616 -2.18626,3.43959 -0.44555,0.84772 -0.85936,1.49595 -1.29143,2.38125 -0.38258,0.78396 -0.5752,1.54437 -0.81571,2.38125 -0.28125,0.97869 -0.56912,1.90632 -0.74797,2.91041 -0.30163,1.69202 -0.32888,2.76067 -0.39132,4.7625 -0.0728,2.31564 -1.16443,3.05383 -1.0623,6.08542 0.0421,1.25254 0.0942,1.54543 0.0301,2.64583 -0.0841,1.4478 -0.32517,3.00911 -0.60325,4.49792 -0.14313,0.76676 -0.2061,1.34144 -0.2114,2.11667 -0.0119,1.68037 0.81677,3.66395 0.75724,5.29166 -0.0317,0.87022 -0.35348,1.57004 -0.6223,2.38125 -0.39635,1.19672 -0.82788,2.53709 -0.81783,3.70417 0.007,0.77841 0.23522,1.64386 0.68369,2.38019 0.70538,1.15729 1.92087,1.93464 3.17288,2.35453 0.57918,0.1942 1.49834,0.37492 2.05634,0.13176 0.65908,-0.28733 0.69903,-0.70829 0.85302,-1.42822 0.32438,-1.51527 1.04458,-3.24458 2.65086,-4.04892 1.16602,-0.58393 2.23176,-0.27014 3.07049,0.64585 0.74586,0.81465 1.22502,2.11032 1.54385,3.13981 0.2278,0.73501 0.51117,1.12527 0.39317,1.82325 -0.13785,0.81306 -0.92261,1.00647 -1.57216,1.03478 -0.59214,0.0257 -1.26576,-0.14737 -1.85182,-0.18865 -1.62295,-0.1135 -3.0689,-0.20849 -4.49791,-0.55271"
       id="path1038-3" /><path
       style="fill:none;stroke:#343434;stroke-width:0.264583"
       d="m -281.17124,238.89887 c -1.53326,-0.0317 -5.24007,-0.75089 -7.40833,-1.93464 -1.87643,-1.02473 -3.43773,-2.32304 -4.58153,-4.14972 -0.4183,-0.66807 -0.45799,-1.12739 -1.05463,-1.54622 -1.32821,-0.93266 -2.03041,-1.15623 -1.73699,-3.48192 0.27226,-2.15768 2.01454,-3.31602 3.93251,-3.15939 1.84308,0.15081 3.40624,2.93132 3.70522,4.21772"
       id="path1036-2" /><path
       style="fill:none;stroke:#343434;stroke-width:0.264583"
       d="m -235.92749,224.34678 v 0.52917"
       id="path1034-0" /><path
       style="fill:none;stroke:#343434;stroke-width:0.264583"
       d="m -234.33999,221.70095 c -0.0484,1.05807 -0.38232,2.6289 -0.63235,3.43958 -0.29236,0.94907 -0.78978,1.30043 -1.24539,2.64584 -0.48446,1.42981 -0.77788,3.04429 -0.99722,4.49791 -0.16272,1.08003 -0.25241,1.87855 -0.41222,2.91042 -0.45085,2.90566 -1.19353,5.58509 -1.21073,7.67292 2.93423,-0.70353 5.92561,-3.71607 8.10286,-6.61459 2.18043,-2.90274 3.93833,-6.07218 4.86172,-9.525"
       id="path1032-6" /><path
       style="fill:none;stroke:#343434;stroke-width:0.264583"
       d="m -291.48999,219.3197 c 0.66172,0.92684 1.34726,2.02592 2.38125,3.96875"
       id="path1030-1" /><path
       style="fill:none;stroke:#343434;stroke-width:0.264583"
       d="m -218.20041,217.46762 c -0.24818,0.46249 -0.44477,0.85672 -0.60008,1.85261 -0.28231,1.80949 -0.69188,6.56855 -0.72363,8.46614 -0.0143,0.8464 -0.32041,2.00131 -0.12224,2.91041 0.23019,1.05622 0.61198,1.36261 0.84005,2.38125 0.42598,1.90315 0.96679,4.45321 1.71821,6.35 0.39634,1.00039 0.90884,2.13096 1.39276,2.91042 0.49213,0.79296 0.7292,1.025 0.98346,1.32265 0.38391,0.44927 0.67072,0.7247 1.00383,1.01918 0.42201,0.37306 0.86863,0.61859 1.32847,0.83317"
       id="path1028-5" /><path
       style="fill:none;stroke:#343434;stroke-width:0.264583"
       d="m -249.95041,217.20303 c -0.3736,0.6059 -0.63791,0.91229 -1.32292,2.11667"
       id="path1026-5" /><path
       style="fill:none;stroke:#343434;stroke-width:0.264583"
       d="m -272.44,210.05929 h 6.61459"
       id="path1024-4" /><path
       style="fill:none;stroke:#343434;stroke-width:0.264583"
       d="m -284.61083,209.26553 c 0.9062,1.37319 0.98743,4.04654 2.11667,6.35"
       id="path1022-7" /><path
       style="fill:none;stroke:#343434;stroke-width:0.264583"
       d="m -299.16291,209.26553 c 0.82735,1.02235 1.41949,2.74135 3.175,5.02709"
       id="path1020-6" /><path
       style="fill:none;stroke:#343434;stroke-width:0.264583"
       d="m -305.51292,207.14887 c -0.0966,2.25213 -1.86928,10.61958 -1.56368,15.08125 0.0561,0.82021 0.18177,1.34779 0.23415,2.11666 0.15002,2.19763 0.57336,5.13028 1.01283,7.40834 0.81227,4.21084 2.14762,8.62885 3.49144,12.7 1.49093,4.51617 3.91954,10.63969 3.96796,15.34583 0.008,0.80566 0.022,1.35017 -0.12277,2.11667 -0.3728,1.9767 -1.67587,3.6957 -2.5863,5.55625 -0.7665,1.56633 -1.33641,3.30597 -0.84243,5.02708 0.96652,3.36921 7.13819,4.0857 10.16714,4.33493 0.82841,0.0683 1.71662,0.007 2.07433,-0.68077 0.31856,-0.6133 -0.14684,-1.07553 -0.31009,-1.56104 -0.22595,-0.67231 -0.29422,-1.60602 -0.60351,-2.35664 -0.8472,-2.05502 -2.93979,-2.54715 -4.46035,-0.76703 -1.31075,1.53485 -1.28561,2.80935 -1.46288,4.20555"
       id="path1018-5" /><path
       style="fill:none;stroke:#343434;stroke-width:0.264583"
       d="m -256.82958,206.88428 c -1.26841,1.6682 -1.64888,2.17858 -2.20795,4.49792 -0.35745,1.48326 -0.84852,4.85696 -1.23534,6.61459 -1.1176,5.07947 -2.87311,9.9769 -6.20448,14.02291 -2.00077,2.4302 -4.62624,4.42331 -7.55015,5.60308 -2.50243,1.00992 -4.97601,0.97817 -6.87916,1.54067 0.72072,2.4384 -0.19077,4.5302 1.73566,6.80667 0.67707,0.8001 1.75022,1.26947 2.49767,1.91162 1.05172,0.90328 3.88144,2.853 5.29167,3.48826 0.68924,0.31036 2.03517,1.11575 2.75166,0.54928 0.68237,-0.53922 0.55695,-1.34938 0.34026,-1.8841 -0.24553,-0.60616 -2.23811,-2.14868 -2.82734,-2.45004 -0.94165,-0.48154 -1.43483,-0.45614 -2.03068,-1.05331 -1.04378,-1.04563 -2.10661,-2.87046 -3.26099,-4.45796"
       id="path1016-6" /><path
       style="fill:none;stroke:#343434;stroke-width:0.264583"
       d="m -304.45458,206.6197 0.78264,1.85261 0.96758,5.29114 1.16019,3.43958"
       id="path1014-9" /><path
       style="fill:none;stroke:#343434;stroke-width:0.264583"
       d="m -281.965,205.0322 v 1.05834"
       id="path1012-3" /><path
       style="fill:none;stroke:#343434;stroke-width:0.264583"
       d="m -242.54208,204.76762 c 0,2.2225 0.0939,2.62387 0.52917,3.43958"
       id="path1010-7" /><path
       style="fill:none;stroke:#343434;stroke-width:0.264583"
       d="m -301.80875,204.50303 c 0.37015,1.61793 0.50536,2.38655 1.32292,2.91042"
       id="path1008-4" /><path
       style="fill:none;stroke:#343434;stroke-width:0.264583"
       d="m -266.35458,203.97387 1.05833,0.26458"
       id="path1006-5" /><path
       style="fill:none;stroke:#343434;stroke-width:0.264583"
       d="m -272.96916,204.23845 1.32291,-0.26458"
       id="path1004-2" /><path
       style="fill:none;stroke:#343434;stroke-width:0.264583"
       d="m -270.32333,203.70928 h 2.38125"
       id="path1002-5" /><path
       style="fill:none;stroke:#343434;stroke-width:0.264583"
       d="m -221.37541,202.91553 c 1.35652,3.06044 2.18969,8.94372 2.94111,12.43542 0.59002,2.74214 1.17422,2.68473 1.2819,5.02708 0.0505,1.10358 0.027,1.87828 0.16272,2.91042 0.52599,4.00632 0.32518,8.29099 1.17158,12.43542 0.27966,1.36948 1.33508,4.37303 1.82192,5.29166 1.17157,2.21139 1.60258,2.56329 1.83515,3.43959 0.10874,0.40931 -0.13097,0.68924 0.5752,2.11666"
       id="path1000-4" /><path
       style="fill:none;stroke:#343434;stroke-width:0.264583"
       d="m -300.75041,202.91553 c 0.69426,1.30096 0.73395,2.40163 0.57149,3.96875 -0.0246,0.23866 -0.46804,1.66106 0.51462,2.02513 0.61172,0.22674 0.82127,-0.33867 0.91599,-0.48181 0.33364,-0.5043 0.37438,-0.95329 0.37915,-2.33706"
       id="path998-7" /><path
       style="fill:none;stroke:#343434;stroke-width:0.264583"
       d="m -240.69,200.53428 0.79375,3.175"
       id="path996-4" /><path
       style="fill:none;stroke:#343434;stroke-width:0.264583"
       d="m -256.82958,204.76762 c 0.37042,-0.37042 0.67813,-0.68263 1.58882,-1.58856 0.5297,-0.52679 1.18057,-1.20253 1.85076,-1.68249 2.44422,-1.74942 3.16283,-1.3925 4.49792,-0.43312"
       id="path994-4" /><path
       style="fill:none;stroke:#343434;stroke-width:0.264583"
       d="m -238.57333,198.6822 -0.13811,0.57124 c -0.39476,2.54793 -0.0648,2.99429 -1.13348,4.98501 -0.55853,1.04087 -0.53472,1.27529 -0.9689,2.37728 -0.41116,1.04378 -0.68421,1.10464 -1.38245,1.90103 -0.62415,0.71173 -0.92895,1.25175 -1.25465,1.80711 -0.42519,0.72469 -0.93531,1.48087 -1.47241,2.11666"
       id="path992-3" /><path
       style="fill:none;stroke:#343434;stroke-width:0.264583"
       d="m -281.43583,198.6822 c 7.9e-4,1.00092 0.13573,2.28891 0.2196,3.175 0.19209,2.02724 -0.27516,2.51672 -0.74877,3.175 -0.38867,-0.42201 -0.61727,-0.75512 -1.63274,-1.84864 -0.42466,-0.45694 -1.13797,-1.1176 -1.80684,-1.56316 -2.65721,-1.7698 -3.52901,-1.44992 -4.7625,-1.08612"
       id="path990-0" /><path
       style="fill:none;stroke:#343434;stroke-width:0.264583"
       d="m -256.82958,197.88845 c -0.30745,1.64994 -0.58552,4.4077 -0.61304,5.29167 -0.0262,0.83396 -0.0571,1.69016 0.55033,3.14722 0.36936,0.88556 0.94906,1.03822 1.12872,1.16787 1.03214,0.74559 1.50256,1.38006 2.37357,3.88699"
       id="path988-7" /><path
       style="fill:none;stroke:#343434;stroke-width:0.264583"
       d="m -272.44,197.88845 1.05834,-0.26458"
       id="path986-8" /><path
       style="fill:none;stroke:#343434;stroke-width:0.264583"
       d="m -269.265,197.35928 h 0.52917"
       id="path984-6" /><path
       style="fill:none;stroke:#343434;stroke-width:0.264583"
       d="m -295.45875,196.30095 c 1.72403,1.21761 3.08425,3.1541 4.49792,3.43958"
       id="path982-8" /><path
       style="fill:none;stroke:#343434;stroke-width:0.264583"
       d="m -241.74833,193.65512 c 1.30731,1.57877 3.72639,4.12221 4.7625,6.08541"
       id="path980-8" /><path
       style="fill:none;stroke:#343434;stroke-width:0.264583"
       d="m -286.72749,187.5697 c -1.46897,2.07963 -2.57598,4.64926 -3.20278,7.14375 -0.23257,0.92604 -0.4363,1.98543 -0.49213,2.91042 -0.0722,1.19406 -0.3548,1.58591 -0.12991,2.64583 0.26829,1.26471 0.44503,1.35467 0.007,2.91042 -0.76067,2.70272 -2.66038,7.10591 -4.05262,9.525 -0.4445,0.77205 -0.89085,1.28402 -1.32212,2.11666 -1.33959,2.58684 -3.23427,4.9538 -4.45585,7.67292 -0.38576,0.85805 -0.57282,2.3376 0.69903,2.51275 2.75749,0.37994 6.15421,-4.01029 7.77743,-5.68775 2.1082,-2.17858 4.28307,-6.1722 5.89412,-8.72093 0.889,-1.40573 1.94389,-3.09906 2.49132,-3.54436 0.15901,-0.12938 0.87577,-0.86228 1.75762,-0.4363 0.57256,0.27649 0.78,0.79746 0.95012,1.06204 0.57388,0.89271 1.46897,1.94522 1.78462,3.96663 0.50588,3.23983 0.78713,8.6151 -0.36195,11.90625 -0.99563,2.85142 -4.23704,4.52438 -3.11097,6.61459"
       id="path978-4" /><path
       style="fill:none;stroke:#343434;stroke-width:0.264583"
       d="m -252.86082,187.30512 3.39937,7.9375 0.56541,3.17368 0.004,1.58882"
       id="path976-3" /><path
       style="fill:none;stroke:#343434;stroke-width:0.264583"
       d="m -238.04415,182.01345 c -0.0955,1.20042 -0.47228,2.64636 -0.52917,3.96875"
       id="path974-1" /><path
       style="fill:none;stroke:#343434;stroke-width:0.264583"
       d="m -301.27957,181.74887 c 1.01758,1.6592 1.11866,3.13928 1.5875,5.55625"
       id="path972-4" /><path
       style="fill:none;stroke:#343434;stroke-width:0.264583"
       d="m -286.19832,179.36762 h 0.52916"
       id="path970-9" /><path
       style="fill:none;stroke:#343434;stroke-width:0.264583"
       d="m -253.91915,178.57387 v 0.26458"
       id="path968-2" /><path
       style="fill:none;stroke:#343434;stroke-width:0.264583"
       d="m -237.77957,178.30928 0.27093,3.25173 1.38034,1.5158 2.84665,4.22831"
       id="path966-0" /><path
       style="fill:none;stroke:#343434;stroke-width:0.264583"
       d="m -309.48166,185.71762 c 1.93199,-3.35809 6.0497,-7.2353 8.46667,-7.67292"
       id="path964-6" /><path
       style="fill:none;stroke:#343434;stroke-width:0.264583"
       d="m -253.91915,172.75303 1.5875,1.05834"
       id="path962-8" /><path
       style="fill:none;stroke:#343434;stroke-width:0.264583"
       d="m -284.61082,172.75303 -1.85209,1.05834"
       id="path960-9" /><path
       style="fill:none;stroke:#343434;stroke-width:0.264583"
       d="m -238.04415,171.6947 c 1.45574,0.0122 4.81303,1.17369 7.40833,2.11667"
       id="path958-2" /><path
       style="fill:none;stroke:#343434;stroke-width:0.264583"
       d="m -299.95666,171.43012 c 0.37016,1.07394 0.44609,2.27621 0.12462,3.70416 -0.21696,0.96441 -0.54583,1.48511 -0.76914,2.38125 -0.11562,0.46435 -0.47043,3.55733 -0.68077,3.96875 -0.44768,0.87578 -0.88583,1.18163 -1.34594,1.85209 -1.06071,1.5449 -2.79374,4.55057 -3.67877,6.61458"
       id="path956-6" /><path
       style="fill:none;stroke:#343434;stroke-width:0.264583"
       d="m -291.22541,170.37178 c 0.0598,0.75618 0.16034,1.32715 0.26565,2.38125 0.13573,1.35864 1.07764,3.17077 2.38045,4.08808 2.45454,1.72826 3.97987,0.10531 5.55599,-0.38391"
       id="path954-6" /><path
       style="fill:none;stroke:#343434;stroke-width:0.264583"
       d="m -238.30874,170.1072 c -0.0952,0.73237 -0.42994,1.43113 -0.60245,2.11667 -0.21379,0.84878 -0.0638,1.34488 0.14869,2.38125 0.25797,1.25624 0.3392,2.31907 1.0668,3.1025 0.64823,0.69771 1.33218,0.8935 2.0328,1.40944 2.08465,1.53564 4.25106,3.60733 5.29166,5.80681"
       id="path952-4" /><path
       style="fill:none;stroke:#343434;stroke-width:0.264583"
       d="m -247.30457,170.37178 1.32292,-0.52916"
       id="path950-9" /><path
       style="fill:none;stroke:#343434;stroke-width:0.264583"
       d="m -289.90249,168.25512 -1.32291,2.11666 -1.5875,-0.79375"
       id="path948-5" /><path
       style="fill:none;stroke:#343434;stroke-width:0.264583"
       d="m -318.47749,173.2822 c 2.54609,-2.54582 5.08609,-4.48469 8.73125,-5.12895 3.50996,-0.62044 7.24297,0.76703 9.525,2.21853"
       id="path946-0" /><path
       style="fill:none;stroke:#343434;stroke-width:0.264583"
       d="m -249.15665,166.66762 0.36248,0.57123 c 0.0762,0.2204 0.14287,0.38497 0.23415,0.7583 0.45694,1.86769 1.14724,3.79651 0.94113,5.28505 -0.2593,1.87431 -2.44476,4.41008 -4.71276,4.38573 -1.93834,-0.0206 -3.76185,-2.40373 -3.53933,-3.06017 0.27331,-0.80645 0.92762,-0.66595 1.69068,-2.14312 0.39555,-0.76544 0.0955,-1.89786 0.11404,-2.09286 0.17304,-1.82139 2.45851,-2.23334 5.17419,-2.11666"
       id="path944-4" /><path
       style="fill:none;stroke:#343434;stroke-width:0.264583"
       d="m -238.57332,165.87387 c 0,1.64624 -0.29104,2.35347 0.26458,4.23333 1.84336,-0.87339 3.08584,-1.71926 5.29167,-2.03729 4.59449,-0.66225 8.6069,1.79943 12.17084,4.94771"
       id="path942-8" /><path
       style="fill:none;stroke:#343434;stroke-width:0.264583"
       d="m -254.7129,167.19678 2.11666,-1.37451 2.91042,0.31618"
       id="path940-7" /><path
       style="fill:none;stroke:#343434;stroke-width:0.264583"
       d="m -283.02332,176.98637 c 0.27067,-0.86942 0.48524,-2.03041 0.10398,-2.64187 -0.33073,-0.53049 -1.00939,-0.54266 -1.57321,-1.90103 -0.22384,-0.53869 -0.0519,-1.14935 -0.0405,-1.2782 0.0582,-0.65696 0.30347,-1.27159 -0.53499,-2.30717 -1.42901,-1.76556 -3.47107,-0.41989 -5.09905,-0.86757 0.20929,-0.4437 0.32385,-1.0795 1.58882,-1.79175 0.70565,-0.39741 1.37557,-0.59664 2.11535,-0.5215 1.09405,0.11113 2.08518,1.0295 2.64583,1.78409"
       id="path938-1" /><path
       style="fill:none;stroke:#343434;stroke-width:0.264583"
       d="m -315.56707,165.08012 h 0.26458"
       id="path936-7" /><path
       style="fill:none;stroke:#343434;stroke-width:0.264583"
       d="m -304.45457,163.49262 c 1.40758,0.74163 2.18836,1.86108 4.49791,2.11666"
       id="path934-2" /><path
       style="fill:none;stroke:#343434;stroke-width:0.264583"
       d="m -233.81082,163.22803 c 1.49701,0.76809 2.7559,-0.18944 6.08542,0.35058 1.69624,0.27516 3.06599,0.93239 4.7625,1.50151"
       id="path932-7" /><path
       style="fill:none;stroke:#343434;stroke-width:0.264583"
       d="m -255.50665,160.5822 c 2.13889,-1.50945 5.19615,-0.97287 7.40833,1.05833"
       id="path930-2" /><path
       style="fill:none;stroke:#343434;stroke-width:0.264583"
       d="m -290.43166,161.37595 c 1.9603,-1.69069 4.69874,-2.1709 6.61459,-1.32292"
       id="path928-2" /><path
       style="fill:none;stroke:#343434;stroke-width:0.264583"
       d="m -295.98791,155.29053 c -0.24394,1.36869 -2.59794,5.98091 -3.34433,8.73125 -0.36618,1.34991 -0.32041,2.74241 -0.47334,3.96875 -0.086,0.69004 -0.15425,1.67852 -0.42413,2.37623 -0.43815,1.13162 -1.10384,1.22687 -2.1082,1.36763 -1.92696,0.27067 -4.21613,1.12395 -6.08541,2.07698"
       id="path926-6" /><path
       style="fill:none;stroke:#343434;stroke-width:0.264583"
       d="m -242.54207,155.02595 0.25559,1.58882 2.47835,5.55493 0.64691,2.11535 0.5879,1.58882 c 1.82695,-1.07739 2.5191,-1.00462 4.16481,-2.52122 2.54476,-2.34553 4.99798,-5.18477 8.53519,-5.82242 9.07389,-1.63618 15.39108,6.26719 17.22835,14.69364 0.19764,0.9062 0.23257,1.66634 0.23415,2.64583 0.005,3.27105 -0.45984,6.20686 -1.69439,9.26042 -2.85221,7.05564 -12.05997,14.85715 -20.00144,11.07678 -2.08042,-0.99034 -3.95579,-2.60747 -5.31098,-4.4622 -0.64241,-0.87921 -1.48961,-2.61064 -1.97803,-3.41471 -0.47096,-0.77549 -0.83714,-1.03082 -1.17766,-1.34779 -1.6383,2.45084 -1.72614,4.78314 -3.34857,7.40833 -0.58605,0.94827 -1.04854,1.65392 -1.73672,2.64584 -0.87948,1.26788 -2.22726,2.72335 -3.38032,3.62135 -0.37438,0.29131 -1.25492,0.6387 -1.57559,1.03108 -0.70194,0.85857 -0.38232,1.4478 -0.23231,2.49132 0.20585,1.43192 1.99867,5.99228 2.68632,7.40833 0.33099,0.68157 0.72549,1.16999 1.1094,1.85208 0.32887,0.5842 0.41063,1.00304 0.64373,1.58751 0.3802,0.95355 1.17634,2.24049 1.71212,3.17499 0.68871,1.20095 2.91359,3.95526 1.84176,5.19695 -1.11522,1.2917 -3.59701,-0.63288 -4.59899,-1.40811 -1.47769,-1.14327 -2.8231,-2.56355 -3.92774,-4.05342 -1.77958,-2.4003 -2.35267,-3.88858 -4.00976,-5.29167 -0.73686,1.27635 -1.36498,3.80974 -2.11666,6.61459"
       id="path924-1" /><path
       style="fill:none;stroke:#343434;stroke-width:0.264583"
       d="m -244.12957,153.70303 c -0.32332,0.65988 -0.76121,1.12898 0.26458,2.91042"
       id="path922-0" /><path
       style="fill:none;stroke:#343434;stroke-width:0.264583"
       d="m -244.39415,153.43845 1.32291,0.79375"
       id="path920-6" /><path
       style="fill:none;stroke:#343434;stroke-width:0.264583"
       d="m -299.95666,153.43845 c 1.0213,1.34012 1.58883,1.23322 2.38125,1.05833"
       id="path918-1" /><path
       style="fill:none;stroke:#343434;stroke-width:0.264583"
       d="m -294.13582,153.17387 c 0.37332,0.73924 0.44529,1.20412 0,2.64583"
       id="path916-5" /><path
       style="fill:none;stroke:#343434;stroke-width:0.264583"
       d="m -239.36703,153.96798 c 1.66079,-0.6014 2.55746,-1.28641 4.7625,-2.2651 1.76213,-0.78184 3.72189,-1.30149 5.55625,-1.5875 0.93795,-0.14605 1.63142,-0.11774 2.64583,-0.11615 0.85911,10e-4 1.54544,0.0151 2.38126,0.16272 7.78562,1.37583 14.05572,6.91594 17.52785,13.86019 1.54199,3.08425 2.42358,6.38784 2.95354,9.78959 0.13203,0.84746 0.15478,1.49569 0.15611,2.38125 0.003,1.58961 0.0585,2.75378 -0.1532,4.23333 -0.43788,3.05753 -1.34461,6.47912 -2.83898,9.26042 -3.107,5.78194 -8.47434,11.06752 -14.99949,12.65026 -1.70312,0.41301 -3.18479,0.56171 -4.7625,0.57785 -1.10331,0.0114 -1.67005,-0.0524 -2.64584,-0.19183 -0.89376,-0.12779 -2.00712,-0.32147 -2.91041,-0.60854 -2.05052,-0.65167 -3.36312,-1.78805 -5.02709,-2.10899 0.005,1.8161 0.3183,3.62267 0.87578,6.61458 0.33311,1.78753 0.44714,2.79638 0.44714,4.7625"
       id="path914-9" /><path
       style="fill:none;stroke:#343434;stroke-width:0.264583"
       d="m -314.77328,164.55131 c 1.67163,-0.20399 2.45242,-0.72628 3.96875,-0.97234 3.27739,-0.53181 4.3852,0.59372 6.08541,-0.61516 -1.33217,-1.63115 -2.91703,-3.01916 -4.7625,-4.11321 -1.75392,-1.03981 -3.59383,-1.43351 -5.55625,-1.44277 -5.17604,-0.0246 -9.40689,2.98106 -12.20391,7.40806 -2.42001,3.83038 -3.4065,8.25262 -3.4065,12.7 0,1.59941 -0.0237,2.76993 0.2954,4.23334 0.5533,2.53762 1.26262,5.50254 2.48312,7.9375 2.53344,5.0546 6.80638,9.56574 12.30273,10.97253 0.89482,0.22887 1.44356,0.38656 2.38125,0.39952 1.15861,0.0161 1.82165,-0.15213 2.91041,-0.4945 3.29142,-1.03558 5.7867,-3.67903 7.55306,-6.64422 0.7165,-1.20279 1.6256,-3.58325 2.00846,-4.76197 0.32702,-1.007 0.51382,-1.41578 0.75723,-1.85261 1.46923,1.26391 1.79097,3.35465 2.91783,5.55625 0.53816,1.05145 1.17739,1.83277 0.94774,2.91041 -0.22464,1.05331 -1.28429,2.42438 -2.04788,3.43959 -1.65391,2.19869 -2.85115,3.87403 -4.96887,5.50307 -0.74904,0.57626 -1.08903,1.45785 -1.90342,1.76265 -1.11178,0.41566 -1.30783,-0.013 -2.61831,0.45932 -3.61818,1.3036 -8.17457,1.15358 -11.90625,-0.42995 -4.56613,-1.93781 -8.51316,-5.46047 -11.16251,-9.67634 -3.18863,-5.07418 -4.97671,-11.04689 -4.97708,-16.93334 -1e-4,-1.53961 -0.0385,-2.82971 0.15251,-4.23333 0.97298,-7.14772 3.3334,-13.79723 8.58263,-19.04603 3.28983,-3.28983 7.57695,-5.64489 12.16695,-6.45583 1.03055,-0.18204 1.80604,-0.16775 2.91041,-0.16246 2.18864,0.0103 4.21138,0.46276 6.35,1.30281 1.13401,0.44556 2.35056,1.16549 3.43959,1.57295 1.94416,0.72707 1.88065,-0.65881 2.64583,-2.08227"
       id="path912-4" /><path
       style="fill:none;stroke:#343434;stroke-width:0.264583"
       d="m -241.74828,149.47006 1.32292,1.32292"
       id="path910-9" /><path
       style="fill:none;stroke:#343434;stroke-width:0.264583"
       d="m -262.91495,149.20548 v 0.26458"
       id="path908-0" /><path
       style="fill:none;stroke:#343434;stroke-width:0.264583"
       d="m -272.43995,148.41173 c 1.49199,1.94178 2.06402,2.65721 3.70417,1.5875"
       id="path906-9" /><path
       style="fill:none;stroke:#343434;stroke-width:0.264583"
       d="m -266.08995,146.55964 c -0.23601,2.35294 -0.9607,3.70708 -2.91041,3.17501"
       id="path904-1" /><path
       style="fill:none;stroke:#343434;stroke-width:0.264583"
       d="m -285.40453,146.55964 c -0.31115,1.09247 -0.22225,1.46553 0.26458,2.38126"
       id="path902-7" /><path
       style="fill:none;stroke:#343434;stroke-width:0.264583"
       d="m -254.44828,145.50131 c 2.02195,0.58357 3.50864,1.50318 5.29167,3.18638 0.94985,0.89694 2.20371,2.24896 2.94111,3.15965 0.73871,0.91229 1.21232,1.26101 1.82139,1.59147 l -0.26459,-2.91041"
       id="path900-7" /><path
       style="fill:none;stroke:#343434;stroke-width:0.264583"
       d="m -271.11703,145.23673 c 1.42055,1.84375 1.34646,2.98185 2.11667,4.23333 l 0.79375,-1.5875"
       id="path898-1" /><path
       style="fill:none;stroke:#343434;stroke-width:0.264583"
       d="m -294.13578,152.64506 c 0.0109,-0.36936 -0.10584,-0.65193 0.2024,-1.58882 0.44027,-1.33773 2.54265,-4.91969 4.03093,-6.08409"
       id="path896-1" /><path
       style="fill:none;stroke:#343434;stroke-width:0.264583"
       d="m -266.61911,144.70756 0.52916,1.85208 c 1.05966,-0.56017 1.13877,-0.95236 1.5875,-1.58749"
       id="path894-5" /><path
       style="fill:none;stroke:#343434;stroke-width:0.264583"
       d="m -273.49828,144.70756 -0.52917,0.79375"
       id="path892-9" /><path
       style="fill:none;stroke:#343434;stroke-width:0.264583"
       d="m -296.78162,143.91381 c -0.31353,0.9815 -2.20345,2.92807 -2.82998,5.02576 -0.27067,0.90594 -0.27067,1.20703 -0.34502,1.58883 1.41605,0.13282 2.02989,-0.71755 3.175,-1.85209"
       id="path890-7" /><path
       style="fill:none;stroke:#343434;stroke-width:0.264583"
       d="m -275.08578,143.38465 c 0.24553,1.02105 1.89944,3.7698 2.64583,4.7625 1.10702,-1.57446 1.09379,-2.38443 0.79375,-4.23334"
       id="path888-7" /><path
       style="fill:none;stroke:#343434;stroke-width:0.264583"
       d="m -265.03161,142.85548 c 0.11774,0.50758 0.27913,1.26201 0.72443,2.11667 1.05806,2.03035 0.83237,2.02795 1.65682,3.96875 1.15358,-1.44511 0.4781,-2.68378 1.5875,-4.7625"
       id="path886-6" /><path
       style="fill:none;stroke:#343434;stroke-width:0.264583"
       d="m -296.25245,150.5284 -0.74242,3.66765 0.99219,0.67151 2.13439,-1.80075 2.50111,-2.53841 3.84598,-3.50309 1.77641,-1.12591 2.98609,-3.04392"
       id="path884-7" /><path
       style="fill:none;stroke:#343434;stroke-width:0.264583"
       d="m -244.12957,142.59089 c 1.12104,1.56838 3.56844,3.81408 4.24762,6.61459 0.20161,0.83132 0.0963,1.00303 0.0175,1.85208 -0.17727,1.90421 -0.12832,4.49739 -2.10608,3.78592 -0.30903,-0.11139 -0.5506,-0.38973 -0.83608,-0.61092 l 0.52916,-2.64583"
       id="path882-3" /><path
       style="fill:none;stroke:#343434;stroke-width:0.264583"
       d="m -256.03582,142.32631 1.23296,2.91042 -0.70379,3.175"
       id="path880-6" /><path
       style="fill:none;stroke:#343434;stroke-width:0.264583"
       d="m -263.44415,140.73881 2.18942,3.25483 4.11533,2.83466 1.63275,2.37718"
       id="path878-5" /><path
       style="fill:none;stroke:#343434;stroke-width:0.264583"
       d="m -244.92332,140.47423 c 1.17951,1.81911 -0.0159,2.38588 -1.32292,2.38125"
       id="path876-6" /><path
       style="fill:none;stroke:#343434;stroke-width:0.264583"
       d="m -275.08582,140.47423 c -0.009,1.01079 0.14896,1.78588 -0.644,2.3845 -0.49583,0.37441 -1.38271,0.49493 -2.00183,0.71006 -2.27886,0.79166 -4.37621,1.89413 -5.88831,3.78175 -0.74771,0.93366 -1.24804,1.30487 -1.78461,2.38411"
       id="path874-3" /><path
       style="fill:none;stroke:#343434;stroke-width:0.264583"
       d="m -287.52124,136.50548 2.91042,0.52917"
       id="path872-9" /><path
       style="fill:none;stroke:#343434;stroke-width:0.264583"
       d="m -290.43166,134.91798 c 1.32636,0.81719 1.88357,0.82685 2.91042,1.5875 -1.69016,1.22989 -4.4532,1.13149 -7.14269,3.27808 -1.02262,0.81629 -2.09206,2.57932 -1.76609,3.24832 0.57785,1.18589 1.90367,0.0858 2.82336,-0.1764"
       id="path870-4" /><path
       style="fill:none;stroke:#343434;stroke-width:0.264583"
       d="m -257.35874,133.33048 c 1.63645,0.38962 3.77508,-0.0476 6.61459,1.26881 3.47742,1.61221 5.54143,3.78415 5.82083,5.87494 -1.76504,-0.36917 -4.35187,-1.58713 -7.67292,-1.5875"
       id="path868-8" /><path
       style="fill:none;stroke:#343434;stroke-width:0.264583"
       d="m -256.3004,130.94923 h 1.5875"
       id="path866-1" /><path
       style="fill:none;stroke:#343434;stroke-width:0.264583"
       d="m -262.91499,130.68465 -1.5875,1.5875"
       id="path864-2" /><path
       style="fill:none;stroke:#343434;stroke-width:0.264583"
       d="m -271.38166,131.74298 c 1.34435,-1.49209 1.54517,-2.31405 3.17501,-2.64583"
       id="path862-9" /><path
       style="fill:none;stroke:#343434;stroke-width:0.264583"
       d="m -278.78999,128.56762 c 0.41116,0.74372 0.88345,1.32757 1.50098,2.64583 0.3728,0.79605 0.77153,1.83875 0.18759,2.57397 -0.82603,1.04005 -2.1328,0.30353 -3.27607,0.002 -2.12063,-0.55999 -4.20846,-0.63828 -6.35,-0.43915 -1.89733,0.17642 -3.25041,1.15697 -4.7625,1.56771"
       id="path860-3" /><path
       style="fill:none;stroke:#343434;stroke-width:0.264583"
       d="m -261.85665,128.03845 c -0.2974,1.18428 -0.64665,1.56456 -1.05834,2.64584 2.03782,0.56007 4.6908,-0.76203 6.61459,0.26458 l -2.64584,2.64583"
       id="path858-9" /><path
       style="fill:none;stroke:#343434;stroke-width:0.264583"
       d="m -267.4129,127.77387 -0.79375,1.32292 c 1.63274,0.5298 2.22646,-0.41297 4.49791,-1.08265 2.01428,-0.59386 1.84759,-0.021 3.70417,-0.24027"
       id="path856-0" /><ellipse
       style="fill:#ffffff;stroke:#000000;stroke-width:0.398003"
       id="path1895"
       cx="93.819206"
       cy="152.45576"
       rx="24.980536"
       ry="25.931005" /></g></svg>
