<?xml version="1.0" encoding="UTF-8" standalone="no"?>
<!-- Created with Inkscape (http://www.inkscape.org/) -->

<svg
   width="210mm"
   height="297mm"
   viewBox="0 0 210 297"
   version="1.1"
   id="svg5"
   xml:space="preserve"
   inkscape:version="1.2.2 (b0a8486541, 2022-12-01)"
   xmlns:inkscape="http://www.inkscape.org/namespaces/inkscape"
   xmlns:sodipodi="http://sodipodi.sourceforge.net/DTD/sodipodi-0.dtd"
   xmlns="http://www.w3.org/2000/svg"
   xmlns:svg="http://www.w3.org/2000/svg"><sodipodi:namedview
     id="namedview7"
     pagecolor="#ffffff"
     bordercolor="#000000"
     borderopacity="0.25"
     inkscape:showpageshadow="2"
     inkscape:pageopacity="0.0"
     inkscape:pagecheckerboard="0"
     inkscape:deskcolor="#d1d1d1"
     inkscape:document-units="mm"
     showgrid="false"
     inkscape:zoom="0.64693624"
     inkscape:cx="184.71681"
     inkscape:cy="575.7909"
     inkscape:window-width="1534"
     inkscape:window-height="831"
     inkscape:window-x="0"
     inkscape:window-y="0"
     inkscape:window-maximized="1"
     inkscape:current-layer="layer1" /><defs
     id="defs2" /><g
     inkscape:label="Layer 1"
     inkscape:groupmode="layer"
     id="layer1"><path
       style="fill:none;stroke:#171717;stroke-width:0.264583"
       d="m 59.990471,213.25089 c -1.077807,0.41249 -2.729309,1.01124 -2.84734,-0.28098 -0.296598,-3.24829 1.952122,-8.33279 2.816728,-11.62527 0.334354,-1.27317 0.893709,-2.00554 0.439949,-3.05461 -0.238601,-0.55166 -1.357233,-1.76583 -1.768793,-2.50164 -1.515162,-2.70906 -1.926246,-6.75904 -3.138461,-8.99583 -1.20261,0.70961 -1.612159,1.33906 -2.381249,2.38125 -3.311869,-3.29856 -2.186993,-12.84314 -1.270053,-17.4625 0.498395,-2.51063 0.871087,-4.78261 1.799219,-6.87917 -1.317519,-0.32199 -1.606682,-0.0159 -2.38125,0.26459 -0.752316,-2.7641 3.337957,-9.25777 3.874215,-12.95956 0.328056,-2.26404 -2.968334,-0.04 -2.918355,-1.87272 0.03268,-1.19909 1.297623,-4.17459 1.880447,-5.54064 2.155243,-5.05169 4.7752,-10.38966 7.838069,-15.08125 0.879608,-1.34726 2.491079,-3.19828 3.147722,-4.49791 0.377031,-0.74666 0.183091,-1.29699 0.05106,-2.11667 -0.34925,-2.17302 -0.652568,-5.48905 -1.173162,-6.87917 -1.407319,0.71835 -3.368119,2.17038 -4.7625,2.64584 -1.388877,-3.29142 -0.845317,-8.24442 -0.142716,-11.90625 0.152797,-0.79613 0.429974,-1.64148 0.671883,-2.38072 0.306043,-0.93557 0.421216,-1.38589 0.529166,-1.85261 -0.430477,0.0376 -0.769858,0.0431 -1.588717,0.2749 -0.626718,0.17753 -1.62216,0.66278 -2.107088,0.0841 -0.537898,-0.64215 -0.127741,-1.63936 0.01307,-2.47571 0.332052,-1.971673 0.797692,-6.651893 2.470679,-7.975073 0.604414,-0.4781 1.497753,-0.53287 2.265495,-0.47519 0.729218,0.055 1.093708,0.69083 1.925584,0.81386 1.130697,0.16721 1.687963,-0.70962 2.84181,-1.28799 1.563688,-0.7837 3.37529,-1.37822 5.027084,-1.74758 3.0734,-0.68738 6.636808,-0.73818 9.789583,-0.36486 0.757766,0.0897 1.673489,0.22463 2.379927,0.29025 0.829468,0.0773 1.186656,-0.0228 1.588823,-0.10134 -1.067859,-2.28361 -4.849813,-4.30635 -8.202084,-5.46523 -1.465527,-0.50668 -4.324085,-1.55284 -5.777441,-1.28482 -1.075002,0.19844 -0.333904,1.62349 -1.393296,2.09339 -2.356379,1.04563 -5.842926,1.44489 -7.116762,0.9525 0.495221,-0.92975 0.987795,-1.6174 1.852083,-3.175 -0.701331,-0.20744 -1.326938,-0.25585 -2.38125,-0.26485 -0.67564,-0.006 -1.682882,0.14182 -1.900661,-0.61304 -0.363484,-1.25968 1.685687,-3.900751 2.349183,-4.942944 2.927032,-4.597189 6.444932,-8.825865 10.928561,-11.980148 2.733411,-1.922913 5.79464,-3.528325 8.995833,-4.382956 7.14084,-1.906428 14.882019,-1.274233 21.695834,1.201209 5.69965,2.070682 10.66456,5.949659 14.55209,10.399395 M 94.650887,85.192567 c -0.904346,-7.156189 -0.93345,-17.124313 5.556253,-21.695836 m -19.57917,0.529166 c 1.245394,2.111455 2.476765,4.318053 4.257146,6.040306 1.710002,1.654386 3.940175,2.71645 5.211233,4.807611 1.948392,3.204898 1.798902,6.716183 1.644121,10.318753 m 5.027083,1.32291 c 1.752865,-4.51802 4.066907,-9.457792 7.259897,-13.228951 1.62322,-1.917145 3.84705,-3.494696 6.23385,-3.704379 m -39.158329,1.852084 c 1.73011,1.144772 3.607329,2.097537 5.556249,2.732801 1.626659,0.530199 3.072607,0.61468 4.7625,1.169617 4.204229,1.380517 6.770688,6.484598 7.672917,10.385078 M 117.93422,71.698814 c -1.19909,0.651457 -1.44119,0.574146 -2.11667,0.79375 1.30122,1.693704 4.98158,4.659842 7.40437,7.14375 0.92154,0.944827 2.54847,2.102113 2.37569,3.351473 -0.0865,0.62627 -0.812,0.46091 -1.31339,0.33708 -0.87603,-0.21669 -1.30889,-0.4228 -1.5875,-0.51355 -0.007,1.9214 1.79255,3.87535 2.11667,5.55625 -1.35414,-0.25797 -4.01108,-1.68593 -6.61458,-2.26881 -1.3216,-0.2958 -3.39646,-0.1389 -4.33732,-0.91254 -0.66887,-0.55007 -0.2749,-1.34276 -0.1606,-1.84574 l -0.26459,-0.26458 c -0.36962,0.0889 -0.67283,0.16378 -1.58882,0.29898 -0.91546,0.1352 -2.20954,0.40984 -3.17368,0.68262 -3.58484,1.01415 -8.59763,3.60627 -9.78958,5.89757 0.360627,0.10371 0.652462,0.24288 1.32953,0.2106 0.76809,-0.0365 2.03279,-0.29554 2.9038,-0.39952 2.84348,-0.34025 6.49446,-0.21219 9.26042,0.4236 2.03544,0.46805 4.17512,1.20888 6.08542,2.22806 0.77285,0.41222 1.23666,0.89694 1.99628,0.66093 0.87551,-0.27173 1.59491,-0.85196 3.0308,-0.66596 2.01745,0.26141 4.34631,1.01759 5.82084,1.51104 m -14.81667,-21.96042 1.32291,0.529167 m -51.329162,4.233333 c 8.839199,0 17.963355,1.319213 21.960416,10.58333 m 13.229166,-2.64583 c 2.58075,-2.37675 5.43163,-4.612481 8.73125,-5.806546 2.55534,-0.924718 5.0292,-1.173691 7.67292,-0.278871 m 5.55625,3.704167 0.79375,0.79375 m -63.764586,9.525 c -0.545623,0.0249 -1.154377,0.0849 -1.852295,0.28707 -0.431667,0.12489 -1.207611,0.54504 -1.544611,0.0548 -0.552476,-0.80354 1.021398,-2.18704 1.548712,-2.72203 2.068116,-2.09841 3.952108,-2.83342 5.552361,-3.96981 m 62.441669,2.11667 c 1.29408,1.41763 3.18347,2.98582 3.96875,5.02708 m -30.956254,-2.91045 0.79375,-0.26458 m 3.704434,1.7399 c 2.12116,-0.58288 3.47715,1.37663 3.35782,3.02234 -0.0693,0.9562 -0.93001,2.06057 -2.03623,2.26668 -3.31523,0.61807 -5.227371,-4.21561 -1.32159,-5.28902 m -39.423182,0.11218 1.058333,0.52917 m 16.404166,-0.38973 c 2.936346,-0.45852 4.422775,4.86145 0.79375,5.3459 -3.404394,0.45403 -4.833673,-4.71514 -0.79375,-5.3459 m 47.360423,1.71265 c 0.20875,2.55693 1.84493,7.979833 2.40241,11.377083 0.1487,0.9054 0.74216,2.81861 0.21246,3.53404 -0.81888,1.10543 -3.69094,-0.81016 -4.73154,-1.41737 -0.59452,2.03014 0,4.69238 0,7.40833 0,2.83527 -0.54002,5.80654 -1.22502,8.46666 -0.52097,2.0238 -0.91202,3.89017 -2.21456,5.55625 -0.77074,-0.83688 -2.44237,-3.47636 -3.58934,-3.08345 -1.16841,0.40005 -1.00092,3.53748 -1.22608,4.67095 -0.46488,2.34183 -1.21338,5.26177 -1.91559,7.40728 -0.31988,0.97763 -0.576,1.14617 -1.08611,1.92854 -0.38788,0.59505 -0.55351,1.23111 -0.8517,1.77668 -1.50045,2.74691 -3.45731,2.83898 -4.56035,1.5875 -0.89191,1.26339 -1.83277,3.88832 -3.42001,6.08436 -0.36856,0.50985 -0.58711,1.03108 -1.14247,1.33165 -0.68157,0.36909 -1.10702,-0.12647 -1.44039,-0.56965 -0.43603,-0.57997 -1.1266,-2.19234 -2.18096,-2.07407 -1.028171,0.11536 -1.479551,2.16244 -1.669257,2.89931 -0.210608,0.81756 -0.181769,1.16681 -0.201083,1.58882 1.33138,-0.63447 1.88621,-1.76292 3.175,-3.43959 m 14.02292,-51.858323 c 3.37767,0.028 6.37831,1.80049 7.9375,4.497913 m -59.002086,1.05834 c 2.472531,-3.374503 4.023783,-4.497923 8.202083,-4.497923 m 35.189583,0.52917 c 6.48864,-0.51224 10.22853,3.680093 13.49375,8.995833 m -34.660417,-5.82083 c 1.984905,-1.979093 4.666457,-4.010293 7.408334,-2.342103 1.417108,0.862283 2.283354,1.965593 3.174999,3.135853 -1.842293,0.90408 -8.735483,1.01838 -10.583333,-0.52917 -0.224895,0.96229 0.0026,0.94297 0.529167,1.05833 m -17.462499,10.84792 c 0,-2.36696 0.12065,-5.12445 0.554302,-7.40833 0.50456,-2.65854 2.570162,-5.76554 5.001948,-6.35 m 25.664579,1.5875 c 2.53894,0 4.81304,-0.0661 7.14375,0.91678 4.5511,1.91902 7.05829,7.21889 7.67292,11.78321 m -55.827082,-12.17083 -0.264584,0.26459 m 15.345833,23.01874 c -0.53631,-3.98277 -1.343025,-8.47328 -1.322652,-12.69999 0.0209,-4.3225 2.383102,-9.12998 6.878902,-9.525 m 25.135413,4.7625 c -0.21907,1.17527 0.0209,1.31312 -0.63315,2.64583 -0.81597,1.66264 -1.63221,2.99508 -3.3356,3.43958 -0.0445,-0.56859 -0.0545,-1.17316 -0.20029,-2.11666 -0.15081,-0.97605 -0.58473,-2.2106 -0.16907,-3.09484 0.31036,-0.65987 0.98029,-0.72099 1.69254,-0.85142 0.93848,-0.17198 1.71953,-0.23945 2.64557,-0.2458 1.78382,-0.0124 3.03874,0.30268 3.96875,2.07539 m -31.22083,1.05833 c -1.028964,-3.52266 3.488002,-3.11361 5.820834,-2.58895 0.836347,0.18786 1.431395,0.33655 2.043906,0.88742 0.54266,0.48762 0.732102,1.07288 1.083468,1.70021 1.436688,2.56407 2.677319,-0.22278 3.222625,-1.58618 -1.651529,-0.39423 -2.352145,-0.42254 -3.704166,-0.52916 m -5.55625,-0.52917 c 0.195527,1.30678 0.192881,1.50892 0.84746,2.91042 0.697177,1.49251 1.726407,3.44751 3.650457,3.17499 -0.523082,-2.19736 -0.170921,-4.07749 0.529166,-5.29166 m 3.96875,1.05833 c 0.750358,0.81413 1.601787,2.67759 3.171031,2.31828 1.358371,-0.31088 2.156354,-2.33574 2.963069,-3.02815 0.584729,-0.50165 1.004358,-0.58791 1.8034,-0.71729 1.024202,-0.16616 1.71873,-0.11721 2.91042,-0.16034 m -1.32292,0.26459 c -0.0251,1.21602 -0.0156,1.88939 -0.79375,3.43958 -1.175015,-0.63738 -2.020094,-2.12804 -2.934229,-2.75087 -0.561711,-0.38259 -0.984779,-0.39397 -1.563688,-0.4191 -1.802871,-0.0781 -2.957512,-0.005 -3.704166,-0.005 m 14.552083,1.5875 c 0.87524,1.30942 0.99166,1.9124 1.05833,3.43958 -0.88476,-0.0773 -1.29725,-0.18521 -2.38125,-0.52917 m -22.48958,-1.85211 c 0,1.47981 0.453761,5.12577 0.79375,6.87917 -2.611437,0.62917 -4.065852,1.72217 -1.322916,4.49791 m 1.322916,-4.49791 c 0.976048,0.5289 1.752071,1.11601 2.800615,0.34581 0.800364,-0.58791 1.072356,-2.4392 2.493962,-2.02274 1.550194,0.45429 2.420408,4.00023 4.14655,3.53668 0.772054,-0.20717 0.5842,-1.24619 0.700088,-1.86002 0.143139,-0.75909 0.423068,-1.46817 1.030816,-1.98041 1.633273,-1.37715 2.486819,0.32438 4.101306,-0.45376 1.943363,-0.93662 2.234933,-2.19233 3.776663,-2.32806 m 5.29167,0.52916 c 0,1.49384 0,2.23573 0,3.43959 l 1.5875,-0.52917 m -15.61042,3.43958 c 1.710002,0.21617 5.193771,0.93292 7.05988,-0.34845 0.76597,-0.526 0.80115,-2.83845 1.98093,-3.15675 1.16655,-0.31512 1.40547,1.51659 2.14445,1.88251 1.25703,0.62283 1.9902,-0.52758 2.83766,-1.28772 m -21.431253,1.32291 c 1.775883,1.08903 3.240352,1.60523 5.027083,0.79375 m 13.22917,-0.52916 c -0.90303,0.60351 -1.55231,0.87444 -2.91042,1.05833 m -35.718749,5.02708 c 0.244475,0.94536 0.882385,3.48774 1.159933,5.02709 0.116946,0.6477 0.04313,1.25941 0.307975,2.04126 0.248973,0.73474 0.623358,1.20226 0.925513,1.92854 0.446881,1.07395 1.277672,3.77958 2.645039,4.14073 1.227138,0.32438 2.357173,-1.63936 3.163623,-2.2897 1.710002,3.65575 4.134908,9.96262 6.5024,13.75833 0.779727,1.24989 1.903148,3.63987 3.332427,4.18677 1.259681,0.48207 3.465777,-2.16853 4.717256,-2.86385 0.781844,1.22925 2.067189,2.87443 1.378743,4.23333 -0.877093,1.73196 -3.123141,3.17156 -4.553743,4.50453 -4.355571,4.05818 -9.22946,7.75124 -14.2875,10.8921 -2.369608,1.47135 -5.780352,4.01003 -8.202083,4.44712 0.04982,-2.41379 0.815102,-11.62526 1.322917,-13.75833 l -0.264583,-0.26459 -1.852084,0.79375 c -0.68834,-2.32859 0.03424,-4.76885 0.627989,-7.14375 0.87929,-3.5171 1.74998,-7.00352 2.34778,-10.58333 0.4318,-2.58551 1.227931,-7.36388 1.509183,-9.78826 0.107686,-0.92869 0.194734,-1.24222 0.277548,-1.58882 m 19.314583,-7.67292 c -1.931458,1.97776 -2.710921,3.84466 -2.30161,6.61459 0.3429,2.32171 1.965854,4.12564 2.86676,6.35 1.070239,2.64318 0.981075,4.84478 0.757766,7.67291 m 15.610417,-19.57916 c 2.14392,1.52294 3.13928,3.79068 3.39434,6.35 0.17489,1.75365 -0.27834,3.66633 -0.48392,5.29166 m 17.4625,-10.84791 c 2.64742,3.04006 6.15156,8.3386 8.13382,12.43541 0.4109,0.84984 1.1602,1.95818 0.79931,2.87629 -0.27676,0.70458 -1.32848,1.0623 -1.3298,1.9005 -0.003,1.55046 2.13016,3.69385 2.92603,5.01279 0.98001,1.62375 2.73685,4.16243 2.82495,6.08145 0.0749,1.63195 -1.51183,1.62798 -2.50639,1.0623 M 93.063387,127.79048 c -1.45759,1.91717 -1.997604,3.89096 -1.828271,6.35 0.258762,3.76132 2.159264,6.99717 2.885546,10.58333 0.354012,1.74837 0.102658,3.07261 -0.528109,4.49792 m 3.96875,-20.10833 c 4.669367,3.7285 2.953277,9.73931 1.5875,14.55208 M 122.16756,129.1134 c -0.52494,1.12209 -1.20994,2.81966 -1.77033,4.23333 -0.24792,0.62574 -0.48472,1.4052 -0.37624,2.11667 0.12144,0.79666 0.29422,1.06256 0.44582,1.85208 0.50033,2.60826 1.14433,6.86938 1.7997,9.525 0.54848,2.2217 1.15967,4.6863 1.84335,6.87916 0.83291,2.67124 2.61805,5.94916 2.76225,8.71564 0.0513,0.98558 -2.57334,1.19354 -2.76437,1.90686 -0.6006,2.24181 0.61595,6.38757 1.07607,8.69209 0.47545,2.38231 0.9689,4.99321 1.58062,7.40833 0.60721,2.39739 1.28323,4.21958 1.98067,6.61458 0.41857,1.43775 1.34964,2.96863 0.56621,4.49792 l -1.32292,-0.52917 c -0.6141,2.23362 0.56462,5.74887 2.11667,7.67292 1.01573,-1.1131 1.63724,-2.91677 3.07895,-4.43124 0.79349,-0.83317 1.96427,-0.24448 2.51592,-1.406 1.67535,-3.52742 0.47176,-10.1981 1.28429,-12.94818 0.8509,0.51541 1.16417,0.71173 2.11667,1.05834 0.70141,-2.37279 0.1188,-5.98805 -0.42704,-8.99584 -0.45111,-2.4847 -1.20703,-5.20594 -1.91717,-7.67291 -0.69718,-2.42147 -1.79096,-4.47093 -1.88912,-6.61459 m -25.66459,-15.34583 c 0.0873,-1.06918 0.31036,-1.76583 1.02103,-4.23333 0.2151,-0.74718 0.53684,-2.85565 1.64174,-2.85565 1.17131,0 1.56659,1.79176 1.30148,2.51566 -0.24315,0.6641 -0.82735,1.31022 -1.21549,1.92855 -1.11866,1.78117 -1.83568,2.47147 -3.01334,3.43852 m 10.84792,-7.67291 c -1.30599,1.58908 -2.30823,3.89546 -3.78593,6.61458 -2.42411,4.46114 -5.38057,8.69976 -8.49709,12.7 -9.008008,11.5615 -20.341699,20.87668 -32.696153,28.6594 -3.10515,1.95606 -6.338358,3.66289 -9.525,5.47185 -1.855602,1.0533 -3.289194,1.85393 -4.762499,2.11666 0.03101,-1.50283 0.284109,-2.60032 0.59428,-4.49791 0.497205,-3.04192 1.240684,-8.51562 1.257803,-10.58334 m 51.329169,-37.57083 0.52916,1.32292 m -9.26041,10.84791 c 1.20147,1.54649 -0.008,4.16217 -2.14048,6.16003 -0.69533,0.65141 -1.99602,2.12778 -3.06573,1.49411 -1.154377,-0.68342 0.165629,-1.8468 0.71226,-2.38628 1.88648,-1.86055 3.00355,-3.28401 3.43561,-4.73869 m -5.291664,1.5875 c -0.586052,1.03002 -1.139031,1.73884 -1.790435,2.91042 -0.647171,1.16364 -2.318014,4.70773 -3.761846,4.70773 -0.805127,0 -1.21576,-1.2028 -1.47902,-1.79732 -0.479161,-1.08241 -0.8763,-1.85975 -1.435365,-2.64583 m -1.334823,4.85405 c 1.329267,-0.3556 1.051454,1.38033 0.628915,2.02512 -1.035844,1.58035 -3.635111,4.20925 -5.639065,4.35451 -1.169193,0.0849 -1.414462,-1.08188 -0.713316,-1.83621 1.059656,-1.14062 4.296568,-4.16189 5.723466,-4.54342 m 28.322323,-0.35613 c 0.0907,2.11217 0.93266,5.75945 -1.09643,7.21175 -0.97367,0.69664 -2.18705,-0.0799 -2.94058,0.63129 -1.08929,1.02738 -0.75909,3.2266 -1.57957,4.57967 -0.89561,1.4777 -1.95659,0.87286 -3.11467,0.27729 -0.90514,1.72455 -1.00198,3.90631 -2.92179,5.40861 -1.60999,1.25968 -3.02128,0.71041 -4.75113,0.14764 m -37.041662,-17.4625 v 0.52916 m 28.298774,3.22157 c 1.45997,-0.53657 1.120775,1.40123 0.652991,2.0701 -1.125802,1.60893 -3.610504,4.04998 -5.663406,4.26879 -1.15861,0.12356 -1.424781,-0.98848 -0.713316,-1.75075 1.190625,-1.27635 4.13332,-4.00367 5.723731,-4.58814 m -40.998774,-0.0466 -0.79375,0.79375 m 25.131447,5.81899 c 1.725083,-0.59267 1.22555,1.33482 0.503238,2.09391 -1.315773,1.38271 -3.619765,2.81093 -5.526088,3.15939 -1.092993,0.19976 -2.388923,-0.85249 -1.237721,-1.79229 1.398853,-1.14221 4.544748,-2.87152 6.260571,-3.46101 m 2.383896,4.23333 c 1.286404,-0.43551 1.742016,0.85302 0.974196,1.73778 -1.316302,1.51686 -3.974836,3.21125 -5.999692,3.48774 -1.003564,0.13705 -2.215356,-0.64003 -1.234016,-1.6166 1.229254,-1.22291 4.624122,-3.05515 6.259512,-3.60892 m 31.486739,10.3206 c -1.54305,2.42782 -4.34128,3.73724 -6.35,5.02708 1.7698,2.96836 -3.08954,3.12526 -5.291667,2.90539 -2.066396,-0.20664 -2.435754,-0.52281 -4.497916,-0.52414 0,1.83701 0.01905,5.56207 0.477573,7.9375 0.215106,1.11522 1.122627,2.82946 0.864129,3.92986 -0.293423,1.24804 -1.537494,0.97869 -1.601259,2.42147 -0.08731,1.97934 0.09763,4.83684 0.415661,6.87784 0.308239,1.97882 2.207683,6.85588 0.313531,8.25183 -1.066271,0.78581 -2.06031,0.31326 -3.115469,0.0177 -0.890852,-0.24924 -2.453216,-1.13003 -3.41577,-0.91175 -1.690952,0.38364 -2.323042,1.81054 -4.257146,1.86822 -3.067844,0.0916 -5.871633,-1.61449 -8.995833,-1.41711 -2.185723,0.13812 -4.842404,1.62931 -6.879167,1.35017 -1.79361,-0.24606 -2.202391,-2.19922 -3.752955,-2.59397 -1.150435,-0.2929 -2.87536,0.93847 -3.919961,1.27714 -2.122567,0.68845 -2.900124,0.32703 -3.704167,-0.96308 1.20576,-0.92181 1.852534,-1.56316 2.38125,-2.91042 -1.725877,-0.54584 -4.515987,-1.69386 -6.86345,-0.0693 -1.328182,0.91943 -1.572974,3.30465 -1.603216,4.56724 2.132568,-0.39582 3.973777,-0.38047 6.085416,1.05833 m 20.108333,-36.24789 c 1.77165,3.06494 5.016235,5.00936 8.202083,5.99335 1.125009,0.34739 2.560109,0.97525 3.625056,0.34554 0.649288,-0.38364 0.770467,-1.13374 1.440127,-1.41684 1.42928,-0.60431 2.867819,0.0947 3.93065,0.36962 m 9.789587,-2.11667 h 0.26458 m -42.597916,0.26459 c -0.08374,0.36883 -0.561181,0.9062 0.01103,1.69412 0.368883,0.50774 1.144112,0.37413 1.370886,1.03558 0.580364,1.69307 -0.506412,2.83052 -1.117335,3.88488 m 73.289585,-4.7625 v 0.26458 m -36.24792,0.79375 c 0,1.98835 0.540808,8.39497 0.189177,11.37709 -0.189177,1.60205 -1.037166,3.82958 -0.535252,5.21917 0.260879,0.72152 1.176602,0.99959 1.472671,1.68857 0.348192,0.80989 0.374915,1.97326 0.437092,2.88184 0.175418,2.55931 -1.050396,7.0485 1.875892,7.14375 0.0386,1.81769 0.8218,4.35345 3.43959,4.9239 2.96333,0.64558 7.4623,-0.27887 10.58333,-0.41566 6.15474,-0.26935 12.14967,0.62997 18.25626,0.77946 2.7514,0.0675 6.44683,0.18679 8.3558,-2.13757 1.39885,-1.70339 0.50932,-6.14548 -0.62098,-7.90099 -1.75895,-2.73182 -4.60877,-0.11853 -6.39471,-2.92338 -1.04881,-1.64703 -2.71383,-4.05897 -2.63684,-6.08303 0.0426,-1.12104 1.07897,-1.53512 0.95726,-2.65721 -0.24473,-2.25664 -2.75748,-5.89254 -2.83553,-7.39802 m -13.75834,-4.49792 c -1.43458,2.12805 -3.51737,5.12445 -3.42398,7.67266 0.0725,1.97881 1.60047,2.35505 3.15939,2.38072 1.25545,0.0206 1.47929,0.14208 2.64584,-0.26379 m -51.858336,-3.43959 c 0.359305,1.93464 -0.0172,4.19762 1.194065,5.8092 1.573212,2.09311 3.412596,1.1938 5.420519,0.5408 0.479689,2.2143 -1.05119,4.30927 0.90752,6.23517 0.983192,0.96706 2.354263,0.12409 3.166269,0.67496 0.72681,0.49292 0.342635,1.25359 0.772848,2.0738 1.00621,1.91849 2.82231,0.5461 4.149196,-0.25268 m 35.718759,-10.84791 c -0.20903,0.42783 -0.28893,0.63262 -0.66014,1.32953 -1.06574,1.99919 -5.96689,9.93113 -0.13362,8.98922 m -57.414579,-1.32292 c -0.458787,1.61608 -1.132152,3.54277 -2.116667,4.7625 m 78.581246,-1.85208 c 0.20664,1.06759 0.56039,1.47611 -0.0984,2.24499 -0.42863,0.50032 -0.95515,0.77549 -1.48907,1.15728 -1.55258,1.10993 -4.28361,2.60324 -6.35,2.67177 -1.25201,0.0415 -2.25902,-0.27702 -3.43959,-0.73237 -1.94574,-0.75062 -3.91689,-1.71926 -6.08541,-1.87828 -0.90197,-0.0661 -2.07355,-0.2204 -2.77549,0.40032 -0.98822,0.87418 -0.889,2.73923 -2.51724,2.87205 -2.0328,0.16563 -3.70867,-2.51857 -5.81978,-2.93105 -1.83726,-0.35931 -4.77784,1.43536 -6.61458,1.75154 m 35.98333,-3.175 c 1.34885,-0.32121 2.4093,-0.28946 3.96875,0 m -91.016662,1.32291 c 1.81901,-0.12858 3.713665,-0.0333 5.291666,0.79375 m 80.433336,1.32292 c 2.10793,-1.22449 3.73856,-1.44489 5.82083,-1.05833 m -92.604165,1.85208 c -0.351737,1.47743 -0.635133,3.23533 1.08323,4.55083 1.945693,1.48961 4.742524,1.5457 7.118853,1.53432 6.861942,-0.0325 13.729493,-0.79401 20.637499,-0.79348 3.234531,2.6e-4 7.162006,0.99695 10.31875,0.44212 1.191683,-0.20929 2.248164,-0.75777 3.003285,-1.77642 1.02579,-1.38403 1.06389,-2.45903 1.230048,-3.69279"
       id="path231" /></g></svg>
