<?xml version="1.0" encoding="UTF-8" standalone="no"?>
<!-- Created with Inkscape (http://www.inkscape.org/) -->

<svg
   width="210mm"
   height="297mm"
   viewBox="0 0 210 297"
   version="1.1"
   id="svg5"
   xml:space="preserve"
   inkscape:version="1.2.2 (b0a8486541, 2022-12-01)"
   xmlns:inkscape="http://www.inkscape.org/namespaces/inkscape"
   xmlns:sodipodi="http://sodipodi.sourceforge.net/DTD/sodipodi-0.dtd"
   xmlns="http://www.w3.org/2000/svg"
   xmlns:svg="http://www.w3.org/2000/svg"><sodipodi:namedview
     id="namedview7"
     pagecolor="#ffffff"
     bordercolor="#000000"
     borderopacity="0.25"
     inkscape:showpageshadow="2"
     inkscape:pageopacity="0.0"
     inkscape:pagecheckerboard="0"
     inkscape:deskcolor="#d1d1d1"
     inkscape:document-units="mm"
     showgrid="false"
     inkscape:zoom="1.0115203"
     inkscape:cx="-27.186799"
     inkscape:cy="391.98421"
     inkscape:window-width="1534"
     inkscape:window-height="831"
     inkscape:window-x="0"
     inkscape:window-y="0"
     inkscape:window-maximized="1"
     inkscape:current-layer="layer1" /><defs
     id="defs2" /><g
     inkscape:label="Layer 1"
     inkscape:groupmode="layer"
     id="layer1"><path
       style="fill:#000000;stroke-width:0.105836"
       d="m 40.523354,142.6285 c -0.746451,-0.23669 -1.262796,-0.5591 -1.77872,-1.11067 -0.795413,-0.85036 -1.13178,-1.85743 -1.13178,-3.38849 0,-2.10939 0.730181,-3.59823 2.134314,-4.35187 0.609453,-0.32711 0.766494,-0.36342 1.728713,-0.3997 1.377718,-0.052 2.071078,0.18483 2.864484,0.97824 0.758591,0.75859 1.019883,1.47031 1.080778,2.94386 l 0.04702,1.13774 H 42.425376 39.38259 l 0.06412,0.54137 c 0.132724,1.12064 0.808296,1.95155 1.807356,2.22291 0.614306,0.16686 2.10049,0.0509 2.896416,-0.22594 0.887712,-0.3088 0.976759,-0.26095 0.976759,0.52488 0,0.5888 -0.02178,0.64688 -0.295743,0.78855 -0.894592,0.46261 -3.317266,0.65332 -4.308139,0.33912 z m 3.572616,-0.3805 0.713756,-0.22046 v -0.48333 c 0,-0.39133 -0.03097,-0.47145 -0.162678,-0.42091 -1.209922,0.46429 -3.117241,0.58317 -3.881622,0.24193 -0.949228,-0.42376 -1.483206,-1.23896 -1.623435,-2.47842 l -0.07477,-0.66087 h 3.082924 3.082926 v -0.50975 c 0,-1.77496 -0.742017,-3.18894 -1.991643,-3.79526 -0.519724,-0.25217 -0.73064,-0.29183 -1.553875,-0.29217 -0.756493,-3.2e-4 -1.057773,0.0475 -1.463912,0.23246 -1.346031,0.61291 -2.114279,1.80641 -2.291225,3.55949 -0.267767,2.65291 0.906986,4.57874 3.071995,5.03608 0.705925,0.14912 2.276103,0.0431 3.091559,-0.20879 z m -4.895571,-5.32616 c 0,-0.9469 0.761033,-2.06662 1.554331,-2.28691 0.699677,-0.19429 1.53667,-0.14009 2.053919,0.13301 0.561711,0.29658 1.018007,1.09189 1.118674,1.94983 l 0.0652,0.55564 h -2.39606 -2.39606 z m 4.444537,-0.0982 c -0.0023,-0.91703 -0.66488,-1.7995 -1.482878,-1.97493 -1.322331,-0.28359 -2.333628,0.44033 -2.684998,1.92201 l -0.06902,0.29105 h 2.118744 2.118743 l -6.35e-4,-0.23813 z m 22.620835,5.81961 c -0.58023,-0.19029 -1.07658,-0.63162 -1.36177,-1.21081 -0.24218,-0.49186 -0.25104,-0.6021 -0.28486,-3.54541 l -0.0349,-3.03777 -0.60011,-0.0315 -0.60011,-0.0315 v -0.42335 c 0,-0.4146 0.0134,-0.4296 0.64616,-0.72626 l 0.64616,-0.30291 0.28321,-0.94608 0.2832,-0.94608 0.55234,0.0319 0.55235,0.0319 0.0304,0.97898 0.0304,0.97899 h 1.26606 1.26607 v 0.68794 0.68793 h -1.27483 -1.27482 l 0.0312,2.91934 0.0312,2.91933 0.35816,0.31987 c 0.34901,0.31168 0.38148,0.3189 1.27004,0.28221 l 0.91187,-0.0377 0.0315,0.60212 c 0.028,0.534 0.004,0.61661 -0.20804,0.73033 -0.33993,0.18193 -2.06405,0.22822 -2.55107,0.0685 z m 2.01317,-0.23906 c 0.4394,-0.0676 0.4498,-0.0786 0.4498,-0.47709 v -0.40789 l -0.72225,0.0606 c -0.94904,0.0796 -1.44308,-0.13627 -1.72308,-0.75277 -0.17506,-0.38543 -0.19617,-0.73735 -0.19825,-3.30409 -0.002,-2.5233 0.018,-2.88054 0.16509,-2.93696 0.0921,-0.0353 0.66359,-0.0643 1.27003,-0.0643 h 1.10263 v -0.42334 -0.42335 h -1.27004 -1.27003 v -1.00544 -1.00545 h -0.30114 c -0.28701,0 -0.31428,0.0438 -0.58101,0.93255 l -0.27987,0.93254 -0.63611,0.30404 c -0.43248,0.2067 -0.63611,0.36556 -0.63611,0.49624 0,0.15672 0.0863,0.19221 0.46761,0.19221 0.86027,0 0.80236,-0.22026 0.80302,3.05412 3.1e-4,1.63329 0.0476,3.09477 0.10694,3.30852 0.23741,0.8547 0.819,1.38948 1.70792,1.57047 0.45374,0.0924 0.65943,0.0856 1.54485,-0.0506 z M 37.697432,126.38353 c -1.299273,-0.27231 -2.710885,-2.20504 -3.197752,-4.37824 l -0.24276,-1.0836 -0.709488,-0.0712 c -0.787019,-0.079 -1.184842,-0.28197 -1.336957,-0.68206 -0.153963,-0.40495 -0.120688,-2.7346 0.05908,-4.13623 0.196383,-1.53118 0.685403,-3.54362 1.169091,-4.8111 0.920847,-2.41303 2.746582,-5.36966 4.406349,-7.13573 l 0.505188,-0.53755 -0.156847,-0.89124 c -0.295834,-1.68102 -0.202381,-2.00061 0.895525,-3.062489 0.45229,-0.43745 0.855551,-0.89998 0.896134,-1.02785 0.09531,-0.3003 -0.505472,-1.26185 -1.046026,-1.67415 l -0.38586,-0.29431 -2.40164,-0.0125 c -2.300403,-0.012 -2.441793,-0.0248 -3.354168,-0.30372 -2.123871,-0.64924 -4.139325,-1.91665 -5.744512,-3.61243 -1.138261,-1.20249 -1.910491,-2.38906 -2.717783,-4.17601 -0.366761,-0.81183 -0.768778,-1.61922 -0.893372,-1.7942 -0.280669,-0.39416 -0.779378,-0.78469 -1.826049,-1.42994 -1.581094,-0.97471 -2.500794,-2.01913 -2.686683,-3.05101 -0.09965,-0.55318 0.223684,-0.84158 1.339486,-1.19479 2.336443,-0.73959 4.500925,-1.13738 7.249783,-1.33238 3.190616,-0.22634 5.365997,-0.0481 9.054579,0.74195 1.266121,0.27118 1.3483,0.24506 2.409378,-0.76568 3.467673,-3.30316 7.233232,-5.18903 11.478109,-5.74847 1.819803,-0.23984 5.506224,-0.15194 6.983104,0.16651 1.62611,0.35063 3.15374,0.8984 4.88231,1.75067 1.77528,0.87531 3.10688,1.81874 4.92139,3.48679 0.6112,0.56187 1.23678,1.08902 1.39017,1.17144 0.31628,0.16995 0.48358,0.14922 2.93333,-0.36352 2.1434,-0.44862 3.78557,-0.58022 6.30657,-0.50541 2.13984,0.0635 4.1099,0.29745 6.06792,0.72057 1.30243,0.28145 3.311598,0.91991 3.543208,1.12594 0.27605,0.24555 0.23661,0.93979 -0.0907,1.59661 -0.33738,0.67704 -1.075978,1.3428 -2.630928,2.37147 -1.43753,0.95099 -1.75044,1.34899 -2.59868,3.30537 -0.79872,1.8422 -1.56629,3.00521 -2.79943,4.2417 -2.60492,2.61199 -5.74554,3.8161 -9.36972,3.59235 -0.72762,-0.0449 -1.45723,-0.0818 -1.62136,-0.082 -0.37417,-3.2e-4 -1.04637,0.63658 -1.55161,1.47023 l -0.35985,0.59375 0.90552,0.86959 c 1.1279,1.083139 1.19838,1.265959 1.1117,2.883469 l -0.0641,1.19512 0.96438,1.19186 c 2.24914,2.77961 3.69961,5.5787 4.47309,8.63204 0.68285,2.69561 0.95216,6.0102 0.55342,6.81149 -0.23711,0.4765 -0.66166,0.67124 -1.46331,0.67124 h -0.59758 l -0.0689,0.60664 c -0.0817,0.71936 -0.34846,1.52994 -0.81574,2.47913 -0.43132,0.87615 -1.63985,2.19319 -2.18411,2.38022 -0.46249,0.15894 -2.00658,0.16757 -2.30331,0.0129 -0.11605,-0.0605 -0.29885,-0.0703 -0.41794,-0.0224 -0.31404,0.12625 -13.282467,0.12309 -13.282467,-0.003 0,-0.0652 -0.10713,-0.0624 -0.29105,0.008 -0.193487,0.0737 -2.508402,0.10441 -6.905823,0.0917 -3.638125,-0.0105 -6.924344,0.007 -7.302709,0.0391 -0.378365,0.032 -0.864196,0.0212 -1.079622,-0.0239 z m 0.25939,-0.1872 c -0.07276,-0.0294 -0.191829,-0.0294 -0.264591,0 -0.07276,0.0294 -0.01323,0.0534 0.132295,0.0534 0.145525,0 0.205058,-0.024 0.132296,-0.0534 z m 1.377887,6.4e-4 c -0.07165,-0.029 -0.214534,-0.0308 -0.31751,-0.004 -0.102975,0.0268 -0.04435,0.0506 0.130282,0.0527 0.17463,0.002 0.258882,-0.0198 0.187228,-0.0488 z m 10.475786,-0.01 c -1.586223,-0.0165 -4.18186,-0.0165 -5.768082,0 -1.586223,0.0165 -0.288404,0.0299 2.884041,0.0299 3.172445,0 4.470263,-0.0135 2.884041,-0.0299 z m 13.229546,-1e-5 c -1.76085,-0.0163 -4.64225,-0.0163 -6.4031,0 -1.760853,0.0163 -0.32016,0.0296 3.20155,0.0296 3.52171,0 4.9624,-0.0133 3.20155,-0.0296 z m 4.65881,0.01 c -0.0717,-0.029 -0.21453,-0.0308 -0.3175,-0.004 -0.10298,0.0268 -0.0443,0.0506 0.13028,0.0527 0.17463,0.002 0.25888,-0.0198 0.18722,-0.0488 z m 1.16219,-6.4e-4 c -0.0728,-0.0294 -0.19183,-0.0294 -0.26459,0 -0.0728,0.0294 -0.0132,0.0534 0.13229,0.0534 0.14553,0 0.20506,-0.024 0.1323,-0.0534 z m -28.415169,-0.11136 c -0.159035,-0.0241 -0.444793,-0.0246 -0.635018,-10e-4 -0.190225,0.0236 -0.06011,0.0433 0.289154,0.0439 0.34926,6.4e-4 0.504899,-0.0187 0.345864,-0.0428 z m -0.959551,-0.0956 c 0.286467,-0.0768 0.379368,-0.49555 0.609434,-2.74691 0.244524,-2.39285 0.238329,-2.47026 -0.233879,-2.92267 -0.499205,-0.47827 -0.869939,-0.66353 -1.649268,-0.82416 -1.139475,-0.23487 -3.271097,0.29809 -3.538359,0.88466 -0.127965,0.28086 0.144653,1.78995 0.485312,2.6865 0.40923,1.07701 1.476356,2.45295 2.188702,2.8221 0.320864,0.16628 1.658259,0.22913 2.138058,0.10048 z m 13.247903,-7.8e-4 0.330739,-0.0661 v -9.24147 -9.24147 l -0.325117,-0.1912 c -0.328426,-0.19314 -2.455,-2.94914 -2.798886,-3.6273 -0.102313,-0.20176 -0.262822,-0.60659 -0.356687,-0.89961 -0.155036,-0.48397 -0.22397,-0.55904 -0.752765,-0.81981 -0.320155,-0.15787 -0.986924,-0.41008 -1.481709,-0.56046 -1.974435,-0.6001 -3.1777,-1.05414 -4.340843,-1.637989 -0.670269,-0.33645 -1.537408,-0.70735 -1.926975,-0.82422 l -0.708303,-0.2125 -0.181161,0.2794 c -0.09964,0.15367 -0.503154,0.58898 -0.896702,0.96734 -0.881146,0.847149 -1.00513,1.200109 -0.824716,2.347779 0.164545,1.04672 0.26171,1.1744 1.062349,1.39594 0.798435,0.22094 2.362738,1.04672 2.736938,1.44481 0.194911,0.20736 0.481645,0.33039 1.080456,0.46362 0.787477,0.17519 2.008374,0.65115 3.294647,1.28439 0.776581,0.38231 1.868957,1.29379 2.536151,2.11616 0.88748,1.09389 1.852398,3.33066 1.436475,3.32988 -0.0868,-2.1e-4 -0.264549,-0.33556 -0.437735,-0.82596 -0.53007,-1.50096 -1.878143,-3.19249 -3.224995,-4.04664 -0.713864,-0.45272 -2.896472,-1.35463 -3.671162,-1.51702 l -0.69706,-0.14611 v 2.45055 c 0,3.56703 -0.154342,4.5302 -0.853547,5.32655 -0.318377,0.36262 -0.324207,0.38903 -0.283429,1.28441 0.02489,0.54646 0.172584,1.42504 0.367183,2.18422 0.38945,1.51932 0.485387,2.2917 0.353637,2.8471 -0.136563,0.57566 -0.399166,0.79797 -1.031014,0.87281 l -0.536686,0.0636 -0.05991,1.01876 c -0.07972,1.35551 -0.354969,3.89204 -0.436693,4.02428 -0.03913,0.0633 0.157886,0.12097 0.493263,0.14437 0.996029,0.0695 11.793332,0.0802 12.134262,0.012 z m 13.542357,-0.003 c 0.19073,-0.0511 0.23201,-0.11674 0.18203,-0.2896 -0.0605,-0.20917 -0.47907,-4.34276 -0.48081,-4.74806 -6.4e-4,-0.1355 -0.0869,-0.18522 -0.32171,-0.18522 -0.49902,0 -1.04356,-0.27374 -1.16147,-0.58387 -0.15065,-0.39622 -0.12972,-1.38991 0.0482,-2.29086 0.23486,-1.18905 0.64378,-2.47303 0.77853,-2.44454 0.0861,0.0182 0.0911,-0.0517 0.0176,-0.24503 -0.0566,-0.14876 -0.10283,-0.50211 -0.10283,-0.78523 0,-0.43962 -0.0523,-0.57022 -0.35838,-0.89474 -0.61824,-0.65553 -0.8247,-2.1511 -0.7711,-5.58577 0.0339,-2.17358 0.0322,-2.19305 -0.18546,-2.14502 -0.12083,0.0266 -0.54276,0.12041 -0.93763,0.20835 -0.84304,0.18775 -2.63697,1.00977 -3.52549,1.61546 -1.29227,0.88093 -2.22586,2.08181 -3.00401,3.86411 -0.20645,0.47286 -0.42211,0.82024 -0.50922,0.82024 -0.22663,0 -0.0951,-0.40744 0.57003,-1.76622 0.93006,-1.89992 2.14468,-3.05904 4.26536,-4.07048 1.16043,-0.55346 1.79037,-0.77044 2.71806,-0.93622 0.64637,-0.11552 0.76709,-0.17364 0.92229,-0.44407 0.13452,-0.23438 0.48535,-0.45585 1.4219,-0.89761 0.68383,-0.32256 1.45759,-0.66602 1.71948,-0.76325 0.42866,-0.15916 0.4836,-0.21875 0.55077,-0.59733 0.136,-0.76647 0.096,-1.73606 -0.0864,-2.0927 -0.0953,-0.1863 -0.55423,-0.70123 -1.01996,-1.144309 l -0.84677,-0.80559 -0.68993,0.20699 c -0.37946,0.11384 -1.28974,0.47981 -2.02284,0.81327 -1.55426,0.706969 -2.18164,0.938759 -3.76237,1.390049 -1.22462,0.34962 -2.21748,0.79341 -2.50748,1.12082 -0.0959,0.10823 -0.25998,0.50531 -0.36469,0.8824 -0.15244,0.54897 -0.37648,0.93284 -1.1242,1.92611 -0.996073,1.32319 -1.427704,1.80546 -1.935353,2.16241 l -0.317397,0.22317 -0.01353,9.27564 -0.01353,9.27564 6.31079,-10e-4 c 3.47094,-8.5e-4 6.42179,-0.0312 6.55746,-0.0675 z m 2.90537,-0.0738 c 0.18731,-0.0785 0.63716,-0.4601 0.99966,-0.84802 0.84298,-0.90209 1.45048,-2.12736 1.7194,-3.46784 0.18316,-0.91303 0.18446,-0.99261 0.02,-1.21924 -0.73334,-1.01056 -3.91204,-1.19402 -4.98886,-0.28793 -0.48357,0.40689 -0.55831,0.62252 -0.54192,1.56348 0.013,0.74961 0.0444,0.88006 0.25064,1.04327 0.22535,0.17833 0.22727,0.19304 0.0436,0.33422 -0.17657,0.13574 -0.18299,0.22949 -0.0794,1.15871 0.062,0.55606 0.11273,1.0865 0.11273,1.17875 0,0.0923 0.11691,0.28464 0.25979,0.42752 0.2301,0.23011 0.35138,0.25978 1.06176,0.25978 0.44109,0 0.95524,-0.0642 1.14255,-0.1427 z M 53.243097,125.7174 c -0.03378,-0.0844 -0.05886,-0.0593 -0.06394,0.0639 -0.0046,0.11157 0.02042,0.17408 0.05559,0.13891 0.03517,-0.0352 0.03893,-0.12645 0.0083,-0.20285 z m -16.476934,-0.0146 c 0,-0.019 -0.130973,-0.14993 -0.29105,-0.29105 l -0.29105,-0.25658 0.25658,0.29105 c 0.239813,0.27203 0.32552,0.33958 0.32552,0.25658 z m 29.810108,-0.52118 c -0.0294,-0.0728 -0.0534,-0.0132 -0.0534,0.1323 0,0.14553 0.024,0.20506 0.0534,0.1323 0.0294,-0.0728 0.0294,-0.19183 0,-0.2646 z m -26.454489,-0.63501 c -0.02523,-0.13098 -0.04587,-0.0238 -0.04587,0.23813 0,0.26194 0.02064,0.3691 0.04587,0.23813 0.02523,-0.13097 0.02523,-0.34529 0,-0.47626 z m 30.459099,0.4498 c 0.10536,-0.11642 0.16775,-0.21167 0.13864,-0.21167 -0.0291,0 -0.13912,0.0952 -0.24448,0.21167 -0.10535,0.11642 -0.16774,0.21167 -0.13864,0.21167 0.0291,0 0.13912,-0.0952 0.24448,-0.21167 z m -4.10568,-0.76608 c -0.0253,-0.13165 -0.047,-0.0489 -0.0482,0.18398 -0.001,0.23284 0.0195,0.34056 0.046,0.23937 0.0265,-0.10119 0.0274,-0.2917 0.002,-0.42335 z m -13.22506,-12.38411 c -0.01592,-2.28474 -0.02895,-0.41541 -0.02895,4.15408 0,4.56948 0.01303,6.43882 0.02895,4.15408 0.01592,-2.28475 0.01592,-6.02342 0,-8.30816 z m -13.022523,11.53617 c -0.02523,-0.13098 -0.04587,-0.0238 -0.04587,0.23813 0,0.26194 0.02064,0.3691 0.04587,0.23813 0.02523,-0.13097 0.02523,-0.34529 0,-0.47626 z m 26.141743,-0.21044 c -0.0253,-0.13165 -0.047,-0.0489 -0.0482,0.18398 -0.001,0.23284 0.0195,0.34055 0.046,0.23936 0.0265,-0.10119 0.0275,-0.29169 0.002,-0.42334 z m -26.037255,-0.58132 c -0.02683,-0.10298 -0.05055,-0.0444 -0.05271,0.13028 -0.0022,0.17463 0.0198,0.25888 0.04879,0.18723 0.02899,-0.0717 0.03075,-0.21454 0.0039,-0.31751 z m 25.932375,-0.74287 c -0.0243,-0.16008 -0.0441,-0.0291 -0.0441,0.29105 0,0.32015 0.0198,0.45113 0.0441,0.29105 0.0242,-0.16008 0.0242,-0.42202 0,-0.5821 z m -31.542748,0.2712 c -0.03379,-0.0844 -0.05886,-0.0593 -0.06394,0.064 -0.0046,0.11157 0.02042,0.17408 0.05559,0.13891 0.03517,-0.0352 0.03893,-0.12646 0.0084,-0.20286 z m 5.720105,-1.0097 c -0.02291,-0.21958 -0.04204,-0.0659 -0.04251,0.34161 -4.23e-4,0.40747 0.01828,0.58713 0.04166,0.39925 0.02338,-0.18788 0.02377,-0.52127 8.47e-4,-0.74086 z m 31.637933,0.47391 c -0.0294,-0.0728 -0.0534,-0.0132 -0.0534,0.13229 0,0.14553 0.024,0.20506 0.0534,0.1323 0.0294,-0.0728 0.0294,-0.19183 0,-0.26459 z m -37.463874,0.007 c -0.03379,-0.0844 -0.05886,-0.0593 -0.06394,0.064 -0.0046,0.11156 0.02042,0.17407 0.05559,0.13891 0.03517,-0.0352 0.03893,-0.12646 0.0084,-0.20286 z m -0.105837,-0.52918 c -0.03379,-0.0844 -0.05886,-0.0593 -0.06394,0.0639 -0.0046,0.11157 0.02042,0.17408 0.05559,0.13891 0.03517,-0.0352 0.03893,-0.12645 0.0084,-0.20285 z m 37.675541,-0.11245 c -0.0294,-0.0728 -0.0534,-0.0132 -0.0534,0.1323 0,0.14552 0.024,0.20505 0.0534,0.13229 0.0294,-0.0728 0.0294,-0.19183 0,-0.26459 z m -38.303479,-0.25817 c -0.101868,-0.0266 -0.26856,-0.0266 -0.370428,0 -0.101867,0.0266 -0.01852,0.0484 0.185214,0.0484 0.203735,0 0.287081,-0.0218 0.185214,-0.0484 z m 0.555641,-0.0329 c 0,-0.0582 -0.05044,-0.10584 -0.112083,-0.10584 -0.06165,0 -0.08265,0.0476 -0.04667,0.10584 0.03598,0.0582 0.08641,0.10584 0.112083,0.10584 0.02567,0 0.04667,-0.0476 0.04667,-0.10584 z m 38.603818,0.0329 c -0.10187,-0.0266 -0.26856,-0.0266 -0.37043,0 -0.10187,0.0266 -0.0185,0.0484 0.18521,0.0484 0.20374,0 0.28708,-0.0218 0.18522,-0.0484 z m -39.902518,-0.0968 c -0.03517,-0.0352 -0.126454,-0.0389 -0.202854,-0.008 -0.08443,0.0338 -0.05935,0.0589 0.06394,0.0639 0.111569,0.005 0.174079,-0.0204 0.138911,-0.0556 z m 7.939932,-0.009 c -0.101868,-0.0266 -0.26856,-0.0266 -0.370428,0 -0.101867,0.0266 -0.01852,0.0484 0.185214,0.0484 0.203735,0 0.287081,-0.0218 0.185214,-0.0484 z m 24.820646,0.004 c -0.0717,-0.029 -0.21454,-0.0308 -0.31751,-0.004 -0.10298,0.0268 -0.0444,0.0505 0.13028,0.0527 0.17463,0.002 0.25888,-0.0198 0.18723,-0.0488 z m 7.77475,0.005 c -0.0352,-0.0352 -0.12645,-0.0389 -0.20285,-0.008 -0.0844,0.0338 -0.0594,0.0589 0.0639,0.0639 0.11156,0.005 0.17407,-0.0204 0.13891,-0.0556 z m -40.93001,-0.0819 c 0,-0.022 -0.08335,-0.10532 -0.185214,-0.18521 -0.167863,-0.13165 -0.171606,-0.1279 -0.03996,0.04 0.138262,0.1763 0.225174,0.23236 0.225174,0.14525 z m 1.327121,-0.0209 c 0.118712,-0.0319 0.261592,-0.16105 0.317509,-0.28701 0.401321,-0.90401 3.253416,-1.4031 4.729454,-0.82762 0.404474,0.1577 0.728667,0.37958 0.97486,0.6672 0.352048,0.41129 0.390944,0.42844 0.853542,0.37629 0.744069,-0.0839 0.899441,-0.28657 0.899441,-1.17345 0,-0.69413 -0.426501,-2.8382 -0.650196,-3.26861 -0.07345,-0.14132 -0.150667,-0.16051 -0.346409,-0.0861 -0.18619,0.0708 -0.591094,9.5e-4 -1.552341,-0.26794 -1.437524,-0.40205 -1.859014,-0.43327 -2.79579,-0.20708 -0.80812,0.19513 -1.005446,0.19721 -1.005446,0.0106 0,-0.19515 1.251201,-0.48474 2.09434,-0.48474 0.343071,0 0.838521,0.0646 1.101001,0.14362 l 0.477237,0.14363 0.845205,-0.82837 0.845204,-0.82837 -0.303685,-0.29095 c -0.213087,-0.20415 -0.397359,-0.59063 -0.617684,-1.29548 -0.349127,-1.11691 -0.381927,-1.38338 -0.170287,-1.38338 0.09075,0 0.232224,0.32937 0.383897,0.89376 0.272804,1.01514 0.502233,1.44757 0.909656,1.71452 0.27987,0.18338 0.286542,0.18177 0.57236,-0.13812 0.477425,-0.53433 0.583365,-1.37971 0.583365,-4.65515 0,-2.68003 -0.01358,-2.88793 -0.202299,-3.09647 -0.240356,-0.26559 -2.126715,-1.20887 -2.838767,-1.41953 l -0.500993,-0.14821 -0.565284,0.59348 c -0.310905,0.32641 -0.91925,1.06974 -1.351876,1.65184 -2.836295,3.81625 -4.24217,7.86521 -4.267826,12.29147 -0.0088,1.52255 0.01139,1.73145 0.186315,1.92555 0.240408,0.26674 0.924032,0.40127 1.395497,0.27461 z m 39.747219,-0.15606 c 0.19767,-0.10579 0.35828,-0.52584 0.46429,-1.21433 0.0839,-0.54462 -0.1979,-3.02153 -0.52617,-4.62549 -0.51298,-2.5065 -1.66897,-5.33317 -3.00516,-7.34835 -0.34125,-0.51465 -1.08407,-1.50724 -1.65071,-2.20576 -0.80203,-0.98868 -1.08047,-1.26362 -1.25688,-1.24109 -0.4519,0.0577 -3.01102,1.37636 -3.18424,1.64073 -0.1462,0.22311 -0.17285,0.6767 -0.18253,3.1059 -0.0113,2.84422 0.0781,3.85661 0.39679,4.49281 0.24803,0.49513 0.39688,0.54788 0.79621,0.28218 0.31096,-0.2069 0.41252,-0.39632 0.75089,-1.40045 0.37,-1.09799 0.51757,-1.3539 0.65372,-1.1336 0.0736,0.11902 -0.41656,1.73646 -0.68739,2.26844 -0.11052,0.21709 -0.3406,0.46693 -0.51129,0.5552 -0.30982,0.16021 -0.31025,0.1618 -0.24956,0.92825 0.0359,0.45386 0.12605,0.84278 0.2204,0.95126 0.17779,0.20439 0.19633,0.20206 1.65335,-0.20744 0.78042,-0.21934 1.1061,-0.25688 1.90506,-0.21962 1.02022,0.0476 1.65164,0.26744 1.65164,0.57511 0,0.11815 -0.0545,0.14473 -0.18521,0.0904 -1.11825,-0.46467 -1.86379,-0.47113 -3.5329,-0.0306 -1.19559,0.31555 -1.30154,0.32735 -1.56766,0.17462 l -0.28541,-0.1638 -0.28486,1.06896 c -0.39834,1.49477 -0.52315,2.25701 -0.46659,2.84961 0.06,0.62822 0.21381,0.79178 0.82167,0.87352 0.4528,0.0609 0.49587,0.0424 0.9747,-0.41862 0.70132,-0.67523 1.33702,-0.84789 2.877,-0.78143 1.45854,0.063 2.18224,0.31096 2.7487,0.94196 0.38539,0.4293 0.39716,0.43387 0.93378,0.36268 0.29891,-0.0396 0.62667,-0.11662 0.72836,-0.17104 z m -31.958912,-0.0741 c 0.131646,-0.16786 0.127903,-0.1716 -0.03996,-0.04 -0.101867,0.0799 -0.185214,0.16324 -0.185214,0.18522 0,0.0871 0.08691,0.031 0.225174,-0.14526 z m -1.706883,0.0449 c 0,-0.019 -0.130972,-0.14993 -0.29105,-0.29105 l -0.29105,-0.25658 0.25658,0.29105 c 0.239814,0.27203 0.32552,0.33959 0.32552,0.25658 z m 26.564925,-0.23012 c 0.13672,-0.14553 0.22476,-0.26459 0.19566,-0.26459 -0.0291,0 -0.16478,0.11906 -0.30149,0.26459 -0.13672,0.14552 -0.22476,0.26459 -0.19565,0.26459 0.0291,0 0.16477,-0.11907 0.30148,-0.26459 z M 42.022238,119.6785 c -0.02936,-0.0728 -0.05338,-0.0132 -0.05338,0.1323 0,0.14552 0.02402,0.20506 0.05338,0.13229 0.02936,-0.0728 0.02936,-0.19182 0,-0.26459 z m -9.728678,-1.79921 c -0.02067,-0.36382 -0.03758,-0.0661 -0.03758,0.66147 0,0.72763 0.01691,1.02529 0.03758,0.66148 0.02067,-0.36381 0.02067,-0.95914 0,-1.32295 z m 32.278431,1.06025 c -0.0236,-0.19022 -0.0433,-0.0601 -0.0439,0.28916 -6.3e-4,0.34926 0.0187,0.5049 0.0428,0.34586 0.0242,-0.15903 0.0246,-0.44479 10e-4,-0.63502 z m 9.83838,0.53391 c -0.0338,-0.0844 -0.0589,-0.0594 -0.0639,0.0639 -0.005,0.11157 0.0204,0.17408 0.0556,0.13891 0.0352,-0.0352 0.0389,-0.12645 0.008,-0.20285 z m -38.096217,-0.0441 c -0.03517,-0.0352 -0.126454,-0.0389 -0.202854,-0.008 -0.08443,0.0338 -0.05935,0.0589 0.06394,0.0639 0.111569,0.005 0.174079,-0.0204 0.138911,-0.0556 z m 34.185147,0 c -0.0352,-0.0352 -0.12645,-0.0389 -0.20285,-0.008 -0.0844,0.0338 -0.0594,0.0589 0.0639,0.0639 0.11156,0.005 0.17407,-0.0204 0.13891,-0.0556 z m -33.600843,-0.11199 c -0.07276,-0.0294 -0.191828,-0.0294 -0.264591,0 -0.07276,0.0294 -0.01323,0.0534 0.132296,0.0534 0.145525,0 0.205058,-0.024 0.132295,-0.0534 z m 1.532423,0.006 c -0.03517,-0.0352 -0.126453,-0.0389 -0.202854,-0.008 -0.08443,0.0338 -0.05935,0.0589 0.06394,0.0639 0.111568,0.005 0.174078,-0.0204 0.13891,-0.0556 z m 31.17421,-0.0134 c -0.24564,-0.0222 -0.67428,-0.0225 -0.95253,-6.3e-4 -0.27825,0.0219 -0.0773,0.04 0.44661,0.0404 0.52389,3.1e-4 0.75155,-0.0176 0.50592,-0.0398 z m -31.80579,-0.10121 c -0.101189,-0.0265 -0.291694,-0.0274 -0.423345,-0.002 -0.131651,0.0253 -0.04886,0.047 0.183979,0.0482 0.23284,0.001 0.340555,-0.0195 0.239366,-0.046 z m 36.7193,-0.80043 c -0.0252,-0.13098 -0.0459,-0.0238 -0.0459,0.23813 0,0.26194 0.0206,0.3691 0.0459,0.23813 0.0252,-0.13097 0.0252,-0.34529 0,-0.47626 z m -32.4935,0.0529 c -0.02662,-0.10187 -0.0484,-0.0185 -0.0484,0.18521 0,0.20373 0.02178,0.28708 0.0484,0.18521 0.02662,-0.10187 0.02662,-0.26856 0,-0.37042 z m 22.64612,-0.37043 c -0.0294,-0.0728 -0.0534,-0.0132 -0.0534,0.13229 0,0.14553 0.024,0.20506 0.0534,0.1323 0.0294,-0.0728 0.0294,-0.19183 0,-0.26459 z m -22.752615,-0.20506 c -0.03379,-0.0844 -0.05886,-0.0594 -0.06394,0.0639 -0.0046,0.11157 0.02042,0.17408 0.05559,0.13891 0.03517,-0.0352 0.03893,-0.12645 0.0084,-0.20285 z m 32.494325,-0.53456 c -0.0253,-0.13165 -0.047,-0.0489 -0.0482,0.18398 -0.001,0.23284 0.0195,0.34055 0.046,0.23936 0.0265,-0.10119 0.0275,-0.29169 0.002,-0.42334 z m -9.63367,0.21705 c -0.0338,-0.0844 -0.0589,-0.0594 -0.0639,0.0639 -0.005,0.11157 0.0204,0.17408 0.0556,0.13891 0.0352,-0.0352 0.0389,-0.12645 0.008,-0.20285 z M 41.81277,117.46238 c -0.03379,-0.0844 -0.05886,-0.0594 -0.06394,0.0639 -0.0046,0.11157 0.02042,0.17408 0.05559,0.13891 0.03517,-0.0352 0.03893,-0.12646 0.0084,-0.20286 z m -0.105837,-0.42356 c -0.03378,-0.0844 -0.05886,-0.0593 -0.06394,0.0639 -0.0046,0.11157 0.02042,0.17408 0.05559,0.13891 0.03517,-0.0352 0.03893,-0.12645 0.0084,-0.20285 z m -9.311044,-0.6404 c -0.02531,-0.13165 -0.04699,-0.0489 -0.04816,0.18398 -0.0012,0.23284 0.01954,0.34055 0.04603,0.23937 0.02649,-0.10119 0.02745,-0.2917 0.0021,-0.42335 z m 41.909692,0.0537 c -0.0268,-0.10298 -0.0506,-0.0444 -0.0527,0.13028 -0.002,0.17463 0.0198,0.25888 0.0488,0.18723 0.029,-0.0717 0.0307,-0.21454 0.004,-0.31751 z m -0.10584,-0.74086 c -0.0268,-0.10297 -0.0506,-0.0444 -0.0527,0.13028 -0.002,0.17463 0.0198,0.25889 0.0488,0.18723 0.029,-0.0717 0.0307,-0.21453 0.004,-0.31751 z m -41.699526,-0.10583 c -0.02683,-0.10298 -0.05055,-0.0444 -0.05271,0.13028 -0.0022,0.17463 0.0198,0.25888 0.04879,0.18723 0.02899,-0.0717 0.03075,-0.21454 0.0039,-0.31751 z m 33.370946,0.0374 c 0,-0.022 -0.0833,-0.10532 -0.18521,-0.18521 -0.16786,-0.13165 -0.17161,-0.12791 -0.04,0.04 0.13826,0.17629 0.22517,0.23236 0.22517,0.14525 z m 0.81803,-0.024 c -0.0352,-0.0352 -0.12645,-0.0389 -0.20285,-0.008 -0.0844,0.0338 -0.0593,0.0589 0.0639,0.0639 0.11157,0.005 0.17408,-0.0204 0.13891,-0.0556 z m -25.710741,-0.1689 c 0.07467,-0.0747 0.127004,-0.4333 0.127004,-0.87031 v -0.74331 l -0.742589,0.7369 -0.742589,0.7369 0.345703,0.12536 c 0.45649,0.16554 0.855693,0.17124 1.012471,0.0145 z m 0.309939,-1.22241 c -0.02284,-0.21829 -0.04152,-0.0397 -0.04152,0.39689 0,0.43657 0.01868,0.61517 0.04152,0.39688 0.02283,-0.21828 0.02283,-0.57548 0,-0.79377 z m 32.802272,0.79377 c -0.0294,-0.0728 -0.0534,-0.0132 -0.0534,0.1323 0,0.14552 0.024,0.20506 0.0534,0.13229 0.0294,-0.0728 0.0294,-0.19182 0,-0.26459 z m -41.48786,-0.10583 c -0.02936,-0.0728 -0.05338,-0.0132 -0.05338,0.13229 0,0.14553 0.02402,0.20506 0.05338,0.1323 0.02936,-0.0728 0.02936,-0.19183 0,-0.26459 z m 4.134698,0.28002 c -0.03517,-0.0352 -0.126453,-0.0389 -0.202853,-0.008 -0.08443,0.0338 -0.05935,0.0589 0.06394,0.0639 0.111568,0.005 0.174078,-0.0204 0.13891,-0.0556 z m 1.1683,-0.11751 c -0.159035,-0.0241 -0.444793,-0.0246 -0.635018,-10e-4 -0.190225,0.0236 -0.06011,0.0433 0.289154,0.0439 0.34926,6.4e-4 0.504899,-0.0187 0.345864,-0.0428 z m 31.643182,-10e-4 c -0.21829,-0.0228 -0.57549,-0.0228 -0.79378,0 -0.21828,0.0228 -0.0397,0.0415 0.39689,0.0415 0.43658,0 0.61517,-0.0187 0.39689,-0.0415 z m 4.43804,-0.57776 c -0.0338,-0.0844 -0.0589,-0.0593 -0.0639,0.0639 -0.005,0.11157 0.0204,0.17408 0.0556,0.13891 0.0352,-0.0352 0.0389,-0.12645 0.008,-0.20285 z m -41.276179,-0.10584 c -0.03378,-0.0844 -0.05886,-0.0593 -0.06394,0.0639 -0.0046,0.11157 0.02042,0.17408 0.05559,0.13891 0.03517,-0.0352 0.03893,-0.12645 0.0084,-0.20285 z m 7.984767,-0.37704 c 0.131646,-0.16787 0.127903,-0.17161 -0.03996,-0.04 -0.101867,0.0799 -0.185214,0.16323 -0.185214,0.18521 0,0.0871 0.08691,0.031 0.225174,-0.14525 z m -7.87893,-0.15214 c -0.03379,-0.0844 -0.05886,-0.0593 -0.06394,0.0639 -0.0046,0.11157 0.02042,0.17408 0.05559,0.13891 0.03517,-0.0352 0.03893,-0.12645 0.0084,-0.20285 z m 40.958672,-0.31751 c -0.0338,-0.0844 -0.0589,-0.0593 -0.0639,0.0639 -0.005,0.11157 0.0204,0.17408 0.0556,0.13891 0.0352,-0.0352 0.0389,-0.12645 0.008,-0.20285 z m -40.852836,-0.10584 c -0.03379,-0.0844 -0.05886,-0.0593 -0.06394,0.064 -0.0046,0.11156 0.02042,0.17407 0.05559,0.13891 0.03517,-0.0352 0.03893,-0.12646 0.0084,-0.20286 z m 8.552617,0.12689 c 0.03708,-0.06 -0.0054,-0.0777 -0.09959,-0.0416 -0.183353,0.0704 -0.2169,0.14622 -0.06466,0.14622 0.05477,0 0.128688,-0.0471 0.164252,-0.10463 z m 24.024859,0 c 0.0371,-0.06 -0.005,-0.0777 -0.0996,-0.0416 -0.18336,0.0704 -0.2169,0.14622 -0.0647,0.14622 0.0548,0 0.12869,-0.0471 0.16425,-0.10463 z m -23.640182,-0.39809 c 0.131646,-0.16787 0.127903,-0.17161 -0.03996,-0.04 -0.176297,0.13826 -0.232362,0.22517 -0.145254,0.22517 0.02198,0 0.105323,-0.0833 0.185214,-0.18521 z m 22.707782,-0.68133 c -0.0338,-0.0844 -0.0589,-0.0593 -0.0639,0.0639 -0.005,0.11157 0.0204,0.17408 0.0556,0.13891 0.0352,-0.0352 0.0389,-0.12646 0.008,-0.20286 z m -22.331476,-0.42334 c -0.03378,-0.0844 -0.05886,-0.0594 -0.06394,0.0639 -0.0046,0.11157 0.02042,0.17408 0.05559,0.13891 0.03517,-0.0352 0.03893,-0.12645 0.0084,-0.20285 z m 22.223436,-0.21829 c -0.0294,-0.0728 -0.0534,-0.0132 -0.0534,0.1323 0,0.14552 0.024,0.20506 0.0534,0.13229 0.0294,-0.0728 0.0294,-0.19183 0,-0.26459 z M 42.344508,111.2129 c -0.02532,-0.13165 -0.04699,-0.0489 -0.04817,0.18398 -0.0012,0.23284 0.01954,0.34055 0.04603,0.23936 0.02649,-0.10119 0.02745,-0.29169 0.0021,-0.42334 z m 22.014913,-0.37166 c -0.0242,-0.16008 -0.0441,-0.0291 -0.0441,0.29105 0,0.32015 0.0198,0.45112 0.0441,0.29105 0.0242,-0.16008 0.0242,-0.42203 0,-0.5821 z m -21.90499,-3.33385 c -0.01886,-0.59665 -0.0343,-0.10848 -0.0343,1.08482 0,1.19331 0.01543,1.68148 0.0343,1.08483 0.01887,-0.59666 0.01887,-1.573 0,-2.16965 z m 21.80005,1.37777 c -0.0236,-0.19023 -0.0433,-0.0601 -0.0439,0.28915 -6.3e-4,0.34926 0.0187,0.5049 0.0428,0.34587 0.0242,-0.15904 0.0246,-0.4448 10e-4,-0.63502 z m -6.37396,-0.0813 c 0.10536,-0.11642 0.16775,-0.21168 0.13864,-0.21168 -0.0291,0 -0.13912,0.0953 -0.24448,0.21168 -0.10536,0.11642 -0.16775,0.21167 -0.13864,0.21167 0.0291,0 0.13912,-0.0952 0.24448,-0.21167 z m -9.366522,-0.37043 c -0.257079,-0.26195 -0.491231,-0.47626 -0.520336,-0.47626 -0.02911,0 0.15742,0.21431 0.4145,0.47626 0.25708,0.26194 0.491231,0.47626 0.520336,0.47626 0.02911,0 -0.15742,-0.21432 -0.4145,-0.47626 z M 58.621371,108.063 c 0.10536,-0.11642 0.16775,-0.21167 0.13865,-0.21167 -0.0291,0 -0.13913,0.0952 -0.24448,0.21167 -0.10536,0.11642 -0.16775,0.21167 -0.13865,0.21167 0.0291,0 0.13912,-0.0952 0.24448,-0.21167 z m 5.73949,-1.02954 c -0.0229,-0.21959 -0.042,-0.0659 -0.0425,0.34161 -4.3e-4,0.40747 0.0183,0.58713 0.0417,0.39924 0.0234,-0.18788 0.0238,-0.52127 8.4e-4,-0.74085 z m -10.859052,0.20931 c 0.131647,-0.16786 0.127903,-0.17161 -0.03996,-0.04 -0.176297,0.13826 -0.232361,0.22517 -0.145254,0.22517 0.02198,0 0.105323,-0.0833 0.185214,-0.18521 z m 0.15431,-0.34957 c 0.694374,-0.42914 2.734812,-3.20316 2.857952,-3.88546 0.0392,-0.21742 0.11439,-0.47866 0.16698,-0.58053 0.0667,-0.12922 0.0545,-0.18816 -0.0404,-0.19496 -0.23299,-0.0167 -6.856625,-0.0534 -6.856625,-0.038 0,0.20389 0.500328,1.3399 0.754384,1.71285 1.234664,1.8125 2.393422,3.20334 2.668807,3.20334 0.05354,0 0.25554,-0.0978 0.448892,-0.21727 z m 0.586545,-0.17961 c 0.131646,-0.16787 0.127903,-0.17161 -0.03996,-0.04 -0.176297,0.13826 -0.232362,0.22517 -0.145254,0.22517 0.02198,0 0.105323,-0.0833 0.185214,-0.18521 z m -11.736046,-0.92287 c 0.02748,-0.14376 0.0092,-0.2362 -0.04058,-0.20542 -0.08769,0.0542 -0.131858,0.46681 -0.04997,0.46681 0.02232,0 0.06307,-0.11762 0.09055,-0.26139 z m 1.216081,-0.0142 c -0.03517,-0.0352 -0.126453,-0.0389 -0.202853,-0.008 -0.08443,0.0338 -0.05935,0.0589 0.06394,0.064 0.111568,0.005 0.174079,-0.0204 0.13891,-0.0556 z m 11.366652,-0.12127 c 0.13165,-0.16786 0.12791,-0.1716 -0.03996,-0.04 -0.176297,0.13827 -0.232362,0.22518 -0.145254,0.22518 0.02198,0 0.105323,-0.0833 0.185211,-0.18522 z m 8.10724,0.12127 c -0.0352,-0.0352 -0.12645,-0.0389 -0.20285,-0.008 -0.0844,0.0338 -0.0593,0.0589 0.0639,0.064 0.11157,0.005 0.17408,-0.0204 0.13891,-0.0556 z m -20.003074,-0.10629 c -0.03517,-0.0352 -0.126453,-0.0389 -0.202853,-0.008 -0.08443,0.0338 -0.05935,0.0589 0.06394,0.0639 0.111569,0.005 0.174079,-0.0204 0.13891,-0.0556 z m 20.532254,0 c -0.0352,-0.0352 -0.12645,-0.0389 -0.20285,-0.008 -0.0844,0.0338 -0.0593,0.0589 0.0639,0.0639 0.11157,0.005 0.17408,-0.0204 0.13891,-0.0556 z m -21.456117,-0.39936 c 0,-0.022 -0.08335,-0.10533 -0.185214,-0.18522 -0.167863,-0.13164 -0.171606,-0.1279 -0.03996,0.04 0.138262,0.1763 0.225174,0.23236 0.225174,0.14526 z m 22.450807,-0.25109 c 0.13165,-0.16787 0.12791,-0.17161 -0.04,-0.04 -0.10186,0.0799 -0.18521,0.16323 -0.18521,0.18521 0,0.0871 0.0869,0.031 0.22517,-0.14525 z m 4.43163,-0.38393 c 0,-0.022 -0.0833,-0.10532 -0.18521,-0.18522 -0.16787,-0.13164 -0.17161,-0.1279 -0.04,0.04 0.13826,0.1763 0.22517,0.23237 0.22517,0.14526 z m -30.58671,-0.98752 c 0,-0.0795 -0.09502,0.005 -0.533605,0.47184 l -0.471841,0.50272 0.502723,-0.47184 c 0.276498,-0.25951 0.502723,-0.48574 0.502723,-0.50272 z m 29.70428,-0.7982 c -0.0294,-0.0728 -0.0534,-0.0132 -0.0534,0.1323 0,0.14552 0.024,0.20505 0.0534,0.13229 0.0294,-0.0728 0.0294,-0.19183 0,-0.26459 z m -29.84586,-0.10584 c -0.02936,-0.0728 -0.05338,-0.0132 -0.05338,0.1323 0,0.14552 0.02402,0.20506 0.05338,0.13229 0.02936,-0.0728 0.02936,-0.19182 0,-0.26459 z m 18.3119,0.11246 c -0.0338,-0.0844 -0.0589,-0.0594 -0.0639,0.0639 -0.005,0.11157 0.0204,0.17408 0.0556,0.13891 0.0352,-0.0352 0.0389,-0.12645 0.008,-0.20285 z m 11.64733,-1.48553 c -0.0224,-0.24893 -0.041,-0.0716 -0.0414,0.39409 -4.2e-4,0.46568 0.0179,0.66935 0.0406,0.4526 0.0227,-0.21675 0.0231,-0.59776 7.4e-4,-0.84669 z m -30.065066,0.73806 c -0.02936,-0.0728 -0.05338,-0.0132 -0.05338,0.13229 0,0.14553 0.02402,0.20506 0.05338,0.1323 0.02936,-0.0728 0.02936,-0.19183 0,-0.26459 z m 11.267531,-0.002 c -0.104526,-0.10375 -0.116682,-0.0916 -0.05925,0.0593 0.03974,0.10437 0.09892,0.16311 0.13151,0.13053 0.03259,-0.0326 6.8e-5,-0.11799 -0.07226,-0.18978 z m 7.514745,0.0547 c 0.13165,-0.16786 0.12791,-0.17161 -0.04,-0.04 -0.17629,0.13826 -0.23236,0.22517 -0.14525,0.22517 0.022,0 0.10532,-0.0833 0.18521,-0.18521 z m -3.10921,-0.10494 c -0.392917,-0.0204 -1.035873,-0.0204 -1.428791,0 -0.392917,0.0204 -0.07144,0.037 0.714396,0.037 0.785835,0 1.107313,-0.0167 0.714395,-0.037 z m -2.80147,-0.10469 c -0.245636,-0.0222 -0.674273,-0.0225 -0.952528,-6.3e-4 -0.278253,0.0219 -0.07728,0.04 0.446612,0.0403 0.52389,3.2e-4 0.751552,-0.0176 0.505916,-0.0398 z m 4.91584,1e-4 c -0.21959,-0.0229 -0.55297,-0.0225 -0.74086,8.5e-4 -0.18788,0.0234 -0.008,0.0421 0.39925,0.0417 0.40747,-4.2e-4 0.56119,-0.0196 0.34161,-0.0425 z m 1.66928,-0.43949 c 0.34926,-0.1739 1.23035,-0.49149 1.95797,-0.70575 1.48252,-0.43654 2.38598,-0.77943 3.95499,-1.501009 0.58973,-0.27122 1.358,-0.57098 1.70726,-0.66615 0.60338,-0.16441 0.66028,-0.20948 1.14206,-0.90472 0.62847,-0.90694 1.07044,-1.36904 1.46617,-1.53296 0.16773,-0.0695 0.32595,-0.22744 0.35161,-0.35105 0.0257,-0.1236 0.17163,-0.74144 0.32439,-1.37296 0.15276,-0.63153 0.31469,-1.5146 0.35983,-1.96238 0.0451,-0.44777 0.13426,-0.91165 0.19805,-1.03084 0.12775,-0.2387 1.19484,-1.09745 1.3637,-1.09745 0.21166,0 0.45438,-0.39441 0.66765,-1.08488 0.26795,-0.86754 1.09117,-2.12095 1.82888,-2.7846 1.9522,-1.75623 4.37262,-2.6878 7.80269,-3.00312 1.7175,-0.15788 2.54007,-0.14809 2.54007,0.0302 0,0.10722 -0.29692,0.16057 -1.19066,0.21395 -4.45297,0.26593 -7.07246,1.2091 -9.12839,3.28674 -0.77766,0.78587 -1.32556,1.6829 -1.60341,2.62515 -0.19728,0.66897 -0.28057,0.78031 -0.77097,1.03049 -0.2077,0.10596 -0.58282,0.37633 -0.83359,0.60082 -0.44451,0.39792 -0.45806,0.42957 -0.54019,1.26138 -0.0463,0.46928 -0.21817,1.40238 -0.38187,2.07357 -0.1637,0.67119 -0.26919,1.29449 -0.23441,1.38511 0.0488,0.1272 0.31225,0.18168 1.15547,0.23893 3.55212,0.24118 6.92101,-1.10288 9.45758,-3.77324 1.02282,-1.07676 1.69182,-2.12119 2.43016,-3.79392 0.94843,-2.1487 1.2533,-2.54822 2.64573,-3.46713 2.007148,-1.3246 2.910498,-2.29474 2.910498,-3.1257 0,-0.38702 -0.25143,-0.52415 -1.762398,-0.96123 -4.56721,-1.32115 -9.60902,-1.57121 -13.84351,-0.68661 -2.40224,0.50184 -2.61487,0.53499 -2.98534,0.46549 -0.24929,-0.0468 -0.71402,-0.39227 -1.58237,-1.17641 -2.34257,-2.11539 -3.52589,-2.93003 -5.70911,-3.93036 -2.5007,-1.14581 -4.4461,-1.60304 -7.195086,-1.6911 -3.874257,-0.12411 -6.596532,0.43874 -9.791328,2.02443 -1.796208,0.89151 -3.468196,2.09972 -5.274034,3.81111 -1.107484,1.04956 -1.305015,1.11673 -2.521297,0.85729 -1.823155,-0.3889 -3.530426,-0.68551 -4.635032,-0.80529 -2.113226,-0.22913 -6.268316,0.0511 -8.837336,0.596 -1.841392,0.39057 -3.620469,0.95426 -3.833243,1.21455 -0.172436,0.21094 -0.171187,0.25066 0.02403,0.76442 0.285679,0.75184 0.972332,1.41398 2.57734,2.48532 1.522514,1.01628 1.870197,1.40343 2.40026,2.67269 0.918906,2.20036 1.931496,3.73033 3.403256,5.14214 1.578015,1.51374 3.00002,2.36836 4.992821,3.00066 1.217959,0.38645 2.414003,0.49722 4.116013,0.38121 1.089272,-0.0742 1.133583,-0.0867 1.087113,-0.30538 -0.02664,-0.12539 -0.188737,-0.82332 -0.360206,-1.55094 -0.171467,-0.72763 -0.346436,-1.60492 -0.388818,-1.94955 -0.06424,-0.52234 -0.143547,-0.69873 -0.476649,-1.06011 -0.219776,-0.23843 -0.591431,-0.54132 -0.825901,-0.6731 l -0.42631,-0.2396 -0.270932,0.47947 c -0.149013,0.26371 -0.395484,0.69972 -0.547714,0.96892 -0.342604,0.60585 -0.968354,1.30977 -1.164325,1.30977 -0.251229,0 -0.162926,-0.21498 0.303365,-0.73856 0.247393,-0.27779 0.677388,-0.92575 0.955545,-1.43991 l 0.50574,-0.93484 -0.339651,-0.85112 c -0.186807,-0.46812 -0.412226,-0.97019 -0.50093,-1.11572 -1.162117,-1.90652 -4.164731,-3.63826 -7.234542,-4.17248 -0.480747,-0.0837 -1.576573,-0.18612 -2.435171,-0.2277 -1.289161,-0.0624 -1.561086,-0.10346 -1.561086,-0.23559 0,-0.13871 0.21477,-0.1511 1.614004,-0.0931 3.179975,0.13189 5.299275,0.75591 7.59376,2.23598 1.402219,0.90451 2.219069,1.89218 2.819426,3.40903 0.372043,0.93999 0.437413,1.03502 0.933502,1.35703 1.020658,0.6625 1.22896,0.97274 1.436727,2.13985 0.101584,0.57064 0.318188,1.61808 0.481343,2.32766 0.263601,1.14643 0.324214,1.29706 0.544136,1.35226 0.333103,0.0836 1.179704,0.9457 1.532053,1.56009 0.254763,0.44423 0.350659,0.51709 0.884985,0.67243 0.329595,0.0958 1.223742,0.47816 1.986995,0.84967 0.790945,0.38498 2.117148,0.907369 3.083878,1.214729 0.93288,0.2966 2.02953,0.68817 2.437,0.87015 0.656733,0.2933 0.891073,0.33841 2.06381,0.39722 0.727625,0.0365 2.4898,0.053 3.915945,0.0366 l 2.592994,-0.0298 z m -5.106604,-2.882609 c -0.202949,-0.0586 -0.343969,-0.16858 -0.343969,-0.26827 0,-0.13697 0.06512,-0.15335 0.343969,-0.0865 0.439982,0.10544 0.76266,0.10569 1.322954,10e-4 0.367597,-0.0687 0.449805,-0.0548 0.449805,0.0757 0,0.10067 -0.17385,0.2035 -0.470212,0.27812 -0.546016,0.13749 -0.826361,0.13749 -1.302547,-1e-5 z m 0.740854,-0.0575 c -0.07276,-0.0294 -0.191828,-0.0294 -0.264591,0 -0.07276,0.0294 -0.01323,0.0534 0.132296,0.0534 0.145525,0 0.205058,-0.024 0.132295,-0.0534 z m -2.249023,-1.70608 c -0.378365,-0.0945 -0.987235,-0.17179 -1.353046,-0.17178 -0.543517,3e-5 -0.659258,-0.0299 -0.633102,-0.16375 0.04431,-0.22674 1.150886,-0.21462 2.219818,0.0243 1.029243,0.23005 2.840614,0.23648 3.841033,0.0136 1.47054,-0.32758 2.16964,-0.32218 2.16964,0.0168 0,0.126 -0.0782,0.14686 -0.35555,0.0948 -0.21222,-0.0398 -0.76613,0.0222 -1.37403,0.15396 -1.281682,0.27769 -3.468956,0.2932 -4.514763,0.032 z m 2.778205,0.004 c -0.363812,-0.0207 -0.959142,-0.0207 -1.322955,0 -0.363812,0.0207 -0.06615,0.0376 0.661478,0.0376 0.727625,0 1.02529,-0.0169 0.661477,-0.0376 z m -2.222564,-0.0976 c -0.07276,-0.0294 -0.191828,-0.0294 -0.264591,0 -0.07276,0.0294 -0.01323,0.0534 0.132296,0.0534 0.145525,0 0.205058,-0.024 0.132295,-0.0534 z m 3.492602,0 c -0.0728,-0.0294 -0.19183,-0.0294 -0.264592,0 -0.07276,0.0294 -0.01323,0.0534 0.132292,0.0534 0.14553,0 0.20506,-0.024 0.1323,-0.0534 z m 0.47406,-0.0997 c -0.0352,-0.0352 -0.12646,-0.0389 -0.20286,-0.008 -0.0844,0.0338 -0.0593,0.0589 0.0639,0.0639 0.11157,0.005 0.17408,-0.0204 0.13892,-0.0556 z m -5.446916,-0.22223 c -0.130172,-0.0251 -0.368304,-0.0258 -0.529181,-10e-4 -0.160878,0.0243 -0.05437,0.0449 0.236676,0.0457 0.29105,7.4e-4 0.422678,-0.0191 0.292505,-0.0442 z m 6.720386,0.002 c -0.10119,-0.0265 -0.29169,-0.0274 -0.42334,-0.002 -0.13165,0.0253 -0.0489,0.047 0.18398,0.0482 0.23284,10e-4 0.34055,-0.0195 0.23936,-0.046 z m -4.208227,-2.81257 c -0.396444,-0.14026 -0.529118,-0.48005 -0.158755,-0.40658 0.385387,0.0765 1.26545,0.0597 1.561087,-0.0298 0.234649,-0.071 0.29105,-0.0546 0.29105,0.0848 0,0.33675 -1.093583,0.56381 -1.693382,0.35159 z m -0.72181,-1.52766 c 0.05453,-0.28316 0.699816,-0.59872 1.240498,-0.60663 0.548582,-0.008 1.492203,0.39466 1.492203,0.6368 0,0.20217 -0.144264,0.188 -0.635018,-0.0624 -0.228203,-0.11642 -0.5854,-0.21167 -0.793773,-0.21167 -0.208373,0 -0.565571,0.0952 -0.793773,0.21167 -0.505023,0.25764 -0.554153,0.26074 -0.510137,0.0322 z m -6.753908,-0.82524 c -0.3571,-0.0777 -0.95243,-0.26773 -1.322955,-0.42238 -0.370525,-0.15465 -0.830332,-0.32821 -1.021794,-0.38568 -0.191462,-0.0575 -0.690194,-0.26845 -1.108296,-0.46882 -0.418101,-0.20037 -0.844873,-0.36431 -0.948384,-0.36431 -0.119686,0 -0.188199,-0.0797 -0.188199,-0.2188 0,-0.26698 0.137822,-0.23783 1.270037,0.26865 1.330159,0.59502 1.235883,0.62431 1.289681,-0.40069 0.07717,-1.47026 0.651267,-2.17681 1.967657,-2.42162 0.788746,-0.14668 1.354024,-0.041 1.715799,0.32077 0.33753,0.33753 0.847863,1.78401 0.847863,2.40317 0,0.66625 -0.38991,1.32793 -0.948494,1.60961 -0.535689,0.27013 -0.651628,0.27611 -1.552915,0.0801 z m 0.516977,-0.12373 c -0.07276,-0.0294 -0.191829,-0.0294 -0.264591,0 -0.07276,0.0294 -0.01323,0.0534 0.132295,0.0534 0.145525,0 0.205058,-0.024 0.132296,-0.0534 z m 1.083375,-0.37103 c 0.33187,-0.26105 0.583729,-0.78898 0.583163,-1.22241 -5.29e-4,-0.41601 -0.585835,-1.93315 -0.846221,-2.1935 -0.177309,-0.17728 -0.341011,-0.21509 -0.882255,-0.20378 -1.492541,0.0312 -2.250254,0.93382 -2.168512,2.5832 l 0.03091,0.62361 0.583819,0.21168 c 1.389633,0.50384 2.234312,0.56681 2.6991,0.2012 z m 0.279539,0.0442 c 0.131647,-0.16786 0.127903,-0.1716 -0.03996,-0.04 -0.176296,0.13826 -0.232361,0.22518 -0.145254,0.22518 0.02198,0 0.105323,-0.0833 0.185214,-0.18522 z m -3.746907,-1.63857 c -0.02356,-0.19022 -0.04331,-0.0601 -0.04391,0.28916 -6.35e-4,0.34926 0.01868,0.5049 0.04283,0.34586 0.02415,-0.15903 0.02463,-0.44479 0.0011,-0.63502 z m 4.231444,0.10394 c -0.02523,-0.13097 -0.04587,-0.0238 -0.04587,0.23814 0,0.26194 0.02064,0.3691 0.04587,0.23813 0.02523,-0.13097 0.02523,-0.34529 0,-0.47627 z m -2.376633,-2.26619 c -0.07276,-0.0294 -0.191828,-0.0294 -0.264591,0 -0.07276,0.0294 -0.01323,0.0534 0.132296,0.0534 0.145525,0 0.205058,-0.024 0.132295,-0.0534 z m 0.742869,-0.10517 c -0.07165,-0.029 -0.214534,-0.0308 -0.317509,-0.004 -0.102976,0.0268 -0.04435,0.0506 0.130281,0.0527 0.17463,0.002 0.258882,-0.0198 0.187228,-0.0488 z m 13.248561,4.30874 c -1.3577,-0.48341 -1.6353,-0.81738 -1.63231,-1.96383 0.004,-1.60647 0.80683,-2.38132 2.46676,-2.38132 1.17906,0 1.50116,0.3385 1.97811,2.07885 0.22826,0.83293 0.24736,0.86249 0.63146,0.97757 0.68231,0.20443 1.17477,0.14235 1.99713,-0.25176 0.75943,-0.36395 1.17905,-0.46229 1.17905,-0.27634 0,0.1312 -1.53045,0.84475 -2.07233,0.96619 -0.33098,0.0742 -0.57974,0.0598 -0.95997,-0.0556 -0.65776,-0.19956 -0.59203,-0.21705 -0.8275,0.22018 -0.44529,0.82685 -1.5758,1.10782 -2.7604,0.68605 z m 1.40776,0.0242 c -0.16008,-0.0242 -0.42202,-0.0242 -0.5821,0 -0.16008,0.0242 -0.0291,0.0441 0.29105,0.0441 0.32016,0 0.45113,-0.0198 0.29105,-0.0441 z m 0.56887,-0.394 c 0.20893,-0.14197 0.45702,-0.42072 0.55132,-0.61944 0.1607,-0.33864 0.15811,-0.40946 -0.0412,-1.12856 -0.45855,-1.65474 -0.77347,-1.9658 -1.90801,-1.88462 -0.61959,0.0443 -0.80933,0.10544 -1.13492,0.36551 -0.52494,0.41931 -0.76102,0.9152 -0.76122,1.59898 -3.2e-4,0.95232 0.22482,1.22638 1.37571,1.67492 0.8166,0.31825 1.44321,0.31603 1.91828,-0.007 z m 1.08041,-0.80859 c 0.15727,-0.006 0.17944,-0.0273 0.0706,-0.0688 -0.0873,-0.0332 -0.19374,-0.11283 -0.23651,-0.17686 -0.0552,-0.0827 -0.0782,-0.0806 -0.0794,0.007 -8.4e-4,0.068 -0.0176,0.18706 -0.0372,0.26459 -0.0196,0.0775 -0.0156,0.10523 0.009,0.0616 0.0244,-0.0437 0.14759,-0.0831 0.27371,-0.0877 z m 0.88859,0.15609 c -0.0352,-0.0352 -0.12645,-0.0389 -0.20285,-0.008 -0.0844,0.0338 -0.0593,0.0589 0.0639,0.0639 0.11157,0.005 0.17408,-0.0204 0.13891,-0.0556 z m 0.69014,-0.006 c -0.0728,-0.0294 -0.19183,-0.0294 -0.26459,0 -0.0728,0.0294 -0.0132,0.0534 0.1323,0.0534 0.14552,0 0.20505,-0.024 0.13229,-0.0534 z m -6.08841,-1.33224 c -0.0235,-0.18918 -0.0427,-0.0344 -0.0427,0.34397 0,0.37836 0.0192,0.53315 0.0427,0.34397 0.0235,-0.18919 0.0235,-0.49876 0,-0.68794 z m 0.61138,-1.24358 c 0.10536,-0.11642 0.16775,-0.21167 0.13864,-0.21167 -0.0291,0 -0.13912,0.0953 -0.24448,0.21167 -0.10536,0.11642 -0.16775,0.21167 -0.13864,0.21167 0.0291,0 0.13912,-0.0953 0.24448,-0.21167 z m 2.9105,-0.14579 c 0,-0.022 -0.0833,-0.10533 -0.18521,-0.18522 -0.16787,-0.13164 -0.17161,-0.1279 -0.04,0.04 0.13826,0.1763 0.22517,0.23236 0.22517,0.14526 z m -0.92607,-0.45995 c -0.18918,-0.0235 -0.49875,-0.0235 -0.68794,0 -0.18918,0.0235 -0.0344,0.0427 0.34397,0.0427 0.37837,0 0.53315,-0.0192 0.34397,-0.0427 z m -20.135368,-0.81516 c 0,-0.21097 1.497587,-1.47561 2.348948,-1.98358 1.105958,-0.65988 2.079041,-0.95826 3.314488,-1.01634 1.228547,-0.0577 2.274291,0.11052 2.274291,0.36596 0,0.12364 -0.07109,0.14774 -0.29105,0.0987 -0.160077,-0.0357 -0.699882,-0.0954 -1.199566,-0.13271 -1.906551,-0.14232 -3.621268,0.54215 -5.512035,2.20024 -0.717322,0.62905 -0.935076,0.73797 -0.935076,0.46772 z m 0.370427,-0.16664 c 0.105359,-0.11642 0.167749,-0.21168 0.138644,-0.21168 -0.02911,0 -0.139121,0.0953 -0.24448,0.21168 -0.105359,0.11642 -0.167749,0.21167 -0.138644,0.21167 0.02911,0 0.139121,-0.0952 0.24448,-0.21167 z m 0.91311,-0.82024 c 0.131646,-0.16786 0.127903,-0.1716 -0.03996,-0.04 -0.101867,0.0799 -0.185214,0.16324 -0.185214,0.18522 0,0.0871 0.08691,0.031 0.225174,-0.14526 z m 3.662108,-1.78378 c -0.03517,-0.0352 -0.126453,-0.0389 -0.202853,-0.008 -0.08443,0.0338 -0.05935,0.0589 0.06394,0.0639 0.111568,0.005 0.174079,-0.0204 0.13891,-0.0556 z m 2.489359,-0.006 c -0.07276,-0.0294 -0.191828,-0.0294 -0.26459,0 -0.07276,0.0294 -0.01323,0.0534 0.132295,0.0534 0.145525,0 0.205058,-0.024 0.132295,-0.0534 z m -0.952527,-0.11324 c -0.247392,-0.0223 -0.652216,-0.0223 -0.899609,0 -0.247392,0.0223 -0.04498,0.0405 0.449805,0.0405 0.494785,0 0.697197,-0.0182 0.449804,-0.0405 z m 18.656421,2.43749 c -0.7954,-0.74942 -1.85493,-1.43838 -2.77954,-1.80741 -0.67411,-0.26905 -0.81603,-0.28576 -2.43569,-0.28684 -1.27021,-8.5e-4 -1.71986,-0.0345 -1.71984,-0.12865 4e-5,-0.18594 0.64888,-0.28628 1.85216,-0.28643 1.28268,-1e-4 1.95439,0.14924 3.08107,0.68529 1.48849,0.70817 3.46997,2.44413 2.76639,2.42361 -0.0728,-0.002 -0.41681,-0.27193 -0.76455,-0.59957 z m 0.57934,0.2528 c 0,-0.0182 -0.15479,-0.173 -0.34397,-0.34397 l -0.34397,-0.31085 0.31085,0.34397 c 0.28976,0.32062 0.37709,0.39261 0.37709,0.31085 z m -0.95253,-0.85353 c 0,-0.022 -0.0834,-0.10533 -0.18521,-0.18522 -0.16786,-0.13164 -0.17161,-0.1279 -0.04,0.04 0.13826,0.1763 0.22517,0.23236 0.22517,0.14526 z m -2.99208,-1.61153 c -0.0352,-0.0352 -0.12645,-0.0389 -0.20285,-0.008 -0.0844,0.0338 -0.0593,0.0589 0.0639,0.0639 0.11157,0.005 0.17408,-0.0204 0.13891,-0.0556 z m -2.4308,-0.11445 c -0.10119,-0.0265 -0.29169,-0.0275 -0.42334,-0.002 -0.13165,0.0253 -0.0489,0.047 0.18398,0.0482 0.23284,10e-4 0.34055,-0.0195 0.23936,-0.046 z m 1.79799,-2.2e-4 c -0.10187,-0.0266 -0.26856,-0.0266 -0.37043,0 -0.10187,0.0266 -0.0185,0.0484 0.18521,0.0484 0.20374,0 0.28708,-0.0218 0.18522,-0.0484 z M 38.215379,101.42335 c -0.02683,-0.10297 -0.05055,-0.0444 -0.05271,0.13028 -0.0022,0.17463 0.0198,0.25889 0.04879,0.18723 0.02899,-0.0717 0.03075,-0.21453 0.0039,-0.31751 z m 0.727087,-1.430799 0.310851,-0.34397 -0.343968,0.31085 c -0.320627,0.289759 -0.392616,0.377089 -0.310851,0.377089 0.01822,0 0.173,-0.15479 0.343968,-0.343969 z m 28.304575,-0.42904 c 0,-0.0177 -0.1786,-0.19629 -0.39689,-0.39689 l -0.39689,-0.36473 0.36473,0.39689 c 0.33948,0.36941 0.42905,0.44554 0.42905,0.36473 z m -25.958578,-0.87848 c -0.03517,-0.0352 -0.126454,-0.0389 -0.202854,-0.008 -0.08443,0.0338 -0.05935,0.0589 0.06394,0.0639 0.111569,0.005 0.174079,-0.0204 0.138911,-0.0556 z m -0.818028,-0.19901 c 0,-0.0157 -0.06123,-0.0795 -0.136074,-0.14157 -0.102451,-0.085 -0.136076,-0.065 -0.136076,0.0808 0,0.11442 0.05573,0.1724 0.136076,0.14157 0.07484,-0.0287 0.136074,-0.0651 0.136074,-0.0808 z m -0.84669,-1.25323 c 0,-0.019 -0.130973,-0.14993 -0.29105,-0.29105 l -0.29105,-0.25658 0.25658,0.29105 c 0.239813,0.27203 0.32552,0.33959 0.32552,0.25658 z m -3.254469,-0.78474 c -0.363812,-0.0207 -0.959142,-0.0207 -1.322954,0 -0.363813,0.0207 -0.06615,0.0376 0.661477,0.0376 0.727625,0 1.02529,-0.0169 0.661477,-0.0376 z m 34.820165,8.4e-4 c -0.24739,-0.0223 -0.65222,-0.0223 -0.89961,0 -0.24739,0.0223 -0.045,0.0405 0.44981,0.0405 0.49478,0 0.69719,-0.0182 0.4498,-0.0405 z m -37.040714,-0.0978 c -0.07165,-0.029 -0.214534,-0.0308 -0.317509,-0.004 -0.102976,0.0268 -0.04435,0.0506 0.130281,0.0527 0.17463,0.002 0.258882,-0.0198 0.187228,-0.0488 z m 3.858808,0.005 c -0.03517,-0.0352 -0.126453,-0.0389 -0.202853,-0.008 -0.08443,0.0338 -0.05935,0.0589 0.06394,0.0639 0.111569,0.005 0.174079,-0.0204 0.13891,-0.0556 z m 31.436836,-0.009 c -0.10118,-0.0265 -0.29169,-0.0274 -0.42334,-0.002 -0.13165,0.0253 -0.0489,0.047 0.18398,0.0482 0.23284,10e-4 0.34055,-0.0195 0.23936,-0.046 z m 2.96219,-2.1e-4 c -0.10187,-0.0266 -0.26856,-0.0266 -0.37043,0 -0.10187,0.0266 -0.0185,0.0484 0.18521,0.0484 0.20374,0 0.28709,-0.0218 0.18522,-0.0484 z m -38.844153,-0.0968 c -0.03517,-0.0352 -0.126453,-0.0389 -0.202853,-0.008 -0.08443,0.0338 -0.05935,0.0589 0.06394,0.0639 0.111568,0.005 0.174078,-0.0204 0.13891,-0.0556 z m 4.651925,-0.16757 c -0.03379,-0.0844 -0.05886,-0.0593 -0.06394,0.0639 -0.0046,0.11157 0.02042,0.17408 0.05559,0.13891 0.03517,-0.0352 0.03893,-0.12645 0.0084,-0.20285 z m 34.880158,0.16141 c -0.0728,-0.0294 -0.19182,-0.0294 -0.26459,0 -0.0728,0.0294 -0.0132,0.0534 0.1323,0.0534 0.14552,0 0.20506,-0.024 0.13229,-0.0534 z m 0.47406,-0.0997 c -0.0352,-0.0352 -0.12645,-0.0389 -0.20285,-0.008 -0.0844,0.0338 -0.0594,0.0589 0.0639,0.064 0.11157,0.005 0.17408,-0.0204 0.13891,-0.0556 z m -4.98138,-0.59753 c -0.0294,-0.0728 -0.0534,-0.0132 -0.0534,0.1323 0,0.14552 0.024,0.20505 0.0534,0.13229 0.0294,-0.0728 0.0294,-0.19183 0,-0.26459 z m -30.478674,0.007 c -0.03379,-0.0844 -0.05886,-0.0594 -0.06394,0.0639 -0.0046,0.11157 0.02042,0.17408 0.05559,0.13891 0.03517,-0.0352 0.03893,-0.12645 0.0084,-0.20285 z m 30.586714,-0.42335 c -0.0338,-0.0844 -0.0589,-0.0593 -0.0639,0.0639 -0.005,0.11157 0.0204,0.17408 0.0556,0.13891 0.0352,-0.0352 0.0389,-0.12645 0.008,-0.20285 z m -30.69255,-0.10584 c -0.03379,-0.0844 -0.05887,-0.0593 -0.06394,0.064 -0.0046,0.11157 0.02042,0.17408 0.05559,0.13891 0.03517,-0.0352 0.03893,-0.12646 0.0084,-0.20286 z m 40.26486,-1.22373 c 0.13164,-0.16786 0.1279,-0.17161 -0.04,-0.04 -0.10187,0.0799 -0.18522,0.16324 -0.18522,0.18521 0,0.0871 0.0869,0.031 0.22518,-0.14525 z m -9.15117,-0.47626 c -0.0294,-0.0728 -0.0534,-0.0132 -0.0534,0.13229 0,0.14553 0.024,0.20506 0.0534,0.1323 0.0294,-0.0728 0.0294,-0.19183 0,-0.26459 z m -40.922934,0.20597 c 0,-0.0177 -0.178599,-0.19628 -0.396886,-0.39688 l -0.396887,-0.36473 0.36473,0.39688 c 0.339482,0.36942 0.429043,0.44555 0.429043,0.36473 z m 9.385898,-0.19936 c -0.03379,-0.0844 -0.05886,-0.0593 -0.06394,0.0639 -0.0046,0.11157 0.02042,0.17408 0.05559,0.13891 0.03517,-0.0352 0.03893,-0.12645 0.0084,-0.20285 z m 41.733066,-0.45642 c 0.31618,-0.32015 0.55106,-0.5821 0.52195,-0.5821 -0.0291,0 -0.31161,0.26195 -0.62779,0.5821 -0.31617,0.32016 -0.55105,0.5821 -0.52195,0.5821 0.0291,0 0.31161,-0.26194 0.62779,-0.5821 z m -41.837857,-0.23612 c -0.02683,-0.10297 -0.05055,-0.0443 -0.05271,0.13029 -0.0022,0.17463 0.0198,0.25888 0.04879,0.18722 0.02899,-0.0716 0.03075,-0.21453 0.0039,-0.31751 z m 31.753517,-0.31806 c -0.0243,-0.16088 -0.0449,-0.0544 -0.0457,0.23667 -8.5e-4,0.29105 0.0191,0.42268 0.0442,0.29251 0.0251,-0.13017 0.0258,-0.36831 0.001,-0.52918 z m -41.881315,0.36231 c 0,-0.0182 -0.154786,-0.173 -0.343968,-0.34397 l -0.343968,-0.31085 0.310851,0.34397 c 0.289756,0.32063 0.377085,0.39262 0.377085,0.31085 z m 6.787028,-0.1521 c 0.131647,-0.16786 0.127903,-0.1716 -0.03996,-0.04 -0.176297,0.13827 -0.232361,0.22518 -0.145254,0.22518 0.02198,0 0.105323,-0.0833 0.185214,-0.18522 z m 3.231684,-0.5821 c -0.02936,-0.0728 -0.05338,-0.0132 -0.05338,0.1323 0,0.14552 0.02402,0.20506 0.05338,0.13229 0.02936,-0.0728 0.02936,-0.19182 0,-0.26459 z m 42.912973,-0.15875 c 0.13165,-0.16786 0.1279,-0.17161 -0.04,-0.04 -0.10187,0.0799 -0.18521,0.16324 -0.18521,0.18521 0,0.0871 0.0869,0.031 0.22517,-0.14525 z m -43.300576,-0.48428 c 0,-0.0189 -0.130972,-0.14993 -0.29105,-0.29105 l -0.29105,-0.25658 0.256581,0.29105 c 0.239813,0.27203 0.325519,0.33959 0.325519,0.25658 z m 34.092816,-0.99743 c 0.13164,-0.16786 0.1279,-0.17161 -0.04,-0.04 -0.10187,0.0799 -0.18522,0.16324 -0.18522,0.18521 0,0.0871 0.0869,0.0311 0.22518,-0.14525 z m 1.99739,-3.46614 c 0.19746,-0.20374 0.33521,-0.37043 0.30611,-0.37043 -0.0291,0 -0.21448,0.16669 -0.41195,0.37043 -0.19747,0.20373 -0.33522,0.37043 -0.30611,0.37043 0.0291,0 0.21448,-0.1667 0.41195,-0.37043 z m -39.900315,-0.41039 c 0,-0.022 -0.08335,-0.10532 -0.185213,-0.18521 -0.167863,-0.13165 -0.171607,-0.1279 -0.03996,0.04 0.138261,0.17629 0.225173,0.23236 0.225173,0.14525 z m -9.736946,-0.10583 c 0,-0.022 -0.08335,-0.10533 -0.185213,-0.18522 -0.167863,-0.13164 -0.171606,-0.1279 -0.03996,0.04 0.138262,0.1763 0.225173,0.23236 0.225173,0.14526 z m -3.280927,-2.4472 c -0.25708,-0.26194 -0.491231,-0.47626 -0.520336,-0.47626 -0.02911,0 0.15742,0.21432 0.4145,0.47626 0.257079,0.26195 0.491231,0.47626 0.520336,0.47626 0.0291,0 -0.15742,-0.21431 -0.4145,-0.47626 z m 58.287178,0.20065 c -0.0352,-0.0352 -0.12646,-0.0389 -0.20286,-0.008 -0.0844,0.0338 -0.0594,0.0589 0.0639,0.0639 0.11157,0.005 0.17408,-0.0204 0.13891,-0.0556 z m 8.237638,-0.28003 0.31085,-0.34397 -0.34397,0.31086 c -0.320618,0.28975 -0.392608,0.37708 -0.31085,0.37708 0.0182,0 0.173,-0.15478 0.34397,-0.34397 z m -7.814298,0.17419 c -0.0352,-0.0352 -0.12645,-0.0389 -0.20285,-0.008 -0.0844,0.0338 -0.0594,0.0589 0.0639,0.0639 0.11157,0.005 0.17408,-0.0204 0.13891,-0.0556 z m -51.118963,-0.10583 c -0.03517,-0.0352 -0.126453,-0.0389 -0.202854,-0.008 -0.08443,0.0338 -0.05935,0.0589 0.06394,0.0639 0.111568,0.005 0.174078,-0.0204 0.13891,-0.0556 z m 51.703273,-0.006 c -0.0728,-0.0294 -0.19183,-0.0294 -0.26459,0 -0.0728,0.0294 -0.0132,0.0534 0.13229,0.0534 0.14553,0 0.20506,-0.024 0.1323,-0.0534 z m -52.281155,-0.10497 c -0.07165,-0.029 -0.214533,-0.0308 -0.317509,-0.004 -0.102975,0.0268 -0.04435,0.0506 0.130282,0.0527 0.17463,0.002 0.258882,-0.0198 0.187227,-0.0488 z m 53.074925,-0.004 c -0.10187,-0.0266 -0.26856,-0.0266 -0.37043,0 -0.10187,0.0266 -0.0185,0.0484 0.18522,0.0484 0.20373,0 0.28708,-0.0218 0.18521,-0.0484 z m -53.976548,-0.10869 c -0.160077,-0.0242 -0.422022,-0.0242 -0.5821,0 -0.160077,0.0243 -0.02911,0.0441 0.29105,0.0441 0.320155,0 0.451128,-0.0198 0.29105,-0.0441 z m 55.195118,0.001 c -0.13017,-0.0251 -0.3683,-0.0258 -0.52918,-0.001 -0.16088,0.0243 -0.0544,0.0449 0.23668,0.0457 0.29105,7.4e-4 0.42268,-0.0191 0.2925,-0.0442 z m -56.779866,-0.10826 c -0.216749,-0.0228 -0.59776,-0.0231 -0.846691,-7.4e-4 -0.248931,0.0224 -0.07159,0.041 0.394089,0.0413 0.46568,4.3e-4 0.669351,-0.0179 0.452602,-0.0406 z m 58.260126,3.1e-4 c -0.18919,-0.0235 -0.49876,-0.0235 -0.68794,0 -0.18918,0.0235 -0.0344,0.0427 0.34397,0.0427 0.37836,0 0.53315,-0.0192 0.34397,-0.0427 z m 4.597458,-1.5903 c -0.0266,-0.10187 -0.0484,-0.0185 -0.0484,0.18521 0,0.20374 0.0218,0.28708 0.0484,0.18521 0.0266,-0.10186 0.0266,-0.26856 0,-0.37042 z m -68.218076,-0.31751 c 0.131646,-0.16787 0.127903,-0.17161 -0.03996,-0.04 -0.101867,0.0799 -0.185214,0.16323 -0.185214,0.18521 0,0.0871 0.08691,0.031 0.225174,-0.14525 z m 68.039286,-0.0794 c -0.0725,-0.0873 -0.18265,-0.15875 -0.24486,-0.15875 -0.0622,0 -0.0207,0.0699 0.0923,0.15538 0.26549,0.20081 0.31734,0.20195 0.15253,0.003 z m -49.665923,-0.75188 c -0.03517,-0.0352 -0.126453,-0.0389 -0.202853,-0.008 -0.08443,0.0338 -0.05935,0.0589 0.06394,0.0639 0.111568,0.005 0.174079,-0.0204 0.13891,-0.0556 z m 31.433405,0 c -0.0352,-0.0352 -0.12646,-0.0389 -0.20286,-0.008 -0.0844,0.0338 -0.0593,0.0589 0.0639,0.0639 0.11157,0.005 0.17408,-0.0204 0.13891,-0.0556 z m -32.0133,-0.11199 c -0.07276,-0.0294 -0.191829,-0.0294 -0.264591,0 -0.07276,0.0294 -0.01323,0.0534 0.132295,0.0534 0.145525,0 0.205058,-0.024 0.132296,-0.0534 z m 32.70344,0 c -0.0728,-0.0294 -0.19183,-0.0294 -0.26459,0 -0.0728,0.0294 -0.0132,0.0534 0.13229,0.0534 0.14553,0 0.20506,-0.024 0.1323,-0.0534 z m -47.258145,-0.0997 c -0.03517,-0.0352 -0.126453,-0.0389 -0.202853,-0.008 -0.08443,0.0338 -0.05935,0.0589 0.06394,0.0639 0.111568,0.005 0.174078,-0.0204 0.13891,-0.0556 z m 13.9704,0 c -0.03517,-0.0352 -0.126453,-0.0389 -0.202853,-0.008 -0.08443,0.0338 -0.05935,0.0589 0.06394,0.0639 0.111568,0.005 0.174079,-0.0204 0.13891,-0.0556 z m 2.409982,-0.57108 c 0.345616,-0.34926 0.604579,-0.63502 0.575474,-0.63502 -0.02911,0 -0.335694,0.28576 -0.68131,0.63502 -0.345616,0.34926 -0.604579,0.63502 -0.575474,0.63502 0.02911,0 0.335694,-0.28576 0.68131,-0.63502 z m -15.957037,0.46524 c -0.03517,-0.0352 -0.126453,-0.0389 -0.202853,-0.008 -0.08443,0.0338 -0.05935,0.0589 0.06394,0.0639 0.111569,0.005 0.174079,-0.0204 0.13891,-0.0556 z m 13.12371,0 c -0.03517,-0.0352 -0.126454,-0.0389 -0.202854,-0.008 -0.08443,0.0338 -0.05935,0.0589 0.06394,0.0639 0.111568,0.005 0.174078,-0.0204 0.13891,-0.0556 z m 32.20292,0.0274 c 0,-0.0201 -0.10716,-0.12724 -0.23813,-0.23813 l -0.23813,-0.20162 0.20161,0.23813 c 0.18947,0.22379 0.27465,0.28632 0.27465,0.20162 z m 2.51141,-0.0274 c -0.0352,-0.0352 -0.12645,-0.0389 -0.20285,-0.008 -0.0844,0.0338 -0.0594,0.0589 0.0639,0.0639 0.11156,0.005 0.17407,-0.0204 0.13891,-0.0556 z m 13.12371,0 c -0.0352,-0.0352 -0.12645,-0.0389 -0.20285,-0.008 -0.0844,0.0338 -0.0593,0.0589 0.0639,0.0639 0.11157,0.005 0.17408,-0.0204 0.13891,-0.0556 z m -60.432568,-0.10583 c -0.03517,-0.0352 -0.126453,-0.0389 -0.202853,-0.008 -0.08443,0.0338 -0.05935,0.0589 0.06394,0.0639 0.111568,0.005 0.174079,-0.0204 0.13891,-0.0556 z m 12.171182,0 c -0.03517,-0.0352 -0.126453,-0.0389 -0.202853,-0.008 -0.08443,0.0338 -0.05935,0.0589 0.06394,0.0639 0.111569,0.005 0.174079,-0.0204 0.13891,-0.0556 z m 47.732206,0 c -0.0352,-0.0352 -0.12646,-0.0389 -0.20286,-0.008 -0.0844,0.0338 -0.0593,0.0589 0.0639,0.0639 0.11158,0.005 0.17409,-0.0204 0.13892,-0.0556 z m -59.319083,-0.11199 c -0.07276,-0.0294 -0.191829,-0.0294 -0.264591,0 -0.07276,0.0294 -0.01323,0.0534 0.132295,0.0534 0.145525,0 0.205058,-0.024 0.132296,-0.0534 z m 11.057695,0.006 c -0.03517,-0.0352 -0.126453,-0.0389 -0.202853,-0.008 -0.08443,0.0338 -0.05935,0.0589 0.06394,0.0639 0.111569,0.005 0.174079,-0.0204 0.13891,-0.0556 z m 36.619388,0 c -0.0352,-0.0352 -0.12646,-0.0389 -0.20286,-0.008 -0.0844,0.0338 -0.0593,0.0589 0.0639,0.0639 0.11157,0.005 0.17408,-0.0204 0.13891,-0.0556 z m 11.0621,-0.006 c -0.0728,-0.0294 -0.19183,-0.0294 -0.26459,0 -0.0728,0.0294 -0.0132,0.0534 0.1323,0.0534 0.14552,0 0.20505,-0.024 0.13229,-0.0534 z M 24.72929,80.157371 c -0.07165,-0.029 -0.214533,-0.0307 -0.317509,-0.004 -0.102976,0.0268 -0.04435,0.0506 0.130281,0.0527 0.17463,0.002 0.258882,-0.0198 0.187228,-0.0488 z m 9.840768,-6.3e-4 c -0.07276,-0.0294 -0.191828,-0.0294 -0.264591,0 -0.07276,0.0294 -0.01323,0.0534 0.132296,0.0534 0.145525,0 0.205058,-0.024 0.132295,-0.0534 z m 37.728463,0.006 c -0.0352,-0.0352 -0.12646,-0.0389 -0.20286,-0.008 -0.0844,0.0338 -0.0593,0.0589 0.0639,0.0639 0.11157,0.005 0.17408,-0.0204 0.13891,-0.0556 z m 9.8979,-0.006 c -0.0728,-0.0294 -0.19183,-0.0294 -0.26459,0 -0.0728,0.0294 -0.0132,0.0534 0.1323,0.0534 0.14552,0 0.20505,-0.024 0.13229,-0.0534 z m -56.726276,-0.10517 c -0.07165,-0.029 -0.214534,-0.0308 -0.317509,-0.004 -0.102976,0.0268 -0.04435,0.0505 0.130281,0.0527 0.17463,0.002 0.258882,-0.0198 0.187228,-0.0488 z m 8.464895,-6.3e-4 c -0.07276,-0.0294 -0.191829,-0.0294 -0.264591,0 -0.07276,0.0294 -0.01323,0.0534 0.132295,0.0534 0.145525,0 0.205058,-0.024 0.132296,-0.0534 z m 38.947781,0 c -0.0728,-0.0294 -0.19183,-0.0294 -0.26459,0 -0.0728,0.0294 -0.0132,0.0534 0.1323,0.0534 0.14552,0 0.20505,-0.024 0.13229,-0.0534 z m 8.6806,6.3e-4 c -0.0717,-0.029 -0.21454,-0.0308 -0.31751,-0.004 -0.10298,0.0268 -0.0443,0.0505 0.13028,0.0527 0.17463,0.002 0.25888,-0.0198 0.18723,-0.0488 z M 26.47481,79.942441 c -0.101189,-0.0265 -0.291694,-0.0275 -0.423345,-0.002 -0.131651,0.0253 -0.04886,0.047 0.183979,0.0482 0.23284,0.001 0.340555,-0.0195 0.239366,-0.046 z m 6.827226,0.003 c -0.07165,-0.029 -0.214534,-0.0308 -0.317509,-0.004 -0.102976,0.0268 -0.04435,0.0505 0.130281,0.0527 0.17463,0.002 0.258882,-0.0198 0.187228,-0.0488 z m 40.323655,0 c -0.0717,-0.029 -0.21453,-0.0308 -0.31751,-0.004 -0.10297,0.0268 -0.0444,0.0505 0.13028,0.0527 0.17463,0.002 0.25889,-0.0198 0.18723,-0.0488 z m 7.09104,0 c -0.0716,-0.029 -0.21454,-0.0308 -0.31751,-0.004 -0.10298,0.0268 -0.0443,0.0505 0.13028,0.0527 0.17463,0.002 0.25888,-0.0198 0.18723,-0.0488 z m -52.814364,-0.11191 c -0.189183,-0.0235 -0.498754,-0.0235 -0.687936,0 -0.189183,0.0235 -0.0344,0.0427 0.343968,0.0427 0.378365,0 0.53315,-0.0192 0.343968,-0.0427 z m 4.605116,0.004 c -0.101189,-0.0265 -0.291695,-0.0274 -0.423346,-0.002 -0.13165,0.0253 -0.04886,0.047 0.18398,0.0482 0.23284,0.001 0.340555,-0.0195 0.239366,-0.046 z m 42.174558,-0.002 c -0.13097,-0.0252 -0.34529,-0.0252 -0.47626,0 -0.13098,0.0252 -0.0238,0.0459 0.23813,0.0459 0.26194,0 0.3691,-0.0206 0.23813,-0.0459 z m 5.0816,2.2e-4 c -0.13017,-0.0251 -0.3683,-0.0258 -0.52918,-0.001 -0.16088,0.0243 -0.0544,0.0449 0.23668,0.0457 0.29105,7.4e-4 0.42267,-0.0191 0.2925,-0.0442 z m -48.902486,-0.11002 c -0.424569,-0.0201 -1.091338,-0.02 -1.481709,3.2e-4 -0.390371,0.0203 -0.043,0.0368 0.771944,0.0366 0.81494,-2.1e-4 1.134334,-0.0168 0.709765,-0.0369 z m 46.890136,-6e-5 c -0.48023,-0.0196 -1.26606,-0.0196 -1.7463,0 -0.48023,0.0196 -0.0873,0.0357 0.87315,0.0357 0.96047,0 1.35339,-0.0161 0.87315,-0.0357 z m -10.71593,-0.3791 c 0,-0.0189 -0.13097,-0.14993 -0.29105,-0.29105 l -0.29105,-0.25658 0.25658,0.29105 c 0.23982,0.27203 0.32552,0.33959 0.32552,0.25658 z m -26.72368,-0.60054 c 0.105359,-0.11642 0.167748,-0.21168 0.138643,-0.21168 -0.02911,0 -0.13912,0.0953 -0.244479,0.21168 -0.10536,0.11642 -0.167749,0.21167 -0.138644,0.21167 0.0291,0 0.139121,-0.0952 0.24448,-0.21167 z m 25.87699,-0.1458 c 0,-0.022 -0.0833,-0.10532 -0.18521,-0.18521 -0.16786,-0.13165 -0.17161,-0.12791 -0.04,0.04 0.13826,0.17629 0.22517,0.23236 0.22517,0.14525 z m -25.28139,-0.35693 c 0.131647,-0.16786 0.127904,-0.1716 -0.03996,-0.04 -0.176297,0.13827 -0.232362,0.22518 -0.145254,0.22518 0.02198,0 0.105323,-0.0833 0.185213,-0.18522 z m 8.107236,-3.90051 c -0.03517,-0.0352 -0.126453,-0.0389 -0.202853,-0.008 -0.08443,0.0338 -0.05935,0.0589 0.06394,0.0639 0.111569,0.005 0.174079,-0.0204 0.13891,-0.0556 z m 0.529182,-0.10583 c -0.03517,-0.0352 -0.126453,-0.0389 -0.202853,-0.008 -0.08443,0.0338 -0.05935,0.0589 0.06394,0.0639 0.111569,0.005 0.174079,-0.0204 0.13891,-0.0556 z m 7.937732,0 c -0.0352,-0.0352 -0.12646,-0.0389 -0.20286,-0.008 -0.0844,0.0338 -0.0593,0.0589 0.0639,0.0639 0.11157,0.005 0.17408,-0.0204 0.13891,-0.0556 z m -7.245577,-0.11132 c -0.07165,-0.029 -0.214533,-0.0307 -0.317509,-0.004 -0.102975,0.0268 -0.04435,0.0506 0.130282,0.0527 0.17463,0.002 0.258882,-0.0198 0.187227,-0.0488 z m 6.665677,-6.3e-4 c -0.0728,-0.0294 -0.19183,-0.0294 -0.26459,0 -0.0728,0.0294 -0.0132,0.0534 0.1323,0.0534 0.14552,0 0.20505,-0.024 0.13229,-0.0534 z m -5.766848,-0.10847 c -0.101189,-0.0265 -0.291694,-0.0275 -0.423345,-0.002 -0.131651,0.0253 -0.04886,0.047 0.18398,0.0482 0.23284,10e-4 0.340554,-0.0195 0.239365,-0.046 z m 5.080148,0 c -0.10119,-0.0265 -0.2917,-0.0275 -0.42335,-0.002 -0.13165,0.0253 -0.0489,0.047 0.18398,0.0482 0.23284,10e-4 0.34056,-0.0195 0.23937,-0.046 z m -1.747536,-0.11201 c -0.538443,-0.0192 -1.41953,-0.0192 -1.957973,0 -0.538442,0.0192 -0.0979,0.0349 0.978986,0.0349 1.076886,0 1.517429,-0.0157 0.978987,-0.0349 z M 10.095398,120.33972 v -4.55096 h 0.740855 c 0.697308,0 0.740939,0.014 0.7423,0.23813 7.93e-4,0.13097 0.03099,0.34845 0.0671,0.48328 l 0.06565,0.24515 0.329789,-0.31911 c 0.606647,-0.58699 1.261523,-0.80664 2.393598,-0.80281 1.201782,0.004 1.787949,0.22155 2.326706,0.86327 l 0.350725,0.41776 0.470072,-0.45686 c 0.957013,-0.93011 2.811636,-1.15501 4.12236,-0.4999 0.37523,0.18754 0.708157,0.4481 0.854057,0.66842 0.506949,0.76553 0.554662,1.18223 0.554662,4.84412 v 3.42047 h -0.84119 -0.841191 l -0.03196,-3.3603 c -0.0301,-3.16425 -0.04461,-3.38183 -0.248725,-3.72929 -0.309175,-0.5263 -0.992034,-0.79417 -1.77508,-0.69634 -0.733523,0.0916 -1.210157,0.40349 -1.553673,1.0165 -0.261627,0.46688 -0.265184,0.50714 -0.317509,3.59434 l -0.05292,3.12218 -0.808988,0.0307 -0.808987,0.0307 -0.03939,-3.25871 c -0.03618,-2.99389 -0.05645,-3.29257 -0.249377,-3.67524 -0.269493,-0.53454 -0.619787,-0.78327 -1.216531,-0.86382 -1.054743,-0.14237 -1.979148,0.41042 -2.290416,1.36968 -0.142596,0.43944 -0.185954,1.11745 -0.222707,3.48264 l -0.04564,2.93695 h -0.836791 -0.836799 z m 1.500903,1.28862 0.03373,-3.05067 0.317509,-0.61899 c 0.43338,-0.8449 0.928731,-1.11156 2.064804,-1.11156 0.935783,0 1.364666,0.20884 1.739582,0.84705 0.204683,0.34843 0.219269,0.56348 0.249427,3.67746 l 0.03203,3.30738 h 0.569163 0.569162 l 0.03845,-2.98988 c 0.03253,-2.52958 0.06688,-3.06296 0.223149,-3.46464 0.394141,-1.01311 1.135956,-1.42688 2.440092,-1.36102 0.918111,0.0464 1.246067,0.22953 1.592152,0.88926 0.205056,0.39089 0.221124,0.62366 0.253468,3.67181 l 0.03453,3.25447 h 0.574027 0.574027 l -6.35e-4,-2.93696 c -3.18e-4,-1.61532 -0.04729,-3.222 -0.104335,-3.57038 -0.152962,-0.93413 -0.498774,-1.52802 -1.109667,-1.90571 -0.48769,-0.30151 -0.574632,-0.31845 -1.634668,-0.31845 -1.305117,0 -1.720252,0.16073 -2.468327,0.95568 -0.244868,0.26021 -0.47295,0.47311 -0.506848,0.47311 -0.0339,0 -0.214515,-0.21689 -0.401372,-0.48199 -0.471962,-0.66958 -1.192506,-0.9973 -2.195767,-0.99868 -1.001462,-10e-4 -1.667264,0.23947 -2.237059,0.80927 -0.568929,0.56893 -0.741453,0.582 -0.829036,0.0628 -0.128601,-0.76243 -0.13266,-0.76731 -0.637682,-0.76731 h -0.469132 v 4.33929 4.33929 h 0.627752 0.627752 z m 71.86446,-8.9025 c -0.19232,-0.0483 -0.56342,-0.1694 -0.82466,-0.26917 l -0.47499,-0.1814 0.0309,-0.75687 c 0.0358,-0.87647 -0.0168,-0.85647 1.14217,-0.4345 1.05624,0.38456 2.47445,0.42487 3.121618,0.0887 0.54473,-0.28294 0.78384,-0.81887 0.56676,-1.27031 -0.19792,-0.4116 -0.62515,-0.67365 -2.127088,-1.30472 -2.23683,-0.93983 -2.7938,-1.54273 -2.70556,-2.92862 0.0568,-0.89155 0.44128,-1.45712 1.26929,-1.86698 1.0619,-0.52565 2.951288,-0.57831 4.364318,-0.12165 0.82247,0.26581 0.85351,0.3247 0.54214,1.02874 -0.29516,0.66741 -0.36462,0.6944 -1.11484,0.43321 -1.743808,-0.60711 -3.287688,-0.3276 -3.366638,0.6095 -0.0275,0.32587 0.0216,0.4251 0.33819,0.68453 0.20367,0.16688 0.83726,0.4901 1.40798,0.71826 1.588538,0.63507 2.179748,0.95814 2.595458,1.41828 0.48145,0.53291 0.67539,1.3271 0.50727,2.07729 -0.21942,0.97911 -0.53963,1.35927 -1.53618,1.82378 -0.58105,0.27083 -0.75102,0.29769 -2.010578,0.31776 -0.75673,0.012 -1.53322,-0.0176 -1.72554,-0.0659 z m 3.422368,-0.44006 c 1.74911,-0.65443 2.19379,-2.65892 0.83782,-3.77663 -0.22176,-0.18279 -1.04947,-0.59846 -1.839348,-0.92372 -0.78988,-0.32526 -1.58832,-0.69535 -1.7743,-0.82243 -0.80909,-0.55282 -0.74647,-1.55864 0.12325,-1.97966 0.60005,-0.29048 1.90328,-0.29183 2.824918,-0.003 0.369,0.11567 0.71853,0.21044 0.77674,0.2106 0.0582,2.1e-4 0.18554,-0.18947 0.28294,-0.4214 l 0.17711,-0.42168 -0.75921,-0.23865 c -0.5957,-0.18726 -1.0104,-0.23867 -1.925648,-0.23872 -1.10644,-6e-5 -1.20304,0.0179 -1.87779,0.35014 -0.88867,0.43751 -1.24214,0.95335 -1.24214,1.81275 0,1.11097 0.4472,1.58468 2.19604,2.32623 1.59237,0.6752 2.126078,0.96335 2.410548,1.30141 0.48746,0.57932 0.28109,1.58715 -0.40138,1.96013 -0.529688,0.28949 -2.659228,0.25375 -3.507378,-0.0588 -0.34382,-0.12672 -0.6441,-0.2304 -0.66728,-0.2304 -0.0232,0 -0.0276,0.22168 -0.01,0.49262 0.0308,0.47014 0.0516,0.49932 0.45561,0.63919 1.16165,0.40218 2.87756,0.41181 3.919388,0.022 z M 12.071378,98.689701 c -0.644615,-0.20648 -1.350935,-0.894 -1.528309,-1.48764 -0.07159,-0.23959 -0.130162,-0.74222 -0.130162,-1.11696 0,-1.77094 1.326043,-2.78197 3.81011,-2.90498 0.552995,-0.0274 1.207857,-0.0744 1.45525,-0.10454 l 0.449804,-0.0547 v -0.5261 c 0,-0.82039 -0.222637,-1.23009 -0.809521,-1.48969 -0.628625,-0.27808 -1.480034,-0.22028 -2.519641,0.17102 -0.394802,0.14861 -0.778059,0.27019 -0.851683,0.27019 -0.07362,0 -0.242838,-0.2685 -0.376031,-0.59667 -0.232561,-0.57299 -0.234535,-0.60225 -0.04974,-0.73737 0.307863,-0.22511 1.420058,-0.55833 2.251761,-0.67463 0.931642,-0.13027 2.094241,0.01 2.761256,0.3327 0.518282,0.2509 1.023599,0.8792 1.1829,1.4708 0.06482,0.24073 0.09597,1.78758 0.07906,3.9261 l -0.0279,3.52886 -0.549079,0.0318 c -0.614214,0.0355 -0.696169,-0.0391 -0.830761,-0.75654 l -0.07567,-0.40338 -0.383525,0.36764 c -0.665693,0.63812 -1.206998,0.84208 -2.341499,0.88227 -0.702412,0.0249 -1.159509,-0.0137 -1.51662,-0.12811 z m 2.204557,-0.20824 c 0.527331,-0.0819 1.158384,-0.44501 1.634766,-0.9406 0.200602,-0.20869 0.420319,-0.37943 0.488261,-0.37943 0.06794,0 0.184173,0.28575 0.258291,0.63501 l 0.13476,0.63502 h 0.41544 0.415439 l -0.03301,-3.46614 c -0.0326,-3.42243 -0.03625,-3.47265 -0.289314,-3.98272 -0.639835,-1.2896 -2.567432,-1.68095 -4.74057,-0.96247 l -0.86925,0.2874 0.158238,0.37871 c 0.08703,0.2083 0.171237,0.39172 0.187124,0.40761 0.01589,0.0159 0.359656,-0.0878 0.76393,-0.23047 0.541891,-0.19119 0.95797,-0.25993 1.583386,-0.26158 1.471167,-0.004 1.956349,0.45193 2.041195,1.91757 l 0.04816,0.83195 h -0.705706 c -1.13103,0 -2.692992,0.20911 -3.333288,0.44626 -0.873368,0.32346 -1.537016,1.02164 -1.694201,1.78233 -0.228333,1.10502 0.149856,2.09652 0.986751,2.58697 0.722095,0.42318 1.35102,0.50078 2.549602,0.31458 z m -1.617988,-1.00146 c -0.51856,-0.23535 -0.76333,-0.67688 -0.76333,-1.37694 0,-1.34457 0.84166,-1.85366 3.270124,-1.97797 l 1.312152,-0.0672 -0.05398,0.94668 c -0.05723,1.0038 -0.218508,1.46002 -0.696864,1.97131 -0.616926,0.6594 -2.165372,0.91381 -3.068106,0.50409 z m 1.999081,-0.22735 c 0.964323,-0.32287 1.4648,-1.06623 1.468719,-2.18149 l 0.0023,-0.66148 h -0.832245 c -2.124782,0 -3.082352,0.52969 -3.083305,1.70557 -4.23e-4,0.52872 0.269675,0.99007 0.6757,1.15412 0.327025,0.13213 1.353185,0.12243 1.768807,-0.0167 z m 55.904203,-23.56481 c -0.30186,-0.10815 -0.74234,-0.32468 -0.97884,-0.48119 -0.97857,-0.64759 -1.59614,-2.21002 -1.59266,-4.02942 0.004,-2.31005 0.73849,-3.7953 2.22072,-4.49317 0.48962,-0.23052 0.73345,-0.27446 1.53463,-0.27653 1.09141,-0.003 1.55929,0.13176 2.22517,0.64003 l 0.46954,0.35841 0.0285,-2.29967 0.0285,-2.29967 h 0.79378 0.79377 l 0.0273,6.43442 0.0273,6.43441 -0.71223,-0.0313 -0.71223,-0.0313 -0.0889,-0.45151 -0.0889,-0.45151 -0.45139,0.36989 c -0.64216,0.52619 -1.16043,0.71156 -2.12847,0.76128 -0.64286,0.033 -0.97881,-0.004 -1.39552,-0.15314 z m 2.63844,-0.38049 c 0.21793,-0.10685 0.58709,-0.37949 0.82036,-0.60587 0.53732,-0.52146 0.71272,-0.52469 0.79875,-0.0147 0.12862,0.76243 0.13268,0.76732 0.63771,0.76732 h 0.46913 v -6.19143 -6.19143 h -0.65078 -0.65078 l 0.0574,2.43424 c 0.0371,1.57382 0.0203,2.43424 -0.0474,2.43424 -0.0576,0 -0.31563,-0.18564 -0.57339,-0.41253 -0.69114,-0.60837 -1.1428,-0.79122 -2.07029,-0.83814 -1.15688,-0.0585 -1.77021,0.16567 -2.52897,0.92442 -0.8351,0.83511 -1.06732,1.47886 -1.13105,3.13548 -0.0287,0.74553 7.4e-4,1.51433 0.071,1.85214 0.27771,1.33628 1.02856,2.33801 2.0556,2.74245 0.70657,0.27824 2.14006,0.25933 2.74274,-0.0362 z m -1.81045,-0.70694 c -0.92005,-0.1831 -1.50884,-0.87633 -1.76297,-2.0757 -0.19451,-0.918 -0.19421,-1.79741 9.6e-4,-2.71844 0.20581,-0.97144 0.57765,-1.58066 1.1803,-1.93384 0.84086,-0.49278 2.39107,-0.34415 3.07079,0.2944 0.59473,0.55873 0.92907,2.26162 0.76895,3.91652 -0.12992,1.34272 -0.65612,2.20374 -1.47335,2.41083 -0.63868,0.16184 -1.3057,0.20155 -1.78466,0.10623 z m 1.51767,-0.32274 c 0.55425,-0.15388 1.16268,-0.77406 1.34159,-1.3675 0.21728,-0.72072 0.18264,-2.87233 -0.0576,-3.5756 -0.26488,-0.77553 -0.75252,-1.23834 -1.47517,-1.40007 -1.22836,-0.27489 -2.11061,0.16304 -2.62417,1.30258 -0.22153,0.49154 -0.25002,0.71154 -0.25002,1.93062 0,1.21275 0.0292,1.44052 0.24592,1.92111 0.13525,0.29987 0.35662,0.64922 0.49192,0.77633 0.5071,0.4764 1.47775,0.64843 2.32749,0.41253 z m -43.125929,-4.64031 v -4.55525 h 0.727007 0.727007 l 0.0656,0.39689 c 0.03608,0.21829 0.06612,0.52679 0.06677,0.68557 0.0011,0.28397 0.0084,0.28083 0.444882,-0.19269 0.644868,-0.6996 1.23373,-1.0102 2.037528,-1.07472 0.370481,-0.0297 0.849794,-0.021 1.06514,0.0194 l 0.391538,0.0735 -0.06792,0.49587 c -0.159021,1.16105 -0.113207,1.09976 -0.761499,1.01876 -1.081504,-0.13513 -2.088061,0.3922 -2.609436,1.36707 -0.221386,0.41395 -0.237436,0.60098 -0.287399,3.34893 l -0.05292,2.9105 -0.873151,0.0307 -0.87315,0.0307 z m 1.48171,1.70831 c 0,-3.08182 0.063,-3.41752 0.794,-4.23056 0.592003,-0.65845 1.144826,-0.89419 2.090041,-0.89125 0.470049,0.001 0.714793,-0.0396 0.71556,-0.11995 6.35e-4,-0.0672 0.03068,-0.30079 0.06677,-0.51907 l 0.0656,-0.39689 h -0.774205 c -0.970858,0 -1.50247,0.23911 -2.161655,0.97228 -0.26323,0.29278 -0.478599,0.5748 -0.478599,0.62671 0,0.0519 -0.08902,0.0944 -0.197825,0.0944 -0.212222,0 -0.327923,-0.41721 -0.330192,-1.19066 l -0.0012,-0.39688 H 30.574703 30.09844 v 4.33929 4.33929 h 0.5821 0.5821 z"
       id="path679" /></g></svg>
