<?xml version="1.0" encoding="UTF-8" standalone="no"?>
<!-- Created with Inkscape (http://www.inkscape.org/) -->

<svg
   width="210mm"
   height="297mm"
   viewBox="0 0 210 297"
   version="1.1"
   id="svg5"
   xml:space="preserve"
   inkscape:version="1.2.2 (b0a8486541, 2022-12-01)"
   sodipodi:docname="drawing.svg"
   xmlns:inkscape="http://www.inkscape.org/namespaces/inkscape"
   xmlns:sodipodi="http://sodipodi.sourceforge.net/DTD/sodipodi-0.dtd"
   xmlns="http://www.w3.org/2000/svg"
   xmlns:svg="http://www.w3.org/2000/svg"><sodipodi:namedview
     id="namedview7"
     pagecolor="#ffffff"
     bordercolor="#000000"
     borderopacity="0.25"
     inkscape:showpageshadow="2"
     inkscape:pageopacity="0.0"
     inkscape:pagecheckerboard="0"
     inkscape:deskcolor="#d1d1d1"
     inkscape:document-units="mm"
     showgrid="false"
     inkscape:zoom="1.2938725"
     inkscape:cx="154.96118"
     inkscape:cy="277.84809"
     inkscape:window-width="1534"
     inkscape:window-height="831"
     inkscape:window-x="0"
     inkscape:window-y="0"
     inkscape:window-maximized="1"
     inkscape:current-layer="layer1" /><defs
     id="defs2" /><g
     inkscape:label="Layer 1"
     inkscape:groupmode="layer"
     id="layer1"><path
       style="fill:#000000;stroke-width:0.0681584"
       d="m 59.541543,106.87698 c 0,-0.60538 0.0276,-1.03544 0.0682,-1.06048 0.0944,-0.0583 0.0944,-18.913965 0,-18.913965 -0.0424,0 -0.0682,-0.38623 -0.0682,-1.02238 v -1.02237 h 9.39857 c 8.5074,0 9.4025,0.0102 9.43995,0.10781 0.0228,0.0593 0.0414,5.20594 0.0414,11.43698 0,8.720705 -0.0188,11.348015 -0.0818,11.410975 -0.0628,0.0628 -2.25226,0.0818 -9.43995,0.0818 h -9.35815 z m 18.66035,-0.0554 0.019,-0.90335 -9.25448,0.0173 -9.25449,0.0173 -0.019,0.90334 -0.019,0.90335 9.25449,-0.0173 9.25448,-0.0173 z M 61.654453,96.342475 v -9.43994 h -0.92013 -0.92014 v 9.43994 9.439945 h 0.92014 0.92013 z m 1.36317,0 v -9.43994 h -0.61342 -0.61343 v 9.43994 9.439945 h 0.61343 0.61342 z m 1.9766,0 v -9.43994 h -0.92014 -0.92014 v 9.43994 9.439945 h 0.92014 0.92014 z m 1.29501,0 v -9.43994 h -0.57935 -0.57935 v 9.43994 9.439945 h 0.57935 0.57935 z m 2.04475,0 v -9.43994 h -0.95422 -0.95422 v 9.43994 9.439945 h 0.95422 0.95422 z m 1.29501,0 v -9.43994 h -0.57935 -0.57934 v 9.43994 9.439945 h 0.57934 0.57935 z m 1.97659,0 v -9.43994 h -0.92013 -0.92014 v 9.43994 9.439945 h 0.92014 0.92013 z m 1.36317,0 v -9.43994 h -0.61342 -0.61343 v 9.43994 9.439945 h 0.61343 0.61342 z m 1.9766,0 v -9.43994 h -0.92014 -0.92014 v 9.43994 9.439945 h 0.92014 0.92014 z m 1.36317,0 v -9.43994 h -0.61343 -0.61343 v 9.43994 9.439945 h 0.61343 0.61343 z m 1.97659,0 v -9.43994 h -0.92014 -0.92014 v 9.43994 9.439945 h 0.92014 0.92014 z m -0.0682,-10.46232 v -0.88606 h -9.26955 -9.26954 v 0.88606 0.88606 h 9.26954 9.26955 z"
       id="path1605" /><path
       style="fill:#000000;stroke-width:0.0681584"
       d="m 18.403197,105.42191 c 0,-0.60538 0.02764,-1.03544 0.06816,-1.06048 0.09437,-0.0583 0.09437,-18.913965 0,-18.913965 -0.04241,0 -0.06816,-0.38629 -0.06816,-1.02254 v -1.02253 l 14.398466,0.0172 14.39847,0.0172 0.0186,11.34838 c 0.0103,6.241605 0.002,11.417395 -0.0183,11.501735 l -0.037,0.15336 H 32.783323 18.403197 Z m 28.626536,-0.0383 v -0.9203 l -14.22807,0.0172 -14.22807,0.0172 -0.01902,0.9031 -0.01902,0.9031 h 14.24709 14.24709 z M 20.516108,94.887405 v -9.43994 H 19.59597 18.675831 v 9.43994 9.439945 h 0.920139 0.920138 z m 1.363169,0 v -9.43994 h -0.613426 -0.613426 v 9.43994 9.439945 h 0.613426 0.613426 z m 1.976594,0 v -9.43994 h -0.920139 -0.920138 v 9.43994 9.439945 h 0.920138 0.920139 z m 1.29501,0 v -9.43994 h -0.579346 -0.579347 v 9.43994 9.439945 h 0.579347 0.579346 z m 2.044753,0 v -9.43994 h -0.954218 -0.954218 v 9.43994 9.439945 h 0.954218 0.954218 z m 1.29501,0 v -9.43994 h -0.579347 -0.579346 v 9.43994 9.439945 h 0.579346 0.579347 z m 1.976594,0 v -9.43994 H 29.5471 28.626961 v 9.43994 9.439945 h 0.920139 0.920138 z m 1.363169,0 v -9.43994 h -0.613426 -0.613426 v 9.43994 9.439945 h 0.613426 0.613426 z m 1.976596,0 v -9.43994 h -0.92014 -0.920139 v 9.43994 9.439945 h 0.920139 0.92014 z m 1.36317,0 v -9.43994 h -0.61343 -0.61343 v 9.43994 9.439945 h 0.61343 0.61343 z m 1.97659,0 v -9.43994 h -0.92014 -0.92014 v 9.43994 9.439945 h 0.92014 0.92014 z m 1.36317,0 v -9.43994 h -0.61343 -0.61342 v 9.43994 9.439945 h 0.61342 0.61343 z m 1.90843,0 v -9.43994 h -0.88605 -0.88606 v 9.43994 9.439945 h 0.88606 0.88605 z m 1.43133,0 v -9.43994 h -0.6475 -0.64751 v 9.43994 9.439945 h 0.64751 0.6475 z m 1.90844,0 v -9.43994 h -0.88606 -0.88606 v 9.43994 9.439945 h 0.88606 0.88606 z m 1.36317,0 v -9.43994 h -0.61343 -0.61343 v 9.43994 9.439945 h 0.61343 0.61343 z m 1.97659,0 v -9.43994 h -0.92014 -0.92014 v 9.43994 9.439945 h 0.92014 0.92014 z m -0.0682,-10.46232 v -0.88606 H 32.784623 18.539514 v 0.88606 0.88606 h 14.245109 14.24511 z"
       id="path1603" /><path
       style="fill:#000000;stroke-width:0.0681584"
       d="m 13.567374,71.726529 c 0,-0.605381 0.02764,-1.035437 0.06816,-1.060478 0.09437,-0.05832 0.09437,-18.913963 0,-18.913963 -0.04241,0 -0.06816,-0.386231 -0.06816,-1.022376 v -1.022377 h 37.759769 37.75977 v 1.022377 c 0,0.636145 -0.0258,1.022376 -0.0682,1.022376 -0.0944,0 -0.0944,18.855641 0,18.913963 0.0405,0.02504 0.0682,0.455097 0.0682,1.060478 v 1.018354 H 51.327143 13.567374 Z m 75.368159,-0.02106 -0.019,-0.903099 H 51.327143 13.73777 l -0.01902,0.903099 -0.01902,0.903099 h 37.627413 37.62741 z M 15.680286,61.19203 v -9.439942 h -0.920139 -0.920139 v 9.439942 9.439942 h 0.920139 0.920139 z m 1.363168,0 v -9.439942 h -0.613426 -0.613426 v 9.439942 9.439942 h 0.613426 0.613426 z m 1.976595,0 V 51.752088 H 18.09991 17.179771 v 9.439942 9.439942 h 0.920139 0.920139 z m 1.29501,0 v -9.439942 h -0.579347 -0.579347 v 9.439942 9.439942 h 0.579347 0.579347 z m 2.044752,0 v -9.439942 h -0.954218 -0.954217 v 9.439942 9.439942 h 0.954217 0.954218 z m 1.295011,0 v -9.439942 h -0.579347 -0.579347 v 9.439942 9.439942 h 0.579347 0.579347 z m 1.976594,0 v -9.439942 h -0.920139 -0.920139 v 9.439942 9.439942 h 0.920139 0.920139 z m 1.363169,0 v -9.439942 h -0.613426 -0.613426 v 9.439942 9.439942 h 0.613426 0.613426 z m 1.976594,0 V 51.752088 H 28.05104 27.130901 v 9.439942 9.439942 h 0.920139 0.920139 z m 1.363168,0 v -9.439942 h -0.613425 -0.613426 v 9.439942 9.439942 h 0.613426 0.613425 z m 1.976596,0 v -9.439942 h -0.92014 -0.920139 v 9.439942 9.439942 h 0.920139 0.92014 z m 1.36317,0 v -9.439942 h -0.61343 -0.61342 v 9.439942 9.439942 h 0.61342 0.61343 z m 1.90843,0 v -9.439942 h -0.88606 -0.88606 v 9.439942 9.439942 h 0.88606 0.88606 z m 1.43133,0 v -9.439942 h -0.64751 -0.6475 v 9.439942 9.439942 h 0.6475 0.64751 z m 1.90844,0 v -9.439942 h -0.88606 -0.88606 v 9.439942 9.439942 h 0.88606 0.88606 z m 1.36316,0 v -9.439942 h -0.61342 -0.61343 v 9.439942 9.439942 h 0.61343 0.61342 z m 1.9766,0 v -9.439942 h -0.92014 -0.92014 v 9.439942 9.439942 h 0.92014 0.92014 z m 1.36317,0 v -9.439942 h -0.61343 -0.61342 v 9.439942 9.439942 h 0.61342 0.61343 z m 1.90843,0 v -9.439942 h -0.88606 -0.88606 v 9.439942 9.439942 h 0.88606 0.88606 z m 1.43133,0 v -9.439942 h -0.6475 -0.64751 v 9.439942 9.439942 h 0.64751 0.6475 z m 1.90844,0 v -9.439942 h -0.88606 -0.88606 v 9.439942 9.439942 h 0.88606 0.88606 z m 1.43132,0 v -9.439942 h -0.6475 -0.64751 v 9.439942 9.439942 h 0.64751 0.6475 z m 1.90844,0 v -9.439942 h -0.88606 -0.88606 v 9.439942 9.439942 h 0.88606 0.88606 z m 1.43133,0 v -9.439942 h -0.64751 -0.6475 v 9.439942 9.439942 h 0.6475 0.64751 z m 1.90843,0 v -9.439942 h -0.88606 -0.88606 v 9.439942 9.439942 h 0.88606 0.88606 z m 1.36317,0 v -9.439942 h -0.61343 -0.61342 v 9.439942 9.439942 h 0.61342 0.61343 z m 1.97659,0 v -9.439942 h -0.92013 -0.92014 v 9.439942 9.439942 h 0.92014 0.92013 z m 1.36317,0 v -9.439942 h -0.61342 -0.61343 v 9.439942 9.439942 h 0.61343 0.61342 z m 1.90844,0 v -9.439942 h -0.88606 -0.88606 v 9.439942 9.439942 h 0.88606 0.88606 z m 1.43133,0 v -9.439942 h -0.64751 -0.6475 v 9.439942 9.439942 h 0.6475 0.64751 z m 1.90843,0 v -9.439942 h -0.88606 -0.88606 v 9.439942 9.439942 h 0.88606 0.88606 z m 1.36317,0 v -9.439942 h -0.61342 -0.61343 v 9.439942 9.439942 h 0.61343 0.61342 z m 1.9766,0 v -9.439942 h -0.92014 -0.92014 v 9.439942 9.439942 h 0.92014 0.92014 z m 1.36316,0 v -9.439942 h -0.61342 -0.61343 v 9.439942 9.439942 h 0.61343 0.61342 z m 1.9766,0 v -9.439942 h -0.92014 -0.92014 v 9.439942 9.439942 h 0.92014 0.92014 z m 1.36317,0 v -9.439942 h -0.61343 -0.61342 v 9.439942 9.439942 h 0.61342 0.61343 z m 1.97659,0 v -9.439942 h -0.92014 -0.92014 v 9.439942 9.439942 h 0.92014 0.92014 z m 1.29501,0 v -9.439942 h -0.57935 -0.57934 v 9.439942 9.439942 h 0.57934 0.57935 z m 1.9766,0 v -9.439942 h -0.92014 -0.92014 v 9.439942 9.439942 h 0.92014 0.92014 z m 1.36316,0 v -9.439942 h -0.61342 -0.61343 v 9.439942 9.439942 h 0.61343 0.61342 z m 1.9766,0 v -9.439942 h -0.92014 -0.92014 v 9.439942 9.439942 h 0.92014 0.92014 z m 1.36317,0 v -9.439942 h -0.61343 -0.61342 v 9.439942 9.439942 h 0.61342 0.61343 z m 1.97659,0 v -9.439942 h -0.92014 -0.92014 v 9.439942 9.439942 h 0.92014 0.92014 z m 1.36317,0 v -9.439942 h -0.61343 -0.61342 v 9.439942 9.439942 h 0.61342 0.61343 z m 1.97659,0 v -9.439942 h -0.92013 -0.92014 v 9.439942 9.439942 h 0.92014 0.92013 z m 0.13632,-10.462318 v -0.88606 H 51.327143 13.703691 v 0.88606 0.886059 h 37.623452 37.62345 z"
       id="path1601" /><path
       style="fill:#e6e6e6;stroke-width:0.386437"
       d="m 52.555411,231.28245 v -35.55219 h 3.284713 3.284713 v 35.55219 35.55219 h -3.284713 -3.284713 z"
       id="path1678"
       transform="scale(0.26458333)" /><path
       style="fill:#e6e6e6;stroke-width:0.386437"
       d="m 65.307827,231.28245 v -35.55219 h 3.284713 3.284713 v 35.55219 35.55219 H 68.59254 65.307827 Z"
       id="path1680"
       transform="scale(0.26458333)" /><path
       style="fill:#e6e6e6;stroke-width:0.386437"
       d="m 77.673806,231.28245 v -35.55219 h 3.284713 3.284713 v 35.55219 35.55219 h -3.284713 -3.284713 z"
       id="path1682"
       transform="scale(0.26458333)" /><path
       style="fill:#e6e6e6;stroke-width:0.386437"
       d="m 90.039785,231.28245 v -35.55219 h 3.284713 3.284714 v 35.55219 35.55219 h -3.284714 -3.284713 z"
       id="path1684"
       transform="scale(0.26458333)" /><path
       style="fill:#e6e6e6;stroke-width:0.386437"
       d="m 102.7922,231.28245 v -35.55219 h 3.28471 3.28472 v 35.55219 35.55219 h -3.28472 -3.28471 z"
       id="path1686"
       transform="scale(0.26458333)" /><path
       style="fill:#e6e6e6;stroke-width:0.386437"
       d="m 115.54462,231.28245 v -35.55219 h 3.28471 3.28471 v 35.55219 35.55219 h -3.28471 -3.28471 z"
       id="path1688"
       transform="scale(0.26458333)" /><path
       style="fill:#e6e6e6;stroke-width:0.386437"
       d="m 127.9106,231.28245 v -35.55219 h 3.28471 3.28471 v 35.55219 35.55219 h -3.28471 -3.28471 z"
       id="path1690"
       transform="scale(0.26458333)" /><path
       style="fill:#e6e6e6;stroke-width:0.386437"
       d="m 140.66301,231.28245 v -35.55219 h 3.0915 3.09149 v 35.55219 35.55219 h -3.09149 -3.0915 z"
       id="path1692"
       transform="scale(0.26458333)" /><path
       style="fill:#e6e6e6;stroke-width:0.386437"
       d="m 153.02899,231.28245 v -35.55219 h 3.28471 3.28472 v 35.55219 35.55219 h -3.28472 -3.28471 z"
       id="path1694"
       transform="scale(0.26458333)" /><path
       style="fill:#e6e6e6;stroke-width:0.386437"
       d="m 165.78141,231.28245 v -35.55219 h 3.09149 3.0915 v 35.55219 35.55219 h -3.0915 -3.09149 z"
       id="path1698"
       transform="scale(0.26458333)" /><path
       style="fill:#e6e6e6;stroke-width:0.386437"
       d="m 178.14739,231.28245 v -35.55219 h 3.28471 3.28471 v 35.55219 35.55219 h -3.28471 -3.28471 z"
       id="path1700"
       transform="scale(0.26458333)" /><path
       style="fill:#e6e6e6;stroke-width:0.386437"
       d="m 190.8998,231.28245 v -35.55219 h 3.0915 3.09149 v 35.55219 35.55219 h -3.09149 -3.0915 z"
       id="path1702"
       transform="scale(0.26458333)" /><path
       style="fill:#e6e6e6;stroke-width:0.386437"
       d="m 203.26578,231.28245 v -35.55219 h 3.28471 3.28472 v 35.55219 35.55219 h -3.28472 -3.28471 z"
       id="path1704"
       transform="scale(0.26458333)" /><path
       style="fill:#e6e6e6;stroke-width:0.386437"
       d="m 215.63176,231.28245 v -35.55219 h 3.47793 3.47793 v 35.55219 35.55219 h -3.47793 -3.47793 z"
       id="path1706"
       transform="scale(0.26458333)" /><path
       style="fill:#e6e6e6;stroke-width:0.386437"
       d="m 228.38418,231.28245 v -35.55219 h 3.28471 3.28471 v 35.55219 35.55219 h -3.28471 -3.28471 z"
       id="path1708"
       transform="scale(0.26458333)" /><path
       style="fill:#e6e6e6;stroke-width:0.386437"
       d="m 241.13659,231.28245 v -35.55219 h 3.0915 3.09149 v 35.55219 35.55219 h -3.09149 -3.0915 z"
       id="path1710"
       transform="scale(0.26458333)" /><path
       style="fill:#e6e6e6;stroke-width:0.386437"
       d="m 253.50257,231.28245 v -35.55219 h 3.28471 3.28472 v 35.55219 35.55219 h -3.28472 -3.28471 z"
       id="path1712"
       transform="scale(0.26458333)" /><path
       style="fill:#e6e6e6;stroke-width:0.386437"
       d="m 265.86855,231.28245 v -35.55219 h 3.28471 3.28472 v 35.55219 35.55219 h -3.28472 -3.28471 z"
       id="path1714"
       transform="scale(0.26458333)" /><path
       style="fill:#e6e6e6;stroke-width:0.386437"
       d="m 278.62097,231.28245 v -35.55219 h 3.28471 3.28471 v 35.55219 35.55219 h -3.28471 -3.28471 z"
       id="path1716"
       transform="scale(0.26458333)" /><path
       style="fill:#e6e6e6;stroke-width:0.386437"
       d="m 290.98695,231.28245 v -35.55219 h 3.28471 3.28471 v 35.55219 35.55219 h -3.28471 -3.28471 z"
       id="path1718"
       transform="scale(0.26458333)" /><path
       style="fill:#e6e6e6;stroke-width:0.386437"
       d="m 303.73936,231.28245 v -35.55219 h 3.28471 3.28472 v 35.55219 35.55219 h -3.28472 -3.28471 z"
       id="path1720"
       transform="scale(0.26458333)" /><path
       style="fill:#e6e6e6;stroke-width:0.386437"
       d="m 316.10534,231.28245 v -35.55219 h 3.28471 3.28472 v 35.55219 35.55219 h -3.28472 -3.28471 z"
       id="path1722"
       transform="scale(0.26458333)" /><path
       style="fill:#e6e6e6;stroke-width:0.386437"
       d="m 328.85776,231.28245 v -35.55219 h 3.28471 3.28471 v 35.55219 35.55219 h -3.28471 -3.28471 z"
       id="path1724"
       transform="scale(0.26458333)" /><path
       style="fill:#e6e6e6;stroke-width:0.386437"
       d="m 52.168974,191.67268 v -3.28472 H 193.9913 335.81362 v 3.28472 3.28471 H 193.9913 52.168974 Z"
       id="path1726"
       transform="scale(0.26458333)" /><path
       style="fill:#e6e6e6;stroke-width:0.386437"
       d="m 52.168974,270.89223 v -3.28471 H 193.9913 335.81362 v 3.28471 3.28471 H 193.9913 52.168974 Z"
       id="path1728"
       transform="scale(0.26458333)" /><path
       style="fill:#e6e6e6;stroke-width:0.386437"
       d="m 70.331506,319.00362 v -3.0915 h 53.521504 53.5215 v 3.0915 3.09149 h -53.5215 -53.521504 z"
       id="path1730"
       transform="scale(0.26458333)" /><path
       style="fill:#e6e6e6;stroke-width:0.386437"
       d="m 70.717943,358.61339 v -35.35897 h 3.284713 3.284713 v 35.35897 35.35897 h -3.284713 -3.284713 z"
       id="path1732"
       transform="scale(0.26458333)" /><path
       style="fill:#e6e6e6;stroke-width:0.386437"
       d="m 83.470359,358.61339 v -35.35897 h 3.284713 3.284713 v 35.35897 35.35897 h -3.284713 -3.284713 z"
       id="path1734"
       transform="scale(0.26458333)" /><path
       style="fill:#e6e6e6;stroke-width:0.386437"
       d="m 95.836338,358.61339 v -35.35897 h 3.284713 3.284709 v 35.35897 35.35897 h -3.284709 -3.284713 z"
       id="path1736"
       transform="scale(0.26458333)" /><path
       style="fill:#e6e6e6;stroke-width:0.386437"
       d="m 108.20232,358.61339 v -35.35897 h 3.28471 3.28471 v 35.35897 35.35897 h -3.28471 -3.28471 z"
       id="path1738"
       transform="scale(0.26458333)" /><path
       style="fill:#e6e6e6;stroke-width:0.386437"
       d="m 120.95473,358.61339 v -35.35897 h 3.28472 3.28471 v 35.35897 35.35897 h -3.28471 -3.28472 z"
       id="path1740"
       transform="scale(0.26458333)" /><path
       style="fill:#e6e6e6;stroke-width:0.386437"
       d="m 133.70715,358.61339 v -35.35897 h 3.28471 3.28472 v 35.35897 35.35897 h -3.28472 -3.28471 z"
       id="path1742"
       transform="scale(0.26458333)" /><path
       style="fill:#e6e6e6;stroke-width:0.386437"
       d="m 146.07313,358.61339 v -35.35897 h 3.28471 3.28471 v 35.35897 35.35897 h -3.28471 -3.28471 z"
       id="path1744"
       transform="scale(0.26458333)" /><path
       style="fill:#e6e6e6;stroke-width:0.386437"
       d="m 158.82554,358.61339 v -35.35897 h 3.0915 3.09149 v 35.35897 35.35897 h -3.09149 -3.0915 z"
       id="path1746"
       transform="scale(0.26458333)" /><path
       style="fill:#e6e6e6;stroke-width:0.386437"
       d="m 171.19152,358.61339 v -35.35897 h 3.28472 3.28471 v 35.35897 35.35897 h -3.28471 -3.28472 z"
       id="path1748"
       transform="scale(0.26458333)" /><path
       style="fill:#e6e6e6;stroke-width:0.386437"
       d="m 70.331506,398.41639 v -3.28471 h 53.521504 53.5215 v 3.28471 3.28471 h -53.5215 -53.521504 z"
       id="path1750"
       transform="scale(0.26458333)" /><path
       style="fill:#e6e6e6;stroke-width:0.386437"
       d="m 225.67912,324.60695 v -3.28471 h 34.97253 34.97254 v 3.28471 3.28471 h -34.97254 -34.97253 z"
       id="path1752"
       transform="scale(0.26458333)" /><path
       style="fill:#e6e6e6;stroke-width:0.386437"
       d="m 226.45199,364.21673 v -35.55219 h 3.28472 3.28471 v 35.55219 35.55219 h -3.28471 -3.28472 z"
       id="path1754"
       transform="scale(0.26458333)" /><path
       style="fill:#e6e6e6;stroke-width:0.386437"
       d="m 238.81797,364.21673 v -35.55219 h 3.28471 3.28472 v 35.55219 35.55219 h -3.28472 -3.28471 z"
       id="path1756"
       transform="scale(0.26458333)" /><path
       style="fill:#e6e6e6;stroke-width:0.386437"
       d="m 251.18395,364.21673 v -35.55219 h 3.47793 3.47793 v 35.55219 35.55219 h -3.47793 -3.47793 z"
       id="path1758"
       transform="scale(0.26458333)" /><path
       style="fill:#e6e6e6;stroke-width:0.386437"
       d="m 263.93637,364.21673 v -35.55219 h 3.28471 3.28471 v 35.55219 35.55219 h -3.28471 -3.28471 z"
       id="path1760"
       transform="scale(0.26458333)" /><path
       style="fill:#e6e6e6;stroke-width:0.386437"
       d="m 276.30234,364.21673 v -35.55219 h 3.47794 3.47793 v 35.55219 35.55219 h -3.47793 -3.47794 z"
       id="path1762"
       transform="scale(0.26458333)" /><path
       style="fill:#e6e6e6;stroke-width:0.386437"
       d="m 289.05476,364.21673 v -35.55219 h 3.28471 3.28472 v 35.55219 35.55219 h -3.28472 -3.28471 z"
       id="path1764"
       transform="scale(0.26458333)" /><path
       style="fill:#e6e6e6;stroke-width:0.386437"
       d="m 225.67912,403.8265 v -3.28471 l 34.87592,-9e-4 34.87593,-9e-4 -0.125,3.28561 -0.12501,3.28562 h -34.75092 -34.75092 z"
       id="path1766"
       transform="scale(0.26458333)" /></g></svg>
